M48
; DRILL file {KiCad (5.1.4)-1} date 9/11/2019 3:03:13 AM
; FORMAT={-:-/ absolute / inch / decimal}
; #@! TF.CreationDate,2019-09-11T03:03:13-07:00
; #@! TF.GenerationSoftware,Kicad,Pcbnew,(5.1.4)-1
; #@! TF.FileFunction,Plated,1,2,PTH
FMAT,2
INCH
T1C0.0079
T2C0.0157
T3C0.0630
T4C0.1693
%
G90
G05
T1
X8.756Y-11.2746
X8.756Y-11.312
X8.756Y-11.3494
T2
X6.075Y-3.825
X6.075Y-3.925
X6.075Y-4.175
X6.075Y-4.425
X6.075Y-4.675
X6.075Y-4.925
X6.075Y-5.175
X6.075Y-5.425
X6.075Y-5.675
X6.075Y-5.925
X6.075Y-6.175
X6.075Y-6.425
X6.075Y-6.675
X6.075Y-6.925
X6.075Y-7.175
X6.075Y-7.425
X6.075Y-7.675
X6.075Y-7.925
X6.075Y-8.175
X6.075Y-8.425
X6.075Y-8.675
X6.075Y-8.925
X6.075Y-9.175
X6.075Y-9.425
X6.075Y-9.675
X6.075Y-9.925
X6.075Y-10.175
X6.075Y-10.425
X6.075Y-10.675
X6.075Y-10.925
X6.075Y-11.175
X6.075Y-11.425
X6.075Y-11.675
X6.075Y-11.925
X6.29Y-4.645
X6.29Y-5.585
X6.29Y-6.525
X6.29Y-7.465
X6.29Y-8.405
X6.29Y-9.345
X6.29Y-10.285
X6.325Y-3.825
X6.325Y-11.925
X6.55Y-4.115
X6.55Y-4.22
X6.55Y-4.325
X6.575Y-3.825
X6.575Y-11.925
X6.675Y-4.115
X6.675Y-4.22
X6.785Y-4.945
X6.8Y-4.115
X6.8Y-4.22
X6.8Y-4.325
X6.825Y-3.825
X6.825Y-11.925
X6.86Y-4.945
X6.925Y-4.13
X6.925Y-4.2
X6.94Y-4.945
X6.94Y-5.14
X6.985Y-4.13
X6.985Y-4.2
X7.035Y-4.01
X7.035Y-4.07
X7.035Y-4.26
X7.035Y-4.32
X7.065Y-4.645
X7.065Y-5.585
X7.065Y-6.525
X7.065Y-7.465
X7.065Y-8.405
X7.065Y-9.345
X7.065Y-10.285
X7.075Y-3.825
X7.075Y-11.925
X7.09Y-4.01
X7.09Y-4.07
X7.09Y-4.26
X7.09Y-4.32
X7.25Y-4.935
X7.31Y-4.935
X7.325Y-3.825
X7.325Y-11.925
X7.33Y-4.115
X7.33Y-4.22
X7.33Y-4.325
X7.365Y-4.935
X7.4Y-11.765
X7.455Y-4.115
X7.455Y-4.22
X7.54Y-4.935
X7.575Y-3.825
X7.575Y-11.925
X7.58Y-4.115
X7.58Y-4.22
X7.58Y-4.325
X7.6Y-4.935
X7.705Y-11.38
X7.72Y-5.65
X7.825Y-3.825
X7.825Y-11.925
X7.845Y-4.645
X7.845Y-5.585
X7.845Y-6.525
X7.845Y-7.465
X7.845Y-8.405
X7.845Y-9.345
X7.845Y-10.285
X7.855Y-5.255
X7.88Y-10.84
X7.925Y-11.63
X7.945Y-10.84
X7.985Y-11.38
X7.985Y-11.69
X8.075Y-3.825
X8.075Y-11.925
X8.325Y-3.825
X8.325Y-11.925
X8.34Y-10.785
X8.34Y-10.83
X8.34Y-10.88
X8.495Y-5.73
X8.54Y-11.41
X8.56Y-5.73
X8.575Y-3.825
X8.575Y-11.925
X8.625Y-4.645
X8.625Y-5.585
X8.625Y-6.525
X8.625Y-7.465
X8.625Y-8.405
X8.625Y-9.345
X8.625Y-10.285
X8.64Y-11.405
X8.65Y-11.215
X8.825Y-3.825
X8.825Y-11.925
X8.895Y-4.115
X8.895Y-4.22
X8.895Y-4.325
X9.02Y-4.115
X9.02Y-4.22
X9.075Y-3.825
X9.075Y-11.925
X9.145Y-4.115
X9.145Y-4.22
X9.145Y-4.325
X9.325Y-3.825
X9.325Y-11.925
X9.405Y-4.645
X9.405Y-5.585
X9.405Y-6.525
X9.405Y-7.465
X9.405Y-8.405
X9.405Y-9.345
X9.405Y-10.285
X9.575Y-3.825
X9.575Y-11.925
X9.825Y-3.825
X9.825Y-11.925
X10.075Y-3.825
X10.075Y-11.925
X10.185Y-4.645
X10.185Y-5.585
X10.185Y-6.525
X10.185Y-7.465
X10.185Y-8.405
X10.185Y-9.345
X10.185Y-10.285
X10.185Y-11.225
X10.325Y-3.825
X10.325Y-11.925
X10.455Y-4.115
X10.455Y-4.22
X10.455Y-4.325
X10.575Y-3.825
X10.575Y-11.925
X10.58Y-4.115
X10.58Y-4.22
X10.705Y-4.115
X10.705Y-4.22
X10.705Y-4.325
X10.825Y-3.825
X10.825Y-11.925
X10.96Y-4.645
X10.96Y-5.585
X10.96Y-6.525
X10.96Y-7.465
X10.96Y-8.405
X10.96Y-9.345
X10.96Y-10.285
X10.96Y-11.225
X11.075Y-3.825
X11.075Y-11.925
X11.325Y-3.825
X11.325Y-11.925
X11.575Y-3.825
X11.575Y-11.925
X11.745Y-4.645
X11.745Y-5.585
X11.745Y-6.525
X11.745Y-7.465
X11.745Y-8.405
X11.745Y-9.345
X11.745Y-10.285
X11.745Y-11.225
X11.825Y-3.825
X11.825Y-11.925
X12.015Y-4.115
X12.015Y-4.22
X12.015Y-4.325
X12.075Y-3.825
X12.075Y-11.925
X12.14Y-4.115
X12.14Y-4.22
X12.265Y-4.115
X12.265Y-4.22
X12.265Y-4.325
X12.325Y-3.825
X12.325Y-11.925
X12.525Y-4.645
X12.525Y-5.585
X12.525Y-6.525
X12.525Y-7.465
X12.525Y-8.405
X12.525Y-9.345
X12.525Y-10.285
X12.525Y-11.225
X12.575Y-3.825
X12.575Y-11.925
X12.825Y-3.825
X12.825Y-11.925
X13.075Y-3.825
X13.075Y-11.925
X13.315Y-4.645
X13.315Y-5.585
X13.315Y-6.525
X13.315Y-7.465
X13.315Y-8.405
X13.315Y-9.345
X13.315Y-10.285
X13.315Y-11.225
X13.325Y-3.825
X13.325Y-11.925
X13.575Y-3.825
X13.575Y-11.925
X13.58Y-4.115
X13.58Y-4.22
X13.58Y-4.325
X13.705Y-4.115
X13.705Y-4.22
X13.825Y-3.825
X13.825Y-11.925
X13.83Y-4.115
X13.83Y-4.22
X13.83Y-4.325
X14.075Y-3.825
X14.075Y-11.925
X14.105Y-4.645
X14.105Y-5.585
X14.105Y-6.525
X14.105Y-7.465
X14.105Y-8.405
X14.105Y-9.345
X14.105Y-10.285
X14.105Y-11.225
X14.325Y-3.825
X14.325Y-11.925
X14.575Y-3.825
X14.575Y-11.925
X14.825Y-3.825
X14.825Y-11.925
X14.885Y-4.645
X14.885Y-5.585
X14.885Y-6.525
X14.885Y-7.465
X14.885Y-8.405
X14.885Y-9.345
X14.885Y-10.285
X14.885Y-11.225
X15.075Y-3.825
X15.075Y-11.925
X15.14Y-4.115
X15.14Y-4.22
X15.14Y-4.325
X15.265Y-4.115
X15.265Y-4.22
X15.325Y-3.825
X15.325Y-11.925
X15.39Y-4.115
X15.39Y-4.22
X15.39Y-4.325
X15.575Y-3.825
X15.575Y-11.925
X15.665Y-4.645
X15.665Y-5.585
X15.665Y-6.525
X15.665Y-7.465
X15.665Y-8.405
X15.665Y-9.345
X15.665Y-10.285
X15.665Y-11.225
X15.825Y-3.825
X15.825Y-11.925
X16.075Y-3.825
X16.075Y-11.925
X16.325Y-3.825
X16.325Y-11.925
X16.445Y-4.645
X16.445Y-5.585
X16.445Y-6.525
X16.445Y-7.465
X16.445Y-8.405
X16.445Y-9.345
X16.445Y-10.285
X16.445Y-11.225
X16.575Y-3.825
X16.575Y-11.925
X16.7Y-4.115
X16.7Y-4.22
X16.7Y-4.325
X16.825Y-3.825
X16.825Y-4.115
X16.825Y-4.22
X16.825Y-11.925
X16.95Y-4.115
X16.95Y-4.22
X16.95Y-4.325
X17.075Y-3.825
X17.075Y-11.925
X17.235Y-4.645
X17.235Y-5.585
X17.235Y-6.525
X17.235Y-7.465
X17.235Y-8.405
X17.235Y-9.345
X17.235Y-10.285
X17.235Y-11.225
X17.325Y-3.825
X17.325Y-11.925
X17.425Y-3.825
X17.425Y-3.925
X17.425Y-4.175
X17.425Y-4.425
X17.425Y-4.675
X17.425Y-4.925
X17.425Y-5.175
X17.425Y-5.425
X17.425Y-5.675
X17.425Y-5.925
X17.425Y-6.175
X17.425Y-6.425
X17.425Y-6.675
X17.425Y-6.925
X17.425Y-7.175
X17.425Y-7.425
X17.425Y-7.675
X17.425Y-7.925
X17.425Y-8.175
X17.425Y-8.425
X17.425Y-8.675
X17.425Y-8.925
X17.425Y-9.175
X17.425Y-9.425
X17.425Y-9.675
X17.425Y-9.925
X17.425Y-10.175
X17.425Y-10.425
X17.425Y-10.675
X17.425Y-10.925
X17.425Y-11.175
X17.425Y-11.425
X17.425Y-11.675
X17.425Y-11.925
T3
X9.303Y-11.6799
X9.488Y-11.5618
X9.488Y-11.798
T4
X6.275Y-11.725
X10.175Y-8.725
X17.225Y-11.725
X6.275Y-4.025
X17.225Y-4.025
X13.325Y-11.725
X10.175Y-11.725
X13.325Y-8.725
T0
M30
