G04 #@! TF.GenerationSoftware,KiCad,Pcbnew,(5.1.4)-1*
G04 #@! TF.CreationDate,2019-09-11T03:03:15-07:00*
G04 #@! TF.ProjectId,BrightBoard1,42726967-6874-4426-9f61-7264312e6b69,rev?*
G04 #@! TF.SameCoordinates,Original*
G04 #@! TF.FileFunction,Legend,Top*
G04 #@! TF.FilePolarity,Positive*
%FSLAX46Y46*%
G04 Gerber Fmt 4.6, Leading zero omitted, Abs format (unit mm)*
G04 Created by KiCad (PCBNEW (5.1.4)-1) date 2019-09-11 03:03:15*
%MOMM*%
%LPD*%
G04 APERTURE LIST*
%ADD10C,0.150000*%
%ADD11C,0.120000*%
G04 APERTURE END LIST*
D10*
X428854994Y-113545000D02*
X428854994Y-109745000D01*
X427754994Y-113545000D02*
X428854994Y-113545000D01*
X425954994Y-113545000D02*
X426954994Y-113545000D01*
X425954994Y-109745000D02*
X425954994Y-113545000D01*
X428854994Y-109745000D02*
X425954994Y-109745000D01*
X171045000Y-113545000D02*
X171045000Y-109745000D01*
X169945000Y-113545000D02*
X171045000Y-113545000D01*
X168145000Y-113545000D02*
X169145000Y-113545000D01*
X168145000Y-109745000D02*
X168145000Y-113545000D01*
X171045000Y-109745000D02*
X168145000Y-109745000D01*
X190876538Y-113545000D02*
X190876538Y-109745000D01*
X189776538Y-113545000D02*
X190876538Y-113545000D01*
X187976538Y-113545000D02*
X188976538Y-113545000D01*
X187976538Y-109745000D02*
X187976538Y-113545000D01*
X190876538Y-109745000D02*
X187976538Y-109745000D01*
X210708076Y-113545000D02*
X210708076Y-109745000D01*
X209608076Y-113545000D02*
X210708076Y-113545000D01*
X207808076Y-113545000D02*
X208808076Y-113545000D01*
X207808076Y-109745000D02*
X207808076Y-113545000D01*
X210708076Y-109745000D02*
X207808076Y-109745000D01*
X230539614Y-113545000D02*
X230539614Y-109745000D01*
X229439614Y-113545000D02*
X230539614Y-113545000D01*
X227639614Y-113545000D02*
X228639614Y-113545000D01*
X227639614Y-109745000D02*
X227639614Y-113545000D01*
X230539614Y-109745000D02*
X227639614Y-109745000D01*
X250371152Y-113545000D02*
X250371152Y-109745000D01*
X249271152Y-113545000D02*
X250371152Y-113545000D01*
X247471152Y-113545000D02*
X248471152Y-113545000D01*
X247471152Y-109745000D02*
X247471152Y-113545000D01*
X250371152Y-109745000D02*
X247471152Y-109745000D01*
X270202690Y-113545000D02*
X270202690Y-109745000D01*
X269102690Y-113545000D02*
X270202690Y-113545000D01*
X267302690Y-113545000D02*
X268302690Y-113545000D01*
X267302690Y-109745000D02*
X267302690Y-113545000D01*
X270202690Y-109745000D02*
X267302690Y-109745000D01*
X290034228Y-113545000D02*
X290034228Y-109745000D01*
X288934228Y-113545000D02*
X290034228Y-113545000D01*
X287134228Y-113545000D02*
X288134228Y-113545000D01*
X287134228Y-109745000D02*
X287134228Y-113545000D01*
X290034228Y-109745000D02*
X287134228Y-109745000D01*
X309865766Y-113545000D02*
X309865766Y-109745000D01*
X308765766Y-113545000D02*
X309865766Y-113545000D01*
X306965766Y-113545000D02*
X307965766Y-113545000D01*
X306965766Y-109745000D02*
X306965766Y-113545000D01*
X309865766Y-109745000D02*
X306965766Y-109745000D01*
X329697304Y-113545000D02*
X329697304Y-109745000D01*
X328597304Y-113545000D02*
X329697304Y-113545000D01*
X326797304Y-113545000D02*
X327797304Y-113545000D01*
X326797304Y-109745000D02*
X326797304Y-113545000D01*
X329697304Y-109745000D02*
X326797304Y-109745000D01*
X349528842Y-113545000D02*
X349528842Y-109745000D01*
X348428842Y-113545000D02*
X349528842Y-113545000D01*
X346628842Y-113545000D02*
X347628842Y-113545000D01*
X346628842Y-109745000D02*
X346628842Y-113545000D01*
X349528842Y-109745000D02*
X346628842Y-109745000D01*
X369360380Y-113545000D02*
X369360380Y-109745000D01*
X368260380Y-113545000D02*
X369360380Y-113545000D01*
X366460380Y-113545000D02*
X367460380Y-113545000D01*
X366460380Y-109745000D02*
X366460380Y-113545000D01*
X369360380Y-109745000D02*
X366460380Y-109745000D01*
X389191918Y-113545000D02*
X389191918Y-109745000D01*
X388091918Y-113545000D02*
X389191918Y-113545000D01*
X386291918Y-113545000D02*
X387291918Y-113545000D01*
X386291918Y-109745000D02*
X386291918Y-113545000D01*
X389191918Y-109745000D02*
X386291918Y-109745000D01*
X409023456Y-113545000D02*
X409023456Y-109745000D01*
X407923456Y-113545000D02*
X409023456Y-113545000D01*
X406123456Y-113545000D02*
X407123456Y-113545000D01*
X406123456Y-109745000D02*
X406123456Y-113545000D01*
X409023456Y-109745000D02*
X406123456Y-109745000D01*
X171045000Y-138582034D02*
X171045000Y-134782034D01*
X169945000Y-138582034D02*
X171045000Y-138582034D01*
X168145000Y-138582034D02*
X169145000Y-138582034D01*
X168145000Y-134782034D02*
X168145000Y-138582034D01*
X171045000Y-134782034D02*
X168145000Y-134782034D01*
X190876538Y-138582034D02*
X190876538Y-134782034D01*
X189776538Y-138582034D02*
X190876538Y-138582034D01*
X187976538Y-138582034D02*
X188976538Y-138582034D01*
X187976538Y-134782034D02*
X187976538Y-138582034D01*
X190876538Y-134782034D02*
X187976538Y-134782034D01*
X210708076Y-138582034D02*
X210708076Y-134782034D01*
X209608076Y-138582034D02*
X210708076Y-138582034D01*
X207808076Y-138582034D02*
X208808076Y-138582034D01*
X207808076Y-134782034D02*
X207808076Y-138582034D01*
X210708076Y-134782034D02*
X207808076Y-134782034D01*
X230539614Y-138582034D02*
X230539614Y-134782034D01*
X229439614Y-138582034D02*
X230539614Y-138582034D01*
X227639614Y-138582034D02*
X228639614Y-138582034D01*
X227639614Y-134782034D02*
X227639614Y-138582034D01*
X230539614Y-134782034D02*
X227639614Y-134782034D01*
X250371152Y-138582034D02*
X250371152Y-134782034D01*
X249271152Y-138582034D02*
X250371152Y-138582034D01*
X247471152Y-138582034D02*
X248471152Y-138582034D01*
X247471152Y-134782034D02*
X247471152Y-138582034D01*
X250371152Y-134782034D02*
X247471152Y-134782034D01*
X270202690Y-138582034D02*
X270202690Y-134782034D01*
X269102690Y-138582034D02*
X270202690Y-138582034D01*
X267302690Y-138582034D02*
X268302690Y-138582034D01*
X267302690Y-134782034D02*
X267302690Y-138582034D01*
X270202690Y-134782034D02*
X267302690Y-134782034D01*
X290034228Y-138582034D02*
X290034228Y-134782034D01*
X288934228Y-138582034D02*
X290034228Y-138582034D01*
X287134228Y-138582034D02*
X288134228Y-138582034D01*
X287134228Y-134782034D02*
X287134228Y-138582034D01*
X290034228Y-134782034D02*
X287134228Y-134782034D01*
X309865766Y-138582034D02*
X309865766Y-134782034D01*
X308765766Y-138582034D02*
X309865766Y-138582034D01*
X306965766Y-138582034D02*
X307965766Y-138582034D01*
X306965766Y-134782034D02*
X306965766Y-138582034D01*
X309865766Y-134782034D02*
X306965766Y-134782034D01*
X329697304Y-138582034D02*
X329697304Y-134782034D01*
X328597304Y-138582034D02*
X329697304Y-138582034D01*
X326797304Y-138582034D02*
X327797304Y-138582034D01*
X326797304Y-134782034D02*
X326797304Y-138582034D01*
X329697304Y-134782034D02*
X326797304Y-134782034D01*
X349528842Y-138582034D02*
X349528842Y-134782034D01*
X348428842Y-138582034D02*
X349528842Y-138582034D01*
X346628842Y-138582034D02*
X347628842Y-138582034D01*
X346628842Y-134782034D02*
X346628842Y-138582034D01*
X349528842Y-134782034D02*
X346628842Y-134782034D01*
X369360380Y-138582034D02*
X369360380Y-134782034D01*
X368260380Y-138582034D02*
X369360380Y-138582034D01*
X366460380Y-138582034D02*
X367460380Y-138582034D01*
X366460380Y-134782034D02*
X366460380Y-138582034D01*
X369360380Y-134782034D02*
X366460380Y-134782034D01*
X389191918Y-138582034D02*
X389191918Y-134782034D01*
X388091918Y-138582034D02*
X389191918Y-138582034D01*
X386291918Y-138582034D02*
X387291918Y-138582034D01*
X386291918Y-134782034D02*
X386291918Y-138582034D01*
X389191918Y-134782034D02*
X386291918Y-134782034D01*
X409023456Y-138582034D02*
X409023456Y-134782034D01*
X407923456Y-138582034D02*
X409023456Y-138582034D01*
X406123456Y-138582034D02*
X407123456Y-138582034D01*
X406123456Y-134782034D02*
X406123456Y-138582034D01*
X409023456Y-134782034D02*
X406123456Y-134782034D01*
X428854994Y-138582034D02*
X428854994Y-134782034D01*
X427754994Y-138582034D02*
X428854994Y-138582034D01*
X425954994Y-138582034D02*
X426954994Y-138582034D01*
X425954994Y-134782034D02*
X425954994Y-138582034D01*
X428854994Y-134782034D02*
X425954994Y-134782034D01*
X171045000Y-163619068D02*
X171045000Y-159819068D01*
X169945000Y-163619068D02*
X171045000Y-163619068D01*
X168145000Y-163619068D02*
X169145000Y-163619068D01*
X168145000Y-159819068D02*
X168145000Y-163619068D01*
X171045000Y-159819068D02*
X168145000Y-159819068D01*
X190876538Y-163619068D02*
X190876538Y-159819068D01*
X189776538Y-163619068D02*
X190876538Y-163619068D01*
X187976538Y-163619068D02*
X188976538Y-163619068D01*
X187976538Y-159819068D02*
X187976538Y-163619068D01*
X190876538Y-159819068D02*
X187976538Y-159819068D01*
X210708076Y-163619068D02*
X210708076Y-159819068D01*
X209608076Y-163619068D02*
X210708076Y-163619068D01*
X207808076Y-163619068D02*
X208808076Y-163619068D01*
X207808076Y-159819068D02*
X207808076Y-163619068D01*
X210708076Y-159819068D02*
X207808076Y-159819068D01*
X230539614Y-163619068D02*
X230539614Y-159819068D01*
X229439614Y-163619068D02*
X230539614Y-163619068D01*
X227639614Y-163619068D02*
X228639614Y-163619068D01*
X227639614Y-159819068D02*
X227639614Y-163619068D01*
X230539614Y-159819068D02*
X227639614Y-159819068D01*
X250371152Y-163619068D02*
X250371152Y-159819068D01*
X249271152Y-163619068D02*
X250371152Y-163619068D01*
X247471152Y-163619068D02*
X248471152Y-163619068D01*
X247471152Y-159819068D02*
X247471152Y-163619068D01*
X250371152Y-159819068D02*
X247471152Y-159819068D01*
X270202690Y-163619068D02*
X270202690Y-159819068D01*
X269102690Y-163619068D02*
X270202690Y-163619068D01*
X267302690Y-163619068D02*
X268302690Y-163619068D01*
X267302690Y-159819068D02*
X267302690Y-163619068D01*
X270202690Y-159819068D02*
X267302690Y-159819068D01*
X290034228Y-163619068D02*
X290034228Y-159819068D01*
X288934228Y-163619068D02*
X290034228Y-163619068D01*
X287134228Y-163619068D02*
X288134228Y-163619068D01*
X287134228Y-159819068D02*
X287134228Y-163619068D01*
X290034228Y-159819068D02*
X287134228Y-159819068D01*
X309865766Y-163619068D02*
X309865766Y-159819068D01*
X308765766Y-163619068D02*
X309865766Y-163619068D01*
X306965766Y-163619068D02*
X307965766Y-163619068D01*
X306965766Y-159819068D02*
X306965766Y-163619068D01*
X309865766Y-159819068D02*
X306965766Y-159819068D01*
X329697304Y-163619068D02*
X329697304Y-159819068D01*
X328597304Y-163619068D02*
X329697304Y-163619068D01*
X326797304Y-163619068D02*
X327797304Y-163619068D01*
X326797304Y-159819068D02*
X326797304Y-163619068D01*
X329697304Y-159819068D02*
X326797304Y-159819068D01*
X349528842Y-163619068D02*
X349528842Y-159819068D01*
X348428842Y-163619068D02*
X349528842Y-163619068D01*
X346628842Y-163619068D02*
X347628842Y-163619068D01*
X346628842Y-159819068D02*
X346628842Y-163619068D01*
X349528842Y-159819068D02*
X346628842Y-159819068D01*
X369360380Y-163619068D02*
X369360380Y-159819068D01*
X368260380Y-163619068D02*
X369360380Y-163619068D01*
X366460380Y-163619068D02*
X367460380Y-163619068D01*
X366460380Y-159819068D02*
X366460380Y-163619068D01*
X369360380Y-159819068D02*
X366460380Y-159819068D01*
X389191918Y-163619068D02*
X389191918Y-159819068D01*
X388091918Y-163619068D02*
X389191918Y-163619068D01*
X386291918Y-163619068D02*
X387291918Y-163619068D01*
X386291918Y-159819068D02*
X386291918Y-163619068D01*
X389191918Y-159819068D02*
X386291918Y-159819068D01*
X409023456Y-163619068D02*
X409023456Y-159819068D01*
X407923456Y-163619068D02*
X409023456Y-163619068D01*
X406123456Y-163619068D02*
X407123456Y-163619068D01*
X406123456Y-159819068D02*
X406123456Y-163619068D01*
X409023456Y-159819068D02*
X406123456Y-159819068D01*
X428854994Y-163619068D02*
X428854994Y-159819068D01*
X427754994Y-163619068D02*
X428854994Y-163619068D01*
X425954994Y-163619068D02*
X426954994Y-163619068D01*
X425954994Y-159819068D02*
X425954994Y-163619068D01*
X428854994Y-159819068D02*
X425954994Y-159819068D01*
X171045000Y-188656102D02*
X171045000Y-184856102D01*
X169945000Y-188656102D02*
X171045000Y-188656102D01*
X168145000Y-188656102D02*
X169145000Y-188656102D01*
X168145000Y-184856102D02*
X168145000Y-188656102D01*
X171045000Y-184856102D02*
X168145000Y-184856102D01*
X190876538Y-188656102D02*
X190876538Y-184856102D01*
X189776538Y-188656102D02*
X190876538Y-188656102D01*
X187976538Y-188656102D02*
X188976538Y-188656102D01*
X187976538Y-184856102D02*
X187976538Y-188656102D01*
X190876538Y-184856102D02*
X187976538Y-184856102D01*
X210708076Y-188656102D02*
X210708076Y-184856102D01*
X209608076Y-188656102D02*
X210708076Y-188656102D01*
X207808076Y-188656102D02*
X208808076Y-188656102D01*
X207808076Y-184856102D02*
X207808076Y-188656102D01*
X210708076Y-184856102D02*
X207808076Y-184856102D01*
X230539614Y-188656102D02*
X230539614Y-184856102D01*
X229439614Y-188656102D02*
X230539614Y-188656102D01*
X227639614Y-188656102D02*
X228639614Y-188656102D01*
X227639614Y-184856102D02*
X227639614Y-188656102D01*
X230539614Y-184856102D02*
X227639614Y-184856102D01*
X250371152Y-188656102D02*
X250371152Y-184856102D01*
X249271152Y-188656102D02*
X250371152Y-188656102D01*
X247471152Y-188656102D02*
X248471152Y-188656102D01*
X247471152Y-184856102D02*
X247471152Y-188656102D01*
X250371152Y-184856102D02*
X247471152Y-184856102D01*
X270202690Y-188656102D02*
X270202690Y-184856102D01*
X269102690Y-188656102D02*
X270202690Y-188656102D01*
X267302690Y-188656102D02*
X268302690Y-188656102D01*
X267302690Y-184856102D02*
X267302690Y-188656102D01*
X270202690Y-184856102D02*
X267302690Y-184856102D01*
X290034228Y-188656102D02*
X290034228Y-184856102D01*
X288934228Y-188656102D02*
X290034228Y-188656102D01*
X287134228Y-188656102D02*
X288134228Y-188656102D01*
X287134228Y-184856102D02*
X287134228Y-188656102D01*
X290034228Y-184856102D02*
X287134228Y-184856102D01*
X309865766Y-188656102D02*
X309865766Y-184856102D01*
X308765766Y-188656102D02*
X309865766Y-188656102D01*
X306965766Y-188656102D02*
X307965766Y-188656102D01*
X306965766Y-184856102D02*
X306965766Y-188656102D01*
X309865766Y-184856102D02*
X306965766Y-184856102D01*
X329697304Y-188656102D02*
X329697304Y-184856102D01*
X328597304Y-188656102D02*
X329697304Y-188656102D01*
X326797304Y-188656102D02*
X327797304Y-188656102D01*
X326797304Y-184856102D02*
X326797304Y-188656102D01*
X329697304Y-184856102D02*
X326797304Y-184856102D01*
X349528842Y-188656102D02*
X349528842Y-184856102D01*
X348428842Y-188656102D02*
X349528842Y-188656102D01*
X346628842Y-188656102D02*
X347628842Y-188656102D01*
X346628842Y-184856102D02*
X346628842Y-188656102D01*
X349528842Y-184856102D02*
X346628842Y-184856102D01*
X369360380Y-188656102D02*
X369360380Y-184856102D01*
X368260380Y-188656102D02*
X369360380Y-188656102D01*
X366460380Y-188656102D02*
X367460380Y-188656102D01*
X366460380Y-184856102D02*
X366460380Y-188656102D01*
X369360380Y-184856102D02*
X366460380Y-184856102D01*
X389191918Y-188656102D02*
X389191918Y-184856102D01*
X388091918Y-188656102D02*
X389191918Y-188656102D01*
X386291918Y-188656102D02*
X387291918Y-188656102D01*
X386291918Y-184856102D02*
X386291918Y-188656102D01*
X389191918Y-184856102D02*
X386291918Y-184856102D01*
X409023456Y-188656102D02*
X409023456Y-184856102D01*
X407923456Y-188656102D02*
X409023456Y-188656102D01*
X406123456Y-188656102D02*
X407123456Y-188656102D01*
X406123456Y-184856102D02*
X406123456Y-188656102D01*
X409023456Y-184856102D02*
X406123456Y-184856102D01*
X428854994Y-188656102D02*
X428854994Y-184856102D01*
X427754994Y-188656102D02*
X428854994Y-188656102D01*
X425954994Y-188656102D02*
X426954994Y-188656102D01*
X425954994Y-184856102D02*
X425954994Y-188656102D01*
X428854994Y-184856102D02*
X425954994Y-184856102D01*
X171045000Y-213693136D02*
X171045000Y-209893136D01*
X169945000Y-213693136D02*
X171045000Y-213693136D01*
X168145000Y-213693136D02*
X169145000Y-213693136D01*
X168145000Y-209893136D02*
X168145000Y-213693136D01*
X171045000Y-209893136D02*
X168145000Y-209893136D01*
X190876538Y-213693136D02*
X190876538Y-209893136D01*
X189776538Y-213693136D02*
X190876538Y-213693136D01*
X187976538Y-213693136D02*
X188976538Y-213693136D01*
X187976538Y-209893136D02*
X187976538Y-213693136D01*
X190876538Y-209893136D02*
X187976538Y-209893136D01*
X210708076Y-213693136D02*
X210708076Y-209893136D01*
X209608076Y-213693136D02*
X210708076Y-213693136D01*
X207808076Y-213693136D02*
X208808076Y-213693136D01*
X207808076Y-209893136D02*
X207808076Y-213693136D01*
X210708076Y-209893136D02*
X207808076Y-209893136D01*
X230539614Y-213693136D02*
X230539614Y-209893136D01*
X229439614Y-213693136D02*
X230539614Y-213693136D01*
X227639614Y-213693136D02*
X228639614Y-213693136D01*
X227639614Y-209893136D02*
X227639614Y-213693136D01*
X230539614Y-209893136D02*
X227639614Y-209893136D01*
X250371152Y-213693136D02*
X250371152Y-209893136D01*
X249271152Y-213693136D02*
X250371152Y-213693136D01*
X247471152Y-213693136D02*
X248471152Y-213693136D01*
X247471152Y-209893136D02*
X247471152Y-213693136D01*
X250371152Y-209893136D02*
X247471152Y-209893136D01*
X270202690Y-213693136D02*
X270202690Y-209893136D01*
X269102690Y-213693136D02*
X270202690Y-213693136D01*
X267302690Y-213693136D02*
X268302690Y-213693136D01*
X267302690Y-209893136D02*
X267302690Y-213693136D01*
X270202690Y-209893136D02*
X267302690Y-209893136D01*
X290034228Y-213693136D02*
X290034228Y-209893136D01*
X288934228Y-213693136D02*
X290034228Y-213693136D01*
X287134228Y-213693136D02*
X288134228Y-213693136D01*
X287134228Y-209893136D02*
X287134228Y-213693136D01*
X290034228Y-209893136D02*
X287134228Y-209893136D01*
X309865766Y-213693136D02*
X309865766Y-209893136D01*
X308765766Y-213693136D02*
X309865766Y-213693136D01*
X306965766Y-213693136D02*
X307965766Y-213693136D01*
X306965766Y-209893136D02*
X306965766Y-213693136D01*
X309865766Y-209893136D02*
X306965766Y-209893136D01*
X329697304Y-213693136D02*
X329697304Y-209893136D01*
X328597304Y-213693136D02*
X329697304Y-213693136D01*
X326797304Y-213693136D02*
X327797304Y-213693136D01*
X326797304Y-209893136D02*
X326797304Y-213693136D01*
X329697304Y-209893136D02*
X326797304Y-209893136D01*
X349528842Y-213693136D02*
X349528842Y-209893136D01*
X348428842Y-213693136D02*
X349528842Y-213693136D01*
X346628842Y-213693136D02*
X347628842Y-213693136D01*
X346628842Y-209893136D02*
X346628842Y-213693136D01*
X349528842Y-209893136D02*
X346628842Y-209893136D01*
X369360380Y-213693136D02*
X369360380Y-209893136D01*
X368260380Y-213693136D02*
X369360380Y-213693136D01*
X366460380Y-213693136D02*
X367460380Y-213693136D01*
X366460380Y-209893136D02*
X366460380Y-213693136D01*
X369360380Y-209893136D02*
X366460380Y-209893136D01*
X389191918Y-213693136D02*
X389191918Y-209893136D01*
X388091918Y-213693136D02*
X389191918Y-213693136D01*
X386291918Y-213693136D02*
X387291918Y-213693136D01*
X386291918Y-209893136D02*
X386291918Y-213693136D01*
X389191918Y-209893136D02*
X386291918Y-209893136D01*
X409023456Y-213693136D02*
X409023456Y-209893136D01*
X407923456Y-213693136D02*
X409023456Y-213693136D01*
X406123456Y-213693136D02*
X407123456Y-213693136D01*
X406123456Y-209893136D02*
X406123456Y-213693136D01*
X409023456Y-209893136D02*
X406123456Y-209893136D01*
X428854994Y-213693136D02*
X428854994Y-209893136D01*
X427754994Y-213693136D02*
X428854994Y-213693136D01*
X425954994Y-213693136D02*
X426954994Y-213693136D01*
X425954994Y-209893136D02*
X425954994Y-213693136D01*
X428854994Y-209893136D02*
X425954994Y-209893136D01*
X171045000Y-238730170D02*
X171045000Y-234930170D01*
X169945000Y-238730170D02*
X171045000Y-238730170D01*
X168145000Y-238730170D02*
X169145000Y-238730170D01*
X168145000Y-234930170D02*
X168145000Y-238730170D01*
X171045000Y-234930170D02*
X168145000Y-234930170D01*
X190876538Y-238730170D02*
X190876538Y-234930170D01*
X189776538Y-238730170D02*
X190876538Y-238730170D01*
X187976538Y-238730170D02*
X188976538Y-238730170D01*
X187976538Y-234930170D02*
X187976538Y-238730170D01*
X190876538Y-234930170D02*
X187976538Y-234930170D01*
X210708076Y-238730170D02*
X210708076Y-234930170D01*
X209608076Y-238730170D02*
X210708076Y-238730170D01*
X207808076Y-238730170D02*
X208808076Y-238730170D01*
X207808076Y-234930170D02*
X207808076Y-238730170D01*
X210708076Y-234930170D02*
X207808076Y-234930170D01*
X230539614Y-238730170D02*
X230539614Y-234930170D01*
X229439614Y-238730170D02*
X230539614Y-238730170D01*
X227639614Y-238730170D02*
X228639614Y-238730170D01*
X227639614Y-234930170D02*
X227639614Y-238730170D01*
X230539614Y-234930170D02*
X227639614Y-234930170D01*
X250371152Y-238730170D02*
X250371152Y-234930170D01*
X249271152Y-238730170D02*
X250371152Y-238730170D01*
X247471152Y-238730170D02*
X248471152Y-238730170D01*
X247471152Y-234930170D02*
X247471152Y-238730170D01*
X250371152Y-234930170D02*
X247471152Y-234930170D01*
X270202690Y-238730170D02*
X270202690Y-234930170D01*
X269102690Y-238730170D02*
X270202690Y-238730170D01*
X267302690Y-238730170D02*
X268302690Y-238730170D01*
X267302690Y-234930170D02*
X267302690Y-238730170D01*
X270202690Y-234930170D02*
X267302690Y-234930170D01*
X290034228Y-238730170D02*
X290034228Y-234930170D01*
X288934228Y-238730170D02*
X290034228Y-238730170D01*
X287134228Y-238730170D02*
X288134228Y-238730170D01*
X287134228Y-234930170D02*
X287134228Y-238730170D01*
X290034228Y-234930170D02*
X287134228Y-234930170D01*
X309865766Y-238730170D02*
X309865766Y-234930170D01*
X308765766Y-238730170D02*
X309865766Y-238730170D01*
X306965766Y-238730170D02*
X307965766Y-238730170D01*
X306965766Y-234930170D02*
X306965766Y-238730170D01*
X309865766Y-234930170D02*
X306965766Y-234930170D01*
X329697304Y-238730170D02*
X329697304Y-234930170D01*
X328597304Y-238730170D02*
X329697304Y-238730170D01*
X326797304Y-238730170D02*
X327797304Y-238730170D01*
X326797304Y-234930170D02*
X326797304Y-238730170D01*
X329697304Y-234930170D02*
X326797304Y-234930170D01*
X349528842Y-238730170D02*
X349528842Y-234930170D01*
X348428842Y-238730170D02*
X349528842Y-238730170D01*
X346628842Y-238730170D02*
X347628842Y-238730170D01*
X346628842Y-234930170D02*
X346628842Y-238730170D01*
X349528842Y-234930170D02*
X346628842Y-234930170D01*
X369360380Y-238730170D02*
X369360380Y-234930170D01*
X368260380Y-238730170D02*
X369360380Y-238730170D01*
X366460380Y-238730170D02*
X367460380Y-238730170D01*
X366460380Y-234930170D02*
X366460380Y-238730170D01*
X369360380Y-234930170D02*
X366460380Y-234930170D01*
X389191918Y-238730170D02*
X389191918Y-234930170D01*
X388091918Y-238730170D02*
X389191918Y-238730170D01*
X386291918Y-238730170D02*
X387291918Y-238730170D01*
X386291918Y-234930170D02*
X386291918Y-238730170D01*
X389191918Y-234930170D02*
X386291918Y-234930170D01*
X409023456Y-238730170D02*
X409023456Y-234930170D01*
X407923456Y-238730170D02*
X409023456Y-238730170D01*
X406123456Y-238730170D02*
X407123456Y-238730170D01*
X406123456Y-234930170D02*
X406123456Y-238730170D01*
X409023456Y-234930170D02*
X406123456Y-234930170D01*
X428854994Y-238730170D02*
X428854994Y-234930170D01*
X427754994Y-238730170D02*
X428854994Y-238730170D01*
X425954994Y-238730170D02*
X426954994Y-238730170D01*
X425954994Y-234930170D02*
X425954994Y-238730170D01*
X428854994Y-234930170D02*
X425954994Y-234930170D01*
X171045000Y-263767204D02*
X171045000Y-259967204D01*
X169945000Y-263767204D02*
X171045000Y-263767204D01*
X168145000Y-263767204D02*
X169145000Y-263767204D01*
X168145000Y-259967204D02*
X168145000Y-263767204D01*
X171045000Y-259967204D02*
X168145000Y-259967204D01*
X190876538Y-263767204D02*
X190876538Y-259967204D01*
X189776538Y-263767204D02*
X190876538Y-263767204D01*
X187976538Y-263767204D02*
X188976538Y-263767204D01*
X187976538Y-259967204D02*
X187976538Y-263767204D01*
X190876538Y-259967204D02*
X187976538Y-259967204D01*
X210708076Y-263767204D02*
X210708076Y-259967204D01*
X209608076Y-263767204D02*
X210708076Y-263767204D01*
X207808076Y-263767204D02*
X208808076Y-263767204D01*
X207808076Y-259967204D02*
X207808076Y-263767204D01*
X210708076Y-259967204D02*
X207808076Y-259967204D01*
X230539614Y-263767204D02*
X230539614Y-259967204D01*
X229439614Y-263767204D02*
X230539614Y-263767204D01*
X227639614Y-263767204D02*
X228639614Y-263767204D01*
X227639614Y-259967204D02*
X227639614Y-263767204D01*
X230539614Y-259967204D02*
X227639614Y-259967204D01*
X250371152Y-263767204D02*
X250371152Y-259967204D01*
X249271152Y-263767204D02*
X250371152Y-263767204D01*
X247471152Y-263767204D02*
X248471152Y-263767204D01*
X247471152Y-259967204D02*
X247471152Y-263767204D01*
X250371152Y-259967204D02*
X247471152Y-259967204D01*
X270202690Y-263767204D02*
X270202690Y-259967204D01*
X269102690Y-263767204D02*
X270202690Y-263767204D01*
X267302690Y-263767204D02*
X268302690Y-263767204D01*
X267302690Y-259967204D02*
X267302690Y-263767204D01*
X270202690Y-259967204D02*
X267302690Y-259967204D01*
X290034228Y-263767204D02*
X290034228Y-259967204D01*
X288934228Y-263767204D02*
X290034228Y-263767204D01*
X287134228Y-263767204D02*
X288134228Y-263767204D01*
X287134228Y-259967204D02*
X287134228Y-263767204D01*
X290034228Y-259967204D02*
X287134228Y-259967204D01*
X309865766Y-263767204D02*
X309865766Y-259967204D01*
X308765766Y-263767204D02*
X309865766Y-263767204D01*
X306965766Y-263767204D02*
X307965766Y-263767204D01*
X306965766Y-259967204D02*
X306965766Y-263767204D01*
X309865766Y-259967204D02*
X306965766Y-259967204D01*
X329697304Y-263767204D02*
X329697304Y-259967204D01*
X328597304Y-263767204D02*
X329697304Y-263767204D01*
X326797304Y-263767204D02*
X327797304Y-263767204D01*
X326797304Y-259967204D02*
X326797304Y-263767204D01*
X329697304Y-259967204D02*
X326797304Y-259967204D01*
X349528842Y-263767204D02*
X349528842Y-259967204D01*
X348428842Y-263767204D02*
X349528842Y-263767204D01*
X346628842Y-263767204D02*
X347628842Y-263767204D01*
X346628842Y-259967204D02*
X346628842Y-263767204D01*
X349528842Y-259967204D02*
X346628842Y-259967204D01*
X369360380Y-263767204D02*
X369360380Y-259967204D01*
X368260380Y-263767204D02*
X369360380Y-263767204D01*
X366460380Y-263767204D02*
X367460380Y-263767204D01*
X366460380Y-259967204D02*
X366460380Y-263767204D01*
X369360380Y-259967204D02*
X366460380Y-259967204D01*
X389191918Y-263767204D02*
X389191918Y-259967204D01*
X388091918Y-263767204D02*
X389191918Y-263767204D01*
X386291918Y-263767204D02*
X387291918Y-263767204D01*
X386291918Y-259967204D02*
X386291918Y-263767204D01*
X389191918Y-259967204D02*
X386291918Y-259967204D01*
X409023456Y-263767204D02*
X409023456Y-259967204D01*
X407923456Y-263767204D02*
X409023456Y-263767204D01*
X406123456Y-263767204D02*
X407123456Y-263767204D01*
X406123456Y-259967204D02*
X406123456Y-263767204D01*
X409023456Y-259967204D02*
X406123456Y-259967204D01*
X428854994Y-263767204D02*
X428854994Y-259967204D01*
X427754994Y-263767204D02*
X428854994Y-263767204D01*
X425954994Y-263767204D02*
X426954994Y-263767204D01*
X425954994Y-259967204D02*
X425954994Y-263767204D01*
X428854994Y-259967204D02*
X425954994Y-259967204D01*
X171045000Y-288804238D02*
X171045000Y-285004238D01*
X169945000Y-288804238D02*
X171045000Y-288804238D01*
X168145000Y-288804238D02*
X169145000Y-288804238D01*
X168145000Y-285004238D02*
X168145000Y-288804238D01*
X171045000Y-285004238D02*
X168145000Y-285004238D01*
X190876538Y-288804238D02*
X190876538Y-285004238D01*
X189776538Y-288804238D02*
X190876538Y-288804238D01*
X187976538Y-288804238D02*
X188976538Y-288804238D01*
X187976538Y-285004238D02*
X187976538Y-288804238D01*
X190876538Y-285004238D02*
X187976538Y-285004238D01*
X210708076Y-288804238D02*
X210708076Y-285004238D01*
X209608076Y-288804238D02*
X210708076Y-288804238D01*
X207808076Y-288804238D02*
X208808076Y-288804238D01*
X207808076Y-285004238D02*
X207808076Y-288804238D01*
X210708076Y-285004238D02*
X207808076Y-285004238D01*
X230539614Y-288804238D02*
X230539614Y-285004238D01*
X229439614Y-288804238D02*
X230539614Y-288804238D01*
X227639614Y-288804238D02*
X228639614Y-288804238D01*
X227639614Y-285004238D02*
X227639614Y-288804238D01*
X230539614Y-285004238D02*
X227639614Y-285004238D01*
X250371152Y-288804238D02*
X250371152Y-285004238D01*
X249271152Y-288804238D02*
X250371152Y-288804238D01*
X247471152Y-288804238D02*
X248471152Y-288804238D01*
X247471152Y-285004238D02*
X247471152Y-288804238D01*
X250371152Y-285004238D02*
X247471152Y-285004238D01*
X270202690Y-288804238D02*
X270202690Y-285004238D01*
X269102690Y-288804238D02*
X270202690Y-288804238D01*
X267302690Y-288804238D02*
X268302690Y-288804238D01*
X267302690Y-285004238D02*
X267302690Y-288804238D01*
X270202690Y-285004238D02*
X267302690Y-285004238D01*
X290034228Y-288804238D02*
X290034228Y-285004238D01*
X288934228Y-288804238D02*
X290034228Y-288804238D01*
X287134228Y-288804238D02*
X288134228Y-288804238D01*
X287134228Y-285004238D02*
X287134228Y-288804238D01*
X290034228Y-285004238D02*
X287134228Y-285004238D01*
X309865766Y-288804238D02*
X309865766Y-285004238D01*
X308765766Y-288804238D02*
X309865766Y-288804238D01*
X306965766Y-288804238D02*
X307965766Y-288804238D01*
X306965766Y-285004238D02*
X306965766Y-288804238D01*
X309865766Y-285004238D02*
X306965766Y-285004238D01*
X329697304Y-288804238D02*
X329697304Y-285004238D01*
X328597304Y-288804238D02*
X329697304Y-288804238D01*
X326797304Y-288804238D02*
X327797304Y-288804238D01*
X326797304Y-285004238D02*
X326797304Y-288804238D01*
X329697304Y-285004238D02*
X326797304Y-285004238D01*
X349528842Y-288804238D02*
X349528842Y-285004238D01*
X348428842Y-288804238D02*
X349528842Y-288804238D01*
X346628842Y-288804238D02*
X347628842Y-288804238D01*
X346628842Y-285004238D02*
X346628842Y-288804238D01*
X349528842Y-285004238D02*
X346628842Y-285004238D01*
X369360380Y-288804238D02*
X369360380Y-285004238D01*
X368260380Y-288804238D02*
X369360380Y-288804238D01*
X366460380Y-288804238D02*
X367460380Y-288804238D01*
X366460380Y-285004238D02*
X366460380Y-288804238D01*
X369360380Y-285004238D02*
X366460380Y-285004238D01*
X389191918Y-288804238D02*
X389191918Y-285004238D01*
X388091918Y-288804238D02*
X389191918Y-288804238D01*
X386291918Y-288804238D02*
X387291918Y-288804238D01*
X386291918Y-285004238D02*
X386291918Y-288804238D01*
X389191918Y-285004238D02*
X386291918Y-285004238D01*
X409023456Y-288804238D02*
X409023456Y-285004238D01*
X407923456Y-288804238D02*
X409023456Y-288804238D01*
X406123456Y-288804238D02*
X407123456Y-288804238D01*
X406123456Y-285004238D02*
X406123456Y-288804238D01*
X409023456Y-285004238D02*
X406123456Y-285004238D01*
X428854994Y-288804238D02*
X428854994Y-285004238D01*
X427754994Y-288804238D02*
X428854994Y-288804238D01*
X425954994Y-288804238D02*
X426954994Y-288804238D01*
X425954994Y-285004238D02*
X425954994Y-288804238D01*
X428854994Y-285004238D02*
X425954994Y-285004238D01*
D11*
X159066000Y-108855000D02*
X160466000Y-108855000D01*
X161166000Y-109555000D02*
X161166000Y-110155000D01*
X160466000Y-110855000D02*
X159066000Y-110855000D01*
X158366000Y-110155000D02*
X158366000Y-109555000D01*
X158366000Y-109555000D02*
G75*
G02X159066000Y-108855000I700000J0D01*
G01*
X159066000Y-110855000D02*
G75*
G02X158366000Y-110155000I0J700000D01*
G01*
X161166000Y-110155000D02*
G75*
G02X160466000Y-110855000I-700000J0D01*
G01*
X160466000Y-108855000D02*
G75*
G02X161166000Y-109555000I0J-700000D01*
G01*
X179386000Y-104791000D02*
X180786000Y-104791000D01*
X181486000Y-105491000D02*
X181486000Y-106091000D01*
X180786000Y-106791000D02*
X179386000Y-106791000D01*
X178686000Y-106091000D02*
X178686000Y-105491000D01*
X178686000Y-105491000D02*
G75*
G02X179386000Y-104791000I700000J0D01*
G01*
X179386000Y-106791000D02*
G75*
G02X178686000Y-106091000I0J700000D01*
G01*
X181486000Y-106091000D02*
G75*
G02X180786000Y-106791000I-700000J0D01*
G01*
X180786000Y-104791000D02*
G75*
G02X181486000Y-105491000I0J-700000D01*
G01*
D10*
X158051666Y-293767380D02*
X158051666Y-292767380D01*
X158385000Y-293481666D01*
X158718333Y-292767380D01*
X158718333Y-293767380D01*
X159194523Y-293767380D02*
X159194523Y-292767380D01*
X159194523Y-293243571D02*
X159765952Y-293243571D01*
X159765952Y-293767380D02*
X159765952Y-292767380D01*
X160765952Y-293767380D02*
X160194523Y-293767380D01*
X160480238Y-293767380D02*
X160480238Y-292767380D01*
X160385000Y-292910238D01*
X160289761Y-293005476D01*
X160194523Y-293053095D01*
X425157374Y-112383095D02*
X424157374Y-112383095D01*
X424157374Y-112145000D01*
X424204994Y-112002142D01*
X424300232Y-111906904D01*
X424395470Y-111859285D01*
X424585946Y-111811666D01*
X424728803Y-111811666D01*
X424919279Y-111859285D01*
X425014517Y-111906904D01*
X425109755Y-112002142D01*
X425157374Y-112145000D01*
X425157374Y-112383095D01*
X425157374Y-111335476D02*
X425157374Y-111145000D01*
X425109755Y-111049761D01*
X425062136Y-111002142D01*
X424919279Y-110906904D01*
X424728803Y-110859285D01*
X424347851Y-110859285D01*
X424252613Y-110906904D01*
X424204994Y-110954523D01*
X424157374Y-111049761D01*
X424157374Y-111240238D01*
X424204994Y-111335476D01*
X424252613Y-111383095D01*
X424347851Y-111430714D01*
X424585946Y-111430714D01*
X424681184Y-111383095D01*
X424728803Y-111335476D01*
X424776422Y-111240238D01*
X424776422Y-111049761D01*
X424728803Y-110954523D01*
X424681184Y-110906904D01*
X424585946Y-110859285D01*
X167347380Y-113335476D02*
X166347380Y-113335476D01*
X166347380Y-113097380D01*
X166395000Y-112954523D01*
X166490238Y-112859285D01*
X166585476Y-112811666D01*
X166775952Y-112764047D01*
X166918809Y-112764047D01*
X167109285Y-112811666D01*
X167204523Y-112859285D01*
X167299761Y-112954523D01*
X167347380Y-113097380D01*
X167347380Y-113335476D01*
X167347380Y-111811666D02*
X167347380Y-112383095D01*
X167347380Y-112097380D02*
X166347380Y-112097380D01*
X166490238Y-112192619D01*
X166585476Y-112287857D01*
X166633095Y-112383095D01*
X167347380Y-110859285D02*
X167347380Y-111430714D01*
X167347380Y-111145000D02*
X166347380Y-111145000D01*
X166490238Y-111240238D01*
X166585476Y-111335476D01*
X166633095Y-111430714D01*
X166347380Y-110525952D02*
X166347380Y-109906904D01*
X166728333Y-110240238D01*
X166728333Y-110097380D01*
X166775952Y-110002142D01*
X166823571Y-109954523D01*
X166918809Y-109906904D01*
X167156904Y-109906904D01*
X167252142Y-109954523D01*
X167299761Y-110002142D01*
X167347380Y-110097380D01*
X167347380Y-110383095D01*
X167299761Y-110478333D01*
X167252142Y-110525952D01*
X187178918Y-113335476D02*
X186178918Y-113335476D01*
X186178918Y-113097380D01*
X186226538Y-112954523D01*
X186321776Y-112859285D01*
X186417014Y-112811666D01*
X186607490Y-112764047D01*
X186750347Y-112764047D01*
X186940823Y-112811666D01*
X187036061Y-112859285D01*
X187131299Y-112954523D01*
X187178918Y-113097380D01*
X187178918Y-113335476D01*
X187178918Y-111811666D02*
X187178918Y-112383095D01*
X187178918Y-112097380D02*
X186178918Y-112097380D01*
X186321776Y-112192619D01*
X186417014Y-112287857D01*
X186464633Y-112383095D01*
X186178918Y-111192619D02*
X186178918Y-111097380D01*
X186226538Y-111002142D01*
X186274157Y-110954523D01*
X186369395Y-110906904D01*
X186559871Y-110859285D01*
X186797966Y-110859285D01*
X186988442Y-110906904D01*
X187083680Y-110954523D01*
X187131299Y-111002142D01*
X187178918Y-111097380D01*
X187178918Y-111192619D01*
X187131299Y-111287857D01*
X187083680Y-111335476D01*
X186988442Y-111383095D01*
X186797966Y-111430714D01*
X186559871Y-111430714D01*
X186369395Y-111383095D01*
X186274157Y-111335476D01*
X186226538Y-111287857D01*
X186178918Y-111192619D01*
X186178918Y-109954523D02*
X186178918Y-110430714D01*
X186655109Y-110478333D01*
X186607490Y-110430714D01*
X186559871Y-110335476D01*
X186559871Y-110097380D01*
X186607490Y-110002142D01*
X186655109Y-109954523D01*
X186750347Y-109906904D01*
X186988442Y-109906904D01*
X187083680Y-109954523D01*
X187131299Y-110002142D01*
X187178918Y-110097380D01*
X187178918Y-110335476D01*
X187131299Y-110430714D01*
X187083680Y-110478333D01*
X207010456Y-112859285D02*
X206010456Y-112859285D01*
X206010456Y-112621190D01*
X206058076Y-112478333D01*
X206153314Y-112383095D01*
X206248552Y-112335476D01*
X206439028Y-112287857D01*
X206581885Y-112287857D01*
X206772361Y-112335476D01*
X206867599Y-112383095D01*
X206962837Y-112478333D01*
X207010456Y-112621190D01*
X207010456Y-112859285D01*
X207010456Y-111811666D02*
X207010456Y-111621190D01*
X206962837Y-111525952D01*
X206915218Y-111478333D01*
X206772361Y-111383095D01*
X206581885Y-111335476D01*
X206200933Y-111335476D01*
X206105695Y-111383095D01*
X206058076Y-111430714D01*
X206010456Y-111525952D01*
X206010456Y-111716428D01*
X206058076Y-111811666D01*
X206105695Y-111859285D01*
X206200933Y-111906904D01*
X206439028Y-111906904D01*
X206534266Y-111859285D01*
X206581885Y-111811666D01*
X206629504Y-111716428D01*
X206629504Y-111525952D01*
X206581885Y-111430714D01*
X206534266Y-111383095D01*
X206439028Y-111335476D01*
X206010456Y-111002142D02*
X206010456Y-110335476D01*
X207010456Y-110764047D01*
X226841994Y-112859285D02*
X225841994Y-112859285D01*
X225841994Y-112621190D01*
X225889614Y-112478333D01*
X225984852Y-112383095D01*
X226080090Y-112335476D01*
X226270566Y-112287857D01*
X226413423Y-112287857D01*
X226603899Y-112335476D01*
X226699137Y-112383095D01*
X226794375Y-112478333D01*
X226841994Y-112621190D01*
X226841994Y-112859285D01*
X226270566Y-111716428D02*
X226222947Y-111811666D01*
X226175328Y-111859285D01*
X226080090Y-111906904D01*
X226032471Y-111906904D01*
X225937233Y-111859285D01*
X225889614Y-111811666D01*
X225841994Y-111716428D01*
X225841994Y-111525952D01*
X225889614Y-111430714D01*
X225937233Y-111383095D01*
X226032471Y-111335476D01*
X226080090Y-111335476D01*
X226175328Y-111383095D01*
X226222947Y-111430714D01*
X226270566Y-111525952D01*
X226270566Y-111716428D01*
X226318185Y-111811666D01*
X226365804Y-111859285D01*
X226461042Y-111906904D01*
X226651518Y-111906904D01*
X226746756Y-111859285D01*
X226794375Y-111811666D01*
X226841994Y-111716428D01*
X226841994Y-111525952D01*
X226794375Y-111430714D01*
X226746756Y-111383095D01*
X226651518Y-111335476D01*
X226461042Y-111335476D01*
X226365804Y-111383095D01*
X226318185Y-111430714D01*
X226270566Y-111525952D01*
X226841994Y-110859285D02*
X226841994Y-110668809D01*
X226794375Y-110573571D01*
X226746756Y-110525952D01*
X226603899Y-110430714D01*
X226413423Y-110383095D01*
X226032471Y-110383095D01*
X225937233Y-110430714D01*
X225889614Y-110478333D01*
X225841994Y-110573571D01*
X225841994Y-110764047D01*
X225889614Y-110859285D01*
X225937233Y-110906904D01*
X226032471Y-110954523D01*
X226270566Y-110954523D01*
X226365804Y-110906904D01*
X226413423Y-110859285D01*
X226461042Y-110764047D01*
X226461042Y-110573571D01*
X226413423Y-110478333D01*
X226365804Y-110430714D01*
X226270566Y-110383095D01*
X246673532Y-112859285D02*
X245673532Y-112859285D01*
X245673532Y-112621190D01*
X245721152Y-112478333D01*
X245816390Y-112383095D01*
X245911628Y-112335476D01*
X246102104Y-112287857D01*
X246244961Y-112287857D01*
X246435437Y-112335476D01*
X246530675Y-112383095D01*
X246625913Y-112478333D01*
X246673532Y-112621190D01*
X246673532Y-112859285D01*
X246102104Y-111716428D02*
X246054485Y-111811666D01*
X246006866Y-111859285D01*
X245911628Y-111906904D01*
X245864009Y-111906904D01*
X245768771Y-111859285D01*
X245721152Y-111811666D01*
X245673532Y-111716428D01*
X245673532Y-111525952D01*
X245721152Y-111430714D01*
X245768771Y-111383095D01*
X245864009Y-111335476D01*
X245911628Y-111335476D01*
X246006866Y-111383095D01*
X246054485Y-111430714D01*
X246102104Y-111525952D01*
X246102104Y-111716428D01*
X246149723Y-111811666D01*
X246197342Y-111859285D01*
X246292580Y-111906904D01*
X246483056Y-111906904D01*
X246578294Y-111859285D01*
X246625913Y-111811666D01*
X246673532Y-111716428D01*
X246673532Y-111525952D01*
X246625913Y-111430714D01*
X246578294Y-111383095D01*
X246483056Y-111335476D01*
X246292580Y-111335476D01*
X246197342Y-111383095D01*
X246149723Y-111430714D01*
X246102104Y-111525952D01*
X246673532Y-110383095D02*
X246673532Y-110954523D01*
X246673532Y-110668809D02*
X245673532Y-110668809D01*
X245816390Y-110764047D01*
X245911628Y-110859285D01*
X245959247Y-110954523D01*
X266505070Y-112859285D02*
X265505070Y-112859285D01*
X265505070Y-112621190D01*
X265552690Y-112478333D01*
X265647928Y-112383095D01*
X265743166Y-112335476D01*
X265933642Y-112287857D01*
X266076499Y-112287857D01*
X266266975Y-112335476D01*
X266362213Y-112383095D01*
X266457451Y-112478333D01*
X266505070Y-112621190D01*
X266505070Y-112859285D01*
X265505070Y-111954523D02*
X265505070Y-111287857D01*
X266505070Y-111716428D01*
X265505070Y-111002142D02*
X265505070Y-110383095D01*
X265886023Y-110716428D01*
X265886023Y-110573571D01*
X265933642Y-110478333D01*
X265981261Y-110430714D01*
X266076499Y-110383095D01*
X266314594Y-110383095D01*
X266409832Y-110430714D01*
X266457451Y-110478333D01*
X266505070Y-110573571D01*
X266505070Y-110859285D01*
X266457451Y-110954523D01*
X266409832Y-111002142D01*
X286336608Y-112859285D02*
X285336608Y-112859285D01*
X285336608Y-112621190D01*
X285384228Y-112478333D01*
X285479466Y-112383095D01*
X285574704Y-112335476D01*
X285765180Y-112287857D01*
X285908037Y-112287857D01*
X286098513Y-112335476D01*
X286193751Y-112383095D01*
X286288989Y-112478333D01*
X286336608Y-112621190D01*
X286336608Y-112859285D01*
X285336608Y-111430714D02*
X285336608Y-111621190D01*
X285384228Y-111716428D01*
X285431847Y-111764047D01*
X285574704Y-111859285D01*
X285765180Y-111906904D01*
X286146132Y-111906904D01*
X286241370Y-111859285D01*
X286288989Y-111811666D01*
X286336608Y-111716428D01*
X286336608Y-111525952D01*
X286288989Y-111430714D01*
X286241370Y-111383095D01*
X286146132Y-111335476D01*
X285908037Y-111335476D01*
X285812799Y-111383095D01*
X285765180Y-111430714D01*
X285717561Y-111525952D01*
X285717561Y-111716428D01*
X285765180Y-111811666D01*
X285812799Y-111859285D01*
X285908037Y-111906904D01*
X285336608Y-110430714D02*
X285336608Y-110906904D01*
X285812799Y-110954523D01*
X285765180Y-110906904D01*
X285717561Y-110811666D01*
X285717561Y-110573571D01*
X285765180Y-110478333D01*
X285812799Y-110430714D01*
X285908037Y-110383095D01*
X286146132Y-110383095D01*
X286241370Y-110430714D01*
X286288989Y-110478333D01*
X286336608Y-110573571D01*
X286336608Y-110811666D01*
X286288989Y-110906904D01*
X286241370Y-110954523D01*
X306168146Y-112859285D02*
X305168146Y-112859285D01*
X305168146Y-112621190D01*
X305215766Y-112478333D01*
X305311004Y-112383095D01*
X305406242Y-112335476D01*
X305596718Y-112287857D01*
X305739575Y-112287857D01*
X305930051Y-112335476D01*
X306025289Y-112383095D01*
X306120527Y-112478333D01*
X306168146Y-112621190D01*
X306168146Y-112859285D01*
X305168146Y-111383095D02*
X305168146Y-111859285D01*
X305644337Y-111906904D01*
X305596718Y-111859285D01*
X305549099Y-111764047D01*
X305549099Y-111525952D01*
X305596718Y-111430714D01*
X305644337Y-111383095D01*
X305739575Y-111335476D01*
X305977670Y-111335476D01*
X306072908Y-111383095D01*
X306120527Y-111430714D01*
X306168146Y-111525952D01*
X306168146Y-111764047D01*
X306120527Y-111859285D01*
X306072908Y-111906904D01*
X305168146Y-111002142D02*
X305168146Y-110335476D01*
X306168146Y-110764047D01*
X325999684Y-112859285D02*
X324999684Y-112859285D01*
X324999684Y-112621190D01*
X325047304Y-112478333D01*
X325142542Y-112383095D01*
X325237780Y-112335476D01*
X325428256Y-112287857D01*
X325571113Y-112287857D01*
X325761589Y-112335476D01*
X325856827Y-112383095D01*
X325952065Y-112478333D01*
X325999684Y-112621190D01*
X325999684Y-112859285D01*
X325333018Y-111430714D02*
X325999684Y-111430714D01*
X324952065Y-111668809D02*
X325666351Y-111906904D01*
X325666351Y-111287857D01*
X325999684Y-110859285D02*
X325999684Y-110668809D01*
X325952065Y-110573571D01*
X325904446Y-110525952D01*
X325761589Y-110430714D01*
X325571113Y-110383095D01*
X325190161Y-110383095D01*
X325094923Y-110430714D01*
X325047304Y-110478333D01*
X324999684Y-110573571D01*
X324999684Y-110764047D01*
X325047304Y-110859285D01*
X325094923Y-110906904D01*
X325190161Y-110954523D01*
X325428256Y-110954523D01*
X325523494Y-110906904D01*
X325571113Y-110859285D01*
X325618732Y-110764047D01*
X325618732Y-110573571D01*
X325571113Y-110478333D01*
X325523494Y-110430714D01*
X325428256Y-110383095D01*
X345831222Y-112859285D02*
X344831222Y-112859285D01*
X344831222Y-112621190D01*
X344878842Y-112478333D01*
X344974080Y-112383095D01*
X345069318Y-112335476D01*
X345259794Y-112287857D01*
X345402651Y-112287857D01*
X345593127Y-112335476D01*
X345688365Y-112383095D01*
X345783603Y-112478333D01*
X345831222Y-112621190D01*
X345831222Y-112859285D01*
X345164556Y-111430714D02*
X345831222Y-111430714D01*
X344783603Y-111668809D02*
X345497889Y-111906904D01*
X345497889Y-111287857D01*
X345831222Y-110383095D02*
X345831222Y-110954523D01*
X345831222Y-110668809D02*
X344831222Y-110668809D01*
X344974080Y-110764047D01*
X345069318Y-110859285D01*
X345116937Y-110954523D01*
X365662760Y-112859285D02*
X364662760Y-112859285D01*
X364662760Y-112621190D01*
X364710380Y-112478333D01*
X364805618Y-112383095D01*
X364900856Y-112335476D01*
X365091332Y-112287857D01*
X365234189Y-112287857D01*
X365424665Y-112335476D01*
X365519903Y-112383095D01*
X365615141Y-112478333D01*
X365662760Y-112621190D01*
X365662760Y-112859285D01*
X364662760Y-111954523D02*
X364662760Y-111335476D01*
X365043713Y-111668809D01*
X365043713Y-111525952D01*
X365091332Y-111430714D01*
X365138951Y-111383095D01*
X365234189Y-111335476D01*
X365472284Y-111335476D01*
X365567522Y-111383095D01*
X365615141Y-111430714D01*
X365662760Y-111525952D01*
X365662760Y-111811666D01*
X365615141Y-111906904D01*
X365567522Y-111954523D01*
X364662760Y-111002142D02*
X364662760Y-110383095D01*
X365043713Y-110716428D01*
X365043713Y-110573571D01*
X365091332Y-110478333D01*
X365138951Y-110430714D01*
X365234189Y-110383095D01*
X365472284Y-110383095D01*
X365567522Y-110430714D01*
X365615141Y-110478333D01*
X365662760Y-110573571D01*
X365662760Y-110859285D01*
X365615141Y-110954523D01*
X365567522Y-111002142D01*
X385494298Y-112859285D02*
X384494298Y-112859285D01*
X384494298Y-112621190D01*
X384541918Y-112478333D01*
X384637156Y-112383095D01*
X384732394Y-112335476D01*
X384922870Y-112287857D01*
X385065727Y-112287857D01*
X385256203Y-112335476D01*
X385351441Y-112383095D01*
X385446679Y-112478333D01*
X385494298Y-112621190D01*
X385494298Y-112859285D01*
X384589537Y-111906904D02*
X384541918Y-111859285D01*
X384494298Y-111764047D01*
X384494298Y-111525952D01*
X384541918Y-111430714D01*
X384589537Y-111383095D01*
X384684775Y-111335476D01*
X384780013Y-111335476D01*
X384922870Y-111383095D01*
X385494298Y-111954523D01*
X385494298Y-111335476D01*
X384494298Y-110430714D02*
X384494298Y-110906904D01*
X384970489Y-110954523D01*
X384922870Y-110906904D01*
X384875251Y-110811666D01*
X384875251Y-110573571D01*
X384922870Y-110478333D01*
X384970489Y-110430714D01*
X385065727Y-110383095D01*
X385303822Y-110383095D01*
X385399060Y-110430714D01*
X385446679Y-110478333D01*
X385494298Y-110573571D01*
X385494298Y-110811666D01*
X385446679Y-110906904D01*
X385399060Y-110954523D01*
X405325836Y-112859285D02*
X404325836Y-112859285D01*
X404325836Y-112621190D01*
X404373456Y-112478333D01*
X404468694Y-112383095D01*
X404563932Y-112335476D01*
X404754408Y-112287857D01*
X404897265Y-112287857D01*
X405087741Y-112335476D01*
X405182979Y-112383095D01*
X405278217Y-112478333D01*
X405325836Y-112621190D01*
X405325836Y-112859285D01*
X405325836Y-111335476D02*
X405325836Y-111906904D01*
X405325836Y-111621190D02*
X404325836Y-111621190D01*
X404468694Y-111716428D01*
X404563932Y-111811666D01*
X404611551Y-111906904D01*
X404325836Y-111002142D02*
X404325836Y-110335476D01*
X405325836Y-110764047D01*
X167347380Y-138372510D02*
X166347380Y-138372510D01*
X166347380Y-138134414D01*
X166395000Y-137991557D01*
X166490238Y-137896319D01*
X166585476Y-137848700D01*
X166775952Y-137801081D01*
X166918809Y-137801081D01*
X167109285Y-137848700D01*
X167204523Y-137896319D01*
X167299761Y-137991557D01*
X167347380Y-138134414D01*
X167347380Y-138372510D01*
X167347380Y-136848700D02*
X167347380Y-137420129D01*
X167347380Y-137134414D02*
X166347380Y-137134414D01*
X166490238Y-137229653D01*
X166585476Y-137324891D01*
X166633095Y-137420129D01*
X167347380Y-135896319D02*
X167347380Y-136467748D01*
X167347380Y-136182034D02*
X166347380Y-136182034D01*
X166490238Y-136277272D01*
X166585476Y-136372510D01*
X166633095Y-136467748D01*
X166442619Y-135515367D02*
X166395000Y-135467748D01*
X166347380Y-135372510D01*
X166347380Y-135134414D01*
X166395000Y-135039176D01*
X166442619Y-134991557D01*
X166537857Y-134943938D01*
X166633095Y-134943938D01*
X166775952Y-134991557D01*
X167347380Y-135562986D01*
X167347380Y-134943938D01*
X187178918Y-138372510D02*
X186178918Y-138372510D01*
X186178918Y-138134414D01*
X186226538Y-137991557D01*
X186321776Y-137896319D01*
X186417014Y-137848700D01*
X186607490Y-137801081D01*
X186750347Y-137801081D01*
X186940823Y-137848700D01*
X187036061Y-137896319D01*
X187131299Y-137991557D01*
X187178918Y-138134414D01*
X187178918Y-138372510D01*
X187178918Y-136848700D02*
X187178918Y-137420129D01*
X187178918Y-137134414D02*
X186178918Y-137134414D01*
X186321776Y-137229653D01*
X186417014Y-137324891D01*
X186464633Y-137420129D01*
X186178918Y-136229653D02*
X186178918Y-136134414D01*
X186226538Y-136039176D01*
X186274157Y-135991557D01*
X186369395Y-135943938D01*
X186559871Y-135896319D01*
X186797966Y-135896319D01*
X186988442Y-135943938D01*
X187083680Y-135991557D01*
X187131299Y-136039176D01*
X187178918Y-136134414D01*
X187178918Y-136229653D01*
X187131299Y-136324891D01*
X187083680Y-136372510D01*
X186988442Y-136420129D01*
X186797966Y-136467748D01*
X186559871Y-136467748D01*
X186369395Y-136420129D01*
X186274157Y-136372510D01*
X186226538Y-136324891D01*
X186178918Y-136229653D01*
X186512252Y-135039176D02*
X187178918Y-135039176D01*
X186131299Y-135277272D02*
X186845585Y-135515367D01*
X186845585Y-134896319D01*
X207010456Y-137896319D02*
X206010456Y-137896319D01*
X206010456Y-137658224D01*
X206058076Y-137515367D01*
X206153314Y-137420129D01*
X206248552Y-137372510D01*
X206439028Y-137324891D01*
X206581885Y-137324891D01*
X206772361Y-137372510D01*
X206867599Y-137420129D01*
X206962837Y-137515367D01*
X207010456Y-137658224D01*
X207010456Y-137896319D01*
X207010456Y-136848700D02*
X207010456Y-136658224D01*
X206962837Y-136562986D01*
X206915218Y-136515367D01*
X206772361Y-136420129D01*
X206581885Y-136372510D01*
X206200933Y-136372510D01*
X206105695Y-136420129D01*
X206058076Y-136467748D01*
X206010456Y-136562986D01*
X206010456Y-136753462D01*
X206058076Y-136848700D01*
X206105695Y-136896319D01*
X206200933Y-136943938D01*
X206439028Y-136943938D01*
X206534266Y-136896319D01*
X206581885Y-136848700D01*
X206629504Y-136753462D01*
X206629504Y-136562986D01*
X206581885Y-136467748D01*
X206534266Y-136420129D01*
X206439028Y-136372510D01*
X206010456Y-135515367D02*
X206010456Y-135705843D01*
X206058076Y-135801081D01*
X206105695Y-135848700D01*
X206248552Y-135943938D01*
X206439028Y-135991557D01*
X206819980Y-135991557D01*
X206915218Y-135943938D01*
X206962837Y-135896319D01*
X207010456Y-135801081D01*
X207010456Y-135610605D01*
X206962837Y-135515367D01*
X206915218Y-135467748D01*
X206819980Y-135420129D01*
X206581885Y-135420129D01*
X206486647Y-135467748D01*
X206439028Y-135515367D01*
X206391409Y-135610605D01*
X206391409Y-135801081D01*
X206439028Y-135896319D01*
X206486647Y-135943938D01*
X206581885Y-135991557D01*
X226841994Y-137896319D02*
X225841994Y-137896319D01*
X225841994Y-137658224D01*
X225889614Y-137515367D01*
X225984852Y-137420129D01*
X226080090Y-137372510D01*
X226270566Y-137324891D01*
X226413423Y-137324891D01*
X226603899Y-137372510D01*
X226699137Y-137420129D01*
X226794375Y-137515367D01*
X226841994Y-137658224D01*
X226841994Y-137896319D01*
X226270566Y-136753462D02*
X226222947Y-136848700D01*
X226175328Y-136896319D01*
X226080090Y-136943938D01*
X226032471Y-136943938D01*
X225937233Y-136896319D01*
X225889614Y-136848700D01*
X225841994Y-136753462D01*
X225841994Y-136562986D01*
X225889614Y-136467748D01*
X225937233Y-136420129D01*
X226032471Y-136372510D01*
X226080090Y-136372510D01*
X226175328Y-136420129D01*
X226222947Y-136467748D01*
X226270566Y-136562986D01*
X226270566Y-136753462D01*
X226318185Y-136848700D01*
X226365804Y-136896319D01*
X226461042Y-136943938D01*
X226651518Y-136943938D01*
X226746756Y-136896319D01*
X226794375Y-136848700D01*
X226841994Y-136753462D01*
X226841994Y-136562986D01*
X226794375Y-136467748D01*
X226746756Y-136420129D01*
X226651518Y-136372510D01*
X226461042Y-136372510D01*
X226365804Y-136420129D01*
X226318185Y-136467748D01*
X226270566Y-136562986D01*
X226270566Y-135801081D02*
X226222947Y-135896319D01*
X226175328Y-135943938D01*
X226080090Y-135991557D01*
X226032471Y-135991557D01*
X225937233Y-135943938D01*
X225889614Y-135896319D01*
X225841994Y-135801081D01*
X225841994Y-135610605D01*
X225889614Y-135515367D01*
X225937233Y-135467748D01*
X226032471Y-135420129D01*
X226080090Y-135420129D01*
X226175328Y-135467748D01*
X226222947Y-135515367D01*
X226270566Y-135610605D01*
X226270566Y-135801081D01*
X226318185Y-135896319D01*
X226365804Y-135943938D01*
X226461042Y-135991557D01*
X226651518Y-135991557D01*
X226746756Y-135943938D01*
X226794375Y-135896319D01*
X226841994Y-135801081D01*
X226841994Y-135610605D01*
X226794375Y-135515367D01*
X226746756Y-135467748D01*
X226651518Y-135420129D01*
X226461042Y-135420129D01*
X226365804Y-135467748D01*
X226318185Y-135515367D01*
X226270566Y-135610605D01*
X246673532Y-137896319D02*
X245673532Y-137896319D01*
X245673532Y-137658224D01*
X245721152Y-137515367D01*
X245816390Y-137420129D01*
X245911628Y-137372510D01*
X246102104Y-137324891D01*
X246244961Y-137324891D01*
X246435437Y-137372510D01*
X246530675Y-137420129D01*
X246625913Y-137515367D01*
X246673532Y-137658224D01*
X246673532Y-137896319D01*
X246102104Y-136753462D02*
X246054485Y-136848700D01*
X246006866Y-136896319D01*
X245911628Y-136943938D01*
X245864009Y-136943938D01*
X245768771Y-136896319D01*
X245721152Y-136848700D01*
X245673532Y-136753462D01*
X245673532Y-136562986D01*
X245721152Y-136467748D01*
X245768771Y-136420129D01*
X245864009Y-136372510D01*
X245911628Y-136372510D01*
X246006866Y-136420129D01*
X246054485Y-136467748D01*
X246102104Y-136562986D01*
X246102104Y-136753462D01*
X246149723Y-136848700D01*
X246197342Y-136896319D01*
X246292580Y-136943938D01*
X246483056Y-136943938D01*
X246578294Y-136896319D01*
X246625913Y-136848700D01*
X246673532Y-136753462D01*
X246673532Y-136562986D01*
X246625913Y-136467748D01*
X246578294Y-136420129D01*
X246483056Y-136372510D01*
X246292580Y-136372510D01*
X246197342Y-136420129D01*
X246149723Y-136467748D01*
X246102104Y-136562986D01*
X245673532Y-135753462D02*
X245673532Y-135658224D01*
X245721152Y-135562986D01*
X245768771Y-135515367D01*
X245864009Y-135467748D01*
X246054485Y-135420129D01*
X246292580Y-135420129D01*
X246483056Y-135467748D01*
X246578294Y-135515367D01*
X246625913Y-135562986D01*
X246673532Y-135658224D01*
X246673532Y-135753462D01*
X246625913Y-135848700D01*
X246578294Y-135896319D01*
X246483056Y-135943938D01*
X246292580Y-135991557D01*
X246054485Y-135991557D01*
X245864009Y-135943938D01*
X245768771Y-135896319D01*
X245721152Y-135848700D01*
X245673532Y-135753462D01*
X266505070Y-137896319D02*
X265505070Y-137896319D01*
X265505070Y-137658224D01*
X265552690Y-137515367D01*
X265647928Y-137420129D01*
X265743166Y-137372510D01*
X265933642Y-137324891D01*
X266076499Y-137324891D01*
X266266975Y-137372510D01*
X266362213Y-137420129D01*
X266457451Y-137515367D01*
X266505070Y-137658224D01*
X266505070Y-137896319D01*
X265505070Y-136991557D02*
X265505070Y-136324891D01*
X266505070Y-136753462D01*
X265600309Y-135991557D02*
X265552690Y-135943938D01*
X265505070Y-135848700D01*
X265505070Y-135610605D01*
X265552690Y-135515367D01*
X265600309Y-135467748D01*
X265695547Y-135420129D01*
X265790785Y-135420129D01*
X265933642Y-135467748D01*
X266505070Y-136039176D01*
X266505070Y-135420129D01*
X286336608Y-137896319D02*
X285336608Y-137896319D01*
X285336608Y-137658224D01*
X285384228Y-137515367D01*
X285479466Y-137420129D01*
X285574704Y-137372510D01*
X285765180Y-137324891D01*
X285908037Y-137324891D01*
X286098513Y-137372510D01*
X286193751Y-137420129D01*
X286288989Y-137515367D01*
X286336608Y-137658224D01*
X286336608Y-137896319D01*
X285336608Y-136467748D02*
X285336608Y-136658224D01*
X285384228Y-136753462D01*
X285431847Y-136801081D01*
X285574704Y-136896319D01*
X285765180Y-136943938D01*
X286146132Y-136943938D01*
X286241370Y-136896319D01*
X286288989Y-136848700D01*
X286336608Y-136753462D01*
X286336608Y-136562986D01*
X286288989Y-136467748D01*
X286241370Y-136420129D01*
X286146132Y-136372510D01*
X285908037Y-136372510D01*
X285812799Y-136420129D01*
X285765180Y-136467748D01*
X285717561Y-136562986D01*
X285717561Y-136753462D01*
X285765180Y-136848700D01*
X285812799Y-136896319D01*
X285908037Y-136943938D01*
X285669942Y-135515367D02*
X286336608Y-135515367D01*
X285288989Y-135753462D02*
X286003275Y-135991557D01*
X286003275Y-135372510D01*
X306168146Y-137896319D02*
X305168146Y-137896319D01*
X305168146Y-137658224D01*
X305215766Y-137515367D01*
X305311004Y-137420129D01*
X305406242Y-137372510D01*
X305596718Y-137324891D01*
X305739575Y-137324891D01*
X305930051Y-137372510D01*
X306025289Y-137420129D01*
X306120527Y-137515367D01*
X306168146Y-137658224D01*
X306168146Y-137896319D01*
X305168146Y-136420129D02*
X305168146Y-136896319D01*
X305644337Y-136943938D01*
X305596718Y-136896319D01*
X305549099Y-136801081D01*
X305549099Y-136562986D01*
X305596718Y-136467748D01*
X305644337Y-136420129D01*
X305739575Y-136372510D01*
X305977670Y-136372510D01*
X306072908Y-136420129D01*
X306120527Y-136467748D01*
X306168146Y-136562986D01*
X306168146Y-136801081D01*
X306120527Y-136896319D01*
X306072908Y-136943938D01*
X305168146Y-135515367D02*
X305168146Y-135705843D01*
X305215766Y-135801081D01*
X305263385Y-135848700D01*
X305406242Y-135943938D01*
X305596718Y-135991557D01*
X305977670Y-135991557D01*
X306072908Y-135943938D01*
X306120527Y-135896319D01*
X306168146Y-135801081D01*
X306168146Y-135610605D01*
X306120527Y-135515367D01*
X306072908Y-135467748D01*
X305977670Y-135420129D01*
X305739575Y-135420129D01*
X305644337Y-135467748D01*
X305596718Y-135515367D01*
X305549099Y-135610605D01*
X305549099Y-135801081D01*
X305596718Y-135896319D01*
X305644337Y-135943938D01*
X305739575Y-135991557D01*
X325999684Y-137896319D02*
X324999684Y-137896319D01*
X324999684Y-137658224D01*
X325047304Y-137515367D01*
X325142542Y-137420129D01*
X325237780Y-137372510D01*
X325428256Y-137324891D01*
X325571113Y-137324891D01*
X325761589Y-137372510D01*
X325856827Y-137420129D01*
X325952065Y-137515367D01*
X325999684Y-137658224D01*
X325999684Y-137896319D01*
X325333018Y-136467748D02*
X325999684Y-136467748D01*
X324952065Y-136705843D02*
X325666351Y-136943938D01*
X325666351Y-136324891D01*
X325428256Y-135801081D02*
X325380637Y-135896319D01*
X325333018Y-135943938D01*
X325237780Y-135991557D01*
X325190161Y-135991557D01*
X325094923Y-135943938D01*
X325047304Y-135896319D01*
X324999684Y-135801081D01*
X324999684Y-135610605D01*
X325047304Y-135515367D01*
X325094923Y-135467748D01*
X325190161Y-135420129D01*
X325237780Y-135420129D01*
X325333018Y-135467748D01*
X325380637Y-135515367D01*
X325428256Y-135610605D01*
X325428256Y-135801081D01*
X325475875Y-135896319D01*
X325523494Y-135943938D01*
X325618732Y-135991557D01*
X325809208Y-135991557D01*
X325904446Y-135943938D01*
X325952065Y-135896319D01*
X325999684Y-135801081D01*
X325999684Y-135610605D01*
X325952065Y-135515367D01*
X325904446Y-135467748D01*
X325809208Y-135420129D01*
X325618732Y-135420129D01*
X325523494Y-135467748D01*
X325475875Y-135515367D01*
X325428256Y-135610605D01*
X345831222Y-137896319D02*
X344831222Y-137896319D01*
X344831222Y-137658224D01*
X344878842Y-137515367D01*
X344974080Y-137420129D01*
X345069318Y-137372510D01*
X345259794Y-137324891D01*
X345402651Y-137324891D01*
X345593127Y-137372510D01*
X345688365Y-137420129D01*
X345783603Y-137515367D01*
X345831222Y-137658224D01*
X345831222Y-137896319D01*
X345164556Y-136467748D02*
X345831222Y-136467748D01*
X344783603Y-136705843D02*
X345497889Y-136943938D01*
X345497889Y-136324891D01*
X344831222Y-135753462D02*
X344831222Y-135658224D01*
X344878842Y-135562986D01*
X344926461Y-135515367D01*
X345021699Y-135467748D01*
X345212175Y-135420129D01*
X345450270Y-135420129D01*
X345640746Y-135467748D01*
X345735984Y-135515367D01*
X345783603Y-135562986D01*
X345831222Y-135658224D01*
X345831222Y-135753462D01*
X345783603Y-135848700D01*
X345735984Y-135896319D01*
X345640746Y-135943938D01*
X345450270Y-135991557D01*
X345212175Y-135991557D01*
X345021699Y-135943938D01*
X344926461Y-135896319D01*
X344878842Y-135848700D01*
X344831222Y-135753462D01*
X365662760Y-137896319D02*
X364662760Y-137896319D01*
X364662760Y-137658224D01*
X364710380Y-137515367D01*
X364805618Y-137420129D01*
X364900856Y-137372510D01*
X365091332Y-137324891D01*
X365234189Y-137324891D01*
X365424665Y-137372510D01*
X365519903Y-137420129D01*
X365615141Y-137515367D01*
X365662760Y-137658224D01*
X365662760Y-137896319D01*
X364662760Y-136991557D02*
X364662760Y-136372510D01*
X365043713Y-136705843D01*
X365043713Y-136562986D01*
X365091332Y-136467748D01*
X365138951Y-136420129D01*
X365234189Y-136372510D01*
X365472284Y-136372510D01*
X365567522Y-136420129D01*
X365615141Y-136467748D01*
X365662760Y-136562986D01*
X365662760Y-136848700D01*
X365615141Y-136943938D01*
X365567522Y-136991557D01*
X364757999Y-135991557D02*
X364710380Y-135943938D01*
X364662760Y-135848700D01*
X364662760Y-135610605D01*
X364710380Y-135515367D01*
X364757999Y-135467748D01*
X364853237Y-135420129D01*
X364948475Y-135420129D01*
X365091332Y-135467748D01*
X365662760Y-136039176D01*
X365662760Y-135420129D01*
X385494298Y-137896319D02*
X384494298Y-137896319D01*
X384494298Y-137658224D01*
X384541918Y-137515367D01*
X384637156Y-137420129D01*
X384732394Y-137372510D01*
X384922870Y-137324891D01*
X385065727Y-137324891D01*
X385256203Y-137372510D01*
X385351441Y-137420129D01*
X385446679Y-137515367D01*
X385494298Y-137658224D01*
X385494298Y-137896319D01*
X384589537Y-136943938D02*
X384541918Y-136896319D01*
X384494298Y-136801081D01*
X384494298Y-136562986D01*
X384541918Y-136467748D01*
X384589537Y-136420129D01*
X384684775Y-136372510D01*
X384780013Y-136372510D01*
X384922870Y-136420129D01*
X385494298Y-136991557D01*
X385494298Y-136372510D01*
X384827632Y-135515367D02*
X385494298Y-135515367D01*
X384446679Y-135753462D02*
X385160965Y-135991557D01*
X385160965Y-135372510D01*
X405325836Y-137896319D02*
X404325836Y-137896319D01*
X404325836Y-137658224D01*
X404373456Y-137515367D01*
X404468694Y-137420129D01*
X404563932Y-137372510D01*
X404754408Y-137324891D01*
X404897265Y-137324891D01*
X405087741Y-137372510D01*
X405182979Y-137420129D01*
X405278217Y-137515367D01*
X405325836Y-137658224D01*
X405325836Y-137896319D01*
X405325836Y-136372510D02*
X405325836Y-136943938D01*
X405325836Y-136658224D02*
X404325836Y-136658224D01*
X404468694Y-136753462D01*
X404563932Y-136848700D01*
X404611551Y-136943938D01*
X404325836Y-135515367D02*
X404325836Y-135705843D01*
X404373456Y-135801081D01*
X404421075Y-135848700D01*
X404563932Y-135943938D01*
X404754408Y-135991557D01*
X405135360Y-135991557D01*
X405230598Y-135943938D01*
X405278217Y-135896319D01*
X405325836Y-135801081D01*
X405325836Y-135610605D01*
X405278217Y-135515367D01*
X405230598Y-135467748D01*
X405135360Y-135420129D01*
X404897265Y-135420129D01*
X404802027Y-135467748D01*
X404754408Y-135515367D01*
X404706789Y-135610605D01*
X404706789Y-135801081D01*
X404754408Y-135896319D01*
X404802027Y-135943938D01*
X404897265Y-135991557D01*
X425157374Y-137420129D02*
X424157374Y-137420129D01*
X424157374Y-137182034D01*
X424204994Y-137039176D01*
X424300232Y-136943938D01*
X424395470Y-136896319D01*
X424585946Y-136848700D01*
X424728803Y-136848700D01*
X424919279Y-136896319D01*
X425014517Y-136943938D01*
X425109755Y-137039176D01*
X425157374Y-137182034D01*
X425157374Y-137420129D01*
X424585946Y-136277272D02*
X424538327Y-136372510D01*
X424490708Y-136420129D01*
X424395470Y-136467748D01*
X424347851Y-136467748D01*
X424252613Y-136420129D01*
X424204994Y-136372510D01*
X424157374Y-136277272D01*
X424157374Y-136086795D01*
X424204994Y-135991557D01*
X424252613Y-135943938D01*
X424347851Y-135896319D01*
X424395470Y-135896319D01*
X424490708Y-135943938D01*
X424538327Y-135991557D01*
X424585946Y-136086795D01*
X424585946Y-136277272D01*
X424633565Y-136372510D01*
X424681184Y-136420129D01*
X424776422Y-136467748D01*
X424966898Y-136467748D01*
X425062136Y-136420129D01*
X425109755Y-136372510D01*
X425157374Y-136277272D01*
X425157374Y-136086795D01*
X425109755Y-135991557D01*
X425062136Y-135943938D01*
X424966898Y-135896319D01*
X424776422Y-135896319D01*
X424681184Y-135943938D01*
X424633565Y-135991557D01*
X424585946Y-136086795D01*
X167347380Y-163409544D02*
X166347380Y-163409544D01*
X166347380Y-163171448D01*
X166395000Y-163028591D01*
X166490238Y-162933353D01*
X166585476Y-162885734D01*
X166775952Y-162838115D01*
X166918809Y-162838115D01*
X167109285Y-162885734D01*
X167204523Y-162933353D01*
X167299761Y-163028591D01*
X167347380Y-163171448D01*
X167347380Y-163409544D01*
X167347380Y-161885734D02*
X167347380Y-162457163D01*
X167347380Y-162171448D02*
X166347380Y-162171448D01*
X166490238Y-162266687D01*
X166585476Y-162361925D01*
X166633095Y-162457163D01*
X167347380Y-160933353D02*
X167347380Y-161504782D01*
X167347380Y-161219068D02*
X166347380Y-161219068D01*
X166490238Y-161314306D01*
X166585476Y-161409544D01*
X166633095Y-161504782D01*
X167347380Y-159980972D02*
X167347380Y-160552401D01*
X167347380Y-160266687D02*
X166347380Y-160266687D01*
X166490238Y-160361925D01*
X166585476Y-160457163D01*
X166633095Y-160552401D01*
X187178918Y-163409544D02*
X186178918Y-163409544D01*
X186178918Y-163171448D01*
X186226538Y-163028591D01*
X186321776Y-162933353D01*
X186417014Y-162885734D01*
X186607490Y-162838115D01*
X186750347Y-162838115D01*
X186940823Y-162885734D01*
X187036061Y-162933353D01*
X187131299Y-163028591D01*
X187178918Y-163171448D01*
X187178918Y-163409544D01*
X187178918Y-161885734D02*
X187178918Y-162457163D01*
X187178918Y-162171448D02*
X186178918Y-162171448D01*
X186321776Y-162266687D01*
X186417014Y-162361925D01*
X186464633Y-162457163D01*
X186178918Y-161266687D02*
X186178918Y-161171448D01*
X186226538Y-161076210D01*
X186274157Y-161028591D01*
X186369395Y-160980972D01*
X186559871Y-160933353D01*
X186797966Y-160933353D01*
X186988442Y-160980972D01*
X187083680Y-161028591D01*
X187131299Y-161076210D01*
X187178918Y-161171448D01*
X187178918Y-161266687D01*
X187131299Y-161361925D01*
X187083680Y-161409544D01*
X186988442Y-161457163D01*
X186797966Y-161504782D01*
X186559871Y-161504782D01*
X186369395Y-161457163D01*
X186274157Y-161409544D01*
X186226538Y-161361925D01*
X186178918Y-161266687D01*
X186178918Y-160600020D02*
X186178918Y-159980972D01*
X186559871Y-160314306D01*
X186559871Y-160171448D01*
X186607490Y-160076210D01*
X186655109Y-160028591D01*
X186750347Y-159980972D01*
X186988442Y-159980972D01*
X187083680Y-160028591D01*
X187131299Y-160076210D01*
X187178918Y-160171448D01*
X187178918Y-160457163D01*
X187131299Y-160552401D01*
X187083680Y-160600020D01*
X207010456Y-162933353D02*
X206010456Y-162933353D01*
X206010456Y-162695258D01*
X206058076Y-162552401D01*
X206153314Y-162457163D01*
X206248552Y-162409544D01*
X206439028Y-162361925D01*
X206581885Y-162361925D01*
X206772361Y-162409544D01*
X206867599Y-162457163D01*
X206962837Y-162552401D01*
X207010456Y-162695258D01*
X207010456Y-162933353D01*
X207010456Y-161885734D02*
X207010456Y-161695258D01*
X206962837Y-161600020D01*
X206915218Y-161552401D01*
X206772361Y-161457163D01*
X206581885Y-161409544D01*
X206200933Y-161409544D01*
X206105695Y-161457163D01*
X206058076Y-161504782D01*
X206010456Y-161600020D01*
X206010456Y-161790496D01*
X206058076Y-161885734D01*
X206105695Y-161933353D01*
X206200933Y-161980972D01*
X206439028Y-161980972D01*
X206534266Y-161933353D01*
X206581885Y-161885734D01*
X206629504Y-161790496D01*
X206629504Y-161600020D01*
X206581885Y-161504782D01*
X206534266Y-161457163D01*
X206439028Y-161409544D01*
X206010456Y-160504782D02*
X206010456Y-160980972D01*
X206486647Y-161028591D01*
X206439028Y-160980972D01*
X206391409Y-160885734D01*
X206391409Y-160647639D01*
X206439028Y-160552401D01*
X206486647Y-160504782D01*
X206581885Y-160457163D01*
X206819980Y-160457163D01*
X206915218Y-160504782D01*
X206962837Y-160552401D01*
X207010456Y-160647639D01*
X207010456Y-160885734D01*
X206962837Y-160980972D01*
X206915218Y-161028591D01*
X226841994Y-162933353D02*
X225841994Y-162933353D01*
X225841994Y-162695258D01*
X225889614Y-162552401D01*
X225984852Y-162457163D01*
X226080090Y-162409544D01*
X226270566Y-162361925D01*
X226413423Y-162361925D01*
X226603899Y-162409544D01*
X226699137Y-162457163D01*
X226794375Y-162552401D01*
X226841994Y-162695258D01*
X226841994Y-162933353D01*
X226270566Y-161790496D02*
X226222947Y-161885734D01*
X226175328Y-161933353D01*
X226080090Y-161980972D01*
X226032471Y-161980972D01*
X225937233Y-161933353D01*
X225889614Y-161885734D01*
X225841994Y-161790496D01*
X225841994Y-161600020D01*
X225889614Y-161504782D01*
X225937233Y-161457163D01*
X226032471Y-161409544D01*
X226080090Y-161409544D01*
X226175328Y-161457163D01*
X226222947Y-161504782D01*
X226270566Y-161600020D01*
X226270566Y-161790496D01*
X226318185Y-161885734D01*
X226365804Y-161933353D01*
X226461042Y-161980972D01*
X226651518Y-161980972D01*
X226746756Y-161933353D01*
X226794375Y-161885734D01*
X226841994Y-161790496D01*
X226841994Y-161600020D01*
X226794375Y-161504782D01*
X226746756Y-161457163D01*
X226651518Y-161409544D01*
X226461042Y-161409544D01*
X226365804Y-161457163D01*
X226318185Y-161504782D01*
X226270566Y-161600020D01*
X225841994Y-161076210D02*
X225841994Y-160409544D01*
X226841994Y-160838115D01*
X246673532Y-162933353D02*
X245673532Y-162933353D01*
X245673532Y-162695258D01*
X245721152Y-162552401D01*
X245816390Y-162457163D01*
X245911628Y-162409544D01*
X246102104Y-162361925D01*
X246244961Y-162361925D01*
X246435437Y-162409544D01*
X246530675Y-162457163D01*
X246625913Y-162552401D01*
X246673532Y-162695258D01*
X246673532Y-162933353D01*
X245673532Y-162028591D02*
X245673532Y-161361925D01*
X246673532Y-161790496D01*
X246673532Y-160933353D02*
X246673532Y-160742877D01*
X246625913Y-160647639D01*
X246578294Y-160600020D01*
X246435437Y-160504782D01*
X246244961Y-160457163D01*
X245864009Y-160457163D01*
X245768771Y-160504782D01*
X245721152Y-160552401D01*
X245673532Y-160647639D01*
X245673532Y-160838115D01*
X245721152Y-160933353D01*
X245768771Y-160980972D01*
X245864009Y-161028591D01*
X246102104Y-161028591D01*
X246197342Y-160980972D01*
X246244961Y-160933353D01*
X246292580Y-160838115D01*
X246292580Y-160647639D01*
X246244961Y-160552401D01*
X246197342Y-160504782D01*
X246102104Y-160457163D01*
X266505070Y-162933353D02*
X265505070Y-162933353D01*
X265505070Y-162695258D01*
X265552690Y-162552401D01*
X265647928Y-162457163D01*
X265743166Y-162409544D01*
X265933642Y-162361925D01*
X266076499Y-162361925D01*
X266266975Y-162409544D01*
X266362213Y-162457163D01*
X266457451Y-162552401D01*
X266505070Y-162695258D01*
X266505070Y-162933353D01*
X265505070Y-162028591D02*
X265505070Y-161361925D01*
X266505070Y-161790496D01*
X266505070Y-160457163D02*
X266505070Y-161028591D01*
X266505070Y-160742877D02*
X265505070Y-160742877D01*
X265647928Y-160838115D01*
X265743166Y-160933353D01*
X265790785Y-161028591D01*
X286336608Y-162933353D02*
X285336608Y-162933353D01*
X285336608Y-162695258D01*
X285384228Y-162552401D01*
X285479466Y-162457163D01*
X285574704Y-162409544D01*
X285765180Y-162361925D01*
X285908037Y-162361925D01*
X286098513Y-162409544D01*
X286193751Y-162457163D01*
X286288989Y-162552401D01*
X286336608Y-162695258D01*
X286336608Y-162933353D01*
X285336608Y-161504782D02*
X285336608Y-161695258D01*
X285384228Y-161790496D01*
X285431847Y-161838115D01*
X285574704Y-161933353D01*
X285765180Y-161980972D01*
X286146132Y-161980972D01*
X286241370Y-161933353D01*
X286288989Y-161885734D01*
X286336608Y-161790496D01*
X286336608Y-161600020D01*
X286288989Y-161504782D01*
X286241370Y-161457163D01*
X286146132Y-161409544D01*
X285908037Y-161409544D01*
X285812799Y-161457163D01*
X285765180Y-161504782D01*
X285717561Y-161600020D01*
X285717561Y-161790496D01*
X285765180Y-161885734D01*
X285812799Y-161933353D01*
X285908037Y-161980972D01*
X285336608Y-161076210D02*
X285336608Y-160457163D01*
X285717561Y-160790496D01*
X285717561Y-160647639D01*
X285765180Y-160552401D01*
X285812799Y-160504782D01*
X285908037Y-160457163D01*
X286146132Y-160457163D01*
X286241370Y-160504782D01*
X286288989Y-160552401D01*
X286336608Y-160647639D01*
X286336608Y-160933353D01*
X286288989Y-161028591D01*
X286241370Y-161076210D01*
X306168146Y-162933353D02*
X305168146Y-162933353D01*
X305168146Y-162695258D01*
X305215766Y-162552401D01*
X305311004Y-162457163D01*
X305406242Y-162409544D01*
X305596718Y-162361925D01*
X305739575Y-162361925D01*
X305930051Y-162409544D01*
X306025289Y-162457163D01*
X306120527Y-162552401D01*
X306168146Y-162695258D01*
X306168146Y-162933353D01*
X305168146Y-161457163D02*
X305168146Y-161933353D01*
X305644337Y-161980972D01*
X305596718Y-161933353D01*
X305549099Y-161838115D01*
X305549099Y-161600020D01*
X305596718Y-161504782D01*
X305644337Y-161457163D01*
X305739575Y-161409544D01*
X305977670Y-161409544D01*
X306072908Y-161457163D01*
X306120527Y-161504782D01*
X306168146Y-161600020D01*
X306168146Y-161838115D01*
X306120527Y-161933353D01*
X306072908Y-161980972D01*
X305168146Y-160504782D02*
X305168146Y-160980972D01*
X305644337Y-161028591D01*
X305596718Y-160980972D01*
X305549099Y-160885734D01*
X305549099Y-160647639D01*
X305596718Y-160552401D01*
X305644337Y-160504782D01*
X305739575Y-160457163D01*
X305977670Y-160457163D01*
X306072908Y-160504782D01*
X306120527Y-160552401D01*
X306168146Y-160647639D01*
X306168146Y-160885734D01*
X306120527Y-160980972D01*
X306072908Y-161028591D01*
X325999684Y-162933353D02*
X324999684Y-162933353D01*
X324999684Y-162695258D01*
X325047304Y-162552401D01*
X325142542Y-162457163D01*
X325237780Y-162409544D01*
X325428256Y-162361925D01*
X325571113Y-162361925D01*
X325761589Y-162409544D01*
X325856827Y-162457163D01*
X325952065Y-162552401D01*
X325999684Y-162695258D01*
X325999684Y-162933353D01*
X325333018Y-161504782D02*
X325999684Y-161504782D01*
X324952065Y-161742877D02*
X325666351Y-161980972D01*
X325666351Y-161361925D01*
X324999684Y-161076210D02*
X324999684Y-160409544D01*
X325999684Y-160838115D01*
X345831222Y-162933353D02*
X344831222Y-162933353D01*
X344831222Y-162695258D01*
X344878842Y-162552401D01*
X344974080Y-162457163D01*
X345069318Y-162409544D01*
X345259794Y-162361925D01*
X345402651Y-162361925D01*
X345593127Y-162409544D01*
X345688365Y-162457163D01*
X345783603Y-162552401D01*
X345831222Y-162695258D01*
X345831222Y-162933353D01*
X344831222Y-162028591D02*
X344831222Y-161409544D01*
X345212175Y-161742877D01*
X345212175Y-161600020D01*
X345259794Y-161504782D01*
X345307413Y-161457163D01*
X345402651Y-161409544D01*
X345640746Y-161409544D01*
X345735984Y-161457163D01*
X345783603Y-161504782D01*
X345831222Y-161600020D01*
X345831222Y-161885734D01*
X345783603Y-161980972D01*
X345735984Y-162028591D01*
X345831222Y-160933353D02*
X345831222Y-160742877D01*
X345783603Y-160647639D01*
X345735984Y-160600020D01*
X345593127Y-160504782D01*
X345402651Y-160457163D01*
X345021699Y-160457163D01*
X344926461Y-160504782D01*
X344878842Y-160552401D01*
X344831222Y-160647639D01*
X344831222Y-160838115D01*
X344878842Y-160933353D01*
X344926461Y-160980972D01*
X345021699Y-161028591D01*
X345259794Y-161028591D01*
X345355032Y-160980972D01*
X345402651Y-160933353D01*
X345450270Y-160838115D01*
X345450270Y-160647639D01*
X345402651Y-160552401D01*
X345355032Y-160504782D01*
X345259794Y-160457163D01*
X365662760Y-162933353D02*
X364662760Y-162933353D01*
X364662760Y-162695258D01*
X364710380Y-162552401D01*
X364805618Y-162457163D01*
X364900856Y-162409544D01*
X365091332Y-162361925D01*
X365234189Y-162361925D01*
X365424665Y-162409544D01*
X365519903Y-162457163D01*
X365615141Y-162552401D01*
X365662760Y-162695258D01*
X365662760Y-162933353D01*
X364662760Y-162028591D02*
X364662760Y-161409544D01*
X365043713Y-161742877D01*
X365043713Y-161600020D01*
X365091332Y-161504782D01*
X365138951Y-161457163D01*
X365234189Y-161409544D01*
X365472284Y-161409544D01*
X365567522Y-161457163D01*
X365615141Y-161504782D01*
X365662760Y-161600020D01*
X365662760Y-161885734D01*
X365615141Y-161980972D01*
X365567522Y-162028591D01*
X365662760Y-160457163D02*
X365662760Y-161028591D01*
X365662760Y-160742877D02*
X364662760Y-160742877D01*
X364805618Y-160838115D01*
X364900856Y-160933353D01*
X364948475Y-161028591D01*
X385494298Y-162933353D02*
X384494298Y-162933353D01*
X384494298Y-162695258D01*
X384541918Y-162552401D01*
X384637156Y-162457163D01*
X384732394Y-162409544D01*
X384922870Y-162361925D01*
X385065727Y-162361925D01*
X385256203Y-162409544D01*
X385351441Y-162457163D01*
X385446679Y-162552401D01*
X385494298Y-162695258D01*
X385494298Y-162933353D01*
X384589537Y-161980972D02*
X384541918Y-161933353D01*
X384494298Y-161838115D01*
X384494298Y-161600020D01*
X384541918Y-161504782D01*
X384589537Y-161457163D01*
X384684775Y-161409544D01*
X384780013Y-161409544D01*
X384922870Y-161457163D01*
X385494298Y-162028591D01*
X385494298Y-161409544D01*
X384494298Y-161076210D02*
X384494298Y-160457163D01*
X384875251Y-160790496D01*
X384875251Y-160647639D01*
X384922870Y-160552401D01*
X384970489Y-160504782D01*
X385065727Y-160457163D01*
X385303822Y-160457163D01*
X385399060Y-160504782D01*
X385446679Y-160552401D01*
X385494298Y-160647639D01*
X385494298Y-160933353D01*
X385446679Y-161028591D01*
X385399060Y-161076210D01*
X405325836Y-162933353D02*
X404325836Y-162933353D01*
X404325836Y-162695258D01*
X404373456Y-162552401D01*
X404468694Y-162457163D01*
X404563932Y-162409544D01*
X404754408Y-162361925D01*
X404897265Y-162361925D01*
X405087741Y-162409544D01*
X405182979Y-162457163D01*
X405278217Y-162552401D01*
X405325836Y-162695258D01*
X405325836Y-162933353D01*
X405325836Y-161409544D02*
X405325836Y-161980972D01*
X405325836Y-161695258D02*
X404325836Y-161695258D01*
X404468694Y-161790496D01*
X404563932Y-161885734D01*
X404611551Y-161980972D01*
X404325836Y-160504782D02*
X404325836Y-160980972D01*
X404802027Y-161028591D01*
X404754408Y-160980972D01*
X404706789Y-160885734D01*
X404706789Y-160647639D01*
X404754408Y-160552401D01*
X404802027Y-160504782D01*
X404897265Y-160457163D01*
X405135360Y-160457163D01*
X405230598Y-160504782D01*
X405278217Y-160552401D01*
X405325836Y-160647639D01*
X405325836Y-160885734D01*
X405278217Y-160980972D01*
X405230598Y-161028591D01*
X425157374Y-162457163D02*
X424157374Y-162457163D01*
X424157374Y-162219068D01*
X424204994Y-162076210D01*
X424300232Y-161980972D01*
X424395470Y-161933353D01*
X424585946Y-161885734D01*
X424728803Y-161885734D01*
X424919279Y-161933353D01*
X425014517Y-161980972D01*
X425109755Y-162076210D01*
X425157374Y-162219068D01*
X425157374Y-162457163D01*
X424157374Y-161552401D02*
X424157374Y-160885734D01*
X425157374Y-161314306D01*
X167347380Y-188446578D02*
X166347380Y-188446578D01*
X166347380Y-188208482D01*
X166395000Y-188065625D01*
X166490238Y-187970387D01*
X166585476Y-187922768D01*
X166775952Y-187875149D01*
X166918809Y-187875149D01*
X167109285Y-187922768D01*
X167204523Y-187970387D01*
X167299761Y-188065625D01*
X167347380Y-188208482D01*
X167347380Y-188446578D01*
X167347380Y-186922768D02*
X167347380Y-187494197D01*
X167347380Y-187208482D02*
X166347380Y-187208482D01*
X166490238Y-187303721D01*
X166585476Y-187398959D01*
X166633095Y-187494197D01*
X167347380Y-185970387D02*
X167347380Y-186541816D01*
X167347380Y-186256102D02*
X166347380Y-186256102D01*
X166490238Y-186351340D01*
X166585476Y-186446578D01*
X166633095Y-186541816D01*
X166347380Y-185351340D02*
X166347380Y-185256102D01*
X166395000Y-185160863D01*
X166442619Y-185113244D01*
X166537857Y-185065625D01*
X166728333Y-185018006D01*
X166966428Y-185018006D01*
X167156904Y-185065625D01*
X167252142Y-185113244D01*
X167299761Y-185160863D01*
X167347380Y-185256102D01*
X167347380Y-185351340D01*
X167299761Y-185446578D01*
X167252142Y-185494197D01*
X167156904Y-185541816D01*
X166966428Y-185589435D01*
X166728333Y-185589435D01*
X166537857Y-185541816D01*
X166442619Y-185494197D01*
X166395000Y-185446578D01*
X166347380Y-185351340D01*
X187178918Y-188446578D02*
X186178918Y-188446578D01*
X186178918Y-188208482D01*
X186226538Y-188065625D01*
X186321776Y-187970387D01*
X186417014Y-187922768D01*
X186607490Y-187875149D01*
X186750347Y-187875149D01*
X186940823Y-187922768D01*
X187036061Y-187970387D01*
X187131299Y-188065625D01*
X187178918Y-188208482D01*
X187178918Y-188446578D01*
X187178918Y-186922768D02*
X187178918Y-187494197D01*
X187178918Y-187208482D02*
X186178918Y-187208482D01*
X186321776Y-187303721D01*
X186417014Y-187398959D01*
X186464633Y-187494197D01*
X186178918Y-186303721D02*
X186178918Y-186208482D01*
X186226538Y-186113244D01*
X186274157Y-186065625D01*
X186369395Y-186018006D01*
X186559871Y-185970387D01*
X186797966Y-185970387D01*
X186988442Y-186018006D01*
X187083680Y-186065625D01*
X187131299Y-186113244D01*
X187178918Y-186208482D01*
X187178918Y-186303721D01*
X187131299Y-186398959D01*
X187083680Y-186446578D01*
X186988442Y-186494197D01*
X186797966Y-186541816D01*
X186559871Y-186541816D01*
X186369395Y-186494197D01*
X186274157Y-186446578D01*
X186226538Y-186398959D01*
X186178918Y-186303721D01*
X186274157Y-185589435D02*
X186226538Y-185541816D01*
X186178918Y-185446578D01*
X186178918Y-185208482D01*
X186226538Y-185113244D01*
X186274157Y-185065625D01*
X186369395Y-185018006D01*
X186464633Y-185018006D01*
X186607490Y-185065625D01*
X187178918Y-185637054D01*
X187178918Y-185018006D01*
X207010456Y-187970387D02*
X206010456Y-187970387D01*
X206010456Y-187732292D01*
X206058076Y-187589435D01*
X206153314Y-187494197D01*
X206248552Y-187446578D01*
X206439028Y-187398959D01*
X206581885Y-187398959D01*
X206772361Y-187446578D01*
X206867599Y-187494197D01*
X206962837Y-187589435D01*
X207010456Y-187732292D01*
X207010456Y-187970387D01*
X207010456Y-186922768D02*
X207010456Y-186732292D01*
X206962837Y-186637054D01*
X206915218Y-186589435D01*
X206772361Y-186494197D01*
X206581885Y-186446578D01*
X206200933Y-186446578D01*
X206105695Y-186494197D01*
X206058076Y-186541816D01*
X206010456Y-186637054D01*
X206010456Y-186827530D01*
X206058076Y-186922768D01*
X206105695Y-186970387D01*
X206200933Y-187018006D01*
X206439028Y-187018006D01*
X206534266Y-186970387D01*
X206581885Y-186922768D01*
X206629504Y-186827530D01*
X206629504Y-186637054D01*
X206581885Y-186541816D01*
X206534266Y-186494197D01*
X206439028Y-186446578D01*
X206343790Y-185589435D02*
X207010456Y-185589435D01*
X205962837Y-185827530D02*
X206677123Y-186065625D01*
X206677123Y-185446578D01*
X226841994Y-187970387D02*
X225841994Y-187970387D01*
X225841994Y-187732292D01*
X225889614Y-187589435D01*
X225984852Y-187494197D01*
X226080090Y-187446578D01*
X226270566Y-187398959D01*
X226413423Y-187398959D01*
X226603899Y-187446578D01*
X226699137Y-187494197D01*
X226794375Y-187589435D01*
X226841994Y-187732292D01*
X226841994Y-187970387D01*
X226270566Y-186827530D02*
X226222947Y-186922768D01*
X226175328Y-186970387D01*
X226080090Y-187018006D01*
X226032471Y-187018006D01*
X225937233Y-186970387D01*
X225889614Y-186922768D01*
X225841994Y-186827530D01*
X225841994Y-186637054D01*
X225889614Y-186541816D01*
X225937233Y-186494197D01*
X226032471Y-186446578D01*
X226080090Y-186446578D01*
X226175328Y-186494197D01*
X226222947Y-186541816D01*
X226270566Y-186637054D01*
X226270566Y-186827530D01*
X226318185Y-186922768D01*
X226365804Y-186970387D01*
X226461042Y-187018006D01*
X226651518Y-187018006D01*
X226746756Y-186970387D01*
X226794375Y-186922768D01*
X226841994Y-186827530D01*
X226841994Y-186637054D01*
X226794375Y-186541816D01*
X226746756Y-186494197D01*
X226651518Y-186446578D01*
X226461042Y-186446578D01*
X226365804Y-186494197D01*
X226318185Y-186541816D01*
X226270566Y-186637054D01*
X225841994Y-185589435D02*
X225841994Y-185779911D01*
X225889614Y-185875149D01*
X225937233Y-185922768D01*
X226080090Y-186018006D01*
X226270566Y-186065625D01*
X226651518Y-186065625D01*
X226746756Y-186018006D01*
X226794375Y-185970387D01*
X226841994Y-185875149D01*
X226841994Y-185684673D01*
X226794375Y-185589435D01*
X226746756Y-185541816D01*
X226651518Y-185494197D01*
X226413423Y-185494197D01*
X226318185Y-185541816D01*
X226270566Y-185589435D01*
X226222947Y-185684673D01*
X226222947Y-185875149D01*
X226270566Y-185970387D01*
X226318185Y-186018006D01*
X226413423Y-186065625D01*
X246673532Y-187970387D02*
X245673532Y-187970387D01*
X245673532Y-187732292D01*
X245721152Y-187589435D01*
X245816390Y-187494197D01*
X245911628Y-187446578D01*
X246102104Y-187398959D01*
X246244961Y-187398959D01*
X246435437Y-187446578D01*
X246530675Y-187494197D01*
X246625913Y-187589435D01*
X246673532Y-187732292D01*
X246673532Y-187970387D01*
X245673532Y-187065625D02*
X245673532Y-186398959D01*
X246673532Y-186827530D01*
X246102104Y-185875149D02*
X246054485Y-185970387D01*
X246006866Y-186018006D01*
X245911628Y-186065625D01*
X245864009Y-186065625D01*
X245768771Y-186018006D01*
X245721152Y-185970387D01*
X245673532Y-185875149D01*
X245673532Y-185684673D01*
X245721152Y-185589435D01*
X245768771Y-185541816D01*
X245864009Y-185494197D01*
X245911628Y-185494197D01*
X246006866Y-185541816D01*
X246054485Y-185589435D01*
X246102104Y-185684673D01*
X246102104Y-185875149D01*
X246149723Y-185970387D01*
X246197342Y-186018006D01*
X246292580Y-186065625D01*
X246483056Y-186065625D01*
X246578294Y-186018006D01*
X246625913Y-185970387D01*
X246673532Y-185875149D01*
X246673532Y-185684673D01*
X246625913Y-185589435D01*
X246578294Y-185541816D01*
X246483056Y-185494197D01*
X246292580Y-185494197D01*
X246197342Y-185541816D01*
X246149723Y-185589435D01*
X246102104Y-185684673D01*
X266505070Y-187970387D02*
X265505070Y-187970387D01*
X265505070Y-187732292D01*
X265552690Y-187589435D01*
X265647928Y-187494197D01*
X265743166Y-187446578D01*
X265933642Y-187398959D01*
X266076499Y-187398959D01*
X266266975Y-187446578D01*
X266362213Y-187494197D01*
X266457451Y-187589435D01*
X266505070Y-187732292D01*
X266505070Y-187970387D01*
X265505070Y-187065625D02*
X265505070Y-186398959D01*
X266505070Y-186827530D01*
X265505070Y-185827530D02*
X265505070Y-185732292D01*
X265552690Y-185637054D01*
X265600309Y-185589435D01*
X265695547Y-185541816D01*
X265886023Y-185494197D01*
X266124118Y-185494197D01*
X266314594Y-185541816D01*
X266409832Y-185589435D01*
X266457451Y-185637054D01*
X266505070Y-185732292D01*
X266505070Y-185827530D01*
X266457451Y-185922768D01*
X266409832Y-185970387D01*
X266314594Y-186018006D01*
X266124118Y-186065625D01*
X265886023Y-186065625D01*
X265695547Y-186018006D01*
X265600309Y-185970387D01*
X265552690Y-185922768D01*
X265505070Y-185827530D01*
X286336608Y-187970387D02*
X285336608Y-187970387D01*
X285336608Y-187732292D01*
X285384228Y-187589435D01*
X285479466Y-187494197D01*
X285574704Y-187446578D01*
X285765180Y-187398959D01*
X285908037Y-187398959D01*
X286098513Y-187446578D01*
X286193751Y-187494197D01*
X286288989Y-187589435D01*
X286336608Y-187732292D01*
X286336608Y-187970387D01*
X285336608Y-186541816D02*
X285336608Y-186732292D01*
X285384228Y-186827530D01*
X285431847Y-186875149D01*
X285574704Y-186970387D01*
X285765180Y-187018006D01*
X286146132Y-187018006D01*
X286241370Y-186970387D01*
X286288989Y-186922768D01*
X286336608Y-186827530D01*
X286336608Y-186637054D01*
X286288989Y-186541816D01*
X286241370Y-186494197D01*
X286146132Y-186446578D01*
X285908037Y-186446578D01*
X285812799Y-186494197D01*
X285765180Y-186541816D01*
X285717561Y-186637054D01*
X285717561Y-186827530D01*
X285765180Y-186922768D01*
X285812799Y-186970387D01*
X285908037Y-187018006D01*
X285431847Y-186065625D02*
X285384228Y-186018006D01*
X285336608Y-185922768D01*
X285336608Y-185684673D01*
X285384228Y-185589435D01*
X285431847Y-185541816D01*
X285527085Y-185494197D01*
X285622323Y-185494197D01*
X285765180Y-185541816D01*
X286336608Y-186113244D01*
X286336608Y-185494197D01*
X306168146Y-187970387D02*
X305168146Y-187970387D01*
X305168146Y-187732292D01*
X305215766Y-187589435D01*
X305311004Y-187494197D01*
X305406242Y-187446578D01*
X305596718Y-187398959D01*
X305739575Y-187398959D01*
X305930051Y-187446578D01*
X306025289Y-187494197D01*
X306120527Y-187589435D01*
X306168146Y-187732292D01*
X306168146Y-187970387D01*
X305168146Y-186494197D02*
X305168146Y-186970387D01*
X305644337Y-187018006D01*
X305596718Y-186970387D01*
X305549099Y-186875149D01*
X305549099Y-186637054D01*
X305596718Y-186541816D01*
X305644337Y-186494197D01*
X305739575Y-186446578D01*
X305977670Y-186446578D01*
X306072908Y-186494197D01*
X306120527Y-186541816D01*
X306168146Y-186637054D01*
X306168146Y-186875149D01*
X306120527Y-186970387D01*
X306072908Y-187018006D01*
X305501480Y-185589435D02*
X306168146Y-185589435D01*
X305120527Y-185827530D02*
X305834813Y-186065625D01*
X305834813Y-185446578D01*
X325999684Y-187970387D02*
X324999684Y-187970387D01*
X324999684Y-187732292D01*
X325047304Y-187589435D01*
X325142542Y-187494197D01*
X325237780Y-187446578D01*
X325428256Y-187398959D01*
X325571113Y-187398959D01*
X325761589Y-187446578D01*
X325856827Y-187494197D01*
X325952065Y-187589435D01*
X325999684Y-187732292D01*
X325999684Y-187970387D01*
X325333018Y-186541816D02*
X325999684Y-186541816D01*
X324952065Y-186779911D02*
X325666351Y-187018006D01*
X325666351Y-186398959D01*
X324999684Y-185589435D02*
X324999684Y-185779911D01*
X325047304Y-185875149D01*
X325094923Y-185922768D01*
X325237780Y-186018006D01*
X325428256Y-186065625D01*
X325809208Y-186065625D01*
X325904446Y-186018006D01*
X325952065Y-185970387D01*
X325999684Y-185875149D01*
X325999684Y-185684673D01*
X325952065Y-185589435D01*
X325904446Y-185541816D01*
X325809208Y-185494197D01*
X325571113Y-185494197D01*
X325475875Y-185541816D01*
X325428256Y-185589435D01*
X325380637Y-185684673D01*
X325380637Y-185875149D01*
X325428256Y-185970387D01*
X325475875Y-186018006D01*
X325571113Y-186065625D01*
X345831222Y-187970387D02*
X344831222Y-187970387D01*
X344831222Y-187732292D01*
X344878842Y-187589435D01*
X344974080Y-187494197D01*
X345069318Y-187446578D01*
X345259794Y-187398959D01*
X345402651Y-187398959D01*
X345593127Y-187446578D01*
X345688365Y-187494197D01*
X345783603Y-187589435D01*
X345831222Y-187732292D01*
X345831222Y-187970387D01*
X344831222Y-187065625D02*
X344831222Y-186446578D01*
X345212175Y-186779911D01*
X345212175Y-186637054D01*
X345259794Y-186541816D01*
X345307413Y-186494197D01*
X345402651Y-186446578D01*
X345640746Y-186446578D01*
X345735984Y-186494197D01*
X345783603Y-186541816D01*
X345831222Y-186637054D01*
X345831222Y-186922768D01*
X345783603Y-187018006D01*
X345735984Y-187065625D01*
X345259794Y-185875149D02*
X345212175Y-185970387D01*
X345164556Y-186018006D01*
X345069318Y-186065625D01*
X345021699Y-186065625D01*
X344926461Y-186018006D01*
X344878842Y-185970387D01*
X344831222Y-185875149D01*
X344831222Y-185684673D01*
X344878842Y-185589435D01*
X344926461Y-185541816D01*
X345021699Y-185494197D01*
X345069318Y-185494197D01*
X345164556Y-185541816D01*
X345212175Y-185589435D01*
X345259794Y-185684673D01*
X345259794Y-185875149D01*
X345307413Y-185970387D01*
X345355032Y-186018006D01*
X345450270Y-186065625D01*
X345640746Y-186065625D01*
X345735984Y-186018006D01*
X345783603Y-185970387D01*
X345831222Y-185875149D01*
X345831222Y-185684673D01*
X345783603Y-185589435D01*
X345735984Y-185541816D01*
X345640746Y-185494197D01*
X345450270Y-185494197D01*
X345355032Y-185541816D01*
X345307413Y-185589435D01*
X345259794Y-185684673D01*
X365662760Y-187970387D02*
X364662760Y-187970387D01*
X364662760Y-187732292D01*
X364710380Y-187589435D01*
X364805618Y-187494197D01*
X364900856Y-187446578D01*
X365091332Y-187398959D01*
X365234189Y-187398959D01*
X365424665Y-187446578D01*
X365519903Y-187494197D01*
X365615141Y-187589435D01*
X365662760Y-187732292D01*
X365662760Y-187970387D01*
X364662760Y-187065625D02*
X364662760Y-186446578D01*
X365043713Y-186779911D01*
X365043713Y-186637054D01*
X365091332Y-186541816D01*
X365138951Y-186494197D01*
X365234189Y-186446578D01*
X365472284Y-186446578D01*
X365567522Y-186494197D01*
X365615141Y-186541816D01*
X365662760Y-186637054D01*
X365662760Y-186922768D01*
X365615141Y-187018006D01*
X365567522Y-187065625D01*
X364662760Y-185827530D02*
X364662760Y-185732292D01*
X364710380Y-185637054D01*
X364757999Y-185589435D01*
X364853237Y-185541816D01*
X365043713Y-185494197D01*
X365281808Y-185494197D01*
X365472284Y-185541816D01*
X365567522Y-185589435D01*
X365615141Y-185637054D01*
X365662760Y-185732292D01*
X365662760Y-185827530D01*
X365615141Y-185922768D01*
X365567522Y-185970387D01*
X365472284Y-186018006D01*
X365281808Y-186065625D01*
X365043713Y-186065625D01*
X364853237Y-186018006D01*
X364757999Y-185970387D01*
X364710380Y-185922768D01*
X364662760Y-185827530D01*
X385494298Y-187970387D02*
X384494298Y-187970387D01*
X384494298Y-187732292D01*
X384541918Y-187589435D01*
X384637156Y-187494197D01*
X384732394Y-187446578D01*
X384922870Y-187398959D01*
X385065727Y-187398959D01*
X385256203Y-187446578D01*
X385351441Y-187494197D01*
X385446679Y-187589435D01*
X385494298Y-187732292D01*
X385494298Y-187970387D01*
X384589537Y-187018006D02*
X384541918Y-186970387D01*
X384494298Y-186875149D01*
X384494298Y-186637054D01*
X384541918Y-186541816D01*
X384589537Y-186494197D01*
X384684775Y-186446578D01*
X384780013Y-186446578D01*
X384922870Y-186494197D01*
X385494298Y-187065625D01*
X385494298Y-186446578D01*
X384589537Y-186065625D02*
X384541918Y-186018006D01*
X384494298Y-185922768D01*
X384494298Y-185684673D01*
X384541918Y-185589435D01*
X384589537Y-185541816D01*
X384684775Y-185494197D01*
X384780013Y-185494197D01*
X384922870Y-185541816D01*
X385494298Y-186113244D01*
X385494298Y-185494197D01*
X405325836Y-187970387D02*
X404325836Y-187970387D01*
X404325836Y-187732292D01*
X404373456Y-187589435D01*
X404468694Y-187494197D01*
X404563932Y-187446578D01*
X404754408Y-187398959D01*
X404897265Y-187398959D01*
X405087741Y-187446578D01*
X405182979Y-187494197D01*
X405278217Y-187589435D01*
X405325836Y-187732292D01*
X405325836Y-187970387D01*
X405325836Y-186446578D02*
X405325836Y-187018006D01*
X405325836Y-186732292D02*
X404325836Y-186732292D01*
X404468694Y-186827530D01*
X404563932Y-186922768D01*
X404611551Y-187018006D01*
X404659170Y-185589435D02*
X405325836Y-185589435D01*
X404278217Y-185827530D02*
X404992503Y-186065625D01*
X404992503Y-185446578D01*
X425157374Y-187494197D02*
X424157374Y-187494197D01*
X424157374Y-187256102D01*
X424204994Y-187113244D01*
X424300232Y-187018006D01*
X424395470Y-186970387D01*
X424585946Y-186922768D01*
X424728803Y-186922768D01*
X424919279Y-186970387D01*
X425014517Y-187018006D01*
X425109755Y-187113244D01*
X425157374Y-187256102D01*
X425157374Y-187494197D01*
X424157374Y-186065625D02*
X424157374Y-186256102D01*
X424204994Y-186351340D01*
X424252613Y-186398959D01*
X424395470Y-186494197D01*
X424585946Y-186541816D01*
X424966898Y-186541816D01*
X425062136Y-186494197D01*
X425109755Y-186446578D01*
X425157374Y-186351340D01*
X425157374Y-186160863D01*
X425109755Y-186065625D01*
X425062136Y-186018006D01*
X424966898Y-185970387D01*
X424728803Y-185970387D01*
X424633565Y-186018006D01*
X424585946Y-186065625D01*
X424538327Y-186160863D01*
X424538327Y-186351340D01*
X424585946Y-186446578D01*
X424633565Y-186494197D01*
X424728803Y-186541816D01*
X167347380Y-213483612D02*
X166347380Y-213483612D01*
X166347380Y-213245516D01*
X166395000Y-213102659D01*
X166490238Y-213007421D01*
X166585476Y-212959802D01*
X166775952Y-212912183D01*
X166918809Y-212912183D01*
X167109285Y-212959802D01*
X167204523Y-213007421D01*
X167299761Y-213102659D01*
X167347380Y-213245516D01*
X167347380Y-213483612D01*
X167347380Y-211959802D02*
X167347380Y-212531231D01*
X167347380Y-212245516D02*
X166347380Y-212245516D01*
X166490238Y-212340755D01*
X166585476Y-212435993D01*
X166633095Y-212531231D01*
X166347380Y-211340755D02*
X166347380Y-211245516D01*
X166395000Y-211150278D01*
X166442619Y-211102659D01*
X166537857Y-211055040D01*
X166728333Y-211007421D01*
X166966428Y-211007421D01*
X167156904Y-211055040D01*
X167252142Y-211102659D01*
X167299761Y-211150278D01*
X167347380Y-211245516D01*
X167347380Y-211340755D01*
X167299761Y-211435993D01*
X167252142Y-211483612D01*
X167156904Y-211531231D01*
X166966428Y-211578850D01*
X166728333Y-211578850D01*
X166537857Y-211531231D01*
X166442619Y-211483612D01*
X166395000Y-211435993D01*
X166347380Y-211340755D01*
X167347380Y-210531231D02*
X167347380Y-210340755D01*
X167299761Y-210245516D01*
X167252142Y-210197897D01*
X167109285Y-210102659D01*
X166918809Y-210055040D01*
X166537857Y-210055040D01*
X166442619Y-210102659D01*
X166395000Y-210150278D01*
X166347380Y-210245516D01*
X166347380Y-210435993D01*
X166395000Y-210531231D01*
X166442619Y-210578850D01*
X166537857Y-210626469D01*
X166775952Y-210626469D01*
X166871190Y-210578850D01*
X166918809Y-210531231D01*
X166966428Y-210435993D01*
X166966428Y-210245516D01*
X166918809Y-210150278D01*
X166871190Y-210102659D01*
X166775952Y-210055040D01*
X187178918Y-213483612D02*
X186178918Y-213483612D01*
X186178918Y-213245516D01*
X186226538Y-213102659D01*
X186321776Y-213007421D01*
X186417014Y-212959802D01*
X186607490Y-212912183D01*
X186750347Y-212912183D01*
X186940823Y-212959802D01*
X187036061Y-213007421D01*
X187131299Y-213102659D01*
X187178918Y-213245516D01*
X187178918Y-213483612D01*
X187178918Y-211959802D02*
X187178918Y-212531231D01*
X187178918Y-212245516D02*
X186178918Y-212245516D01*
X186321776Y-212340755D01*
X186417014Y-212435993D01*
X186464633Y-212531231D01*
X186178918Y-211340755D02*
X186178918Y-211245516D01*
X186226538Y-211150278D01*
X186274157Y-211102659D01*
X186369395Y-211055040D01*
X186559871Y-211007421D01*
X186797966Y-211007421D01*
X186988442Y-211055040D01*
X187083680Y-211102659D01*
X187131299Y-211150278D01*
X187178918Y-211245516D01*
X187178918Y-211340755D01*
X187131299Y-211435993D01*
X187083680Y-211483612D01*
X186988442Y-211531231D01*
X186797966Y-211578850D01*
X186559871Y-211578850D01*
X186369395Y-211531231D01*
X186274157Y-211483612D01*
X186226538Y-211435993D01*
X186178918Y-211340755D01*
X187178918Y-210055040D02*
X187178918Y-210626469D01*
X187178918Y-210340755D02*
X186178918Y-210340755D01*
X186321776Y-210435993D01*
X186417014Y-210531231D01*
X186464633Y-210626469D01*
X207010456Y-213007421D02*
X206010456Y-213007421D01*
X206010456Y-212769326D01*
X206058076Y-212626469D01*
X206153314Y-212531231D01*
X206248552Y-212483612D01*
X206439028Y-212435993D01*
X206581885Y-212435993D01*
X206772361Y-212483612D01*
X206867599Y-212531231D01*
X206962837Y-212626469D01*
X207010456Y-212769326D01*
X207010456Y-213007421D01*
X207010456Y-211959802D02*
X207010456Y-211769326D01*
X206962837Y-211674088D01*
X206915218Y-211626469D01*
X206772361Y-211531231D01*
X206581885Y-211483612D01*
X206200933Y-211483612D01*
X206105695Y-211531231D01*
X206058076Y-211578850D01*
X206010456Y-211674088D01*
X206010456Y-211864564D01*
X206058076Y-211959802D01*
X206105695Y-212007421D01*
X206200933Y-212055040D01*
X206439028Y-212055040D01*
X206534266Y-212007421D01*
X206581885Y-211959802D01*
X206629504Y-211864564D01*
X206629504Y-211674088D01*
X206581885Y-211578850D01*
X206534266Y-211531231D01*
X206439028Y-211483612D01*
X206010456Y-211150278D02*
X206010456Y-210531231D01*
X206391409Y-210864564D01*
X206391409Y-210721707D01*
X206439028Y-210626469D01*
X206486647Y-210578850D01*
X206581885Y-210531231D01*
X206819980Y-210531231D01*
X206915218Y-210578850D01*
X206962837Y-210626469D01*
X207010456Y-210721707D01*
X207010456Y-211007421D01*
X206962837Y-211102659D01*
X206915218Y-211150278D01*
X226841994Y-213007421D02*
X225841994Y-213007421D01*
X225841994Y-212769326D01*
X225889614Y-212626469D01*
X225984852Y-212531231D01*
X226080090Y-212483612D01*
X226270566Y-212435993D01*
X226413423Y-212435993D01*
X226603899Y-212483612D01*
X226699137Y-212531231D01*
X226794375Y-212626469D01*
X226841994Y-212769326D01*
X226841994Y-213007421D01*
X226270566Y-211864564D02*
X226222947Y-211959802D01*
X226175328Y-212007421D01*
X226080090Y-212055040D01*
X226032471Y-212055040D01*
X225937233Y-212007421D01*
X225889614Y-211959802D01*
X225841994Y-211864564D01*
X225841994Y-211674088D01*
X225889614Y-211578850D01*
X225937233Y-211531231D01*
X226032471Y-211483612D01*
X226080090Y-211483612D01*
X226175328Y-211531231D01*
X226222947Y-211578850D01*
X226270566Y-211674088D01*
X226270566Y-211864564D01*
X226318185Y-211959802D01*
X226365804Y-212007421D01*
X226461042Y-212055040D01*
X226651518Y-212055040D01*
X226746756Y-212007421D01*
X226794375Y-211959802D01*
X226841994Y-211864564D01*
X226841994Y-211674088D01*
X226794375Y-211578850D01*
X226746756Y-211531231D01*
X226651518Y-211483612D01*
X226461042Y-211483612D01*
X226365804Y-211531231D01*
X226318185Y-211578850D01*
X226270566Y-211674088D01*
X225841994Y-210578850D02*
X225841994Y-211055040D01*
X226318185Y-211102659D01*
X226270566Y-211055040D01*
X226222947Y-210959802D01*
X226222947Y-210721707D01*
X226270566Y-210626469D01*
X226318185Y-210578850D01*
X226413423Y-210531231D01*
X226651518Y-210531231D01*
X226746756Y-210578850D01*
X226794375Y-210626469D01*
X226841994Y-210721707D01*
X226841994Y-210959802D01*
X226794375Y-211055040D01*
X226746756Y-211102659D01*
X246673532Y-213007421D02*
X245673532Y-213007421D01*
X245673532Y-212769326D01*
X245721152Y-212626469D01*
X245816390Y-212531231D01*
X245911628Y-212483612D01*
X246102104Y-212435993D01*
X246244961Y-212435993D01*
X246435437Y-212483612D01*
X246530675Y-212531231D01*
X246625913Y-212626469D01*
X246673532Y-212769326D01*
X246673532Y-213007421D01*
X245673532Y-212102659D02*
X245673532Y-211435993D01*
X246673532Y-211864564D01*
X245673532Y-211150278D02*
X245673532Y-210483612D01*
X246673532Y-210912183D01*
X266505070Y-213007421D02*
X265505070Y-213007421D01*
X265505070Y-212769326D01*
X265552690Y-212626469D01*
X265647928Y-212531231D01*
X265743166Y-212483612D01*
X265933642Y-212435993D01*
X266076499Y-212435993D01*
X266266975Y-212483612D01*
X266362213Y-212531231D01*
X266457451Y-212626469D01*
X266505070Y-212769326D01*
X266505070Y-213007421D01*
X265505070Y-211578850D02*
X265505070Y-211769326D01*
X265552690Y-211864564D01*
X265600309Y-211912183D01*
X265743166Y-212007421D01*
X265933642Y-212055040D01*
X266314594Y-212055040D01*
X266409832Y-212007421D01*
X266457451Y-211959802D01*
X266505070Y-211864564D01*
X266505070Y-211674088D01*
X266457451Y-211578850D01*
X266409832Y-211531231D01*
X266314594Y-211483612D01*
X266076499Y-211483612D01*
X265981261Y-211531231D01*
X265933642Y-211578850D01*
X265886023Y-211674088D01*
X265886023Y-211864564D01*
X265933642Y-211959802D01*
X265981261Y-212007421D01*
X266076499Y-212055040D01*
X266505070Y-211007421D02*
X266505070Y-210816945D01*
X266457451Y-210721707D01*
X266409832Y-210674088D01*
X266266975Y-210578850D01*
X266076499Y-210531231D01*
X265695547Y-210531231D01*
X265600309Y-210578850D01*
X265552690Y-210626469D01*
X265505070Y-210721707D01*
X265505070Y-210912183D01*
X265552690Y-211007421D01*
X265600309Y-211055040D01*
X265695547Y-211102659D01*
X265933642Y-211102659D01*
X266028880Y-211055040D01*
X266076499Y-211007421D01*
X266124118Y-210912183D01*
X266124118Y-210721707D01*
X266076499Y-210626469D01*
X266028880Y-210578850D01*
X265933642Y-210531231D01*
X286336608Y-213007421D02*
X285336608Y-213007421D01*
X285336608Y-212769326D01*
X285384228Y-212626469D01*
X285479466Y-212531231D01*
X285574704Y-212483612D01*
X285765180Y-212435993D01*
X285908037Y-212435993D01*
X286098513Y-212483612D01*
X286193751Y-212531231D01*
X286288989Y-212626469D01*
X286336608Y-212769326D01*
X286336608Y-213007421D01*
X285336608Y-211578850D02*
X285336608Y-211769326D01*
X285384228Y-211864564D01*
X285431847Y-211912183D01*
X285574704Y-212007421D01*
X285765180Y-212055040D01*
X286146132Y-212055040D01*
X286241370Y-212007421D01*
X286288989Y-211959802D01*
X286336608Y-211864564D01*
X286336608Y-211674088D01*
X286288989Y-211578850D01*
X286241370Y-211531231D01*
X286146132Y-211483612D01*
X285908037Y-211483612D01*
X285812799Y-211531231D01*
X285765180Y-211578850D01*
X285717561Y-211674088D01*
X285717561Y-211864564D01*
X285765180Y-211959802D01*
X285812799Y-212007421D01*
X285908037Y-212055040D01*
X286336608Y-210531231D02*
X286336608Y-211102659D01*
X286336608Y-210816945D02*
X285336608Y-210816945D01*
X285479466Y-210912183D01*
X285574704Y-211007421D01*
X285622323Y-211102659D01*
X306168146Y-213007421D02*
X305168146Y-213007421D01*
X305168146Y-212769326D01*
X305215766Y-212626469D01*
X305311004Y-212531231D01*
X305406242Y-212483612D01*
X305596718Y-212435993D01*
X305739575Y-212435993D01*
X305930051Y-212483612D01*
X306025289Y-212531231D01*
X306120527Y-212626469D01*
X306168146Y-212769326D01*
X306168146Y-213007421D01*
X305168146Y-211531231D02*
X305168146Y-212007421D01*
X305644337Y-212055040D01*
X305596718Y-212007421D01*
X305549099Y-211912183D01*
X305549099Y-211674088D01*
X305596718Y-211578850D01*
X305644337Y-211531231D01*
X305739575Y-211483612D01*
X305977670Y-211483612D01*
X306072908Y-211531231D01*
X306120527Y-211578850D01*
X306168146Y-211674088D01*
X306168146Y-211912183D01*
X306120527Y-212007421D01*
X306072908Y-212055040D01*
X305168146Y-211150278D02*
X305168146Y-210531231D01*
X305549099Y-210864564D01*
X305549099Y-210721707D01*
X305596718Y-210626469D01*
X305644337Y-210578850D01*
X305739575Y-210531231D01*
X305977670Y-210531231D01*
X306072908Y-210578850D01*
X306120527Y-210626469D01*
X306168146Y-210721707D01*
X306168146Y-211007421D01*
X306120527Y-211102659D01*
X306072908Y-211150278D01*
X325999684Y-213007421D02*
X324999684Y-213007421D01*
X324999684Y-212769326D01*
X325047304Y-212626469D01*
X325142542Y-212531231D01*
X325237780Y-212483612D01*
X325428256Y-212435993D01*
X325571113Y-212435993D01*
X325761589Y-212483612D01*
X325856827Y-212531231D01*
X325952065Y-212626469D01*
X325999684Y-212769326D01*
X325999684Y-213007421D01*
X325333018Y-211578850D02*
X325999684Y-211578850D01*
X324952065Y-211816945D02*
X325666351Y-212055040D01*
X325666351Y-211435993D01*
X324999684Y-210578850D02*
X324999684Y-211055040D01*
X325475875Y-211102659D01*
X325428256Y-211055040D01*
X325380637Y-210959802D01*
X325380637Y-210721707D01*
X325428256Y-210626469D01*
X325475875Y-210578850D01*
X325571113Y-210531231D01*
X325809208Y-210531231D01*
X325904446Y-210578850D01*
X325952065Y-210626469D01*
X325999684Y-210721707D01*
X325999684Y-210959802D01*
X325952065Y-211055040D01*
X325904446Y-211102659D01*
X345831222Y-213007421D02*
X344831222Y-213007421D01*
X344831222Y-212769326D01*
X344878842Y-212626469D01*
X344974080Y-212531231D01*
X345069318Y-212483612D01*
X345259794Y-212435993D01*
X345402651Y-212435993D01*
X345593127Y-212483612D01*
X345688365Y-212531231D01*
X345783603Y-212626469D01*
X345831222Y-212769326D01*
X345831222Y-213007421D01*
X344831222Y-212102659D02*
X344831222Y-211483612D01*
X345212175Y-211816945D01*
X345212175Y-211674088D01*
X345259794Y-211578850D01*
X345307413Y-211531231D01*
X345402651Y-211483612D01*
X345640746Y-211483612D01*
X345735984Y-211531231D01*
X345783603Y-211578850D01*
X345831222Y-211674088D01*
X345831222Y-211959802D01*
X345783603Y-212055040D01*
X345735984Y-212102659D01*
X344831222Y-211150278D02*
X344831222Y-210483612D01*
X345831222Y-210912183D01*
X365662760Y-213007421D02*
X364662760Y-213007421D01*
X364662760Y-212769326D01*
X364710380Y-212626469D01*
X364805618Y-212531231D01*
X364900856Y-212483612D01*
X365091332Y-212435993D01*
X365234189Y-212435993D01*
X365424665Y-212483612D01*
X365519903Y-212531231D01*
X365615141Y-212626469D01*
X365662760Y-212769326D01*
X365662760Y-213007421D01*
X364757999Y-212055040D02*
X364710380Y-212007421D01*
X364662760Y-211912183D01*
X364662760Y-211674088D01*
X364710380Y-211578850D01*
X364757999Y-211531231D01*
X364853237Y-211483612D01*
X364948475Y-211483612D01*
X365091332Y-211531231D01*
X365662760Y-212102659D01*
X365662760Y-211483612D01*
X365662760Y-211007421D02*
X365662760Y-210816945D01*
X365615141Y-210721707D01*
X365567522Y-210674088D01*
X365424665Y-210578850D01*
X365234189Y-210531231D01*
X364853237Y-210531231D01*
X364757999Y-210578850D01*
X364710380Y-210626469D01*
X364662760Y-210721707D01*
X364662760Y-210912183D01*
X364710380Y-211007421D01*
X364757999Y-211055040D01*
X364853237Y-211102659D01*
X365091332Y-211102659D01*
X365186570Y-211055040D01*
X365234189Y-211007421D01*
X365281808Y-210912183D01*
X365281808Y-210721707D01*
X365234189Y-210626469D01*
X365186570Y-210578850D01*
X365091332Y-210531231D01*
X385494298Y-213007421D02*
X384494298Y-213007421D01*
X384494298Y-212769326D01*
X384541918Y-212626469D01*
X384637156Y-212531231D01*
X384732394Y-212483612D01*
X384922870Y-212435993D01*
X385065727Y-212435993D01*
X385256203Y-212483612D01*
X385351441Y-212531231D01*
X385446679Y-212626469D01*
X385494298Y-212769326D01*
X385494298Y-213007421D01*
X384589537Y-212055040D02*
X384541918Y-212007421D01*
X384494298Y-211912183D01*
X384494298Y-211674088D01*
X384541918Y-211578850D01*
X384589537Y-211531231D01*
X384684775Y-211483612D01*
X384780013Y-211483612D01*
X384922870Y-211531231D01*
X385494298Y-212102659D01*
X385494298Y-211483612D01*
X385494298Y-210531231D02*
X385494298Y-211102659D01*
X385494298Y-210816945D02*
X384494298Y-210816945D01*
X384637156Y-210912183D01*
X384732394Y-211007421D01*
X384780013Y-211102659D01*
X405325836Y-213007421D02*
X404325836Y-213007421D01*
X404325836Y-212769326D01*
X404373456Y-212626469D01*
X404468694Y-212531231D01*
X404563932Y-212483612D01*
X404754408Y-212435993D01*
X404897265Y-212435993D01*
X405087741Y-212483612D01*
X405182979Y-212531231D01*
X405278217Y-212626469D01*
X405325836Y-212769326D01*
X405325836Y-213007421D01*
X405325836Y-211483612D02*
X405325836Y-212055040D01*
X405325836Y-211769326D02*
X404325836Y-211769326D01*
X404468694Y-211864564D01*
X404563932Y-211959802D01*
X404611551Y-212055040D01*
X404325836Y-211150278D02*
X404325836Y-210531231D01*
X404706789Y-210864564D01*
X404706789Y-210721707D01*
X404754408Y-210626469D01*
X404802027Y-210578850D01*
X404897265Y-210531231D01*
X405135360Y-210531231D01*
X405230598Y-210578850D01*
X405278217Y-210626469D01*
X405325836Y-210721707D01*
X405325836Y-211007421D01*
X405278217Y-211102659D01*
X405230598Y-211150278D01*
X425157374Y-212531231D02*
X424157374Y-212531231D01*
X424157374Y-212293136D01*
X424204994Y-212150278D01*
X424300232Y-212055040D01*
X424395470Y-212007421D01*
X424585946Y-211959802D01*
X424728803Y-211959802D01*
X424919279Y-212007421D01*
X425014517Y-212055040D01*
X425109755Y-212150278D01*
X425157374Y-212293136D01*
X425157374Y-212531231D01*
X424157374Y-211055040D02*
X424157374Y-211531231D01*
X424633565Y-211578850D01*
X424585946Y-211531231D01*
X424538327Y-211435993D01*
X424538327Y-211197897D01*
X424585946Y-211102659D01*
X424633565Y-211055040D01*
X424728803Y-211007421D01*
X424966898Y-211007421D01*
X425062136Y-211055040D01*
X425109755Y-211102659D01*
X425157374Y-211197897D01*
X425157374Y-211435993D01*
X425109755Y-211531231D01*
X425062136Y-211578850D01*
X167347380Y-238520646D02*
X166347380Y-238520646D01*
X166347380Y-238282550D01*
X166395000Y-238139693D01*
X166490238Y-238044455D01*
X166585476Y-237996836D01*
X166775952Y-237949217D01*
X166918809Y-237949217D01*
X167109285Y-237996836D01*
X167204523Y-238044455D01*
X167299761Y-238139693D01*
X167347380Y-238282550D01*
X167347380Y-238520646D01*
X167347380Y-236996836D02*
X167347380Y-237568265D01*
X167347380Y-237282550D02*
X166347380Y-237282550D01*
X166490238Y-237377789D01*
X166585476Y-237473027D01*
X166633095Y-237568265D01*
X166347380Y-236377789D02*
X166347380Y-236282550D01*
X166395000Y-236187312D01*
X166442619Y-236139693D01*
X166537857Y-236092074D01*
X166728333Y-236044455D01*
X166966428Y-236044455D01*
X167156904Y-236092074D01*
X167252142Y-236139693D01*
X167299761Y-236187312D01*
X167347380Y-236282550D01*
X167347380Y-236377789D01*
X167299761Y-236473027D01*
X167252142Y-236520646D01*
X167156904Y-236568265D01*
X166966428Y-236615884D01*
X166728333Y-236615884D01*
X166537857Y-236568265D01*
X166442619Y-236520646D01*
X166395000Y-236473027D01*
X166347380Y-236377789D01*
X166775952Y-235473027D02*
X166728333Y-235568265D01*
X166680714Y-235615884D01*
X166585476Y-235663503D01*
X166537857Y-235663503D01*
X166442619Y-235615884D01*
X166395000Y-235568265D01*
X166347380Y-235473027D01*
X166347380Y-235282550D01*
X166395000Y-235187312D01*
X166442619Y-235139693D01*
X166537857Y-235092074D01*
X166585476Y-235092074D01*
X166680714Y-235139693D01*
X166728333Y-235187312D01*
X166775952Y-235282550D01*
X166775952Y-235473027D01*
X166823571Y-235568265D01*
X166871190Y-235615884D01*
X166966428Y-235663503D01*
X167156904Y-235663503D01*
X167252142Y-235615884D01*
X167299761Y-235568265D01*
X167347380Y-235473027D01*
X167347380Y-235282550D01*
X167299761Y-235187312D01*
X167252142Y-235139693D01*
X167156904Y-235092074D01*
X166966428Y-235092074D01*
X166871190Y-235139693D01*
X166823571Y-235187312D01*
X166775952Y-235282550D01*
X187178918Y-238520646D02*
X186178918Y-238520646D01*
X186178918Y-238282550D01*
X186226538Y-238139693D01*
X186321776Y-238044455D01*
X186417014Y-237996836D01*
X186607490Y-237949217D01*
X186750347Y-237949217D01*
X186940823Y-237996836D01*
X187036061Y-238044455D01*
X187131299Y-238139693D01*
X187178918Y-238282550D01*
X187178918Y-238520646D01*
X187178918Y-236996836D02*
X187178918Y-237568265D01*
X187178918Y-237282550D02*
X186178918Y-237282550D01*
X186321776Y-237377789D01*
X186417014Y-237473027D01*
X186464633Y-237568265D01*
X186178918Y-236377789D02*
X186178918Y-236282550D01*
X186226538Y-236187312D01*
X186274157Y-236139693D01*
X186369395Y-236092074D01*
X186559871Y-236044455D01*
X186797966Y-236044455D01*
X186988442Y-236092074D01*
X187083680Y-236139693D01*
X187131299Y-236187312D01*
X187178918Y-236282550D01*
X187178918Y-236377789D01*
X187131299Y-236473027D01*
X187083680Y-236520646D01*
X186988442Y-236568265D01*
X186797966Y-236615884D01*
X186559871Y-236615884D01*
X186369395Y-236568265D01*
X186274157Y-236520646D01*
X186226538Y-236473027D01*
X186178918Y-236377789D01*
X186178918Y-235425408D02*
X186178918Y-235330170D01*
X186226538Y-235234931D01*
X186274157Y-235187312D01*
X186369395Y-235139693D01*
X186559871Y-235092074D01*
X186797966Y-235092074D01*
X186988442Y-235139693D01*
X187083680Y-235187312D01*
X187131299Y-235234931D01*
X187178918Y-235330170D01*
X187178918Y-235425408D01*
X187131299Y-235520646D01*
X187083680Y-235568265D01*
X186988442Y-235615884D01*
X186797966Y-235663503D01*
X186559871Y-235663503D01*
X186369395Y-235615884D01*
X186274157Y-235568265D01*
X186226538Y-235520646D01*
X186178918Y-235425408D01*
X207010456Y-238044455D02*
X206010456Y-238044455D01*
X206010456Y-237806360D01*
X206058076Y-237663503D01*
X206153314Y-237568265D01*
X206248552Y-237520646D01*
X206439028Y-237473027D01*
X206581885Y-237473027D01*
X206772361Y-237520646D01*
X206867599Y-237568265D01*
X206962837Y-237663503D01*
X207010456Y-237806360D01*
X207010456Y-238044455D01*
X207010456Y-236996836D02*
X207010456Y-236806360D01*
X206962837Y-236711122D01*
X206915218Y-236663503D01*
X206772361Y-236568265D01*
X206581885Y-236520646D01*
X206200933Y-236520646D01*
X206105695Y-236568265D01*
X206058076Y-236615884D01*
X206010456Y-236711122D01*
X206010456Y-236901598D01*
X206058076Y-236996836D01*
X206105695Y-237044455D01*
X206200933Y-237092074D01*
X206439028Y-237092074D01*
X206534266Y-237044455D01*
X206581885Y-236996836D01*
X206629504Y-236901598D01*
X206629504Y-236711122D01*
X206581885Y-236615884D01*
X206534266Y-236568265D01*
X206439028Y-236520646D01*
X206105695Y-236139693D02*
X206058076Y-236092074D01*
X206010456Y-235996836D01*
X206010456Y-235758741D01*
X206058076Y-235663503D01*
X206105695Y-235615884D01*
X206200933Y-235568265D01*
X206296171Y-235568265D01*
X206439028Y-235615884D01*
X207010456Y-236187312D01*
X207010456Y-235568265D01*
X226841994Y-238044455D02*
X225841994Y-238044455D01*
X225841994Y-237806360D01*
X225889614Y-237663503D01*
X225984852Y-237568265D01*
X226080090Y-237520646D01*
X226270566Y-237473027D01*
X226413423Y-237473027D01*
X226603899Y-237520646D01*
X226699137Y-237568265D01*
X226794375Y-237663503D01*
X226841994Y-237806360D01*
X226841994Y-238044455D01*
X226270566Y-236901598D02*
X226222947Y-236996836D01*
X226175328Y-237044455D01*
X226080090Y-237092074D01*
X226032471Y-237092074D01*
X225937233Y-237044455D01*
X225889614Y-236996836D01*
X225841994Y-236901598D01*
X225841994Y-236711122D01*
X225889614Y-236615884D01*
X225937233Y-236568265D01*
X226032471Y-236520646D01*
X226080090Y-236520646D01*
X226175328Y-236568265D01*
X226222947Y-236615884D01*
X226270566Y-236711122D01*
X226270566Y-236901598D01*
X226318185Y-236996836D01*
X226365804Y-237044455D01*
X226461042Y-237092074D01*
X226651518Y-237092074D01*
X226746756Y-237044455D01*
X226794375Y-236996836D01*
X226841994Y-236901598D01*
X226841994Y-236711122D01*
X226794375Y-236615884D01*
X226746756Y-236568265D01*
X226651518Y-236520646D01*
X226461042Y-236520646D01*
X226365804Y-236568265D01*
X226318185Y-236615884D01*
X226270566Y-236711122D01*
X226175328Y-235663503D02*
X226841994Y-235663503D01*
X225794375Y-235901598D02*
X226508661Y-236139693D01*
X226508661Y-235520646D01*
X246673532Y-238044455D02*
X245673532Y-238044455D01*
X245673532Y-237806360D01*
X245721152Y-237663503D01*
X245816390Y-237568265D01*
X245911628Y-237520646D01*
X246102104Y-237473027D01*
X246244961Y-237473027D01*
X246435437Y-237520646D01*
X246530675Y-237568265D01*
X246625913Y-237663503D01*
X246673532Y-237806360D01*
X246673532Y-238044455D01*
X245673532Y-237139693D02*
X245673532Y-236473027D01*
X246673532Y-236901598D01*
X245673532Y-235663503D02*
X245673532Y-235853979D01*
X245721152Y-235949217D01*
X245768771Y-235996836D01*
X245911628Y-236092074D01*
X246102104Y-236139693D01*
X246483056Y-236139693D01*
X246578294Y-236092074D01*
X246625913Y-236044455D01*
X246673532Y-235949217D01*
X246673532Y-235758741D01*
X246625913Y-235663503D01*
X246578294Y-235615884D01*
X246483056Y-235568265D01*
X246244961Y-235568265D01*
X246149723Y-235615884D01*
X246102104Y-235663503D01*
X246054485Y-235758741D01*
X246054485Y-235949217D01*
X246102104Y-236044455D01*
X246149723Y-236092074D01*
X246244961Y-236139693D01*
X266505070Y-238044455D02*
X265505070Y-238044455D01*
X265505070Y-237806360D01*
X265552690Y-237663503D01*
X265647928Y-237568265D01*
X265743166Y-237520646D01*
X265933642Y-237473027D01*
X266076499Y-237473027D01*
X266266975Y-237520646D01*
X266362213Y-237568265D01*
X266457451Y-237663503D01*
X266505070Y-237806360D01*
X266505070Y-238044455D01*
X265505070Y-236615884D02*
X265505070Y-236806360D01*
X265552690Y-236901598D01*
X265600309Y-236949217D01*
X265743166Y-237044455D01*
X265933642Y-237092074D01*
X266314594Y-237092074D01*
X266409832Y-237044455D01*
X266457451Y-236996836D01*
X266505070Y-236901598D01*
X266505070Y-236711122D01*
X266457451Y-236615884D01*
X266409832Y-236568265D01*
X266314594Y-236520646D01*
X266076499Y-236520646D01*
X265981261Y-236568265D01*
X265933642Y-236615884D01*
X265886023Y-236711122D01*
X265886023Y-236901598D01*
X265933642Y-236996836D01*
X265981261Y-237044455D01*
X266076499Y-237092074D01*
X265933642Y-235949217D02*
X265886023Y-236044455D01*
X265838404Y-236092074D01*
X265743166Y-236139693D01*
X265695547Y-236139693D01*
X265600309Y-236092074D01*
X265552690Y-236044455D01*
X265505070Y-235949217D01*
X265505070Y-235758741D01*
X265552690Y-235663503D01*
X265600309Y-235615884D01*
X265695547Y-235568265D01*
X265743166Y-235568265D01*
X265838404Y-235615884D01*
X265886023Y-235663503D01*
X265933642Y-235758741D01*
X265933642Y-235949217D01*
X265981261Y-236044455D01*
X266028880Y-236092074D01*
X266124118Y-236139693D01*
X266314594Y-236139693D01*
X266409832Y-236092074D01*
X266457451Y-236044455D01*
X266505070Y-235949217D01*
X266505070Y-235758741D01*
X266457451Y-235663503D01*
X266409832Y-235615884D01*
X266314594Y-235568265D01*
X266124118Y-235568265D01*
X266028880Y-235615884D01*
X265981261Y-235663503D01*
X265933642Y-235758741D01*
X286336608Y-238044455D02*
X285336608Y-238044455D01*
X285336608Y-237806360D01*
X285384228Y-237663503D01*
X285479466Y-237568265D01*
X285574704Y-237520646D01*
X285765180Y-237473027D01*
X285908037Y-237473027D01*
X286098513Y-237520646D01*
X286193751Y-237568265D01*
X286288989Y-237663503D01*
X286336608Y-237806360D01*
X286336608Y-238044455D01*
X285336608Y-236615884D02*
X285336608Y-236806360D01*
X285384228Y-236901598D01*
X285431847Y-236949217D01*
X285574704Y-237044455D01*
X285765180Y-237092074D01*
X286146132Y-237092074D01*
X286241370Y-237044455D01*
X286288989Y-236996836D01*
X286336608Y-236901598D01*
X286336608Y-236711122D01*
X286288989Y-236615884D01*
X286241370Y-236568265D01*
X286146132Y-236520646D01*
X285908037Y-236520646D01*
X285812799Y-236568265D01*
X285765180Y-236615884D01*
X285717561Y-236711122D01*
X285717561Y-236901598D01*
X285765180Y-236996836D01*
X285812799Y-237044455D01*
X285908037Y-237092074D01*
X285336608Y-235901598D02*
X285336608Y-235806360D01*
X285384228Y-235711122D01*
X285431847Y-235663503D01*
X285527085Y-235615884D01*
X285717561Y-235568265D01*
X285955656Y-235568265D01*
X286146132Y-235615884D01*
X286241370Y-235663503D01*
X286288989Y-235711122D01*
X286336608Y-235806360D01*
X286336608Y-235901598D01*
X286288989Y-235996836D01*
X286241370Y-236044455D01*
X286146132Y-236092074D01*
X285955656Y-236139693D01*
X285717561Y-236139693D01*
X285527085Y-236092074D01*
X285431847Y-236044455D01*
X285384228Y-235996836D01*
X285336608Y-235901598D01*
X306168146Y-238044455D02*
X305168146Y-238044455D01*
X305168146Y-237806360D01*
X305215766Y-237663503D01*
X305311004Y-237568265D01*
X305406242Y-237520646D01*
X305596718Y-237473027D01*
X305739575Y-237473027D01*
X305930051Y-237520646D01*
X306025289Y-237568265D01*
X306120527Y-237663503D01*
X306168146Y-237806360D01*
X306168146Y-238044455D01*
X305168146Y-236568265D02*
X305168146Y-237044455D01*
X305644337Y-237092074D01*
X305596718Y-237044455D01*
X305549099Y-236949217D01*
X305549099Y-236711122D01*
X305596718Y-236615884D01*
X305644337Y-236568265D01*
X305739575Y-236520646D01*
X305977670Y-236520646D01*
X306072908Y-236568265D01*
X306120527Y-236615884D01*
X306168146Y-236711122D01*
X306168146Y-236949217D01*
X306120527Y-237044455D01*
X306072908Y-237092074D01*
X305263385Y-236139693D02*
X305215766Y-236092074D01*
X305168146Y-235996836D01*
X305168146Y-235758741D01*
X305215766Y-235663503D01*
X305263385Y-235615884D01*
X305358623Y-235568265D01*
X305453861Y-235568265D01*
X305596718Y-235615884D01*
X306168146Y-236187312D01*
X306168146Y-235568265D01*
X325999684Y-238044455D02*
X324999684Y-238044455D01*
X324999684Y-237806360D01*
X325047304Y-237663503D01*
X325142542Y-237568265D01*
X325237780Y-237520646D01*
X325428256Y-237473027D01*
X325571113Y-237473027D01*
X325761589Y-237520646D01*
X325856827Y-237568265D01*
X325952065Y-237663503D01*
X325999684Y-237806360D01*
X325999684Y-238044455D01*
X325333018Y-236615884D02*
X325999684Y-236615884D01*
X324952065Y-236853979D02*
X325666351Y-237092074D01*
X325666351Y-236473027D01*
X325333018Y-235663503D02*
X325999684Y-235663503D01*
X324952065Y-235901598D02*
X325666351Y-236139693D01*
X325666351Y-235520646D01*
X345831222Y-238044455D02*
X344831222Y-238044455D01*
X344831222Y-237806360D01*
X344878842Y-237663503D01*
X344974080Y-237568265D01*
X345069318Y-237520646D01*
X345259794Y-237473027D01*
X345402651Y-237473027D01*
X345593127Y-237520646D01*
X345688365Y-237568265D01*
X345783603Y-237663503D01*
X345831222Y-237806360D01*
X345831222Y-238044455D01*
X344831222Y-237139693D02*
X344831222Y-236520646D01*
X345212175Y-236853979D01*
X345212175Y-236711122D01*
X345259794Y-236615884D01*
X345307413Y-236568265D01*
X345402651Y-236520646D01*
X345640746Y-236520646D01*
X345735984Y-236568265D01*
X345783603Y-236615884D01*
X345831222Y-236711122D01*
X345831222Y-236996836D01*
X345783603Y-237092074D01*
X345735984Y-237139693D01*
X344831222Y-235663503D02*
X344831222Y-235853979D01*
X344878842Y-235949217D01*
X344926461Y-235996836D01*
X345069318Y-236092074D01*
X345259794Y-236139693D01*
X345640746Y-236139693D01*
X345735984Y-236092074D01*
X345783603Y-236044455D01*
X345831222Y-235949217D01*
X345831222Y-235758741D01*
X345783603Y-235663503D01*
X345735984Y-235615884D01*
X345640746Y-235568265D01*
X345402651Y-235568265D01*
X345307413Y-235615884D01*
X345259794Y-235663503D01*
X345212175Y-235758741D01*
X345212175Y-235949217D01*
X345259794Y-236044455D01*
X345307413Y-236092074D01*
X345402651Y-236139693D01*
X365662760Y-238044455D02*
X364662760Y-238044455D01*
X364662760Y-237806360D01*
X364710380Y-237663503D01*
X364805618Y-237568265D01*
X364900856Y-237520646D01*
X365091332Y-237473027D01*
X365234189Y-237473027D01*
X365424665Y-237520646D01*
X365519903Y-237568265D01*
X365615141Y-237663503D01*
X365662760Y-237806360D01*
X365662760Y-238044455D01*
X364757999Y-237092074D02*
X364710380Y-237044455D01*
X364662760Y-236949217D01*
X364662760Y-236711122D01*
X364710380Y-236615884D01*
X364757999Y-236568265D01*
X364853237Y-236520646D01*
X364948475Y-236520646D01*
X365091332Y-236568265D01*
X365662760Y-237139693D01*
X365662760Y-236520646D01*
X365091332Y-235949217D02*
X365043713Y-236044455D01*
X364996094Y-236092074D01*
X364900856Y-236139693D01*
X364853237Y-236139693D01*
X364757999Y-236092074D01*
X364710380Y-236044455D01*
X364662760Y-235949217D01*
X364662760Y-235758741D01*
X364710380Y-235663503D01*
X364757999Y-235615884D01*
X364853237Y-235568265D01*
X364900856Y-235568265D01*
X364996094Y-235615884D01*
X365043713Y-235663503D01*
X365091332Y-235758741D01*
X365091332Y-235949217D01*
X365138951Y-236044455D01*
X365186570Y-236092074D01*
X365281808Y-236139693D01*
X365472284Y-236139693D01*
X365567522Y-236092074D01*
X365615141Y-236044455D01*
X365662760Y-235949217D01*
X365662760Y-235758741D01*
X365615141Y-235663503D01*
X365567522Y-235615884D01*
X365472284Y-235568265D01*
X365281808Y-235568265D01*
X365186570Y-235615884D01*
X365138951Y-235663503D01*
X365091332Y-235758741D01*
X385494298Y-238044455D02*
X384494298Y-238044455D01*
X384494298Y-237806360D01*
X384541918Y-237663503D01*
X384637156Y-237568265D01*
X384732394Y-237520646D01*
X384922870Y-237473027D01*
X385065727Y-237473027D01*
X385256203Y-237520646D01*
X385351441Y-237568265D01*
X385446679Y-237663503D01*
X385494298Y-237806360D01*
X385494298Y-238044455D01*
X384589537Y-237092074D02*
X384541918Y-237044455D01*
X384494298Y-236949217D01*
X384494298Y-236711122D01*
X384541918Y-236615884D01*
X384589537Y-236568265D01*
X384684775Y-236520646D01*
X384780013Y-236520646D01*
X384922870Y-236568265D01*
X385494298Y-237139693D01*
X385494298Y-236520646D01*
X384494298Y-235901598D02*
X384494298Y-235806360D01*
X384541918Y-235711122D01*
X384589537Y-235663503D01*
X384684775Y-235615884D01*
X384875251Y-235568265D01*
X385113346Y-235568265D01*
X385303822Y-235615884D01*
X385399060Y-235663503D01*
X385446679Y-235711122D01*
X385494298Y-235806360D01*
X385494298Y-235901598D01*
X385446679Y-235996836D01*
X385399060Y-236044455D01*
X385303822Y-236092074D01*
X385113346Y-236139693D01*
X384875251Y-236139693D01*
X384684775Y-236092074D01*
X384589537Y-236044455D01*
X384541918Y-235996836D01*
X384494298Y-235901598D01*
X405325836Y-238044455D02*
X404325836Y-238044455D01*
X404325836Y-237806360D01*
X404373456Y-237663503D01*
X404468694Y-237568265D01*
X404563932Y-237520646D01*
X404754408Y-237473027D01*
X404897265Y-237473027D01*
X405087741Y-237520646D01*
X405182979Y-237568265D01*
X405278217Y-237663503D01*
X405325836Y-237806360D01*
X405325836Y-238044455D01*
X405325836Y-236520646D02*
X405325836Y-237092074D01*
X405325836Y-236806360D02*
X404325836Y-236806360D01*
X404468694Y-236901598D01*
X404563932Y-236996836D01*
X404611551Y-237092074D01*
X404421075Y-236139693D02*
X404373456Y-236092074D01*
X404325836Y-235996836D01*
X404325836Y-235758741D01*
X404373456Y-235663503D01*
X404421075Y-235615884D01*
X404516313Y-235568265D01*
X404611551Y-235568265D01*
X404754408Y-235615884D01*
X405325836Y-236187312D01*
X405325836Y-235568265D01*
X425157374Y-237568265D02*
X424157374Y-237568265D01*
X424157374Y-237330170D01*
X424204994Y-237187312D01*
X424300232Y-237092074D01*
X424395470Y-237044455D01*
X424585946Y-236996836D01*
X424728803Y-236996836D01*
X424919279Y-237044455D01*
X425014517Y-237092074D01*
X425109755Y-237187312D01*
X425157374Y-237330170D01*
X425157374Y-237568265D01*
X424490708Y-236139693D02*
X425157374Y-236139693D01*
X424109755Y-236377789D02*
X424824041Y-236615884D01*
X424824041Y-235996836D01*
X167347380Y-263557680D02*
X166347380Y-263557680D01*
X166347380Y-263319584D01*
X166395000Y-263176727D01*
X166490238Y-263081489D01*
X166585476Y-263033870D01*
X166775952Y-262986251D01*
X166918809Y-262986251D01*
X167109285Y-263033870D01*
X167204523Y-263081489D01*
X167299761Y-263176727D01*
X167347380Y-263319584D01*
X167347380Y-263557680D01*
X167347380Y-262033870D02*
X167347380Y-262605299D01*
X167347380Y-262319584D02*
X166347380Y-262319584D01*
X166490238Y-262414823D01*
X166585476Y-262510061D01*
X166633095Y-262605299D01*
X166347380Y-261414823D02*
X166347380Y-261319584D01*
X166395000Y-261224346D01*
X166442619Y-261176727D01*
X166537857Y-261129108D01*
X166728333Y-261081489D01*
X166966428Y-261081489D01*
X167156904Y-261129108D01*
X167252142Y-261176727D01*
X167299761Y-261224346D01*
X167347380Y-261319584D01*
X167347380Y-261414823D01*
X167299761Y-261510061D01*
X167252142Y-261557680D01*
X167156904Y-261605299D01*
X166966428Y-261652918D01*
X166728333Y-261652918D01*
X166537857Y-261605299D01*
X166442619Y-261557680D01*
X166395000Y-261510061D01*
X166347380Y-261414823D01*
X166347380Y-260748156D02*
X166347380Y-260081489D01*
X167347380Y-260510061D01*
X187178918Y-263081489D02*
X186178918Y-263081489D01*
X186178918Y-262843394D01*
X186226538Y-262700537D01*
X186321776Y-262605299D01*
X186417014Y-262557680D01*
X186607490Y-262510061D01*
X186750347Y-262510061D01*
X186940823Y-262557680D01*
X187036061Y-262605299D01*
X187131299Y-262700537D01*
X187178918Y-262843394D01*
X187178918Y-263081489D01*
X187178918Y-262033870D02*
X187178918Y-261843394D01*
X187131299Y-261748156D01*
X187083680Y-261700537D01*
X186940823Y-261605299D01*
X186750347Y-261557680D01*
X186369395Y-261557680D01*
X186274157Y-261605299D01*
X186226538Y-261652918D01*
X186178918Y-261748156D01*
X186178918Y-261938632D01*
X186226538Y-262033870D01*
X186274157Y-262081489D01*
X186369395Y-262129108D01*
X186607490Y-262129108D01*
X186702728Y-262081489D01*
X186750347Y-262033870D01*
X186797966Y-261938632D01*
X186797966Y-261748156D01*
X186750347Y-261652918D01*
X186702728Y-261605299D01*
X186607490Y-261557680D01*
X187178918Y-261081489D02*
X187178918Y-260891013D01*
X187131299Y-260795775D01*
X187083680Y-260748156D01*
X186940823Y-260652918D01*
X186750347Y-260605299D01*
X186369395Y-260605299D01*
X186274157Y-260652918D01*
X186226538Y-260700537D01*
X186178918Y-260795775D01*
X186178918Y-260986251D01*
X186226538Y-261081489D01*
X186274157Y-261129108D01*
X186369395Y-261176727D01*
X186607490Y-261176727D01*
X186702728Y-261129108D01*
X186750347Y-261081489D01*
X186797966Y-260986251D01*
X186797966Y-260795775D01*
X186750347Y-260700537D01*
X186702728Y-260652918D01*
X186607490Y-260605299D01*
X207010456Y-263081489D02*
X206010456Y-263081489D01*
X206010456Y-262843394D01*
X206058076Y-262700537D01*
X206153314Y-262605299D01*
X206248552Y-262557680D01*
X206439028Y-262510061D01*
X206581885Y-262510061D01*
X206772361Y-262557680D01*
X206867599Y-262605299D01*
X206962837Y-262700537D01*
X207010456Y-262843394D01*
X207010456Y-263081489D01*
X207010456Y-262033870D02*
X207010456Y-261843394D01*
X206962837Y-261748156D01*
X206915218Y-261700537D01*
X206772361Y-261605299D01*
X206581885Y-261557680D01*
X206200933Y-261557680D01*
X206105695Y-261605299D01*
X206058076Y-261652918D01*
X206010456Y-261748156D01*
X206010456Y-261938632D01*
X206058076Y-262033870D01*
X206105695Y-262081489D01*
X206200933Y-262129108D01*
X206439028Y-262129108D01*
X206534266Y-262081489D01*
X206581885Y-262033870D01*
X206629504Y-261938632D01*
X206629504Y-261748156D01*
X206581885Y-261652918D01*
X206534266Y-261605299D01*
X206439028Y-261557680D01*
X207010456Y-260605299D02*
X207010456Y-261176727D01*
X207010456Y-260891013D02*
X206010456Y-260891013D01*
X206153314Y-260986251D01*
X206248552Y-261081489D01*
X206296171Y-261176727D01*
X226841994Y-263081489D02*
X225841994Y-263081489D01*
X225841994Y-262843394D01*
X225889614Y-262700537D01*
X225984852Y-262605299D01*
X226080090Y-262557680D01*
X226270566Y-262510061D01*
X226413423Y-262510061D01*
X226603899Y-262557680D01*
X226699137Y-262605299D01*
X226794375Y-262700537D01*
X226841994Y-262843394D01*
X226841994Y-263081489D01*
X226270566Y-261938632D02*
X226222947Y-262033870D01*
X226175328Y-262081489D01*
X226080090Y-262129108D01*
X226032471Y-262129108D01*
X225937233Y-262081489D01*
X225889614Y-262033870D01*
X225841994Y-261938632D01*
X225841994Y-261748156D01*
X225889614Y-261652918D01*
X225937233Y-261605299D01*
X226032471Y-261557680D01*
X226080090Y-261557680D01*
X226175328Y-261605299D01*
X226222947Y-261652918D01*
X226270566Y-261748156D01*
X226270566Y-261938632D01*
X226318185Y-262033870D01*
X226365804Y-262081489D01*
X226461042Y-262129108D01*
X226651518Y-262129108D01*
X226746756Y-262081489D01*
X226794375Y-262033870D01*
X226841994Y-261938632D01*
X226841994Y-261748156D01*
X226794375Y-261652918D01*
X226746756Y-261605299D01*
X226651518Y-261557680D01*
X226461042Y-261557680D01*
X226365804Y-261605299D01*
X226318185Y-261652918D01*
X226270566Y-261748156D01*
X225841994Y-261224346D02*
X225841994Y-260605299D01*
X226222947Y-260938632D01*
X226222947Y-260795775D01*
X226270566Y-260700537D01*
X226318185Y-260652918D01*
X226413423Y-260605299D01*
X226651518Y-260605299D01*
X226746756Y-260652918D01*
X226794375Y-260700537D01*
X226841994Y-260795775D01*
X226841994Y-261081489D01*
X226794375Y-261176727D01*
X226746756Y-261224346D01*
X246673532Y-263081489D02*
X245673532Y-263081489D01*
X245673532Y-262843394D01*
X245721152Y-262700537D01*
X245816390Y-262605299D01*
X245911628Y-262557680D01*
X246102104Y-262510061D01*
X246244961Y-262510061D01*
X246435437Y-262557680D01*
X246530675Y-262605299D01*
X246625913Y-262700537D01*
X246673532Y-262843394D01*
X246673532Y-263081489D01*
X245673532Y-262176727D02*
X245673532Y-261510061D01*
X246673532Y-261938632D01*
X245673532Y-260652918D02*
X245673532Y-261129108D01*
X246149723Y-261176727D01*
X246102104Y-261129108D01*
X246054485Y-261033870D01*
X246054485Y-260795775D01*
X246102104Y-260700537D01*
X246149723Y-260652918D01*
X246244961Y-260605299D01*
X246483056Y-260605299D01*
X246578294Y-260652918D01*
X246625913Y-260700537D01*
X246673532Y-260795775D01*
X246673532Y-261033870D01*
X246625913Y-261129108D01*
X246578294Y-261176727D01*
X266505070Y-263081489D02*
X265505070Y-263081489D01*
X265505070Y-262843394D01*
X265552690Y-262700537D01*
X265647928Y-262605299D01*
X265743166Y-262557680D01*
X265933642Y-262510061D01*
X266076499Y-262510061D01*
X266266975Y-262557680D01*
X266362213Y-262605299D01*
X266457451Y-262700537D01*
X266505070Y-262843394D01*
X266505070Y-263081489D01*
X265505070Y-261652918D02*
X265505070Y-261843394D01*
X265552690Y-261938632D01*
X265600309Y-261986251D01*
X265743166Y-262081489D01*
X265933642Y-262129108D01*
X266314594Y-262129108D01*
X266409832Y-262081489D01*
X266457451Y-262033870D01*
X266505070Y-261938632D01*
X266505070Y-261748156D01*
X266457451Y-261652918D01*
X266409832Y-261605299D01*
X266314594Y-261557680D01*
X266076499Y-261557680D01*
X265981261Y-261605299D01*
X265933642Y-261652918D01*
X265886023Y-261748156D01*
X265886023Y-261938632D01*
X265933642Y-262033870D01*
X265981261Y-262081489D01*
X266076499Y-262129108D01*
X265505070Y-261224346D02*
X265505070Y-260557680D01*
X266505070Y-260986251D01*
X286336608Y-263081489D02*
X285336608Y-263081489D01*
X285336608Y-262843394D01*
X285384228Y-262700537D01*
X285479466Y-262605299D01*
X285574704Y-262557680D01*
X285765180Y-262510061D01*
X285908037Y-262510061D01*
X286098513Y-262557680D01*
X286193751Y-262605299D01*
X286288989Y-262700537D01*
X286336608Y-262843394D01*
X286336608Y-263081489D01*
X285336608Y-261605299D02*
X285336608Y-262081489D01*
X285812799Y-262129108D01*
X285765180Y-262081489D01*
X285717561Y-261986251D01*
X285717561Y-261748156D01*
X285765180Y-261652918D01*
X285812799Y-261605299D01*
X285908037Y-261557680D01*
X286146132Y-261557680D01*
X286241370Y-261605299D01*
X286288989Y-261652918D01*
X286336608Y-261748156D01*
X286336608Y-261986251D01*
X286288989Y-262081489D01*
X286241370Y-262129108D01*
X286336608Y-261081489D02*
X286336608Y-260891013D01*
X286288989Y-260795775D01*
X286241370Y-260748156D01*
X286098513Y-260652918D01*
X285908037Y-260605299D01*
X285527085Y-260605299D01*
X285431847Y-260652918D01*
X285384228Y-260700537D01*
X285336608Y-260795775D01*
X285336608Y-260986251D01*
X285384228Y-261081489D01*
X285431847Y-261129108D01*
X285527085Y-261176727D01*
X285765180Y-261176727D01*
X285860418Y-261129108D01*
X285908037Y-261081489D01*
X285955656Y-260986251D01*
X285955656Y-260795775D01*
X285908037Y-260700537D01*
X285860418Y-260652918D01*
X285765180Y-260605299D01*
X306168146Y-263081489D02*
X305168146Y-263081489D01*
X305168146Y-262843394D01*
X305215766Y-262700537D01*
X305311004Y-262605299D01*
X305406242Y-262557680D01*
X305596718Y-262510061D01*
X305739575Y-262510061D01*
X305930051Y-262557680D01*
X306025289Y-262605299D01*
X306120527Y-262700537D01*
X306168146Y-262843394D01*
X306168146Y-263081489D01*
X305168146Y-261605299D02*
X305168146Y-262081489D01*
X305644337Y-262129108D01*
X305596718Y-262081489D01*
X305549099Y-261986251D01*
X305549099Y-261748156D01*
X305596718Y-261652918D01*
X305644337Y-261605299D01*
X305739575Y-261557680D01*
X305977670Y-261557680D01*
X306072908Y-261605299D01*
X306120527Y-261652918D01*
X306168146Y-261748156D01*
X306168146Y-261986251D01*
X306120527Y-262081489D01*
X306072908Y-262129108D01*
X306168146Y-260605299D02*
X306168146Y-261176727D01*
X306168146Y-260891013D02*
X305168146Y-260891013D01*
X305311004Y-260986251D01*
X305406242Y-261081489D01*
X305453861Y-261176727D01*
X325999684Y-263081489D02*
X324999684Y-263081489D01*
X324999684Y-262843394D01*
X325047304Y-262700537D01*
X325142542Y-262605299D01*
X325237780Y-262557680D01*
X325428256Y-262510061D01*
X325571113Y-262510061D01*
X325761589Y-262557680D01*
X325856827Y-262605299D01*
X325952065Y-262700537D01*
X325999684Y-262843394D01*
X325999684Y-263081489D01*
X325333018Y-261652918D02*
X325999684Y-261652918D01*
X324952065Y-261891013D02*
X325666351Y-262129108D01*
X325666351Y-261510061D01*
X324999684Y-261224346D02*
X324999684Y-260605299D01*
X325380637Y-260938632D01*
X325380637Y-260795775D01*
X325428256Y-260700537D01*
X325475875Y-260652918D01*
X325571113Y-260605299D01*
X325809208Y-260605299D01*
X325904446Y-260652918D01*
X325952065Y-260700537D01*
X325999684Y-260795775D01*
X325999684Y-261081489D01*
X325952065Y-261176727D01*
X325904446Y-261224346D01*
X345831222Y-263081489D02*
X344831222Y-263081489D01*
X344831222Y-262843394D01*
X344878842Y-262700537D01*
X344974080Y-262605299D01*
X345069318Y-262557680D01*
X345259794Y-262510061D01*
X345402651Y-262510061D01*
X345593127Y-262557680D01*
X345688365Y-262605299D01*
X345783603Y-262700537D01*
X345831222Y-262843394D01*
X345831222Y-263081489D01*
X344831222Y-262176727D02*
X344831222Y-261557680D01*
X345212175Y-261891013D01*
X345212175Y-261748156D01*
X345259794Y-261652918D01*
X345307413Y-261605299D01*
X345402651Y-261557680D01*
X345640746Y-261557680D01*
X345735984Y-261605299D01*
X345783603Y-261652918D01*
X345831222Y-261748156D01*
X345831222Y-262033870D01*
X345783603Y-262129108D01*
X345735984Y-262176727D01*
X344831222Y-260652918D02*
X344831222Y-261129108D01*
X345307413Y-261176727D01*
X345259794Y-261129108D01*
X345212175Y-261033870D01*
X345212175Y-260795775D01*
X345259794Y-260700537D01*
X345307413Y-260652918D01*
X345402651Y-260605299D01*
X345640746Y-260605299D01*
X345735984Y-260652918D01*
X345783603Y-260700537D01*
X345831222Y-260795775D01*
X345831222Y-261033870D01*
X345783603Y-261129108D01*
X345735984Y-261176727D01*
X365662760Y-263081489D02*
X364662760Y-263081489D01*
X364662760Y-262843394D01*
X364710380Y-262700537D01*
X364805618Y-262605299D01*
X364900856Y-262557680D01*
X365091332Y-262510061D01*
X365234189Y-262510061D01*
X365424665Y-262557680D01*
X365519903Y-262605299D01*
X365615141Y-262700537D01*
X365662760Y-262843394D01*
X365662760Y-263081489D01*
X364757999Y-262129108D02*
X364710380Y-262081489D01*
X364662760Y-261986251D01*
X364662760Y-261748156D01*
X364710380Y-261652918D01*
X364757999Y-261605299D01*
X364853237Y-261557680D01*
X364948475Y-261557680D01*
X365091332Y-261605299D01*
X365662760Y-262176727D01*
X365662760Y-261557680D01*
X364662760Y-261224346D02*
X364662760Y-260557680D01*
X365662760Y-260986251D01*
X385494298Y-263081489D02*
X384494298Y-263081489D01*
X384494298Y-262843394D01*
X384541918Y-262700537D01*
X384637156Y-262605299D01*
X384732394Y-262557680D01*
X384922870Y-262510061D01*
X385065727Y-262510061D01*
X385256203Y-262557680D01*
X385351441Y-262605299D01*
X385446679Y-262700537D01*
X385494298Y-262843394D01*
X385494298Y-263081489D01*
X385494298Y-261557680D02*
X385494298Y-262129108D01*
X385494298Y-261843394D02*
X384494298Y-261843394D01*
X384637156Y-261938632D01*
X384732394Y-262033870D01*
X384780013Y-262129108D01*
X385494298Y-261081489D02*
X385494298Y-260891013D01*
X385446679Y-260795775D01*
X385399060Y-260748156D01*
X385256203Y-260652918D01*
X385065727Y-260605299D01*
X384684775Y-260605299D01*
X384589537Y-260652918D01*
X384541918Y-260700537D01*
X384494298Y-260795775D01*
X384494298Y-260986251D01*
X384541918Y-261081489D01*
X384589537Y-261129108D01*
X384684775Y-261176727D01*
X384922870Y-261176727D01*
X385018108Y-261129108D01*
X385065727Y-261081489D01*
X385113346Y-260986251D01*
X385113346Y-260795775D01*
X385065727Y-260700537D01*
X385018108Y-260652918D01*
X384922870Y-260605299D01*
X405325836Y-263081489D02*
X404325836Y-263081489D01*
X404325836Y-262843394D01*
X404373456Y-262700537D01*
X404468694Y-262605299D01*
X404563932Y-262557680D01*
X404754408Y-262510061D01*
X404897265Y-262510061D01*
X405087741Y-262557680D01*
X405182979Y-262605299D01*
X405278217Y-262700537D01*
X405325836Y-262843394D01*
X405325836Y-263081489D01*
X405325836Y-261557680D02*
X405325836Y-262129108D01*
X405325836Y-261843394D02*
X404325836Y-261843394D01*
X404468694Y-261938632D01*
X404563932Y-262033870D01*
X404611551Y-262129108D01*
X405325836Y-260605299D02*
X405325836Y-261176727D01*
X405325836Y-260891013D02*
X404325836Y-260891013D01*
X404468694Y-260986251D01*
X404563932Y-261081489D01*
X404611551Y-261176727D01*
X425157374Y-262605299D02*
X424157374Y-262605299D01*
X424157374Y-262367204D01*
X424204994Y-262224346D01*
X424300232Y-262129108D01*
X424395470Y-262081489D01*
X424585946Y-262033870D01*
X424728803Y-262033870D01*
X424919279Y-262081489D01*
X425014517Y-262129108D01*
X425109755Y-262224346D01*
X425157374Y-262367204D01*
X425157374Y-262605299D01*
X424157374Y-261700537D02*
X424157374Y-261081489D01*
X424538327Y-261414823D01*
X424538327Y-261271965D01*
X424585946Y-261176727D01*
X424633565Y-261129108D01*
X424728803Y-261081489D01*
X424966898Y-261081489D01*
X425062136Y-261129108D01*
X425109755Y-261176727D01*
X425157374Y-261271965D01*
X425157374Y-261557680D01*
X425109755Y-261652918D01*
X425062136Y-261700537D01*
X167347380Y-288594714D02*
X166347380Y-288594714D01*
X166347380Y-288356618D01*
X166395000Y-288213761D01*
X166490238Y-288118523D01*
X166585476Y-288070904D01*
X166775952Y-288023285D01*
X166918809Y-288023285D01*
X167109285Y-288070904D01*
X167204523Y-288118523D01*
X167299761Y-288213761D01*
X167347380Y-288356618D01*
X167347380Y-288594714D01*
X167347380Y-287070904D02*
X167347380Y-287642333D01*
X167347380Y-287356618D02*
X166347380Y-287356618D01*
X166490238Y-287451857D01*
X166585476Y-287547095D01*
X166633095Y-287642333D01*
X166347380Y-286451857D02*
X166347380Y-286356618D01*
X166395000Y-286261380D01*
X166442619Y-286213761D01*
X166537857Y-286166142D01*
X166728333Y-286118523D01*
X166966428Y-286118523D01*
X167156904Y-286166142D01*
X167252142Y-286213761D01*
X167299761Y-286261380D01*
X167347380Y-286356618D01*
X167347380Y-286451857D01*
X167299761Y-286547095D01*
X167252142Y-286594714D01*
X167156904Y-286642333D01*
X166966428Y-286689952D01*
X166728333Y-286689952D01*
X166537857Y-286642333D01*
X166442619Y-286594714D01*
X166395000Y-286547095D01*
X166347380Y-286451857D01*
X166347380Y-285261380D02*
X166347380Y-285451857D01*
X166395000Y-285547095D01*
X166442619Y-285594714D01*
X166585476Y-285689952D01*
X166775952Y-285737571D01*
X167156904Y-285737571D01*
X167252142Y-285689952D01*
X167299761Y-285642333D01*
X167347380Y-285547095D01*
X167347380Y-285356618D01*
X167299761Y-285261380D01*
X167252142Y-285213761D01*
X167156904Y-285166142D01*
X166918809Y-285166142D01*
X166823571Y-285213761D01*
X166775952Y-285261380D01*
X166728333Y-285356618D01*
X166728333Y-285547095D01*
X166775952Y-285642333D01*
X166823571Y-285689952D01*
X166918809Y-285737571D01*
X187178918Y-288118523D02*
X186178918Y-288118523D01*
X186178918Y-287880428D01*
X186226538Y-287737571D01*
X186321776Y-287642333D01*
X186417014Y-287594714D01*
X186607490Y-287547095D01*
X186750347Y-287547095D01*
X186940823Y-287594714D01*
X187036061Y-287642333D01*
X187131299Y-287737571D01*
X187178918Y-287880428D01*
X187178918Y-288118523D01*
X187178918Y-287070904D02*
X187178918Y-286880428D01*
X187131299Y-286785190D01*
X187083680Y-286737571D01*
X186940823Y-286642333D01*
X186750347Y-286594714D01*
X186369395Y-286594714D01*
X186274157Y-286642333D01*
X186226538Y-286689952D01*
X186178918Y-286785190D01*
X186178918Y-286975666D01*
X186226538Y-287070904D01*
X186274157Y-287118523D01*
X186369395Y-287166142D01*
X186607490Y-287166142D01*
X186702728Y-287118523D01*
X186750347Y-287070904D01*
X186797966Y-286975666D01*
X186797966Y-286785190D01*
X186750347Y-286689952D01*
X186702728Y-286642333D01*
X186607490Y-286594714D01*
X186607490Y-286023285D02*
X186559871Y-286118523D01*
X186512252Y-286166142D01*
X186417014Y-286213761D01*
X186369395Y-286213761D01*
X186274157Y-286166142D01*
X186226538Y-286118523D01*
X186178918Y-286023285D01*
X186178918Y-285832809D01*
X186226538Y-285737571D01*
X186274157Y-285689952D01*
X186369395Y-285642333D01*
X186417014Y-285642333D01*
X186512252Y-285689952D01*
X186559871Y-285737571D01*
X186607490Y-285832809D01*
X186607490Y-286023285D01*
X186655109Y-286118523D01*
X186702728Y-286166142D01*
X186797966Y-286213761D01*
X186988442Y-286213761D01*
X187083680Y-286166142D01*
X187131299Y-286118523D01*
X187178918Y-286023285D01*
X187178918Y-285832809D01*
X187131299Y-285737571D01*
X187083680Y-285689952D01*
X186988442Y-285642333D01*
X186797966Y-285642333D01*
X186702728Y-285689952D01*
X186655109Y-285737571D01*
X186607490Y-285832809D01*
X207010456Y-288118523D02*
X206010456Y-288118523D01*
X206010456Y-287880428D01*
X206058076Y-287737571D01*
X206153314Y-287642333D01*
X206248552Y-287594714D01*
X206439028Y-287547095D01*
X206581885Y-287547095D01*
X206772361Y-287594714D01*
X206867599Y-287642333D01*
X206962837Y-287737571D01*
X207010456Y-287880428D01*
X207010456Y-288118523D01*
X207010456Y-287070904D02*
X207010456Y-286880428D01*
X206962837Y-286785190D01*
X206915218Y-286737571D01*
X206772361Y-286642333D01*
X206581885Y-286594714D01*
X206200933Y-286594714D01*
X206105695Y-286642333D01*
X206058076Y-286689952D01*
X206010456Y-286785190D01*
X206010456Y-286975666D01*
X206058076Y-287070904D01*
X206105695Y-287118523D01*
X206200933Y-287166142D01*
X206439028Y-287166142D01*
X206534266Y-287118523D01*
X206581885Y-287070904D01*
X206629504Y-286975666D01*
X206629504Y-286785190D01*
X206581885Y-286689952D01*
X206534266Y-286642333D01*
X206439028Y-286594714D01*
X206010456Y-285975666D02*
X206010456Y-285880428D01*
X206058076Y-285785190D01*
X206105695Y-285737571D01*
X206200933Y-285689952D01*
X206391409Y-285642333D01*
X206629504Y-285642333D01*
X206819980Y-285689952D01*
X206915218Y-285737571D01*
X206962837Y-285785190D01*
X207010456Y-285880428D01*
X207010456Y-285975666D01*
X206962837Y-286070904D01*
X206915218Y-286118523D01*
X206819980Y-286166142D01*
X206629504Y-286213761D01*
X206391409Y-286213761D01*
X206200933Y-286166142D01*
X206105695Y-286118523D01*
X206058076Y-286070904D01*
X206010456Y-285975666D01*
X226841994Y-288118523D02*
X225841994Y-288118523D01*
X225841994Y-287880428D01*
X225889614Y-287737571D01*
X225984852Y-287642333D01*
X226080090Y-287594714D01*
X226270566Y-287547095D01*
X226413423Y-287547095D01*
X226603899Y-287594714D01*
X226699137Y-287642333D01*
X226794375Y-287737571D01*
X226841994Y-287880428D01*
X226841994Y-288118523D01*
X226270566Y-286975666D02*
X226222947Y-287070904D01*
X226175328Y-287118523D01*
X226080090Y-287166142D01*
X226032471Y-287166142D01*
X225937233Y-287118523D01*
X225889614Y-287070904D01*
X225841994Y-286975666D01*
X225841994Y-286785190D01*
X225889614Y-286689952D01*
X225937233Y-286642333D01*
X226032471Y-286594714D01*
X226080090Y-286594714D01*
X226175328Y-286642333D01*
X226222947Y-286689952D01*
X226270566Y-286785190D01*
X226270566Y-286975666D01*
X226318185Y-287070904D01*
X226365804Y-287118523D01*
X226461042Y-287166142D01*
X226651518Y-287166142D01*
X226746756Y-287118523D01*
X226794375Y-287070904D01*
X226841994Y-286975666D01*
X226841994Y-286785190D01*
X226794375Y-286689952D01*
X226746756Y-286642333D01*
X226651518Y-286594714D01*
X226461042Y-286594714D01*
X226365804Y-286642333D01*
X226318185Y-286689952D01*
X226270566Y-286785190D01*
X225937233Y-286213761D02*
X225889614Y-286166142D01*
X225841994Y-286070904D01*
X225841994Y-285832809D01*
X225889614Y-285737571D01*
X225937233Y-285689952D01*
X226032471Y-285642333D01*
X226127709Y-285642333D01*
X226270566Y-285689952D01*
X226841994Y-286261380D01*
X226841994Y-285642333D01*
X246673532Y-288118523D02*
X245673532Y-288118523D01*
X245673532Y-287880428D01*
X245721152Y-287737571D01*
X245816390Y-287642333D01*
X245911628Y-287594714D01*
X246102104Y-287547095D01*
X246244961Y-287547095D01*
X246435437Y-287594714D01*
X246530675Y-287642333D01*
X246625913Y-287737571D01*
X246673532Y-287880428D01*
X246673532Y-288118523D01*
X245673532Y-287213761D02*
X245673532Y-286547095D01*
X246673532Y-286975666D01*
X246006866Y-285737571D02*
X246673532Y-285737571D01*
X245625913Y-285975666D02*
X246340199Y-286213761D01*
X246340199Y-285594714D01*
X266505070Y-288118523D02*
X265505070Y-288118523D01*
X265505070Y-287880428D01*
X265552690Y-287737571D01*
X265647928Y-287642333D01*
X265743166Y-287594714D01*
X265933642Y-287547095D01*
X266076499Y-287547095D01*
X266266975Y-287594714D01*
X266362213Y-287642333D01*
X266457451Y-287737571D01*
X266505070Y-287880428D01*
X266505070Y-288118523D01*
X265505070Y-286689952D02*
X265505070Y-286880428D01*
X265552690Y-286975666D01*
X265600309Y-287023285D01*
X265743166Y-287118523D01*
X265933642Y-287166142D01*
X266314594Y-287166142D01*
X266409832Y-287118523D01*
X266457451Y-287070904D01*
X266505070Y-286975666D01*
X266505070Y-286785190D01*
X266457451Y-286689952D01*
X266409832Y-286642333D01*
X266314594Y-286594714D01*
X266076499Y-286594714D01*
X265981261Y-286642333D01*
X265933642Y-286689952D01*
X265886023Y-286785190D01*
X265886023Y-286975666D01*
X265933642Y-287070904D01*
X265981261Y-287118523D01*
X266076499Y-287166142D01*
X265505070Y-285737571D02*
X265505070Y-285928047D01*
X265552690Y-286023285D01*
X265600309Y-286070904D01*
X265743166Y-286166142D01*
X265933642Y-286213761D01*
X266314594Y-286213761D01*
X266409832Y-286166142D01*
X266457451Y-286118523D01*
X266505070Y-286023285D01*
X266505070Y-285832809D01*
X266457451Y-285737571D01*
X266409832Y-285689952D01*
X266314594Y-285642333D01*
X266076499Y-285642333D01*
X265981261Y-285689952D01*
X265933642Y-285737571D01*
X265886023Y-285832809D01*
X265886023Y-286023285D01*
X265933642Y-286118523D01*
X265981261Y-286166142D01*
X266076499Y-286213761D01*
X286336608Y-288118523D02*
X285336608Y-288118523D01*
X285336608Y-287880428D01*
X285384228Y-287737571D01*
X285479466Y-287642333D01*
X285574704Y-287594714D01*
X285765180Y-287547095D01*
X285908037Y-287547095D01*
X286098513Y-287594714D01*
X286193751Y-287642333D01*
X286288989Y-287737571D01*
X286336608Y-287880428D01*
X286336608Y-288118523D01*
X285336608Y-286642333D02*
X285336608Y-287118523D01*
X285812799Y-287166142D01*
X285765180Y-287118523D01*
X285717561Y-287023285D01*
X285717561Y-286785190D01*
X285765180Y-286689952D01*
X285812799Y-286642333D01*
X285908037Y-286594714D01*
X286146132Y-286594714D01*
X286241370Y-286642333D01*
X286288989Y-286689952D01*
X286336608Y-286785190D01*
X286336608Y-287023285D01*
X286288989Y-287118523D01*
X286241370Y-287166142D01*
X285765180Y-286023285D02*
X285717561Y-286118523D01*
X285669942Y-286166142D01*
X285574704Y-286213761D01*
X285527085Y-286213761D01*
X285431847Y-286166142D01*
X285384228Y-286118523D01*
X285336608Y-286023285D01*
X285336608Y-285832809D01*
X285384228Y-285737571D01*
X285431847Y-285689952D01*
X285527085Y-285642333D01*
X285574704Y-285642333D01*
X285669942Y-285689952D01*
X285717561Y-285737571D01*
X285765180Y-285832809D01*
X285765180Y-286023285D01*
X285812799Y-286118523D01*
X285860418Y-286166142D01*
X285955656Y-286213761D01*
X286146132Y-286213761D01*
X286241370Y-286166142D01*
X286288989Y-286118523D01*
X286336608Y-286023285D01*
X286336608Y-285832809D01*
X286288989Y-285737571D01*
X286241370Y-285689952D01*
X286146132Y-285642333D01*
X285955656Y-285642333D01*
X285860418Y-285689952D01*
X285812799Y-285737571D01*
X285765180Y-285832809D01*
X306168146Y-288118523D02*
X305168146Y-288118523D01*
X305168146Y-287880428D01*
X305215766Y-287737571D01*
X305311004Y-287642333D01*
X305406242Y-287594714D01*
X305596718Y-287547095D01*
X305739575Y-287547095D01*
X305930051Y-287594714D01*
X306025289Y-287642333D01*
X306120527Y-287737571D01*
X306168146Y-287880428D01*
X306168146Y-288118523D01*
X305168146Y-286642333D02*
X305168146Y-287118523D01*
X305644337Y-287166142D01*
X305596718Y-287118523D01*
X305549099Y-287023285D01*
X305549099Y-286785190D01*
X305596718Y-286689952D01*
X305644337Y-286642333D01*
X305739575Y-286594714D01*
X305977670Y-286594714D01*
X306072908Y-286642333D01*
X306120527Y-286689952D01*
X306168146Y-286785190D01*
X306168146Y-287023285D01*
X306120527Y-287118523D01*
X306072908Y-287166142D01*
X305168146Y-285975666D02*
X305168146Y-285880428D01*
X305215766Y-285785190D01*
X305263385Y-285737571D01*
X305358623Y-285689952D01*
X305549099Y-285642333D01*
X305787194Y-285642333D01*
X305977670Y-285689952D01*
X306072908Y-285737571D01*
X306120527Y-285785190D01*
X306168146Y-285880428D01*
X306168146Y-285975666D01*
X306120527Y-286070904D01*
X306072908Y-286118523D01*
X305977670Y-286166142D01*
X305787194Y-286213761D01*
X305549099Y-286213761D01*
X305358623Y-286166142D01*
X305263385Y-286118523D01*
X305215766Y-286070904D01*
X305168146Y-285975666D01*
X325999684Y-288118523D02*
X324999684Y-288118523D01*
X324999684Y-287880428D01*
X325047304Y-287737571D01*
X325142542Y-287642333D01*
X325237780Y-287594714D01*
X325428256Y-287547095D01*
X325571113Y-287547095D01*
X325761589Y-287594714D01*
X325856827Y-287642333D01*
X325952065Y-287737571D01*
X325999684Y-287880428D01*
X325999684Y-288118523D01*
X325333018Y-286689952D02*
X325999684Y-286689952D01*
X324952065Y-286928047D02*
X325666351Y-287166142D01*
X325666351Y-286547095D01*
X325094923Y-286213761D02*
X325047304Y-286166142D01*
X324999684Y-286070904D01*
X324999684Y-285832809D01*
X325047304Y-285737571D01*
X325094923Y-285689952D01*
X325190161Y-285642333D01*
X325285399Y-285642333D01*
X325428256Y-285689952D01*
X325999684Y-286261380D01*
X325999684Y-285642333D01*
X345831222Y-288118523D02*
X344831222Y-288118523D01*
X344831222Y-287880428D01*
X344878842Y-287737571D01*
X344974080Y-287642333D01*
X345069318Y-287594714D01*
X345259794Y-287547095D01*
X345402651Y-287547095D01*
X345593127Y-287594714D01*
X345688365Y-287642333D01*
X345783603Y-287737571D01*
X345831222Y-287880428D01*
X345831222Y-288118523D01*
X344831222Y-287213761D02*
X344831222Y-286594714D01*
X345212175Y-286928047D01*
X345212175Y-286785190D01*
X345259794Y-286689952D01*
X345307413Y-286642333D01*
X345402651Y-286594714D01*
X345640746Y-286594714D01*
X345735984Y-286642333D01*
X345783603Y-286689952D01*
X345831222Y-286785190D01*
X345831222Y-287070904D01*
X345783603Y-287166142D01*
X345735984Y-287213761D01*
X345164556Y-285737571D02*
X345831222Y-285737571D01*
X344783603Y-285975666D02*
X345497889Y-286213761D01*
X345497889Y-285594714D01*
X365662760Y-288118523D02*
X364662760Y-288118523D01*
X364662760Y-287880428D01*
X364710380Y-287737571D01*
X364805618Y-287642333D01*
X364900856Y-287594714D01*
X365091332Y-287547095D01*
X365234189Y-287547095D01*
X365424665Y-287594714D01*
X365519903Y-287642333D01*
X365615141Y-287737571D01*
X365662760Y-287880428D01*
X365662760Y-288118523D01*
X364757999Y-287166142D02*
X364710380Y-287118523D01*
X364662760Y-287023285D01*
X364662760Y-286785190D01*
X364710380Y-286689952D01*
X364757999Y-286642333D01*
X364853237Y-286594714D01*
X364948475Y-286594714D01*
X365091332Y-286642333D01*
X365662760Y-287213761D01*
X365662760Y-286594714D01*
X364662760Y-285737571D02*
X364662760Y-285928047D01*
X364710380Y-286023285D01*
X364757999Y-286070904D01*
X364900856Y-286166142D01*
X365091332Y-286213761D01*
X365472284Y-286213761D01*
X365567522Y-286166142D01*
X365615141Y-286118523D01*
X365662760Y-286023285D01*
X365662760Y-285832809D01*
X365615141Y-285737571D01*
X365567522Y-285689952D01*
X365472284Y-285642333D01*
X365234189Y-285642333D01*
X365138951Y-285689952D01*
X365091332Y-285737571D01*
X365043713Y-285832809D01*
X365043713Y-286023285D01*
X365091332Y-286118523D01*
X365138951Y-286166142D01*
X365234189Y-286213761D01*
X385494298Y-288118523D02*
X384494298Y-288118523D01*
X384494298Y-287880428D01*
X384541918Y-287737571D01*
X384637156Y-287642333D01*
X384732394Y-287594714D01*
X384922870Y-287547095D01*
X385065727Y-287547095D01*
X385256203Y-287594714D01*
X385351441Y-287642333D01*
X385446679Y-287737571D01*
X385494298Y-287880428D01*
X385494298Y-288118523D01*
X385494298Y-286594714D02*
X385494298Y-287166142D01*
X385494298Y-286880428D02*
X384494298Y-286880428D01*
X384637156Y-286975666D01*
X384732394Y-287070904D01*
X384780013Y-287166142D01*
X384922870Y-286023285D02*
X384875251Y-286118523D01*
X384827632Y-286166142D01*
X384732394Y-286213761D01*
X384684775Y-286213761D01*
X384589537Y-286166142D01*
X384541918Y-286118523D01*
X384494298Y-286023285D01*
X384494298Y-285832809D01*
X384541918Y-285737571D01*
X384589537Y-285689952D01*
X384684775Y-285642333D01*
X384732394Y-285642333D01*
X384827632Y-285689952D01*
X384875251Y-285737571D01*
X384922870Y-285832809D01*
X384922870Y-286023285D01*
X384970489Y-286118523D01*
X385018108Y-286166142D01*
X385113346Y-286213761D01*
X385303822Y-286213761D01*
X385399060Y-286166142D01*
X385446679Y-286118523D01*
X385494298Y-286023285D01*
X385494298Y-285832809D01*
X385446679Y-285737571D01*
X385399060Y-285689952D01*
X385303822Y-285642333D01*
X385113346Y-285642333D01*
X385018108Y-285689952D01*
X384970489Y-285737571D01*
X384922870Y-285832809D01*
X405325836Y-288118523D02*
X404325836Y-288118523D01*
X404325836Y-287880428D01*
X404373456Y-287737571D01*
X404468694Y-287642333D01*
X404563932Y-287594714D01*
X404754408Y-287547095D01*
X404897265Y-287547095D01*
X405087741Y-287594714D01*
X405182979Y-287642333D01*
X405278217Y-287737571D01*
X405325836Y-287880428D01*
X405325836Y-288118523D01*
X405325836Y-286594714D02*
X405325836Y-287166142D01*
X405325836Y-286880428D02*
X404325836Y-286880428D01*
X404468694Y-286975666D01*
X404563932Y-287070904D01*
X404611551Y-287166142D01*
X404325836Y-285975666D02*
X404325836Y-285880428D01*
X404373456Y-285785190D01*
X404421075Y-285737571D01*
X404516313Y-285689952D01*
X404706789Y-285642333D01*
X404944884Y-285642333D01*
X405135360Y-285689952D01*
X405230598Y-285737571D01*
X405278217Y-285785190D01*
X405325836Y-285880428D01*
X405325836Y-285975666D01*
X405278217Y-286070904D01*
X405230598Y-286118523D01*
X405135360Y-286166142D01*
X404944884Y-286213761D01*
X404706789Y-286213761D01*
X404516313Y-286166142D01*
X404421075Y-286118523D01*
X404373456Y-286070904D01*
X404325836Y-285975666D01*
X425157374Y-287642333D02*
X424157374Y-287642333D01*
X424157374Y-287404238D01*
X424204994Y-287261380D01*
X424300232Y-287166142D01*
X424395470Y-287118523D01*
X424585946Y-287070904D01*
X424728803Y-287070904D01*
X424919279Y-287118523D01*
X425014517Y-287166142D01*
X425109755Y-287261380D01*
X425157374Y-287404238D01*
X425157374Y-287642333D01*
X424252613Y-286689952D02*
X424204994Y-286642333D01*
X424157374Y-286547095D01*
X424157374Y-286308999D01*
X424204994Y-286213761D01*
X424252613Y-286166142D01*
X424347851Y-286118523D01*
X424443089Y-286118523D01*
X424585946Y-286166142D01*
X425157374Y-286737571D01*
X425157374Y-286118523D01*
X158932666Y-107507380D02*
X158932666Y-108221666D01*
X158885047Y-108364523D01*
X158789809Y-108459761D01*
X158646952Y-108507380D01*
X158551714Y-108507380D01*
X159408857Y-108507380D02*
X159408857Y-107507380D01*
X159789809Y-107507380D01*
X159885047Y-107555000D01*
X159932666Y-107602619D01*
X159980285Y-107697857D01*
X159980285Y-107840714D01*
X159932666Y-107935952D01*
X159885047Y-107983571D01*
X159789809Y-108031190D01*
X159408857Y-108031190D01*
X160313619Y-107507380D02*
X160932666Y-107507380D01*
X160599333Y-107888333D01*
X160742190Y-107888333D01*
X160837428Y-107935952D01*
X160885047Y-107983571D01*
X160932666Y-108078809D01*
X160932666Y-108316904D01*
X160885047Y-108412142D01*
X160837428Y-108459761D01*
X160742190Y-108507380D01*
X160456476Y-108507380D01*
X160361238Y-108459761D01*
X160313619Y-108412142D01*
X179252666Y-103443380D02*
X179252666Y-104157666D01*
X179205047Y-104300523D01*
X179109809Y-104395761D01*
X178966952Y-104443380D01*
X178871714Y-104443380D01*
X179728857Y-104443380D02*
X179728857Y-103443380D01*
X180109809Y-103443380D01*
X180205047Y-103491000D01*
X180252666Y-103538619D01*
X180300285Y-103633857D01*
X180300285Y-103776714D01*
X180252666Y-103871952D01*
X180205047Y-103919571D01*
X180109809Y-103967190D01*
X179728857Y-103967190D01*
X180681238Y-103538619D02*
X180728857Y-103491000D01*
X180824095Y-103443380D01*
X181062190Y-103443380D01*
X181157428Y-103491000D01*
X181205047Y-103538619D01*
X181252666Y-103633857D01*
X181252666Y-103729095D01*
X181205047Y-103871952D01*
X180633619Y-104443380D01*
X181252666Y-104443380D01*
X158051666Y-107187380D02*
X158051666Y-106187380D01*
X158385000Y-106901666D01*
X158718333Y-106187380D01*
X158718333Y-107187380D01*
X159194523Y-107187380D02*
X159194523Y-106187380D01*
X159194523Y-106663571D02*
X159765952Y-106663571D01*
X159765952Y-107187380D02*
X159765952Y-106187380D01*
X160146904Y-106187380D02*
X160765952Y-106187380D01*
X160432619Y-106568333D01*
X160575476Y-106568333D01*
X160670714Y-106615952D01*
X160718333Y-106663571D01*
X160765952Y-106758809D01*
X160765952Y-106996904D01*
X160718333Y-107092142D01*
X160670714Y-107139761D01*
X160575476Y-107187380D01*
X160289761Y-107187380D01*
X160194523Y-107139761D01*
X160146904Y-107092142D01*
X436181666Y-107187380D02*
X436181666Y-106187380D01*
X436515000Y-106901666D01*
X436848333Y-106187380D01*
X436848333Y-107187380D01*
X437324523Y-107187380D02*
X437324523Y-106187380D01*
X437324523Y-106663571D02*
X437895952Y-106663571D01*
X437895952Y-107187380D02*
X437895952Y-106187380D01*
X438848333Y-106187380D02*
X438372142Y-106187380D01*
X438324523Y-106663571D01*
X438372142Y-106615952D01*
X438467380Y-106568333D01*
X438705476Y-106568333D01*
X438800714Y-106615952D01*
X438848333Y-106663571D01*
X438895952Y-106758809D01*
X438895952Y-106996904D01*
X438848333Y-107092142D01*
X438800714Y-107139761D01*
X438705476Y-107187380D01*
X438467380Y-107187380D01*
X438372142Y-107139761D01*
X438324523Y-107092142D01*
X436181666Y-293767380D02*
X436181666Y-292767380D01*
X436515000Y-293481666D01*
X436848333Y-292767380D01*
X436848333Y-293767380D01*
X437324523Y-293767380D02*
X437324523Y-292767380D01*
X437324523Y-293243571D02*
X437895952Y-293243571D01*
X437895952Y-293767380D02*
X437895952Y-292767380D01*
X438276904Y-292767380D02*
X438943571Y-292767380D01*
X438515000Y-293767380D01*
X257111666Y-217567380D02*
X257111666Y-216567380D01*
X257445000Y-217281666D01*
X257778333Y-216567380D01*
X257778333Y-217567380D01*
X258254523Y-217567380D02*
X258254523Y-216567380D01*
X258254523Y-217043571D02*
X258825952Y-217043571D01*
X258825952Y-217567380D02*
X258825952Y-216567380D01*
X259254523Y-216662619D02*
X259302142Y-216615000D01*
X259397380Y-216567380D01*
X259635476Y-216567380D01*
X259730714Y-216615000D01*
X259778333Y-216662619D01*
X259825952Y-216757857D01*
X259825952Y-216853095D01*
X259778333Y-216995952D01*
X259206904Y-217567380D01*
X259825952Y-217567380D01*
X257111666Y-293767380D02*
X257111666Y-292767380D01*
X257445000Y-293481666D01*
X257778333Y-292767380D01*
X257778333Y-293767380D01*
X258254523Y-293767380D02*
X258254523Y-292767380D01*
X258254523Y-293243571D02*
X258825952Y-293243571D01*
X258825952Y-293767380D02*
X258825952Y-292767380D01*
X259730714Y-293100714D02*
X259730714Y-293767380D01*
X259492619Y-292719761D02*
X259254523Y-293434047D01*
X259873571Y-293434047D01*
X337121666Y-217567380D02*
X337121666Y-216567380D01*
X337455000Y-217281666D01*
X337788333Y-216567380D01*
X337788333Y-217567380D01*
X338264523Y-217567380D02*
X338264523Y-216567380D01*
X338264523Y-217043571D02*
X338835952Y-217043571D01*
X338835952Y-217567380D02*
X338835952Y-216567380D01*
X339740714Y-216567380D02*
X339550238Y-216567380D01*
X339455000Y-216615000D01*
X339407380Y-216662619D01*
X339312142Y-216805476D01*
X339264523Y-216995952D01*
X339264523Y-217376904D01*
X339312142Y-217472142D01*
X339359761Y-217519761D01*
X339455000Y-217567380D01*
X339645476Y-217567380D01*
X339740714Y-217519761D01*
X339788333Y-217472142D01*
X339835952Y-217376904D01*
X339835952Y-217138809D01*
X339788333Y-217043571D01*
X339740714Y-216995952D01*
X339645476Y-216948333D01*
X339455000Y-216948333D01*
X339359761Y-216995952D01*
X339312142Y-217043571D01*
X339264523Y-217138809D01*
X337121666Y-293767380D02*
X337121666Y-292767380D01*
X337455000Y-293481666D01*
X337788333Y-292767380D01*
X337788333Y-293767380D01*
X338264523Y-293767380D02*
X338264523Y-292767380D01*
X338264523Y-293243571D02*
X338835952Y-293243571D01*
X338835952Y-293767380D02*
X338835952Y-292767380D01*
X339455000Y-293195952D02*
X339359761Y-293148333D01*
X339312142Y-293100714D01*
X339264523Y-293005476D01*
X339264523Y-292957857D01*
X339312142Y-292862619D01*
X339359761Y-292815000D01*
X339455000Y-292767380D01*
X339645476Y-292767380D01*
X339740714Y-292815000D01*
X339788333Y-292862619D01*
X339835952Y-292957857D01*
X339835952Y-293005476D01*
X339788333Y-293100714D01*
X339740714Y-293148333D01*
X339645476Y-293195952D01*
X339455000Y-293195952D01*
X339359761Y-293243571D01*
X339312142Y-293291190D01*
X339264523Y-293386428D01*
X339264523Y-293576904D01*
X339312142Y-293672142D01*
X339359761Y-293719761D01*
X339455000Y-293767380D01*
X339645476Y-293767380D01*
X339740714Y-293719761D01*
X339788333Y-293672142D01*
X339835952Y-293576904D01*
X339835952Y-293386428D01*
X339788333Y-293291190D01*
X339740714Y-293243571D01*
X339645476Y-293195952D01*
M02*
