G04 #@! TF.GenerationSoftware,KiCad,Pcbnew,(5.1.4)-1*
G04 #@! TF.CreationDate,2019-09-11T03:03:15-07:00*
G04 #@! TF.ProjectId,BrightBoard1,42726967-6874-4426-9f61-7264312e6b69,rev?*
G04 #@! TF.SameCoordinates,Original*
G04 #@! TF.FileFunction,Legend,Bot*
G04 #@! TF.FilePolarity,Positive*
%FSLAX46Y46*%
G04 Gerber Fmt 4.6, Leading zero omitted, Abs format (unit mm)*
G04 Created by KiCad (PCBNEW (5.1.4)-1) date 2019-09-11 03:03:15*
%MOMM*%
%LPD*%
G04 APERTURE LIST*
%ADD10C,0.150000*%
%ADD11C,0.010000*%
%ADD12C,0.120000*%
G04 APERTURE END LIST*
D10*
X199197857Y-117292380D02*
X199197857Y-116292380D01*
X198816904Y-116292380D01*
X198721666Y-116340000D01*
X198674047Y-116387619D01*
X198626428Y-116482857D01*
X198626428Y-116625714D01*
X198674047Y-116720952D01*
X198721666Y-116768571D01*
X198816904Y-116816190D01*
X199197857Y-116816190D01*
X198055000Y-117292380D02*
X198150238Y-117244761D01*
X198197857Y-117197142D01*
X198245476Y-117101904D01*
X198245476Y-116816190D01*
X198197857Y-116720952D01*
X198150238Y-116673333D01*
X198055000Y-116625714D01*
X197912142Y-116625714D01*
X197816904Y-116673333D01*
X197769285Y-116720952D01*
X197721666Y-116816190D01*
X197721666Y-117101904D01*
X197769285Y-117197142D01*
X197816904Y-117244761D01*
X197912142Y-117292380D01*
X198055000Y-117292380D01*
X197388333Y-116625714D02*
X197197857Y-117292380D01*
X197007380Y-116816190D01*
X196816904Y-117292380D01*
X196626428Y-116625714D01*
X195864523Y-117244761D02*
X195959761Y-117292380D01*
X196150238Y-117292380D01*
X196245476Y-117244761D01*
X196293095Y-117149523D01*
X196293095Y-116768571D01*
X196245476Y-116673333D01*
X196150238Y-116625714D01*
X195959761Y-116625714D01*
X195864523Y-116673333D01*
X195816904Y-116768571D01*
X195816904Y-116863809D01*
X196293095Y-116959047D01*
X195388333Y-117292380D02*
X195388333Y-116625714D01*
X195388333Y-116816190D02*
X195340714Y-116720952D01*
X195293095Y-116673333D01*
X195197857Y-116625714D01*
X195102619Y-116625714D01*
X194150238Y-116292380D02*
X193578809Y-116292380D01*
X193864523Y-117292380D02*
X193864523Y-116292380D01*
X193245476Y-117292380D02*
X193245476Y-116625714D01*
X193245476Y-116816190D02*
X193197857Y-116720952D01*
X193150238Y-116673333D01*
X193055000Y-116625714D01*
X192959761Y-116625714D01*
X192197857Y-117292380D02*
X192197857Y-116768571D01*
X192245476Y-116673333D01*
X192340714Y-116625714D01*
X192531190Y-116625714D01*
X192626428Y-116673333D01*
X192197857Y-117244761D02*
X192293095Y-117292380D01*
X192531190Y-117292380D01*
X192626428Y-117244761D01*
X192674047Y-117149523D01*
X192674047Y-117054285D01*
X192626428Y-116959047D01*
X192531190Y-116911428D01*
X192293095Y-116911428D01*
X192197857Y-116863809D01*
X191721666Y-116625714D02*
X191721666Y-117292380D01*
X191721666Y-116720952D02*
X191674047Y-116673333D01*
X191578809Y-116625714D01*
X191435952Y-116625714D01*
X191340714Y-116673333D01*
X191293095Y-116768571D01*
X191293095Y-117292380D01*
X190864523Y-117244761D02*
X190769285Y-117292380D01*
X190578809Y-117292380D01*
X190483571Y-117244761D01*
X190435952Y-117149523D01*
X190435952Y-117101904D01*
X190483571Y-117006666D01*
X190578809Y-116959047D01*
X190721666Y-116959047D01*
X190816904Y-116911428D01*
X190864523Y-116816190D01*
X190864523Y-116768571D01*
X190816904Y-116673333D01*
X190721666Y-116625714D01*
X190578809Y-116625714D01*
X190483571Y-116673333D01*
X190007380Y-117292380D02*
X190007380Y-116625714D01*
X190007380Y-116292380D02*
X190055000Y-116340000D01*
X190007380Y-116387619D01*
X189959761Y-116340000D01*
X190007380Y-116292380D01*
X190007380Y-116387619D01*
X189578809Y-117244761D02*
X189483571Y-117292380D01*
X189293095Y-117292380D01*
X189197857Y-117244761D01*
X189150238Y-117149523D01*
X189150238Y-117101904D01*
X189197857Y-117006666D01*
X189293095Y-116959047D01*
X189435952Y-116959047D01*
X189531190Y-116911428D01*
X189578809Y-116816190D01*
X189578809Y-116768571D01*
X189531190Y-116673333D01*
X189435952Y-116625714D01*
X189293095Y-116625714D01*
X189197857Y-116673333D01*
X188864523Y-116625714D02*
X188483571Y-116625714D01*
X188721666Y-116292380D02*
X188721666Y-117149523D01*
X188674047Y-117244761D01*
X188578809Y-117292380D01*
X188483571Y-117292380D01*
X188007380Y-117292380D02*
X188102619Y-117244761D01*
X188150238Y-117197142D01*
X188197857Y-117101904D01*
X188197857Y-116816190D01*
X188150238Y-116720952D01*
X188102619Y-116673333D01*
X188007380Y-116625714D01*
X187864523Y-116625714D01*
X187769285Y-116673333D01*
X187721666Y-116720952D01*
X187674047Y-116816190D01*
X187674047Y-117101904D01*
X187721666Y-117197142D01*
X187769285Y-117244761D01*
X187864523Y-117292380D01*
X188007380Y-117292380D01*
X187245476Y-117292380D02*
X187245476Y-116625714D01*
X187245476Y-116816190D02*
X187197857Y-116720952D01*
X187150238Y-116673333D01*
X187055000Y-116625714D01*
X186959761Y-116625714D01*
X186674047Y-117244761D02*
X186578809Y-117292380D01*
X186388333Y-117292380D01*
X186293095Y-117244761D01*
X186245476Y-117149523D01*
X186245476Y-117101904D01*
X186293095Y-117006666D01*
X186388333Y-116959047D01*
X186531190Y-116959047D01*
X186626428Y-116911428D01*
X186674047Y-116816190D01*
X186674047Y-116768571D01*
X186626428Y-116673333D01*
X186531190Y-116625714D01*
X186388333Y-116625714D01*
X186293095Y-116673333D01*
X185055000Y-116911428D02*
X184293095Y-116911428D01*
X184674047Y-117292380D02*
X184674047Y-116530476D01*
X182483571Y-117197142D02*
X182531190Y-117244761D01*
X182674047Y-117292380D01*
X182769285Y-117292380D01*
X182912142Y-117244761D01*
X183007380Y-117149523D01*
X183055000Y-117054285D01*
X183102619Y-116863809D01*
X183102619Y-116720952D01*
X183055000Y-116530476D01*
X183007380Y-116435238D01*
X182912142Y-116340000D01*
X182769285Y-116292380D01*
X182674047Y-116292380D01*
X182531190Y-116340000D01*
X182483571Y-116387619D01*
X181626428Y-116625714D02*
X181626428Y-117292380D01*
X182055000Y-116625714D02*
X182055000Y-117149523D01*
X182007380Y-117244761D01*
X181912142Y-117292380D01*
X181769285Y-117292380D01*
X181674047Y-117244761D01*
X181626428Y-117197142D01*
X181150238Y-117292380D02*
X181150238Y-116625714D01*
X181150238Y-116816190D02*
X181102619Y-116720952D01*
X181055000Y-116673333D01*
X180959761Y-116625714D01*
X180864523Y-116625714D01*
X180531190Y-117292380D02*
X180531190Y-116625714D01*
X180531190Y-116816190D02*
X180483571Y-116720952D01*
X180435952Y-116673333D01*
X180340714Y-116625714D01*
X180245476Y-116625714D01*
X179531190Y-117244761D02*
X179626428Y-117292380D01*
X179816904Y-117292380D01*
X179912142Y-117244761D01*
X179959761Y-117149523D01*
X179959761Y-116768571D01*
X179912142Y-116673333D01*
X179816904Y-116625714D01*
X179626428Y-116625714D01*
X179531190Y-116673333D01*
X179483571Y-116768571D01*
X179483571Y-116863809D01*
X179959761Y-116959047D01*
X179055000Y-116625714D02*
X179055000Y-117292380D01*
X179055000Y-116720952D02*
X179007380Y-116673333D01*
X178912142Y-116625714D01*
X178769285Y-116625714D01*
X178674047Y-116673333D01*
X178626428Y-116768571D01*
X178626428Y-117292380D01*
X178293095Y-116625714D02*
X177912142Y-116625714D01*
X178150238Y-116292380D02*
X178150238Y-117149523D01*
X178102619Y-117244761D01*
X178007380Y-117292380D01*
X177912142Y-117292380D01*
X176864523Y-117244761D02*
X176721666Y-117292380D01*
X176483571Y-117292380D01*
X176388333Y-117244761D01*
X176340714Y-117197142D01*
X176293095Y-117101904D01*
X176293095Y-117006666D01*
X176340714Y-116911428D01*
X176388333Y-116863809D01*
X176483571Y-116816190D01*
X176674047Y-116768571D01*
X176769285Y-116720952D01*
X176816904Y-116673333D01*
X176864523Y-116578095D01*
X176864523Y-116482857D01*
X176816904Y-116387619D01*
X176769285Y-116340000D01*
X176674047Y-116292380D01*
X176435952Y-116292380D01*
X176293095Y-116340000D01*
X175483571Y-117244761D02*
X175578809Y-117292380D01*
X175769285Y-117292380D01*
X175864523Y-117244761D01*
X175912142Y-117149523D01*
X175912142Y-116768571D01*
X175864523Y-116673333D01*
X175769285Y-116625714D01*
X175578809Y-116625714D01*
X175483571Y-116673333D01*
X175435952Y-116768571D01*
X175435952Y-116863809D01*
X175912142Y-116959047D01*
X175007380Y-116625714D02*
X175007380Y-117292380D01*
X175007380Y-116720952D02*
X174959761Y-116673333D01*
X174864523Y-116625714D01*
X174721666Y-116625714D01*
X174626428Y-116673333D01*
X174578809Y-116768571D01*
X174578809Y-117292380D01*
X174150238Y-117244761D02*
X174055000Y-117292380D01*
X173864523Y-117292380D01*
X173769285Y-117244761D01*
X173721666Y-117149523D01*
X173721666Y-117101904D01*
X173769285Y-117006666D01*
X173864523Y-116959047D01*
X174007380Y-116959047D01*
X174102619Y-116911428D01*
X174150238Y-116816190D01*
X174150238Y-116768571D01*
X174102619Y-116673333D01*
X174007380Y-116625714D01*
X173864523Y-116625714D01*
X173769285Y-116673333D01*
X172912142Y-117244761D02*
X173007380Y-117292380D01*
X173197857Y-117292380D01*
X173293095Y-117244761D01*
X173340714Y-117149523D01*
X173340714Y-116768571D01*
X173293095Y-116673333D01*
X173197857Y-116625714D01*
X173007380Y-116625714D01*
X172912142Y-116673333D01*
X172864523Y-116768571D01*
X172864523Y-116863809D01*
X173340714Y-116959047D01*
X202946000Y-118618000D02*
X169799000Y-118618000D01*
X202946000Y-140716000D02*
X202946000Y-118618000D01*
X169799000Y-140716000D02*
X202946000Y-140716000D01*
X169799000Y-118618000D02*
X169799000Y-140716000D01*
X237846285Y-268233380D02*
X237846285Y-267233380D01*
X237370095Y-267566714D02*
X237370095Y-268233380D01*
X237370095Y-267661952D02*
X237322476Y-267614333D01*
X237227238Y-267566714D01*
X237084380Y-267566714D01*
X236989142Y-267614333D01*
X236941523Y-267709571D01*
X236941523Y-268233380D01*
X236465333Y-267566714D02*
X236465333Y-268566714D01*
X236465333Y-267614333D02*
X236370095Y-267566714D01*
X236179619Y-267566714D01*
X236084380Y-267614333D01*
X236036761Y-267661952D01*
X235989142Y-267757190D01*
X235989142Y-268042904D01*
X236036761Y-268138142D01*
X236084380Y-268185761D01*
X236179619Y-268233380D01*
X236370095Y-268233380D01*
X236465333Y-268185761D01*
X235132000Y-267566714D02*
X235132000Y-268233380D01*
X235560571Y-267566714D02*
X235560571Y-268090523D01*
X235512952Y-268185761D01*
X235417714Y-268233380D01*
X235274857Y-268233380D01*
X235179619Y-268185761D01*
X235132000Y-268138142D01*
X234798666Y-267566714D02*
X234417714Y-267566714D01*
X234655809Y-267233380D02*
X234655809Y-268090523D01*
X234608190Y-268185761D01*
X234512952Y-268233380D01*
X234417714Y-268233380D01*
X234084380Y-268138142D02*
X234036761Y-268185761D01*
X234084380Y-268233380D01*
X234132000Y-268185761D01*
X234084380Y-268138142D01*
X234084380Y-268233380D01*
X234084380Y-267614333D02*
X234036761Y-267661952D01*
X234084380Y-267709571D01*
X234132000Y-267661952D01*
X234084380Y-267614333D01*
X234084380Y-267709571D01*
X232893904Y-267328619D02*
X232846285Y-267281000D01*
X232751047Y-267233380D01*
X232512952Y-267233380D01*
X232417714Y-267281000D01*
X232370095Y-267328619D01*
X232322476Y-267423857D01*
X232322476Y-267519095D01*
X232370095Y-267661952D01*
X232941523Y-268233380D01*
X232322476Y-268233380D01*
X231465333Y-267566714D02*
X231465333Y-268233380D01*
X231703428Y-267185761D02*
X231941523Y-267900047D01*
X231322476Y-267900047D01*
X231084380Y-267233380D02*
X230751047Y-268233380D01*
X230417714Y-267233380D01*
X229322476Y-267852428D02*
X228560571Y-267852428D01*
X228941523Y-268233380D02*
X228941523Y-267471476D01*
X227370095Y-267185761D02*
X228227238Y-268471476D01*
X227036761Y-267852428D02*
X226274857Y-267852428D01*
X224560571Y-267233380D02*
X225036761Y-267233380D01*
X225084380Y-267709571D01*
X225036761Y-267661952D01*
X224941523Y-267614333D01*
X224703428Y-267614333D01*
X224608190Y-267661952D01*
X224560571Y-267709571D01*
X224512952Y-267804809D01*
X224512952Y-268042904D01*
X224560571Y-268138142D01*
X224608190Y-268185761D01*
X224703428Y-268233380D01*
X224941523Y-268233380D01*
X225036761Y-268185761D01*
X225084380Y-268138142D01*
X224132000Y-268233380D02*
X223370095Y-267233380D01*
X223989142Y-267233380D02*
X223893904Y-267281000D01*
X223846285Y-267376238D01*
X223893904Y-267471476D01*
X223989142Y-267519095D01*
X224084380Y-267471476D01*
X224132000Y-267376238D01*
X224084380Y-267281000D01*
X223989142Y-267233380D01*
X223417714Y-268185761D02*
X223370095Y-268090523D01*
X223417714Y-267995285D01*
X223512952Y-267947666D01*
X223608190Y-267995285D01*
X223655809Y-268090523D01*
X223608190Y-268185761D01*
X223512952Y-268233380D01*
X223417714Y-268185761D01*
X242846285Y-269883380D02*
X242846285Y-268883380D01*
X242465333Y-268883380D01*
X242370095Y-268931000D01*
X242322476Y-268978619D01*
X242274857Y-269073857D01*
X242274857Y-269216714D01*
X242322476Y-269311952D01*
X242370095Y-269359571D01*
X242465333Y-269407190D01*
X242846285Y-269407190D01*
X241703428Y-269883380D02*
X241798666Y-269835761D01*
X241846285Y-269788142D01*
X241893904Y-269692904D01*
X241893904Y-269407190D01*
X241846285Y-269311952D01*
X241798666Y-269264333D01*
X241703428Y-269216714D01*
X241560571Y-269216714D01*
X241465333Y-269264333D01*
X241417714Y-269311952D01*
X241370095Y-269407190D01*
X241370095Y-269692904D01*
X241417714Y-269788142D01*
X241465333Y-269835761D01*
X241560571Y-269883380D01*
X241703428Y-269883380D01*
X241036761Y-269216714D02*
X240846285Y-269883380D01*
X240655809Y-269407190D01*
X240465333Y-269883380D01*
X240274857Y-269216714D01*
X239512952Y-269835761D02*
X239608190Y-269883380D01*
X239798666Y-269883380D01*
X239893904Y-269835761D01*
X239941523Y-269740523D01*
X239941523Y-269359571D01*
X239893904Y-269264333D01*
X239798666Y-269216714D01*
X239608190Y-269216714D01*
X239512952Y-269264333D01*
X239465333Y-269359571D01*
X239465333Y-269454809D01*
X239941523Y-269550047D01*
X239036761Y-269883380D02*
X239036761Y-269216714D01*
X239036761Y-269407190D02*
X238989142Y-269311952D01*
X238941523Y-269264333D01*
X238846285Y-269216714D01*
X238751047Y-269216714D01*
X238417714Y-269788142D02*
X238370095Y-269835761D01*
X238417714Y-269883380D01*
X238465333Y-269835761D01*
X238417714Y-269788142D01*
X238417714Y-269883380D01*
X238417714Y-269264333D02*
X238370095Y-269311952D01*
X238417714Y-269359571D01*
X238465333Y-269311952D01*
X238417714Y-269264333D01*
X238417714Y-269359571D01*
X236703428Y-268883380D02*
X237179619Y-268883380D01*
X237227238Y-269359571D01*
X237179619Y-269311952D01*
X237084380Y-269264333D01*
X236846285Y-269264333D01*
X236751047Y-269311952D01*
X236703428Y-269359571D01*
X236655809Y-269454809D01*
X236655809Y-269692904D01*
X236703428Y-269788142D01*
X236751047Y-269835761D01*
X236846285Y-269883380D01*
X237084380Y-269883380D01*
X237179619Y-269835761D01*
X237227238Y-269788142D01*
X236036761Y-268883380D02*
X235941523Y-268883380D01*
X235846285Y-268931000D01*
X235798666Y-268978619D01*
X235751047Y-269073857D01*
X235703428Y-269264333D01*
X235703428Y-269502428D01*
X235751047Y-269692904D01*
X235798666Y-269788142D01*
X235846285Y-269835761D01*
X235941523Y-269883380D01*
X236036761Y-269883380D01*
X236132000Y-269835761D01*
X236179619Y-269788142D01*
X236227238Y-269692904D01*
X236274857Y-269502428D01*
X236274857Y-269264333D01*
X236227238Y-269073857D01*
X236179619Y-268978619D01*
X236132000Y-268931000D01*
X236036761Y-268883380D01*
X235370095Y-268883380D02*
X235132000Y-269883380D01*
X234941523Y-269169095D01*
X234751047Y-269883380D01*
X234512952Y-268883380D01*
X233370095Y-269883380D02*
X233370095Y-268883380D01*
X232798666Y-269883380D01*
X232798666Y-268883380D01*
X232179619Y-269883380D02*
X232274857Y-269835761D01*
X232322476Y-269788142D01*
X232370095Y-269692904D01*
X232370095Y-269407190D01*
X232322476Y-269311952D01*
X232274857Y-269264333D01*
X232179619Y-269216714D01*
X232036761Y-269216714D01*
X231941523Y-269264333D01*
X231893904Y-269311952D01*
X231846285Y-269407190D01*
X231846285Y-269692904D01*
X231893904Y-269788142D01*
X231941523Y-269835761D01*
X232036761Y-269883380D01*
X232179619Y-269883380D01*
X231417714Y-269883380D02*
X231417714Y-269216714D01*
X231417714Y-269311952D02*
X231370095Y-269264333D01*
X231274857Y-269216714D01*
X231132000Y-269216714D01*
X231036761Y-269264333D01*
X230989142Y-269359571D01*
X230989142Y-269883380D01*
X230989142Y-269359571D02*
X230941523Y-269264333D01*
X230846285Y-269216714D01*
X230703428Y-269216714D01*
X230608190Y-269264333D01*
X230560571Y-269359571D01*
X230560571Y-269883380D01*
X230084380Y-269883380D02*
X230084380Y-269216714D01*
X230084380Y-268883380D02*
X230132000Y-268931000D01*
X230084380Y-268978619D01*
X230036761Y-268931000D01*
X230084380Y-268883380D01*
X230084380Y-268978619D01*
X229608190Y-269216714D02*
X229608190Y-269883380D01*
X229608190Y-269311952D02*
X229560571Y-269264333D01*
X229465333Y-269216714D01*
X229322476Y-269216714D01*
X229227238Y-269264333D01*
X229179619Y-269359571D01*
X229179619Y-269883380D01*
X228274857Y-269883380D02*
X228274857Y-269359571D01*
X228322476Y-269264333D01*
X228417714Y-269216714D01*
X228608190Y-269216714D01*
X228703428Y-269264333D01*
X228274857Y-269835761D02*
X228370095Y-269883380D01*
X228608190Y-269883380D01*
X228703428Y-269835761D01*
X228751047Y-269740523D01*
X228751047Y-269645285D01*
X228703428Y-269550047D01*
X228608190Y-269502428D01*
X228370095Y-269502428D01*
X228274857Y-269454809D01*
X227655809Y-269883380D02*
X227751047Y-269835761D01*
X227798666Y-269740523D01*
X227798666Y-268883380D01*
X227227238Y-269835761D02*
X227227238Y-269883380D01*
X227274857Y-269978619D01*
X227322476Y-270026238D01*
X225608190Y-268883380D02*
X225798666Y-268883380D01*
X225893904Y-268931000D01*
X225941523Y-268978619D01*
X226036761Y-269121476D01*
X226084380Y-269311952D01*
X226084380Y-269692904D01*
X226036761Y-269788142D01*
X225989142Y-269835761D01*
X225893904Y-269883380D01*
X225703428Y-269883380D01*
X225608190Y-269835761D01*
X225560571Y-269788142D01*
X225512952Y-269692904D01*
X225512952Y-269454809D01*
X225560571Y-269359571D01*
X225608190Y-269311952D01*
X225703428Y-269264333D01*
X225893904Y-269264333D01*
X225989142Y-269311952D01*
X226036761Y-269359571D01*
X226084380Y-269454809D01*
X225179619Y-268883380D02*
X224512952Y-268883380D01*
X224941523Y-269883380D01*
X224132000Y-269788142D02*
X224084380Y-269835761D01*
X224132000Y-269883380D01*
X224179619Y-269835761D01*
X224132000Y-269788142D01*
X224132000Y-269883380D01*
X223703428Y-268978619D02*
X223655809Y-268931000D01*
X223560571Y-268883380D01*
X223322476Y-268883380D01*
X223227238Y-268931000D01*
X223179619Y-268978619D01*
X223132000Y-269073857D01*
X223132000Y-269169095D01*
X223179619Y-269311952D01*
X223751047Y-269883380D01*
X223132000Y-269883380D01*
X222798666Y-268883380D02*
X222560571Y-269883380D01*
X222370095Y-269169095D01*
X222179619Y-269883380D01*
X221941523Y-268883380D01*
X220798666Y-269883380D02*
X220798666Y-268883380D01*
X220465333Y-269597666D01*
X220132000Y-268883380D01*
X220132000Y-269883380D01*
X219227238Y-269883380D02*
X219227238Y-269359571D01*
X219274857Y-269264333D01*
X219370095Y-269216714D01*
X219560571Y-269216714D01*
X219655809Y-269264333D01*
X219227238Y-269835761D02*
X219322476Y-269883380D01*
X219560571Y-269883380D01*
X219655809Y-269835761D01*
X219703428Y-269740523D01*
X219703428Y-269645285D01*
X219655809Y-269550047D01*
X219560571Y-269502428D01*
X219322476Y-269502428D01*
X219227238Y-269454809D01*
X218846285Y-269883380D02*
X218322476Y-269216714D01*
X218846285Y-269216714D02*
X218322476Y-269883380D01*
X243155809Y-271009571D02*
X242822476Y-271009571D01*
X242679619Y-271533380D02*
X243155809Y-271533380D01*
X243155809Y-270533380D01*
X242679619Y-270533380D01*
X242393904Y-270866714D02*
X242012952Y-270866714D01*
X242251047Y-271533380D02*
X242251047Y-270676238D01*
X242203428Y-270581000D01*
X242108190Y-270533380D01*
X242012952Y-270533380D01*
X241822476Y-270866714D02*
X241441523Y-270866714D01*
X241679619Y-271533380D02*
X241679619Y-270676238D01*
X241632000Y-270581000D01*
X241536761Y-270533380D01*
X241441523Y-270533380D01*
X241108190Y-271533380D02*
X241108190Y-270866714D01*
X241108190Y-270533380D02*
X241155809Y-270581000D01*
X241108190Y-270628619D01*
X241060571Y-270581000D01*
X241108190Y-270533380D01*
X241108190Y-270628619D01*
X240203428Y-271485761D02*
X240298666Y-271533380D01*
X240489142Y-271533380D01*
X240584380Y-271485761D01*
X240632000Y-271438142D01*
X240679619Y-271342904D01*
X240679619Y-271057190D01*
X240632000Y-270961952D01*
X240584380Y-270914333D01*
X240489142Y-270866714D01*
X240298666Y-270866714D01*
X240203428Y-270914333D01*
X239774857Y-271533380D02*
X239774857Y-270866714D01*
X239774857Y-270533380D02*
X239822476Y-270581000D01*
X239774857Y-270628619D01*
X239727238Y-270581000D01*
X239774857Y-270533380D01*
X239774857Y-270628619D01*
X238917714Y-271485761D02*
X239012952Y-271533380D01*
X239203428Y-271533380D01*
X239298666Y-271485761D01*
X239346285Y-271390523D01*
X239346285Y-271009571D01*
X239298666Y-270914333D01*
X239203428Y-270866714D01*
X239012952Y-270866714D01*
X238917714Y-270914333D01*
X238870095Y-271009571D01*
X238870095Y-271104809D01*
X239346285Y-271200047D01*
X238441523Y-270866714D02*
X238441523Y-271533380D01*
X238441523Y-270961952D02*
X238393904Y-270914333D01*
X238298666Y-270866714D01*
X238155809Y-270866714D01*
X238060571Y-270914333D01*
X238012952Y-271009571D01*
X238012952Y-271533380D01*
X237108190Y-271485761D02*
X237203428Y-271533380D01*
X237393904Y-271533380D01*
X237489142Y-271485761D01*
X237536761Y-271438142D01*
X237584380Y-271342904D01*
X237584380Y-271057190D01*
X237536761Y-270961952D01*
X237489142Y-270914333D01*
X237393904Y-270866714D01*
X237203428Y-270866714D01*
X237108190Y-270914333D01*
X236774857Y-270866714D02*
X236536761Y-271533380D01*
X236298666Y-270866714D02*
X236536761Y-271533380D01*
X236632000Y-271771476D01*
X236679619Y-271819095D01*
X236774857Y-271866714D01*
X235917714Y-271438142D02*
X235870095Y-271485761D01*
X235917714Y-271533380D01*
X235965333Y-271485761D01*
X235917714Y-271438142D01*
X235917714Y-271533380D01*
X235917714Y-270914333D02*
X235870095Y-270961952D01*
X235917714Y-271009571D01*
X235965333Y-270961952D01*
X235917714Y-270914333D01*
X235917714Y-271009571D01*
X234155809Y-271533380D02*
X234727238Y-271533380D01*
X234441523Y-271533380D02*
X234441523Y-270533380D01*
X234536761Y-270676238D01*
X234632000Y-270771476D01*
X234727238Y-270819095D01*
X233298666Y-270533380D02*
X233489142Y-270533380D01*
X233584380Y-270581000D01*
X233632000Y-270628619D01*
X233727238Y-270771476D01*
X233774857Y-270961952D01*
X233774857Y-271342904D01*
X233727238Y-271438142D01*
X233679619Y-271485761D01*
X233584380Y-271533380D01*
X233393904Y-271533380D01*
X233298666Y-271485761D01*
X233251047Y-271438142D01*
X233203428Y-271342904D01*
X233203428Y-271104809D01*
X233251047Y-271009571D01*
X233298666Y-270961952D01*
X233393904Y-270914333D01*
X233584380Y-270914333D01*
X233679619Y-270961952D01*
X233727238Y-271009571D01*
X233774857Y-271104809D01*
X232870095Y-270533380D02*
X232203428Y-270533380D01*
X232632000Y-271533380D01*
X231060571Y-271152428D02*
X230298666Y-271152428D01*
X228536761Y-271533380D02*
X229108190Y-271533380D01*
X228822476Y-271533380D02*
X228822476Y-270533380D01*
X228917714Y-270676238D01*
X229012952Y-270771476D01*
X229108190Y-270819095D01*
X227679619Y-270866714D02*
X227679619Y-271533380D01*
X227917714Y-270485761D02*
X228155809Y-271200047D01*
X227536761Y-271200047D01*
X227203428Y-270628619D02*
X227155809Y-270581000D01*
X227060571Y-270533380D01*
X226822476Y-270533380D01*
X226727238Y-270581000D01*
X226679619Y-270628619D01*
X226632000Y-270723857D01*
X226632000Y-270819095D01*
X226679619Y-270961952D01*
X227251047Y-271533380D01*
X226632000Y-271533380D01*
X224965333Y-271533380D02*
X225441523Y-271533380D01*
X225441523Y-270533380D01*
X224203428Y-270866714D02*
X224203428Y-271533380D01*
X224632000Y-270866714D02*
X224632000Y-271390523D01*
X224584380Y-271485761D01*
X224489142Y-271533380D01*
X224346285Y-271533380D01*
X224251047Y-271485761D01*
X224203428Y-271438142D01*
X223727238Y-271533380D02*
X223727238Y-270866714D01*
X223727238Y-270961952D02*
X223679619Y-270914333D01*
X223584380Y-270866714D01*
X223441523Y-270866714D01*
X223346285Y-270914333D01*
X223298666Y-271009571D01*
X223298666Y-271533380D01*
X223298666Y-271009571D02*
X223251047Y-270914333D01*
X223155809Y-270866714D01*
X223012952Y-270866714D01*
X222917714Y-270914333D01*
X222870095Y-271009571D01*
X222870095Y-271533380D01*
X222012952Y-271485761D02*
X222108190Y-271533380D01*
X222298666Y-271533380D01*
X222393904Y-271485761D01*
X222441523Y-271390523D01*
X222441523Y-271009571D01*
X222393904Y-270914333D01*
X222298666Y-270866714D01*
X222108190Y-270866714D01*
X222012952Y-270914333D01*
X221965333Y-271009571D01*
X221965333Y-271104809D01*
X222441523Y-271200047D01*
X221536761Y-270866714D02*
X221536761Y-271533380D01*
X221536761Y-270961952D02*
X221489142Y-270914333D01*
X221393904Y-270866714D01*
X221251047Y-270866714D01*
X221155809Y-270914333D01*
X221108190Y-271009571D01*
X221108190Y-271533380D01*
X220679619Y-271485761D02*
X220584380Y-271533380D01*
X220393904Y-271533380D01*
X220298666Y-271485761D01*
X220251047Y-271390523D01*
X220251047Y-271342904D01*
X220298666Y-271247666D01*
X220393904Y-271200047D01*
X220536761Y-271200047D01*
X220632000Y-271152428D01*
X220679619Y-271057190D01*
X220679619Y-271009571D01*
X220632000Y-270914333D01*
X220536761Y-270866714D01*
X220393904Y-270866714D01*
X220298666Y-270914333D01*
X219108190Y-270485761D02*
X219965333Y-271771476D01*
X218870095Y-270533380D02*
X218632000Y-271533380D01*
X218441523Y-270819095D01*
X218251047Y-271533380D01*
X218012952Y-270533380D01*
X239346285Y-272183380D02*
X238679619Y-272183380D01*
X239108190Y-273183380D01*
X237774857Y-273183380D02*
X238346285Y-273183380D01*
X238060571Y-273183380D02*
X238060571Y-272183380D01*
X238155809Y-272326238D01*
X238251047Y-272421476D01*
X238346285Y-272469095D01*
X237155809Y-272183380D02*
X237060571Y-272183380D01*
X236965333Y-272231000D01*
X236917714Y-272278619D01*
X236870095Y-272373857D01*
X236822476Y-272564333D01*
X236822476Y-272802428D01*
X236870095Y-272992904D01*
X236917714Y-273088142D01*
X236965333Y-273135761D01*
X237060571Y-273183380D01*
X237155809Y-273183380D01*
X237251047Y-273135761D01*
X237298666Y-273088142D01*
X237346285Y-272992904D01*
X237393904Y-272802428D01*
X237393904Y-272564333D01*
X237346285Y-272373857D01*
X237298666Y-272278619D01*
X237251047Y-272231000D01*
X237155809Y-272183380D01*
X236203428Y-272183380D02*
X236108190Y-272183380D01*
X236012952Y-272231000D01*
X235965333Y-272278619D01*
X235917714Y-272373857D01*
X235870095Y-272564333D01*
X235870095Y-272802428D01*
X235917714Y-272992904D01*
X235965333Y-273088142D01*
X236012952Y-273135761D01*
X236108190Y-273183380D01*
X236203428Y-273183380D01*
X236298666Y-273135761D01*
X236346285Y-273088142D01*
X236393904Y-272992904D01*
X236441523Y-272802428D01*
X236441523Y-272564333D01*
X236393904Y-272373857D01*
X236346285Y-272278619D01*
X236298666Y-272231000D01*
X236203428Y-272183380D01*
X234679619Y-272802428D02*
X233917714Y-272802428D01*
X232155809Y-273183380D02*
X232727238Y-273183380D01*
X232441523Y-273183380D02*
X232441523Y-272183380D01*
X232536761Y-272326238D01*
X232632000Y-272421476D01*
X232727238Y-272469095D01*
X231203428Y-273183380D02*
X231774857Y-273183380D01*
X231489142Y-273183380D02*
X231489142Y-272183380D01*
X231584380Y-272326238D01*
X231679619Y-272421476D01*
X231774857Y-272469095D01*
X230822476Y-272278619D02*
X230774857Y-272231000D01*
X230679619Y-272183380D01*
X230441523Y-272183380D01*
X230346285Y-272231000D01*
X230298666Y-272278619D01*
X230251047Y-272373857D01*
X230251047Y-272469095D01*
X230298666Y-272611952D01*
X230870095Y-273183380D01*
X230251047Y-273183380D01*
X229632000Y-272183380D02*
X229536761Y-272183380D01*
X229441523Y-272231000D01*
X229393904Y-272278619D01*
X229346285Y-272373857D01*
X229298666Y-272564333D01*
X229298666Y-272802428D01*
X229346285Y-272992904D01*
X229393904Y-273088142D01*
X229441523Y-273135761D01*
X229536761Y-273183380D01*
X229632000Y-273183380D01*
X229727238Y-273135761D01*
X229774857Y-273088142D01*
X229822476Y-272992904D01*
X229870095Y-272802428D01*
X229870095Y-272564333D01*
X229822476Y-272373857D01*
X229774857Y-272278619D01*
X229727238Y-272231000D01*
X229632000Y-272183380D01*
X228679619Y-272183380D02*
X228584380Y-272183380D01*
X228489142Y-272231000D01*
X228441523Y-272278619D01*
X228393904Y-272373857D01*
X228346285Y-272564333D01*
X228346285Y-272802428D01*
X228393904Y-272992904D01*
X228441523Y-273088142D01*
X228489142Y-273135761D01*
X228584380Y-273183380D01*
X228679619Y-273183380D01*
X228774857Y-273135761D01*
X228822476Y-273088142D01*
X228870095Y-272992904D01*
X228917714Y-272802428D01*
X228917714Y-272564333D01*
X228870095Y-272373857D01*
X228822476Y-272278619D01*
X228774857Y-272231000D01*
X228679619Y-272183380D01*
X226679619Y-273183380D02*
X227155809Y-273183380D01*
X227155809Y-272183380D01*
X225917714Y-272516714D02*
X225917714Y-273183380D01*
X226346285Y-272516714D02*
X226346285Y-273040523D01*
X226298666Y-273135761D01*
X226203428Y-273183380D01*
X226060571Y-273183380D01*
X225965333Y-273135761D01*
X225917714Y-273088142D01*
X225441523Y-273183380D02*
X225441523Y-272516714D01*
X225441523Y-272611952D02*
X225393904Y-272564333D01*
X225298666Y-272516714D01*
X225155809Y-272516714D01*
X225060571Y-272564333D01*
X225012952Y-272659571D01*
X225012952Y-273183380D01*
X225012952Y-272659571D02*
X224965333Y-272564333D01*
X224870095Y-272516714D01*
X224727238Y-272516714D01*
X224632000Y-272564333D01*
X224584380Y-272659571D01*
X224584380Y-273183380D01*
X223727238Y-273135761D02*
X223822476Y-273183380D01*
X224012952Y-273183380D01*
X224108190Y-273135761D01*
X224155809Y-273040523D01*
X224155809Y-272659571D01*
X224108190Y-272564333D01*
X224012952Y-272516714D01*
X223822476Y-272516714D01*
X223727238Y-272564333D01*
X223679619Y-272659571D01*
X223679619Y-272754809D01*
X224155809Y-272850047D01*
X223251047Y-272516714D02*
X223251047Y-273183380D01*
X223251047Y-272611952D02*
X223203428Y-272564333D01*
X223108190Y-272516714D01*
X222965333Y-272516714D01*
X222870095Y-272564333D01*
X222822476Y-272659571D01*
X222822476Y-273183380D01*
X222393904Y-273135761D02*
X222298666Y-273183380D01*
X222108190Y-273183380D01*
X222012952Y-273135761D01*
X221965333Y-273040523D01*
X221965333Y-272992904D01*
X222012952Y-272897666D01*
X222108190Y-272850047D01*
X222251047Y-272850047D01*
X222346285Y-272802428D01*
X222393904Y-272707190D01*
X222393904Y-272659571D01*
X222346285Y-272564333D01*
X222251047Y-272516714D01*
X222108190Y-272516714D01*
X222012952Y-272564333D01*
X224772285Y-261802571D02*
X224629428Y-261850190D01*
X224581809Y-261897809D01*
X224534190Y-261993047D01*
X224534190Y-262135904D01*
X224581809Y-262231142D01*
X224629428Y-262278761D01*
X224724666Y-262326380D01*
X225105619Y-262326380D01*
X225105619Y-261326380D01*
X224772285Y-261326380D01*
X224677047Y-261374000D01*
X224629428Y-261421619D01*
X224581809Y-261516857D01*
X224581809Y-261612095D01*
X224629428Y-261707333D01*
X224677047Y-261754952D01*
X224772285Y-261802571D01*
X225105619Y-261802571D01*
X223962761Y-262326380D02*
X224058000Y-262278761D01*
X224105619Y-262183523D01*
X224105619Y-261326380D01*
X223153238Y-261659714D02*
X223153238Y-262326380D01*
X223581809Y-261659714D02*
X223581809Y-262183523D01*
X223534190Y-262278761D01*
X223438952Y-262326380D01*
X223296095Y-262326380D01*
X223200857Y-262278761D01*
X223153238Y-262231142D01*
X222296095Y-262278761D02*
X222391333Y-262326380D01*
X222581809Y-262326380D01*
X222677047Y-262278761D01*
X222724666Y-262183523D01*
X222724666Y-261802571D01*
X222677047Y-261707333D01*
X222581809Y-261659714D01*
X222391333Y-261659714D01*
X222296095Y-261707333D01*
X222248476Y-261802571D01*
X222248476Y-261897809D01*
X222724666Y-261993047D01*
X221962761Y-261659714D02*
X221581809Y-261659714D01*
X221819904Y-261326380D02*
X221819904Y-262183523D01*
X221772285Y-262278761D01*
X221677047Y-262326380D01*
X221581809Y-262326380D01*
X221105619Y-262326380D02*
X221200857Y-262278761D01*
X221248476Y-262231142D01*
X221296095Y-262135904D01*
X221296095Y-261850190D01*
X221248476Y-261754952D01*
X221200857Y-261707333D01*
X221105619Y-261659714D01*
X220962761Y-261659714D01*
X220867523Y-261707333D01*
X220819904Y-261754952D01*
X220772285Y-261850190D01*
X220772285Y-262135904D01*
X220819904Y-262231142D01*
X220867523Y-262278761D01*
X220962761Y-262326380D01*
X221105619Y-262326380D01*
X220200857Y-262326380D02*
X220296095Y-262278761D01*
X220343714Y-262231142D01*
X220391333Y-262135904D01*
X220391333Y-261850190D01*
X220343714Y-261754952D01*
X220296095Y-261707333D01*
X220200857Y-261659714D01*
X220058000Y-261659714D01*
X219962761Y-261707333D01*
X219915142Y-261754952D01*
X219867523Y-261850190D01*
X219867523Y-262135904D01*
X219915142Y-262231142D01*
X219962761Y-262278761D01*
X220058000Y-262326380D01*
X220200857Y-262326380D01*
X219581809Y-261659714D02*
X219200857Y-261659714D01*
X219438952Y-261326380D02*
X219438952Y-262183523D01*
X219391333Y-262278761D01*
X219296095Y-262326380D01*
X219200857Y-262326380D01*
X218867523Y-262326380D02*
X218867523Y-261326380D01*
X218438952Y-262326380D02*
X218438952Y-261802571D01*
X218486571Y-261707333D01*
X218581809Y-261659714D01*
X218724666Y-261659714D01*
X218819904Y-261707333D01*
X218867523Y-261754952D01*
X216629428Y-262231142D02*
X216677047Y-262278761D01*
X216819904Y-262326380D01*
X216915142Y-262326380D01*
X217058000Y-262278761D01*
X217153238Y-262183523D01*
X217200857Y-262088285D01*
X217248476Y-261897809D01*
X217248476Y-261754952D01*
X217200857Y-261564476D01*
X217153238Y-261469238D01*
X217058000Y-261374000D01*
X216915142Y-261326380D01*
X216819904Y-261326380D01*
X216677047Y-261374000D01*
X216629428Y-261421619D01*
X216058000Y-262326380D02*
X216153238Y-262278761D01*
X216200857Y-262231142D01*
X216248476Y-262135904D01*
X216248476Y-261850190D01*
X216200857Y-261754952D01*
X216153238Y-261707333D01*
X216058000Y-261659714D01*
X215915142Y-261659714D01*
X215819904Y-261707333D01*
X215772285Y-261754952D01*
X215724666Y-261850190D01*
X215724666Y-262135904D01*
X215772285Y-262231142D01*
X215819904Y-262278761D01*
X215915142Y-262326380D01*
X216058000Y-262326380D01*
X215296095Y-262326380D02*
X215296095Y-261659714D01*
X215296095Y-261754952D02*
X215248476Y-261707333D01*
X215153238Y-261659714D01*
X215010380Y-261659714D01*
X214915142Y-261707333D01*
X214867523Y-261802571D01*
X214867523Y-262326380D01*
X214867523Y-261802571D02*
X214819904Y-261707333D01*
X214724666Y-261659714D01*
X214581809Y-261659714D01*
X214486571Y-261707333D01*
X214438952Y-261802571D01*
X214438952Y-262326380D01*
X213962761Y-262326380D02*
X213962761Y-261659714D01*
X213962761Y-261754952D02*
X213915142Y-261707333D01*
X213819904Y-261659714D01*
X213677047Y-261659714D01*
X213581809Y-261707333D01*
X213534190Y-261802571D01*
X213534190Y-262326380D01*
X213534190Y-261802571D02*
X213486571Y-261707333D01*
X213391333Y-261659714D01*
X213248476Y-261659714D01*
X213153238Y-261707333D01*
X213105619Y-261802571D01*
X213105619Y-262326380D01*
X212200857Y-261659714D02*
X212200857Y-262326380D01*
X212629428Y-261659714D02*
X212629428Y-262183523D01*
X212581809Y-262278761D01*
X212486571Y-262326380D01*
X212343714Y-262326380D01*
X212248476Y-262278761D01*
X212200857Y-262231142D01*
X211724666Y-261659714D02*
X211724666Y-262326380D01*
X211724666Y-261754952D02*
X211677047Y-261707333D01*
X211581809Y-261659714D01*
X211438952Y-261659714D01*
X211343714Y-261707333D01*
X211296095Y-261802571D01*
X211296095Y-262326380D01*
X210819904Y-262326380D02*
X210819904Y-261659714D01*
X210819904Y-261326380D02*
X210867523Y-261374000D01*
X210819904Y-261421619D01*
X210772285Y-261374000D01*
X210819904Y-261326380D01*
X210819904Y-261421619D01*
X209915142Y-262278761D02*
X210010380Y-262326380D01*
X210200857Y-262326380D01*
X210296095Y-262278761D01*
X210343714Y-262231142D01*
X210391333Y-262135904D01*
X210391333Y-261850190D01*
X210343714Y-261754952D01*
X210296095Y-261707333D01*
X210200857Y-261659714D01*
X210010380Y-261659714D01*
X209915142Y-261707333D01*
X209058000Y-262326380D02*
X209058000Y-261802571D01*
X209105619Y-261707333D01*
X209200857Y-261659714D01*
X209391333Y-261659714D01*
X209486571Y-261707333D01*
X209058000Y-262278761D02*
X209153238Y-262326380D01*
X209391333Y-262326380D01*
X209486571Y-262278761D01*
X209534190Y-262183523D01*
X209534190Y-262088285D01*
X209486571Y-261993047D01*
X209391333Y-261945428D01*
X209153238Y-261945428D01*
X209058000Y-261897809D01*
X208724666Y-261659714D02*
X208343714Y-261659714D01*
X208581809Y-261326380D02*
X208581809Y-262183523D01*
X208534190Y-262278761D01*
X208438952Y-262326380D01*
X208343714Y-262326380D01*
X208010380Y-262326380D02*
X208010380Y-261659714D01*
X208010380Y-261326380D02*
X208058000Y-261374000D01*
X208010380Y-261421619D01*
X207962761Y-261374000D01*
X208010380Y-261326380D01*
X208010380Y-261421619D01*
X207391333Y-262326380D02*
X207486571Y-262278761D01*
X207534190Y-262231142D01*
X207581809Y-262135904D01*
X207581809Y-261850190D01*
X207534190Y-261754952D01*
X207486571Y-261707333D01*
X207391333Y-261659714D01*
X207248476Y-261659714D01*
X207153238Y-261707333D01*
X207105619Y-261754952D01*
X207058000Y-261850190D01*
X207058000Y-262135904D01*
X207105619Y-262231142D01*
X207153238Y-262278761D01*
X207248476Y-262326380D01*
X207391333Y-262326380D01*
X206629428Y-261659714D02*
X206629428Y-262326380D01*
X206629428Y-261754952D02*
X206581809Y-261707333D01*
X206486571Y-261659714D01*
X206343714Y-261659714D01*
X206248476Y-261707333D01*
X206200857Y-261802571D01*
X206200857Y-262326380D01*
X204962761Y-261945428D02*
X204200857Y-261945428D01*
X204581809Y-262326380D02*
X204581809Y-261564476D01*
X203058000Y-261326380D02*
X202438952Y-261326380D01*
X202772285Y-261707333D01*
X202629428Y-261707333D01*
X202534190Y-261754952D01*
X202486571Y-261802571D01*
X202438952Y-261897809D01*
X202438952Y-262135904D01*
X202486571Y-262231142D01*
X202534190Y-262278761D01*
X202629428Y-262326380D01*
X202915142Y-262326380D01*
X203010380Y-262278761D01*
X203058000Y-262231142D01*
X202010380Y-262231142D02*
X201962761Y-262278761D01*
X202010380Y-262326380D01*
X202058000Y-262278761D01*
X202010380Y-262231142D01*
X202010380Y-262326380D01*
X201629428Y-261326380D02*
X201010380Y-261326380D01*
X201343714Y-261707333D01*
X201200857Y-261707333D01*
X201105619Y-261754952D01*
X201058000Y-261802571D01*
X201010380Y-261897809D01*
X201010380Y-262135904D01*
X201058000Y-262231142D01*
X201105619Y-262278761D01*
X201200857Y-262326380D01*
X201486571Y-262326380D01*
X201581809Y-262278761D01*
X201629428Y-262231142D01*
X200724666Y-261326380D02*
X200391333Y-262326380D01*
X200058000Y-261326380D01*
X198962761Y-262326380D02*
X198962761Y-261326380D01*
X198581809Y-261326380D01*
X198486571Y-261374000D01*
X198438952Y-261421619D01*
X198391333Y-261516857D01*
X198391333Y-261659714D01*
X198438952Y-261754952D01*
X198486571Y-261802571D01*
X198581809Y-261850190D01*
X198962761Y-261850190D01*
X197819904Y-262326380D02*
X197915142Y-262278761D01*
X197962761Y-262231142D01*
X198010380Y-262135904D01*
X198010380Y-261850190D01*
X197962761Y-261754952D01*
X197915142Y-261707333D01*
X197819904Y-261659714D01*
X197677047Y-261659714D01*
X197581809Y-261707333D01*
X197534190Y-261754952D01*
X197486571Y-261850190D01*
X197486571Y-262135904D01*
X197534190Y-262231142D01*
X197581809Y-262278761D01*
X197677047Y-262326380D01*
X197819904Y-262326380D01*
X197153238Y-261659714D02*
X196962761Y-262326380D01*
X196772285Y-261850190D01*
X196581809Y-262326380D01*
X196391333Y-261659714D01*
X195629428Y-262278761D02*
X195724666Y-262326380D01*
X195915142Y-262326380D01*
X196010380Y-262278761D01*
X196058000Y-262183523D01*
X196058000Y-261802571D01*
X196010380Y-261707333D01*
X195915142Y-261659714D01*
X195724666Y-261659714D01*
X195629428Y-261707333D01*
X195581809Y-261802571D01*
X195581809Y-261897809D01*
X196058000Y-261993047D01*
X195153238Y-262326380D02*
X195153238Y-261659714D01*
X195153238Y-261850190D02*
X195105619Y-261754952D01*
X195058000Y-261707333D01*
X194962761Y-261659714D01*
X194867523Y-261659714D01*
X249174000Y-263652000D02*
X249174000Y-301371000D01*
X172212000Y-263652000D02*
X249174000Y-263652000D01*
X172212000Y-301117000D02*
X172212000Y-263652000D01*
X308331809Y-178747047D02*
X307485142Y-181287047D01*
X306638476Y-178747047D01*
X304824190Y-181166095D02*
X305066095Y-181287047D01*
X305549904Y-181287047D01*
X305791809Y-181166095D01*
X305912761Y-180924190D01*
X305912761Y-179956571D01*
X305791809Y-179714666D01*
X305549904Y-179593714D01*
X305066095Y-179593714D01*
X304824190Y-179714666D01*
X304703238Y-179956571D01*
X304703238Y-180198476D01*
X305912761Y-180440380D01*
X303614666Y-181287047D02*
X303614666Y-179593714D01*
X303614666Y-180077523D02*
X303493714Y-179835619D01*
X303372761Y-179714666D01*
X303130857Y-179593714D01*
X302888952Y-179593714D01*
X302163238Y-181166095D02*
X301921333Y-181287047D01*
X301437523Y-181287047D01*
X301195619Y-181166095D01*
X301074666Y-180924190D01*
X301074666Y-180803238D01*
X301195619Y-180561333D01*
X301437523Y-180440380D01*
X301800380Y-180440380D01*
X302042285Y-180319428D01*
X302163238Y-180077523D01*
X302163238Y-179956571D01*
X302042285Y-179714666D01*
X301800380Y-179593714D01*
X301437523Y-179593714D01*
X301195619Y-179714666D01*
X299986095Y-181287047D02*
X299986095Y-179593714D01*
X299986095Y-178747047D02*
X300107047Y-178868000D01*
X299986095Y-178988952D01*
X299865142Y-178868000D01*
X299986095Y-178747047D01*
X299986095Y-178988952D01*
X298413714Y-181287047D02*
X298655619Y-181166095D01*
X298776571Y-181045142D01*
X298897523Y-180803238D01*
X298897523Y-180077523D01*
X298776571Y-179835619D01*
X298655619Y-179714666D01*
X298413714Y-179593714D01*
X298050857Y-179593714D01*
X297808952Y-179714666D01*
X297688000Y-179835619D01*
X297567047Y-180077523D01*
X297567047Y-180803238D01*
X297688000Y-181045142D01*
X297808952Y-181166095D01*
X298050857Y-181287047D01*
X298413714Y-181287047D01*
X296478476Y-179593714D02*
X296478476Y-181287047D01*
X296478476Y-179835619D02*
X296357523Y-179714666D01*
X296115619Y-179593714D01*
X295752761Y-179593714D01*
X295510857Y-179714666D01*
X295389904Y-179956571D01*
X295389904Y-181287047D01*
X290914666Y-181287047D02*
X292366095Y-181287047D01*
X291640380Y-181287047D02*
X291640380Y-178747047D01*
X291882285Y-179109904D01*
X292124190Y-179351809D01*
X292366095Y-179472761D01*
X289826095Y-181045142D02*
X289705142Y-181166095D01*
X289826095Y-181287047D01*
X289947047Y-181166095D01*
X289826095Y-181045142D01*
X289826095Y-181287047D01*
X288132761Y-178747047D02*
X287890857Y-178747047D01*
X287648952Y-178868000D01*
X287528000Y-178988952D01*
X287407047Y-179230857D01*
X287286095Y-179714666D01*
X287286095Y-180319428D01*
X287407047Y-180803238D01*
X287528000Y-181045142D01*
X287648952Y-181166095D01*
X287890857Y-181287047D01*
X288132761Y-181287047D01*
X288374666Y-181166095D01*
X288495619Y-181045142D01*
X288616571Y-180803238D01*
X288737523Y-180319428D01*
X288737523Y-179714666D01*
X288616571Y-179230857D01*
X288495619Y-178988952D01*
X288374666Y-178868000D01*
X288132761Y-178747047D01*
X314077047Y-183916571D02*
X313714190Y-184037523D01*
X313593238Y-184158476D01*
X313472285Y-184400380D01*
X313472285Y-184763238D01*
X313593238Y-185005142D01*
X313714190Y-185126095D01*
X313956095Y-185247047D01*
X314923714Y-185247047D01*
X314923714Y-182707047D01*
X314077047Y-182707047D01*
X313835142Y-182828000D01*
X313714190Y-182948952D01*
X313593238Y-183190857D01*
X313593238Y-183432761D01*
X313714190Y-183674666D01*
X313835142Y-183795619D01*
X314077047Y-183916571D01*
X314923714Y-183916571D01*
X312625619Y-183553714D02*
X312020857Y-185247047D01*
X311416095Y-183553714D02*
X312020857Y-185247047D01*
X312262761Y-185851809D01*
X312383714Y-185972761D01*
X312625619Y-186093714D01*
X308876095Y-182707047D02*
X308029428Y-185247047D01*
X307182761Y-182707047D01*
X305973238Y-185247047D02*
X306215142Y-185126095D01*
X306336095Y-184884190D01*
X306336095Y-182707047D01*
X303917047Y-185247047D02*
X303917047Y-183916571D01*
X304038000Y-183674666D01*
X304279904Y-183553714D01*
X304763714Y-183553714D01*
X305005619Y-183674666D01*
X303917047Y-185126095D02*
X304158952Y-185247047D01*
X304763714Y-185247047D01*
X305005619Y-185126095D01*
X305126571Y-184884190D01*
X305126571Y-184642285D01*
X305005619Y-184400380D01*
X304763714Y-184279428D01*
X304158952Y-184279428D01*
X303917047Y-184158476D01*
X301618952Y-185247047D02*
X301618952Y-182707047D01*
X301618952Y-185126095D02*
X301860857Y-185247047D01*
X302344666Y-185247047D01*
X302586571Y-185126095D01*
X302707523Y-185005142D01*
X302828476Y-184763238D01*
X302828476Y-184037523D01*
X302707523Y-183795619D01*
X302586571Y-183674666D01*
X302344666Y-183553714D01*
X301860857Y-183553714D01*
X301618952Y-183674666D01*
X298474190Y-185247047D02*
X298474190Y-182707047D01*
X297506571Y-182707047D01*
X297264666Y-182828000D01*
X297143714Y-182948952D01*
X297022761Y-183190857D01*
X297022761Y-183553714D01*
X297143714Y-183795619D01*
X297264666Y-183916571D01*
X297506571Y-184037523D01*
X298474190Y-184037523D01*
X295571333Y-185247047D02*
X295813238Y-185126095D01*
X295934190Y-185005142D01*
X296055142Y-184763238D01*
X296055142Y-184037523D01*
X295934190Y-183795619D01*
X295813238Y-183674666D01*
X295571333Y-183553714D01*
X295208476Y-183553714D01*
X294966571Y-183674666D01*
X294845619Y-183795619D01*
X294724666Y-184037523D01*
X294724666Y-184763238D01*
X294845619Y-185005142D01*
X294966571Y-185126095D01*
X295208476Y-185247047D01*
X295571333Y-185247047D01*
X293636095Y-185247047D02*
X293636095Y-183553714D01*
X293636095Y-183795619D02*
X293515142Y-183674666D01*
X293273238Y-183553714D01*
X292910380Y-183553714D01*
X292668476Y-183674666D01*
X292547523Y-183916571D01*
X292547523Y-185247047D01*
X292547523Y-183916571D02*
X292426571Y-183674666D01*
X292184666Y-183553714D01*
X291821809Y-183553714D01*
X291579904Y-183674666D01*
X291458952Y-183916571D01*
X291458952Y-185247047D01*
X289886571Y-185247047D02*
X290128476Y-185126095D01*
X290249428Y-185005142D01*
X290370380Y-184763238D01*
X290370380Y-184037523D01*
X290249428Y-183795619D01*
X290128476Y-183674666D01*
X289886571Y-183553714D01*
X289523714Y-183553714D01*
X289281809Y-183674666D01*
X289160857Y-183795619D01*
X289039904Y-184037523D01*
X289039904Y-184763238D01*
X289160857Y-185005142D01*
X289281809Y-185126095D01*
X289523714Y-185247047D01*
X289886571Y-185247047D01*
X286862761Y-183553714D02*
X286862761Y-185609904D01*
X286983714Y-185851809D01*
X287104666Y-185972761D01*
X287346571Y-186093714D01*
X287709428Y-186093714D01*
X287951333Y-185972761D01*
X286862761Y-185126095D02*
X287104666Y-185247047D01*
X287588476Y-185247047D01*
X287830380Y-185126095D01*
X287951333Y-185005142D01*
X288072285Y-184763238D01*
X288072285Y-184037523D01*
X287951333Y-183795619D01*
X287830380Y-183674666D01*
X287588476Y-183553714D01*
X287104666Y-183553714D01*
X286862761Y-183674666D01*
X284564666Y-185247047D02*
X284564666Y-183916571D01*
X284685619Y-183674666D01*
X284927523Y-183553714D01*
X285411333Y-183553714D01*
X285653238Y-183674666D01*
X284564666Y-185126095D02*
X284806571Y-185247047D01*
X285411333Y-185247047D01*
X285653238Y-185126095D01*
X285774190Y-184884190D01*
X285774190Y-184642285D01*
X285653238Y-184400380D01*
X285411333Y-184279428D01*
X284806571Y-184279428D01*
X284564666Y-184158476D01*
X282387523Y-185126095D02*
X282629428Y-185247047D01*
X283113238Y-185247047D01*
X283355142Y-185126095D01*
X283476095Y-184884190D01*
X283476095Y-183916571D01*
X283355142Y-183674666D01*
X283113238Y-183553714D01*
X282629428Y-183553714D01*
X282387523Y-183674666D01*
X282266571Y-183916571D01*
X282266571Y-184158476D01*
X283476095Y-184400380D01*
X281419904Y-183553714D02*
X280815142Y-185247047D01*
X280210380Y-183553714D01*
X223774000Y-290322000D02*
X223139000Y-289433000D01*
X225679000Y-288671000D02*
X225679000Y-288163000D01*
X224790000Y-283718000D02*
X224409000Y-283972000D01*
D11*
G36*
X287324665Y-165984661D02*
G01*
X287263734Y-166047943D01*
X287285144Y-166164742D01*
X287436575Y-166336511D01*
X287509210Y-166398561D01*
X287817279Y-166647902D01*
X287429716Y-166904613D01*
X286974720Y-167291191D01*
X286669507Y-167734311D01*
X286513698Y-168212253D01*
X286506914Y-168703294D01*
X286648775Y-169185712D01*
X286938904Y-169637787D01*
X287376920Y-170037797D01*
X287485666Y-170111864D01*
X287626185Y-170224579D01*
X287635052Y-170327179D01*
X287589391Y-170404946D01*
X287311314Y-170896685D01*
X287178988Y-171374292D01*
X287173389Y-171825480D01*
X287312327Y-172566764D01*
X287580261Y-173198930D01*
X287976762Y-173721307D01*
X288501399Y-174133225D01*
X288736215Y-174261610D01*
X289083656Y-174418279D01*
X289372828Y-174503273D01*
X289687780Y-174536675D01*
X289902658Y-174540333D01*
X290249974Y-174530174D01*
X290495282Y-174488711D01*
X290705259Y-174399460D01*
X290861523Y-174303303D01*
X291134085Y-174077121D01*
X291385578Y-173795673D01*
X291451530Y-173701270D01*
X291683008Y-173336267D01*
X292157989Y-173778378D01*
X292645410Y-174180480D01*
X293113760Y-174447161D01*
X293608910Y-174599385D01*
X294073793Y-174653860D01*
X294752757Y-174628552D01*
X295336908Y-174480068D01*
X295815487Y-174213444D01*
X296177735Y-173833718D01*
X296309967Y-173606950D01*
X296460760Y-173346150D01*
X296593523Y-173241365D01*
X296727140Y-173283349D01*
X296806389Y-173363902D01*
X296933211Y-173480661D01*
X297152276Y-173650596D01*
X297388256Y-173817652D01*
X297921164Y-174155739D01*
X298357083Y-174376053D01*
X298716100Y-174483160D01*
X299018302Y-174481626D01*
X299283778Y-174376016D01*
X299417170Y-174278807D01*
X299587582Y-174085698D01*
X299666450Y-173852202D01*
X299653459Y-173551613D01*
X299548293Y-173157221D01*
X299399236Y-172760293D01*
X299123653Y-172080920D01*
X300056826Y-173015280D01*
X300546649Y-173480983D01*
X301018718Y-173883276D01*
X301452789Y-174207658D01*
X301828614Y-174439629D01*
X302125947Y-174564689D01*
X302245373Y-174582666D01*
X302404715Y-174521297D01*
X302607093Y-174369179D01*
X302802793Y-174174300D01*
X302942099Y-173984645D01*
X302979666Y-173873904D01*
X302951831Y-173737265D01*
X302877596Y-173487795D01*
X302770873Y-173170893D01*
X302725666Y-173044898D01*
X302560174Y-172554192D01*
X302476378Y-172211749D01*
X302474762Y-172017243D01*
X302555809Y-171970350D01*
X302720003Y-172070745D01*
X302967828Y-172318102D01*
X303272102Y-172677666D01*
X303676390Y-173173093D01*
X303999429Y-173552398D01*
X304261018Y-173835342D01*
X304480953Y-174041685D01*
X304679032Y-174191184D01*
X304875054Y-174303600D01*
X304925694Y-174328055D01*
X305210407Y-174445548D01*
X305395345Y-174477209D01*
X305504196Y-174443100D01*
X305616346Y-174340683D01*
X305665851Y-174197862D01*
X305647719Y-173994988D01*
X305556956Y-173712413D01*
X305388572Y-173330487D01*
X305137573Y-172829560D01*
X305053156Y-172667865D01*
X304838899Y-172254793D01*
X304658386Y-171896754D01*
X304524030Y-171619199D01*
X304448242Y-171447576D01*
X304436760Y-171404017D01*
X304497662Y-171454526D01*
X304641982Y-171614840D01*
X304849188Y-171861093D01*
X305098750Y-172169417D01*
X305141958Y-172223822D01*
X305815430Y-172993555D01*
X306503358Y-173614976D01*
X307228810Y-174108887D01*
X307238404Y-174114453D01*
X307472476Y-174270256D01*
X307652371Y-174452149D01*
X307820084Y-174709733D01*
X307948395Y-174953028D01*
X308358620Y-175691678D01*
X308785184Y-176315900D01*
X309215985Y-176811010D01*
X309638917Y-177162326D01*
X309880000Y-177296274D01*
X310317207Y-177437140D01*
X310789014Y-177502259D01*
X311228866Y-177486167D01*
X311473104Y-177427029D01*
X311843513Y-177244359D01*
X312070444Y-177012025D01*
X312172386Y-176737403D01*
X312174240Y-176698908D01*
X311002781Y-176698908D01*
X310994129Y-176737113D01*
X310881479Y-176854668D01*
X310706997Y-176833109D01*
X310498814Y-176676778D01*
X310480878Y-176657859D01*
X310340598Y-176477034D01*
X310180908Y-176227930D01*
X310023727Y-175951573D01*
X309890975Y-175688993D01*
X309804572Y-175481215D01*
X309786435Y-175369269D01*
X309789793Y-175364317D01*
X309892452Y-175368382D01*
X310081327Y-175451195D01*
X310309207Y-175587235D01*
X310528884Y-175750981D01*
X310567737Y-175784859D01*
X310731072Y-175982055D01*
X310875559Y-176239288D01*
X310974896Y-176497818D01*
X311002781Y-176698908D01*
X312174240Y-176698908D01*
X312187988Y-176413620D01*
X312096822Y-176121011D01*
X311885743Y-175844590D01*
X311541604Y-175569371D01*
X311051259Y-175280367D01*
X310767697Y-175136072D01*
X310384070Y-174951091D01*
X310029499Y-174786015D01*
X309746638Y-174660357D01*
X309592326Y-174598372D01*
X309423338Y-174513948D01*
X309364236Y-174430604D01*
X309368647Y-174418758D01*
X309488512Y-174378668D01*
X309634509Y-174416568D01*
X309915170Y-174478670D01*
X310255646Y-174494485D01*
X310579283Y-174465139D01*
X310795733Y-174399503D01*
X311008611Y-174246893D01*
X311130944Y-174041423D01*
X311183298Y-173738198D01*
X311189640Y-173539685D01*
X311192333Y-173047038D01*
X311679166Y-173469990D01*
X312127362Y-173830147D01*
X312565988Y-174129229D01*
X312965476Y-174350093D01*
X313296259Y-174475594D01*
X313452186Y-174498000D01*
X313765497Y-174434041D01*
X313970156Y-174249312D01*
X314064207Y-173954536D01*
X314045693Y-173560435D01*
X313912656Y-173077731D01*
X313772877Y-172740986D01*
X313639515Y-172434773D01*
X313544960Y-172183345D01*
X313504412Y-172028501D01*
X313505481Y-172005702D01*
X313561670Y-172024332D01*
X313679873Y-172159104D01*
X313834806Y-172381065D01*
X313839111Y-172387761D01*
X314040848Y-172660639D01*
X314322736Y-172988922D01*
X314636469Y-173317683D01*
X314770206Y-173446518D01*
X315319116Y-173910185D01*
X315825866Y-174240723D01*
X316281870Y-174436344D01*
X316678539Y-174495257D01*
X317007287Y-174415674D01*
X317259526Y-174195805D01*
X317373419Y-173988987D01*
X317428195Y-173793217D01*
X317426162Y-173580549D01*
X317358526Y-173331741D01*
X317216491Y-173027549D01*
X316991263Y-172648731D01*
X316674046Y-172176045D01*
X316312842Y-171668566D01*
X316120896Y-171371417D01*
X316049294Y-171161009D01*
X316094317Y-171008839D01*
X316213659Y-170908741D01*
X316271412Y-170874930D01*
X316325605Y-170863523D01*
X316392626Y-170890084D01*
X316488860Y-170970179D01*
X316630694Y-171119376D01*
X316834514Y-171353238D01*
X317116708Y-171687333D01*
X317442020Y-172075580D01*
X317738905Y-172418769D01*
X317956435Y-172640943D01*
X318113511Y-172758997D01*
X318229034Y-172789829D01*
X318239721Y-172788665D01*
X318385284Y-172743423D01*
X318428317Y-172651773D01*
X318363306Y-172493463D01*
X318184740Y-172248239D01*
X318047482Y-172082371D01*
X317786095Y-171762268D01*
X317520601Y-171418881D01*
X317319109Y-171141564D01*
X317153782Y-170885524D01*
X317081184Y-170716283D01*
X317086325Y-170589989D01*
X317111170Y-170533297D01*
X317199564Y-170211177D01*
X317158227Y-169873638D01*
X317010183Y-169561787D01*
X316778455Y-169316731D01*
X316486069Y-169179574D01*
X316344209Y-169164000D01*
X316068442Y-169228765D01*
X315909182Y-169410214D01*
X315881992Y-169689076D01*
X315888398Y-169728465D01*
X315898493Y-169940027D01*
X315818126Y-170053256D01*
X315629223Y-170074379D01*
X315313714Y-170009624D01*
X315182661Y-169971662D01*
X314784780Y-169871979D01*
X314499138Y-169854753D01*
X314322740Y-169929431D01*
X314252587Y-170105458D01*
X314285684Y-170392281D01*
X314419034Y-170799345D01*
X314649639Y-171336097D01*
X314709172Y-171464111D01*
X314953806Y-171993365D01*
X315126992Y-172390689D01*
X315235063Y-172674568D01*
X315284354Y-172863482D01*
X315281201Y-172975914D01*
X315243828Y-173024062D01*
X315131740Y-173007471D01*
X314968708Y-172897981D01*
X314945462Y-172877037D01*
X314770750Y-172692593D01*
X314524534Y-172404548D01*
X314233809Y-172047041D01*
X313925570Y-171654209D01*
X313626812Y-171260189D01*
X313364531Y-170899118D01*
X313247890Y-170730333D01*
X312952650Y-170311699D01*
X312715266Y-170024502D01*
X312515834Y-169849755D01*
X312334450Y-169768473D01*
X312227134Y-169756666D01*
X311974500Y-169832776D01*
X311735564Y-170030475D01*
X311548629Y-170303816D01*
X311451997Y-170606850D01*
X311446333Y-170693315D01*
X311478634Y-170847463D01*
X311565644Y-171113225D01*
X311692527Y-171447821D01*
X311788686Y-171680395D01*
X311994817Y-172180011D01*
X312126601Y-172544226D01*
X312187656Y-172787959D01*
X312181597Y-172926130D01*
X312112038Y-172973657D01*
X312102185Y-172974000D01*
X312007023Y-172916109D01*
X311948380Y-172867067D01*
X309311971Y-172867067D01*
X309305275Y-172915442D01*
X309186217Y-173041327D01*
X308994858Y-173035020D01*
X308756549Y-172902668D01*
X308575549Y-172738501D01*
X308389729Y-172507530D01*
X308188347Y-172200916D01*
X307992471Y-171858783D01*
X307823166Y-171521253D01*
X307701502Y-171228450D01*
X307648544Y-171020495D01*
X307650018Y-170975803D01*
X307735946Y-170817157D01*
X307896875Y-170801220D01*
X308120903Y-170925368D01*
X308342064Y-171128509D01*
X308553850Y-171384583D01*
X308772024Y-171703185D01*
X308976754Y-172047526D01*
X309148210Y-172380813D01*
X309266559Y-172666257D01*
X309311971Y-172867067D01*
X311948380Y-172867067D01*
X311813553Y-172754315D01*
X311541187Y-172506437D01*
X311209335Y-172190292D01*
X310837409Y-171823700D01*
X310715768Y-171701344D01*
X310200116Y-171184570D01*
X309780643Y-170778305D01*
X309437800Y-170469441D01*
X309152040Y-170244871D01*
X308903813Y-170091490D01*
X308673570Y-169996189D01*
X308441763Y-169945863D01*
X308188842Y-169927404D01*
X308067855Y-169926000D01*
X307739978Y-169937912D01*
X307462156Y-169969190D01*
X307293116Y-170013143D01*
X307290396Y-170014557D01*
X307166648Y-170051358D01*
X307067869Y-169979883D01*
X306978462Y-169833651D01*
X306747554Y-169461690D01*
X306543309Y-169248814D01*
X306358519Y-169188195D01*
X306307335Y-169198186D01*
X306150399Y-169307410D01*
X305969000Y-169512701D01*
X305805884Y-169754701D01*
X305703798Y-169974054D01*
X305689000Y-170056789D01*
X305723787Y-170170878D01*
X305820991Y-170412951D01*
X305969876Y-170758277D01*
X306159703Y-171182122D01*
X306379738Y-171659754D01*
X306449878Y-171809504D01*
X306673686Y-172291150D01*
X306867678Y-172719499D01*
X307021875Y-173071597D01*
X307126297Y-173324493D01*
X307170966Y-173455235D01*
X307170850Y-173467705D01*
X307088321Y-173435918D01*
X306908675Y-173293639D01*
X306648083Y-173056232D01*
X306322717Y-172739059D01*
X305948749Y-172357483D01*
X305542349Y-171926868D01*
X305494735Y-171875406D01*
X304990619Y-171286554D01*
X304459044Y-170590742D01*
X303934799Y-169838484D01*
X303452675Y-169080297D01*
X303047462Y-168366696D01*
X302956812Y-168190333D01*
X302714503Y-167732235D01*
X302514460Y-167418117D01*
X302342811Y-167232204D01*
X302185682Y-167158720D01*
X302060061Y-167170610D01*
X301911814Y-167287865D01*
X301757157Y-167517084D01*
X301622620Y-167804135D01*
X301534734Y-168094883D01*
X301515371Y-168281987D01*
X301557516Y-168460836D01*
X301668011Y-168752708D01*
X301832368Y-169122937D01*
X302036100Y-169536861D01*
X302055572Y-169574495D01*
X302246681Y-169950907D01*
X302401061Y-170271544D01*
X302505624Y-170507904D01*
X302547281Y-170631485D01*
X302545814Y-170642074D01*
X302458132Y-170623049D01*
X302253129Y-170538908D01*
X301963116Y-170403812D01*
X301680536Y-170262894D01*
X301170879Y-170022314D01*
X300773652Y-169884248D01*
X300469648Y-169844696D01*
X300239660Y-169899660D01*
X300164150Y-169947166D01*
X300039580Y-170070574D01*
X299978246Y-170220174D01*
X299984616Y-170419537D01*
X300063161Y-170692235D01*
X300218350Y-171061841D01*
X300454652Y-171551924D01*
X300476849Y-171596352D01*
X300674242Y-171999503D01*
X300840734Y-172356293D01*
X300962639Y-172636075D01*
X301026266Y-172808199D01*
X301032333Y-172840068D01*
X300971443Y-172950363D01*
X300815999Y-172961775D01*
X300606837Y-172877119D01*
X300499535Y-172803332D01*
X300380370Y-172690034D01*
X300176519Y-172476596D01*
X299913463Y-172191474D01*
X299616689Y-171863122D01*
X299311679Y-171519992D01*
X299023917Y-171190540D01*
X298778889Y-170903218D01*
X298602077Y-170686481D01*
X298591969Y-170673467D01*
X298525193Y-170531905D01*
X298580445Y-170375688D01*
X298592688Y-170355675D01*
X298650960Y-170144952D01*
X298553998Y-169972891D01*
X298314514Y-169856523D01*
X298202203Y-169832560D01*
X298015199Y-169791641D01*
X297863458Y-169720825D01*
X297720864Y-169593868D01*
X297561300Y-169384524D01*
X297358649Y-169066547D01*
X297232947Y-168858523D01*
X296994055Y-168484398D01*
X296802840Y-168257507D01*
X296637987Y-168170446D01*
X296478181Y-168215808D01*
X296302107Y-168386188D01*
X296210648Y-168503337D01*
X296045415Y-168753234D01*
X295978047Y-168951143D01*
X295985790Y-169163923D01*
X295985802Y-169164000D01*
X296024462Y-169416273D01*
X296054701Y-169619773D01*
X296055618Y-169626174D01*
X296036392Y-169744000D01*
X295909902Y-169813972D01*
X295760898Y-169845831D01*
X295502142Y-169902749D01*
X295391041Y-169977446D01*
X295406232Y-170098067D01*
X295477150Y-170219691D01*
X295596986Y-170356173D01*
X295760891Y-170419661D01*
X296017785Y-170435296D01*
X296274617Y-170448456D01*
X296462973Y-170480248D01*
X296507838Y-170498796D01*
X296621253Y-170626591D01*
X296785552Y-170873394D01*
X296982219Y-171204239D01*
X297192735Y-171584165D01*
X297398585Y-171978207D01*
X297581249Y-172351403D01*
X297722211Y-172668789D01*
X297802954Y-172895401D01*
X297815000Y-172966889D01*
X297762523Y-173150856D01*
X297617688Y-173196453D01*
X297490450Y-173150888D01*
X297164033Y-172928461D01*
X296822849Y-172620592D01*
X296527574Y-172286650D01*
X296375666Y-172060139D01*
X296094038Y-171659027D01*
X295774210Y-171417413D01*
X295405744Y-171327757D01*
X295360808Y-171326848D01*
X295006607Y-171396374D01*
X294749975Y-171590497D01*
X294613682Y-171887536D01*
X294597666Y-172053483D01*
X294619093Y-172259400D01*
X294703195Y-172439880D01*
X294879706Y-172649208D01*
X294978666Y-172749059D01*
X295222291Y-173013683D01*
X295335143Y-173214444D01*
X295325651Y-173383898D01*
X295202245Y-173554603D01*
X295190333Y-173566666D01*
X294935365Y-173709487D01*
X294610916Y-173716046D01*
X294237859Y-173593291D01*
X293837070Y-173348171D01*
X293439430Y-172996485D01*
X291090716Y-172996485D01*
X290950195Y-173244869D01*
X290685452Y-173425411D01*
X290472787Y-173524932D01*
X290332882Y-173556247D01*
X290186490Y-173525764D01*
X290052345Y-173476613D01*
X289684755Y-173254995D01*
X289357753Y-172902948D01*
X289093409Y-172458358D01*
X288913789Y-171959113D01*
X288840963Y-171443101D01*
X288840400Y-171395879D01*
X288872269Y-170991190D01*
X288980829Y-170717210D01*
X289185319Y-170545361D01*
X289475333Y-170452768D01*
X289701634Y-170388310D01*
X289808158Y-170289900D01*
X289840000Y-170163693D01*
X289792687Y-169934582D01*
X289603835Y-169769591D01*
X289293526Y-169682311D01*
X289113623Y-169672000D01*
X288675933Y-169606170D01*
X288338940Y-169407158D01*
X288100604Y-169072678D01*
X287958888Y-168600445D01*
X287925922Y-168340363D01*
X287912873Y-168069068D01*
X287949566Y-167890187D01*
X288062497Y-167728401D01*
X288186537Y-167599529D01*
X288376475Y-167426600D01*
X288527414Y-167318987D01*
X288575898Y-167301333D01*
X288672300Y-167363215D01*
X288832722Y-167524447D01*
X288998993Y-167721257D01*
X289125311Y-167890748D01*
X289240690Y-168072702D01*
X289355302Y-168290371D01*
X289479317Y-168567010D01*
X289622908Y-168925873D01*
X289796244Y-169390214D01*
X290009496Y-169983287D01*
X290100093Y-170238707D01*
X290435434Y-171186415D01*
X290018883Y-171137080D01*
X289771018Y-171114086D01*
X289647638Y-171131038D01*
X289605948Y-171201584D01*
X289602333Y-171269941D01*
X289645314Y-171400205D01*
X289794489Y-171522731D01*
X290047970Y-171649216D01*
X290485856Y-171895054D01*
X290825217Y-172191620D01*
X291038127Y-172511465D01*
X291088531Y-172672045D01*
X291090716Y-172996485D01*
X293439430Y-172996485D01*
X293429423Y-172987635D01*
X293419242Y-172977117D01*
X293240503Y-172759873D01*
X293003866Y-172425601D01*
X292730836Y-172006833D01*
X292442921Y-171536102D01*
X292269333Y-171237624D01*
X291753252Y-170346099D01*
X291296240Y-169588340D01*
X290885610Y-168944735D01*
X290508675Y-168395672D01*
X290152746Y-167921539D01*
X290007530Y-167741319D01*
X289792805Y-167470277D01*
X289633299Y-167249071D01*
X289550326Y-167108391D01*
X289545461Y-167075983D01*
X289694934Y-167025116D01*
X289964193Y-167020431D01*
X290311725Y-167056572D01*
X290696015Y-167128186D01*
X291075549Y-167229920D01*
X291272087Y-167298652D01*
X291956366Y-167624229D01*
X292512925Y-168016495D01*
X292931494Y-168464783D01*
X293201806Y-168958426D01*
X293308137Y-169413874D01*
X293325431Y-169808168D01*
X293275521Y-170081724D01*
X293140736Y-170275733D01*
X292903408Y-170431384D01*
X292863025Y-170451473D01*
X292598655Y-170595275D01*
X292469072Y-170720920D01*
X292449028Y-170865585D01*
X292488460Y-171002966D01*
X292631989Y-171193327D01*
X292851841Y-171263844D01*
X293114347Y-171223420D01*
X293385835Y-171080956D01*
X293632637Y-170845354D01*
X293751483Y-170669039D01*
X293909349Y-170225093D01*
X293934148Y-169688231D01*
X293826007Y-169052889D01*
X293791237Y-168923396D01*
X293561366Y-168396279D01*
X293186448Y-167887023D01*
X292690722Y-167417511D01*
X292098428Y-167009625D01*
X291433803Y-166685247D01*
X291227124Y-166608586D01*
X290936329Y-166519483D01*
X290647828Y-166460465D01*
X290313019Y-166425423D01*
X289883295Y-166408245D01*
X289602333Y-166404311D01*
X289145008Y-166397247D01*
X288814753Y-166380934D01*
X288569325Y-166348928D01*
X288366486Y-166294784D01*
X288163993Y-166212056D01*
X288078333Y-166171776D01*
X287720645Y-166016900D01*
X287477439Y-165955747D01*
X287324665Y-165984661D01*
X287324665Y-165984661D01*
G37*
X287324665Y-165984661D02*
X287263734Y-166047943D01*
X287285144Y-166164742D01*
X287436575Y-166336511D01*
X287509210Y-166398561D01*
X287817279Y-166647902D01*
X287429716Y-166904613D01*
X286974720Y-167291191D01*
X286669507Y-167734311D01*
X286513698Y-168212253D01*
X286506914Y-168703294D01*
X286648775Y-169185712D01*
X286938904Y-169637787D01*
X287376920Y-170037797D01*
X287485666Y-170111864D01*
X287626185Y-170224579D01*
X287635052Y-170327179D01*
X287589391Y-170404946D01*
X287311314Y-170896685D01*
X287178988Y-171374292D01*
X287173389Y-171825480D01*
X287312327Y-172566764D01*
X287580261Y-173198930D01*
X287976762Y-173721307D01*
X288501399Y-174133225D01*
X288736215Y-174261610D01*
X289083656Y-174418279D01*
X289372828Y-174503273D01*
X289687780Y-174536675D01*
X289902658Y-174540333D01*
X290249974Y-174530174D01*
X290495282Y-174488711D01*
X290705259Y-174399460D01*
X290861523Y-174303303D01*
X291134085Y-174077121D01*
X291385578Y-173795673D01*
X291451530Y-173701270D01*
X291683008Y-173336267D01*
X292157989Y-173778378D01*
X292645410Y-174180480D01*
X293113760Y-174447161D01*
X293608910Y-174599385D01*
X294073793Y-174653860D01*
X294752757Y-174628552D01*
X295336908Y-174480068D01*
X295815487Y-174213444D01*
X296177735Y-173833718D01*
X296309967Y-173606950D01*
X296460760Y-173346150D01*
X296593523Y-173241365D01*
X296727140Y-173283349D01*
X296806389Y-173363902D01*
X296933211Y-173480661D01*
X297152276Y-173650596D01*
X297388256Y-173817652D01*
X297921164Y-174155739D01*
X298357083Y-174376053D01*
X298716100Y-174483160D01*
X299018302Y-174481626D01*
X299283778Y-174376016D01*
X299417170Y-174278807D01*
X299587582Y-174085698D01*
X299666450Y-173852202D01*
X299653459Y-173551613D01*
X299548293Y-173157221D01*
X299399236Y-172760293D01*
X299123653Y-172080920D01*
X300056826Y-173015280D01*
X300546649Y-173480983D01*
X301018718Y-173883276D01*
X301452789Y-174207658D01*
X301828614Y-174439629D01*
X302125947Y-174564689D01*
X302245373Y-174582666D01*
X302404715Y-174521297D01*
X302607093Y-174369179D01*
X302802793Y-174174300D01*
X302942099Y-173984645D01*
X302979666Y-173873904D01*
X302951831Y-173737265D01*
X302877596Y-173487795D01*
X302770873Y-173170893D01*
X302725666Y-173044898D01*
X302560174Y-172554192D01*
X302476378Y-172211749D01*
X302474762Y-172017243D01*
X302555809Y-171970350D01*
X302720003Y-172070745D01*
X302967828Y-172318102D01*
X303272102Y-172677666D01*
X303676390Y-173173093D01*
X303999429Y-173552398D01*
X304261018Y-173835342D01*
X304480953Y-174041685D01*
X304679032Y-174191184D01*
X304875054Y-174303600D01*
X304925694Y-174328055D01*
X305210407Y-174445548D01*
X305395345Y-174477209D01*
X305504196Y-174443100D01*
X305616346Y-174340683D01*
X305665851Y-174197862D01*
X305647719Y-173994988D01*
X305556956Y-173712413D01*
X305388572Y-173330487D01*
X305137573Y-172829560D01*
X305053156Y-172667865D01*
X304838899Y-172254793D01*
X304658386Y-171896754D01*
X304524030Y-171619199D01*
X304448242Y-171447576D01*
X304436760Y-171404017D01*
X304497662Y-171454526D01*
X304641982Y-171614840D01*
X304849188Y-171861093D01*
X305098750Y-172169417D01*
X305141958Y-172223822D01*
X305815430Y-172993555D01*
X306503358Y-173614976D01*
X307228810Y-174108887D01*
X307238404Y-174114453D01*
X307472476Y-174270256D01*
X307652371Y-174452149D01*
X307820084Y-174709733D01*
X307948395Y-174953028D01*
X308358620Y-175691678D01*
X308785184Y-176315900D01*
X309215985Y-176811010D01*
X309638917Y-177162326D01*
X309880000Y-177296274D01*
X310317207Y-177437140D01*
X310789014Y-177502259D01*
X311228866Y-177486167D01*
X311473104Y-177427029D01*
X311843513Y-177244359D01*
X312070444Y-177012025D01*
X312172386Y-176737403D01*
X312174240Y-176698908D01*
X311002781Y-176698908D01*
X310994129Y-176737113D01*
X310881479Y-176854668D01*
X310706997Y-176833109D01*
X310498814Y-176676778D01*
X310480878Y-176657859D01*
X310340598Y-176477034D01*
X310180908Y-176227930D01*
X310023727Y-175951573D01*
X309890975Y-175688993D01*
X309804572Y-175481215D01*
X309786435Y-175369269D01*
X309789793Y-175364317D01*
X309892452Y-175368382D01*
X310081327Y-175451195D01*
X310309207Y-175587235D01*
X310528884Y-175750981D01*
X310567737Y-175784859D01*
X310731072Y-175982055D01*
X310875559Y-176239288D01*
X310974896Y-176497818D01*
X311002781Y-176698908D01*
X312174240Y-176698908D01*
X312187988Y-176413620D01*
X312096822Y-176121011D01*
X311885743Y-175844590D01*
X311541604Y-175569371D01*
X311051259Y-175280367D01*
X310767697Y-175136072D01*
X310384070Y-174951091D01*
X310029499Y-174786015D01*
X309746638Y-174660357D01*
X309592326Y-174598372D01*
X309423338Y-174513948D01*
X309364236Y-174430604D01*
X309368647Y-174418758D01*
X309488512Y-174378668D01*
X309634509Y-174416568D01*
X309915170Y-174478670D01*
X310255646Y-174494485D01*
X310579283Y-174465139D01*
X310795733Y-174399503D01*
X311008611Y-174246893D01*
X311130944Y-174041423D01*
X311183298Y-173738198D01*
X311189640Y-173539685D01*
X311192333Y-173047038D01*
X311679166Y-173469990D01*
X312127362Y-173830147D01*
X312565988Y-174129229D01*
X312965476Y-174350093D01*
X313296259Y-174475594D01*
X313452186Y-174498000D01*
X313765497Y-174434041D01*
X313970156Y-174249312D01*
X314064207Y-173954536D01*
X314045693Y-173560435D01*
X313912656Y-173077731D01*
X313772877Y-172740986D01*
X313639515Y-172434773D01*
X313544960Y-172183345D01*
X313504412Y-172028501D01*
X313505481Y-172005702D01*
X313561670Y-172024332D01*
X313679873Y-172159104D01*
X313834806Y-172381065D01*
X313839111Y-172387761D01*
X314040848Y-172660639D01*
X314322736Y-172988922D01*
X314636469Y-173317683D01*
X314770206Y-173446518D01*
X315319116Y-173910185D01*
X315825866Y-174240723D01*
X316281870Y-174436344D01*
X316678539Y-174495257D01*
X317007287Y-174415674D01*
X317259526Y-174195805D01*
X317373419Y-173988987D01*
X317428195Y-173793217D01*
X317426162Y-173580549D01*
X317358526Y-173331741D01*
X317216491Y-173027549D01*
X316991263Y-172648731D01*
X316674046Y-172176045D01*
X316312842Y-171668566D01*
X316120896Y-171371417D01*
X316049294Y-171161009D01*
X316094317Y-171008839D01*
X316213659Y-170908741D01*
X316271412Y-170874930D01*
X316325605Y-170863523D01*
X316392626Y-170890084D01*
X316488860Y-170970179D01*
X316630694Y-171119376D01*
X316834514Y-171353238D01*
X317116708Y-171687333D01*
X317442020Y-172075580D01*
X317738905Y-172418769D01*
X317956435Y-172640943D01*
X318113511Y-172758997D01*
X318229034Y-172789829D01*
X318239721Y-172788665D01*
X318385284Y-172743423D01*
X318428317Y-172651773D01*
X318363306Y-172493463D01*
X318184740Y-172248239D01*
X318047482Y-172082371D01*
X317786095Y-171762268D01*
X317520601Y-171418881D01*
X317319109Y-171141564D01*
X317153782Y-170885524D01*
X317081184Y-170716283D01*
X317086325Y-170589989D01*
X317111170Y-170533297D01*
X317199564Y-170211177D01*
X317158227Y-169873638D01*
X317010183Y-169561787D01*
X316778455Y-169316731D01*
X316486069Y-169179574D01*
X316344209Y-169164000D01*
X316068442Y-169228765D01*
X315909182Y-169410214D01*
X315881992Y-169689076D01*
X315888398Y-169728465D01*
X315898493Y-169940027D01*
X315818126Y-170053256D01*
X315629223Y-170074379D01*
X315313714Y-170009624D01*
X315182661Y-169971662D01*
X314784780Y-169871979D01*
X314499138Y-169854753D01*
X314322740Y-169929431D01*
X314252587Y-170105458D01*
X314285684Y-170392281D01*
X314419034Y-170799345D01*
X314649639Y-171336097D01*
X314709172Y-171464111D01*
X314953806Y-171993365D01*
X315126992Y-172390689D01*
X315235063Y-172674568D01*
X315284354Y-172863482D01*
X315281201Y-172975914D01*
X315243828Y-173024062D01*
X315131740Y-173007471D01*
X314968708Y-172897981D01*
X314945462Y-172877037D01*
X314770750Y-172692593D01*
X314524534Y-172404548D01*
X314233809Y-172047041D01*
X313925570Y-171654209D01*
X313626812Y-171260189D01*
X313364531Y-170899118D01*
X313247890Y-170730333D01*
X312952650Y-170311699D01*
X312715266Y-170024502D01*
X312515834Y-169849755D01*
X312334450Y-169768473D01*
X312227134Y-169756666D01*
X311974500Y-169832776D01*
X311735564Y-170030475D01*
X311548629Y-170303816D01*
X311451997Y-170606850D01*
X311446333Y-170693315D01*
X311478634Y-170847463D01*
X311565644Y-171113225D01*
X311692527Y-171447821D01*
X311788686Y-171680395D01*
X311994817Y-172180011D01*
X312126601Y-172544226D01*
X312187656Y-172787959D01*
X312181597Y-172926130D01*
X312112038Y-172973657D01*
X312102185Y-172974000D01*
X312007023Y-172916109D01*
X311948380Y-172867067D01*
X309311971Y-172867067D01*
X309305275Y-172915442D01*
X309186217Y-173041327D01*
X308994858Y-173035020D01*
X308756549Y-172902668D01*
X308575549Y-172738501D01*
X308389729Y-172507530D01*
X308188347Y-172200916D01*
X307992471Y-171858783D01*
X307823166Y-171521253D01*
X307701502Y-171228450D01*
X307648544Y-171020495D01*
X307650018Y-170975803D01*
X307735946Y-170817157D01*
X307896875Y-170801220D01*
X308120903Y-170925368D01*
X308342064Y-171128509D01*
X308553850Y-171384583D01*
X308772024Y-171703185D01*
X308976754Y-172047526D01*
X309148210Y-172380813D01*
X309266559Y-172666257D01*
X309311971Y-172867067D01*
X311948380Y-172867067D01*
X311813553Y-172754315D01*
X311541187Y-172506437D01*
X311209335Y-172190292D01*
X310837409Y-171823700D01*
X310715768Y-171701344D01*
X310200116Y-171184570D01*
X309780643Y-170778305D01*
X309437800Y-170469441D01*
X309152040Y-170244871D01*
X308903813Y-170091490D01*
X308673570Y-169996189D01*
X308441763Y-169945863D01*
X308188842Y-169927404D01*
X308067855Y-169926000D01*
X307739978Y-169937912D01*
X307462156Y-169969190D01*
X307293116Y-170013143D01*
X307290396Y-170014557D01*
X307166648Y-170051358D01*
X307067869Y-169979883D01*
X306978462Y-169833651D01*
X306747554Y-169461690D01*
X306543309Y-169248814D01*
X306358519Y-169188195D01*
X306307335Y-169198186D01*
X306150399Y-169307410D01*
X305969000Y-169512701D01*
X305805884Y-169754701D01*
X305703798Y-169974054D01*
X305689000Y-170056789D01*
X305723787Y-170170878D01*
X305820991Y-170412951D01*
X305969876Y-170758277D01*
X306159703Y-171182122D01*
X306379738Y-171659754D01*
X306449878Y-171809504D01*
X306673686Y-172291150D01*
X306867678Y-172719499D01*
X307021875Y-173071597D01*
X307126297Y-173324493D01*
X307170966Y-173455235D01*
X307170850Y-173467705D01*
X307088321Y-173435918D01*
X306908675Y-173293639D01*
X306648083Y-173056232D01*
X306322717Y-172739059D01*
X305948749Y-172357483D01*
X305542349Y-171926868D01*
X305494735Y-171875406D01*
X304990619Y-171286554D01*
X304459044Y-170590742D01*
X303934799Y-169838484D01*
X303452675Y-169080297D01*
X303047462Y-168366696D01*
X302956812Y-168190333D01*
X302714503Y-167732235D01*
X302514460Y-167418117D01*
X302342811Y-167232204D01*
X302185682Y-167158720D01*
X302060061Y-167170610D01*
X301911814Y-167287865D01*
X301757157Y-167517084D01*
X301622620Y-167804135D01*
X301534734Y-168094883D01*
X301515371Y-168281987D01*
X301557516Y-168460836D01*
X301668011Y-168752708D01*
X301832368Y-169122937D01*
X302036100Y-169536861D01*
X302055572Y-169574495D01*
X302246681Y-169950907D01*
X302401061Y-170271544D01*
X302505624Y-170507904D01*
X302547281Y-170631485D01*
X302545814Y-170642074D01*
X302458132Y-170623049D01*
X302253129Y-170538908D01*
X301963116Y-170403812D01*
X301680536Y-170262894D01*
X301170879Y-170022314D01*
X300773652Y-169884248D01*
X300469648Y-169844696D01*
X300239660Y-169899660D01*
X300164150Y-169947166D01*
X300039580Y-170070574D01*
X299978246Y-170220174D01*
X299984616Y-170419537D01*
X300063161Y-170692235D01*
X300218350Y-171061841D01*
X300454652Y-171551924D01*
X300476849Y-171596352D01*
X300674242Y-171999503D01*
X300840734Y-172356293D01*
X300962639Y-172636075D01*
X301026266Y-172808199D01*
X301032333Y-172840068D01*
X300971443Y-172950363D01*
X300815999Y-172961775D01*
X300606837Y-172877119D01*
X300499535Y-172803332D01*
X300380370Y-172690034D01*
X300176519Y-172476596D01*
X299913463Y-172191474D01*
X299616689Y-171863122D01*
X299311679Y-171519992D01*
X299023917Y-171190540D01*
X298778889Y-170903218D01*
X298602077Y-170686481D01*
X298591969Y-170673467D01*
X298525193Y-170531905D01*
X298580445Y-170375688D01*
X298592688Y-170355675D01*
X298650960Y-170144952D01*
X298553998Y-169972891D01*
X298314514Y-169856523D01*
X298202203Y-169832560D01*
X298015199Y-169791641D01*
X297863458Y-169720825D01*
X297720864Y-169593868D01*
X297561300Y-169384524D01*
X297358649Y-169066547D01*
X297232947Y-168858523D01*
X296994055Y-168484398D01*
X296802840Y-168257507D01*
X296637987Y-168170446D01*
X296478181Y-168215808D01*
X296302107Y-168386188D01*
X296210648Y-168503337D01*
X296045415Y-168753234D01*
X295978047Y-168951143D01*
X295985790Y-169163923D01*
X295985802Y-169164000D01*
X296024462Y-169416273D01*
X296054701Y-169619773D01*
X296055618Y-169626174D01*
X296036392Y-169744000D01*
X295909902Y-169813972D01*
X295760898Y-169845831D01*
X295502142Y-169902749D01*
X295391041Y-169977446D01*
X295406232Y-170098067D01*
X295477150Y-170219691D01*
X295596986Y-170356173D01*
X295760891Y-170419661D01*
X296017785Y-170435296D01*
X296274617Y-170448456D01*
X296462973Y-170480248D01*
X296507838Y-170498796D01*
X296621253Y-170626591D01*
X296785552Y-170873394D01*
X296982219Y-171204239D01*
X297192735Y-171584165D01*
X297398585Y-171978207D01*
X297581249Y-172351403D01*
X297722211Y-172668789D01*
X297802954Y-172895401D01*
X297815000Y-172966889D01*
X297762523Y-173150856D01*
X297617688Y-173196453D01*
X297490450Y-173150888D01*
X297164033Y-172928461D01*
X296822849Y-172620592D01*
X296527574Y-172286650D01*
X296375666Y-172060139D01*
X296094038Y-171659027D01*
X295774210Y-171417413D01*
X295405744Y-171327757D01*
X295360808Y-171326848D01*
X295006607Y-171396374D01*
X294749975Y-171590497D01*
X294613682Y-171887536D01*
X294597666Y-172053483D01*
X294619093Y-172259400D01*
X294703195Y-172439880D01*
X294879706Y-172649208D01*
X294978666Y-172749059D01*
X295222291Y-173013683D01*
X295335143Y-173214444D01*
X295325651Y-173383898D01*
X295202245Y-173554603D01*
X295190333Y-173566666D01*
X294935365Y-173709487D01*
X294610916Y-173716046D01*
X294237859Y-173593291D01*
X293837070Y-173348171D01*
X293439430Y-172996485D01*
X291090716Y-172996485D01*
X290950195Y-173244869D01*
X290685452Y-173425411D01*
X290472787Y-173524932D01*
X290332882Y-173556247D01*
X290186490Y-173525764D01*
X290052345Y-173476613D01*
X289684755Y-173254995D01*
X289357753Y-172902948D01*
X289093409Y-172458358D01*
X288913789Y-171959113D01*
X288840963Y-171443101D01*
X288840400Y-171395879D01*
X288872269Y-170991190D01*
X288980829Y-170717210D01*
X289185319Y-170545361D01*
X289475333Y-170452768D01*
X289701634Y-170388310D01*
X289808158Y-170289900D01*
X289840000Y-170163693D01*
X289792687Y-169934582D01*
X289603835Y-169769591D01*
X289293526Y-169682311D01*
X289113623Y-169672000D01*
X288675933Y-169606170D01*
X288338940Y-169407158D01*
X288100604Y-169072678D01*
X287958888Y-168600445D01*
X287925922Y-168340363D01*
X287912873Y-168069068D01*
X287949566Y-167890187D01*
X288062497Y-167728401D01*
X288186537Y-167599529D01*
X288376475Y-167426600D01*
X288527414Y-167318987D01*
X288575898Y-167301333D01*
X288672300Y-167363215D01*
X288832722Y-167524447D01*
X288998993Y-167721257D01*
X289125311Y-167890748D01*
X289240690Y-168072702D01*
X289355302Y-168290371D01*
X289479317Y-168567010D01*
X289622908Y-168925873D01*
X289796244Y-169390214D01*
X290009496Y-169983287D01*
X290100093Y-170238707D01*
X290435434Y-171186415D01*
X290018883Y-171137080D01*
X289771018Y-171114086D01*
X289647638Y-171131038D01*
X289605948Y-171201584D01*
X289602333Y-171269941D01*
X289645314Y-171400205D01*
X289794489Y-171522731D01*
X290047970Y-171649216D01*
X290485856Y-171895054D01*
X290825217Y-172191620D01*
X291038127Y-172511465D01*
X291088531Y-172672045D01*
X291090716Y-172996485D01*
X293439430Y-172996485D01*
X293429423Y-172987635D01*
X293419242Y-172977117D01*
X293240503Y-172759873D01*
X293003866Y-172425601D01*
X292730836Y-172006833D01*
X292442921Y-171536102D01*
X292269333Y-171237624D01*
X291753252Y-170346099D01*
X291296240Y-169588340D01*
X290885610Y-168944735D01*
X290508675Y-168395672D01*
X290152746Y-167921539D01*
X290007530Y-167741319D01*
X289792805Y-167470277D01*
X289633299Y-167249071D01*
X289550326Y-167108391D01*
X289545461Y-167075983D01*
X289694934Y-167025116D01*
X289964193Y-167020431D01*
X290311725Y-167056572D01*
X290696015Y-167128186D01*
X291075549Y-167229920D01*
X291272087Y-167298652D01*
X291956366Y-167624229D01*
X292512925Y-168016495D01*
X292931494Y-168464783D01*
X293201806Y-168958426D01*
X293308137Y-169413874D01*
X293325431Y-169808168D01*
X293275521Y-170081724D01*
X293140736Y-170275733D01*
X292903408Y-170431384D01*
X292863025Y-170451473D01*
X292598655Y-170595275D01*
X292469072Y-170720920D01*
X292449028Y-170865585D01*
X292488460Y-171002966D01*
X292631989Y-171193327D01*
X292851841Y-171263844D01*
X293114347Y-171223420D01*
X293385835Y-171080956D01*
X293632637Y-170845354D01*
X293751483Y-170669039D01*
X293909349Y-170225093D01*
X293934148Y-169688231D01*
X293826007Y-169052889D01*
X293791237Y-168923396D01*
X293561366Y-168396279D01*
X293186448Y-167887023D01*
X292690722Y-167417511D01*
X292098428Y-167009625D01*
X291433803Y-166685247D01*
X291227124Y-166608586D01*
X290936329Y-166519483D01*
X290647828Y-166460465D01*
X290313019Y-166425423D01*
X289883295Y-166408245D01*
X289602333Y-166404311D01*
X289145008Y-166397247D01*
X288814753Y-166380934D01*
X288569325Y-166348928D01*
X288366486Y-166294784D01*
X288163993Y-166212056D01*
X288078333Y-166171776D01*
X287720645Y-166016900D01*
X287477439Y-165955747D01*
X287324665Y-165984661D01*
G36*
X318820665Y-165984661D02*
G01*
X318759734Y-166047943D01*
X318781144Y-166164742D01*
X318932575Y-166336511D01*
X319005210Y-166398561D01*
X319313279Y-166647902D01*
X318925716Y-166904613D01*
X318470720Y-167291191D01*
X318165507Y-167734311D01*
X318009698Y-168212253D01*
X318002914Y-168703294D01*
X318144775Y-169185712D01*
X318434904Y-169637787D01*
X318872920Y-170037797D01*
X318981666Y-170111864D01*
X319122185Y-170224579D01*
X319131052Y-170327179D01*
X319085391Y-170404946D01*
X318807314Y-170896685D01*
X318674988Y-171374292D01*
X318669389Y-171825480D01*
X318808327Y-172566764D01*
X319076261Y-173198930D01*
X319472762Y-173721307D01*
X319997399Y-174133225D01*
X320232215Y-174261610D01*
X320579656Y-174418279D01*
X320868828Y-174503273D01*
X321183780Y-174536675D01*
X321398658Y-174540333D01*
X321745974Y-174530174D01*
X321991282Y-174488711D01*
X322201259Y-174399460D01*
X322357523Y-174303303D01*
X322630085Y-174077121D01*
X322881578Y-173795673D01*
X322947530Y-173701270D01*
X323179008Y-173336267D01*
X323653989Y-173778378D01*
X324106764Y-174159905D01*
X324528158Y-174415347D01*
X324969139Y-174566581D01*
X325480674Y-174635481D01*
X325670333Y-174643788D01*
X326222167Y-174632989D01*
X326630152Y-174567622D01*
X326720985Y-174538156D01*
X327205155Y-174276242D01*
X327599533Y-173906141D01*
X327880800Y-173459301D01*
X328025637Y-172967169D01*
X328040173Y-172759106D01*
X327979459Y-172384512D01*
X327818427Y-171993846D01*
X327591233Y-171656896D01*
X327423535Y-171499214D01*
X327099138Y-171345286D01*
X326768824Y-171324189D01*
X326469155Y-171420683D01*
X326236692Y-171619529D01*
X326107999Y-171905490D01*
X326093666Y-172053483D01*
X326115093Y-172259400D01*
X326199195Y-172439880D01*
X326375706Y-172649208D01*
X326474666Y-172749059D01*
X326718291Y-173013683D01*
X326831143Y-173214444D01*
X326821651Y-173383898D01*
X326698245Y-173554603D01*
X326686333Y-173566666D01*
X326431365Y-173709487D01*
X326106916Y-173716046D01*
X325733859Y-173593291D01*
X325333070Y-173348171D01*
X324935430Y-172996485D01*
X322586716Y-172996485D01*
X322446195Y-173244869D01*
X322181452Y-173425411D01*
X321968787Y-173524932D01*
X321828882Y-173556247D01*
X321682490Y-173525764D01*
X321548345Y-173476613D01*
X321180755Y-173254995D01*
X320853753Y-172902948D01*
X320589409Y-172458358D01*
X320409789Y-171959113D01*
X320336963Y-171443101D01*
X320336400Y-171395879D01*
X320368269Y-170991190D01*
X320476829Y-170717210D01*
X320681319Y-170545361D01*
X320971333Y-170452768D01*
X321197634Y-170388310D01*
X321304158Y-170289900D01*
X321336000Y-170163693D01*
X321288687Y-169934582D01*
X321099835Y-169769591D01*
X320789526Y-169682311D01*
X320609623Y-169672000D01*
X320171933Y-169606170D01*
X319834940Y-169407158D01*
X319596604Y-169072678D01*
X319454888Y-168600445D01*
X319421922Y-168340363D01*
X319408873Y-168069068D01*
X319445566Y-167890187D01*
X319558497Y-167728401D01*
X319682537Y-167599529D01*
X319872475Y-167426600D01*
X320023414Y-167318987D01*
X320071898Y-167301333D01*
X320168300Y-167363215D01*
X320328722Y-167524447D01*
X320494993Y-167721257D01*
X320621311Y-167890748D01*
X320736690Y-168072702D01*
X320851302Y-168290371D01*
X320975317Y-168567010D01*
X321118908Y-168925873D01*
X321292244Y-169390214D01*
X321505496Y-169983287D01*
X321596093Y-170238707D01*
X321931434Y-171186415D01*
X321514883Y-171137080D01*
X321267018Y-171114086D01*
X321143638Y-171131038D01*
X321101948Y-171201584D01*
X321098333Y-171269941D01*
X321141314Y-171400205D01*
X321290489Y-171522731D01*
X321543970Y-171649216D01*
X321981856Y-171895054D01*
X322321217Y-172191620D01*
X322534127Y-172511465D01*
X322584531Y-172672045D01*
X322586716Y-172996485D01*
X324935430Y-172996485D01*
X324925423Y-172987635D01*
X324915242Y-172977117D01*
X324736503Y-172759873D01*
X324499866Y-172425601D01*
X324226836Y-172006833D01*
X323938921Y-171536102D01*
X323765333Y-171237624D01*
X323249252Y-170346099D01*
X322792240Y-169588340D01*
X322381610Y-168944735D01*
X322004675Y-168395672D01*
X321648746Y-167921539D01*
X321503530Y-167741319D01*
X321288805Y-167470277D01*
X321129299Y-167249071D01*
X321046326Y-167108391D01*
X321041461Y-167075983D01*
X321190934Y-167025116D01*
X321460193Y-167020431D01*
X321807725Y-167056572D01*
X322192015Y-167128186D01*
X322571549Y-167229920D01*
X322768087Y-167298652D01*
X323452366Y-167624229D01*
X324008925Y-168016495D01*
X324427494Y-168464783D01*
X324697806Y-168958426D01*
X324804137Y-169413874D01*
X324821431Y-169808168D01*
X324771521Y-170081724D01*
X324636736Y-170275733D01*
X324399408Y-170431384D01*
X324359025Y-170451473D01*
X324094655Y-170595275D01*
X323965072Y-170720920D01*
X323945028Y-170865585D01*
X323984460Y-171002966D01*
X324127989Y-171193327D01*
X324347841Y-171263844D01*
X324610347Y-171223420D01*
X324881835Y-171080956D01*
X325128637Y-170845354D01*
X325247483Y-170669039D01*
X325405349Y-170225093D01*
X325430148Y-169688231D01*
X325322007Y-169052889D01*
X325287237Y-168923396D01*
X325057366Y-168396279D01*
X324682448Y-167887023D01*
X324186722Y-167417511D01*
X323594428Y-167009625D01*
X322929803Y-166685247D01*
X322723124Y-166608586D01*
X322432329Y-166519483D01*
X322143828Y-166460465D01*
X321809019Y-166425423D01*
X321379295Y-166408245D01*
X321098333Y-166404311D01*
X320641008Y-166397247D01*
X320310753Y-166380934D01*
X320065325Y-166348928D01*
X319862486Y-166294784D01*
X319659993Y-166212056D01*
X319574333Y-166171776D01*
X319216645Y-166016900D01*
X318973439Y-165955747D01*
X318820665Y-165984661D01*
X318820665Y-165984661D01*
G37*
X318820665Y-165984661D02*
X318759734Y-166047943D01*
X318781144Y-166164742D01*
X318932575Y-166336511D01*
X319005210Y-166398561D01*
X319313279Y-166647902D01*
X318925716Y-166904613D01*
X318470720Y-167291191D01*
X318165507Y-167734311D01*
X318009698Y-168212253D01*
X318002914Y-168703294D01*
X318144775Y-169185712D01*
X318434904Y-169637787D01*
X318872920Y-170037797D01*
X318981666Y-170111864D01*
X319122185Y-170224579D01*
X319131052Y-170327179D01*
X319085391Y-170404946D01*
X318807314Y-170896685D01*
X318674988Y-171374292D01*
X318669389Y-171825480D01*
X318808327Y-172566764D01*
X319076261Y-173198930D01*
X319472762Y-173721307D01*
X319997399Y-174133225D01*
X320232215Y-174261610D01*
X320579656Y-174418279D01*
X320868828Y-174503273D01*
X321183780Y-174536675D01*
X321398658Y-174540333D01*
X321745974Y-174530174D01*
X321991282Y-174488711D01*
X322201259Y-174399460D01*
X322357523Y-174303303D01*
X322630085Y-174077121D01*
X322881578Y-173795673D01*
X322947530Y-173701270D01*
X323179008Y-173336267D01*
X323653989Y-173778378D01*
X324106764Y-174159905D01*
X324528158Y-174415347D01*
X324969139Y-174566581D01*
X325480674Y-174635481D01*
X325670333Y-174643788D01*
X326222167Y-174632989D01*
X326630152Y-174567622D01*
X326720985Y-174538156D01*
X327205155Y-174276242D01*
X327599533Y-173906141D01*
X327880800Y-173459301D01*
X328025637Y-172967169D01*
X328040173Y-172759106D01*
X327979459Y-172384512D01*
X327818427Y-171993846D01*
X327591233Y-171656896D01*
X327423535Y-171499214D01*
X327099138Y-171345286D01*
X326768824Y-171324189D01*
X326469155Y-171420683D01*
X326236692Y-171619529D01*
X326107999Y-171905490D01*
X326093666Y-172053483D01*
X326115093Y-172259400D01*
X326199195Y-172439880D01*
X326375706Y-172649208D01*
X326474666Y-172749059D01*
X326718291Y-173013683D01*
X326831143Y-173214444D01*
X326821651Y-173383898D01*
X326698245Y-173554603D01*
X326686333Y-173566666D01*
X326431365Y-173709487D01*
X326106916Y-173716046D01*
X325733859Y-173593291D01*
X325333070Y-173348171D01*
X324935430Y-172996485D01*
X322586716Y-172996485D01*
X322446195Y-173244869D01*
X322181452Y-173425411D01*
X321968787Y-173524932D01*
X321828882Y-173556247D01*
X321682490Y-173525764D01*
X321548345Y-173476613D01*
X321180755Y-173254995D01*
X320853753Y-172902948D01*
X320589409Y-172458358D01*
X320409789Y-171959113D01*
X320336963Y-171443101D01*
X320336400Y-171395879D01*
X320368269Y-170991190D01*
X320476829Y-170717210D01*
X320681319Y-170545361D01*
X320971333Y-170452768D01*
X321197634Y-170388310D01*
X321304158Y-170289900D01*
X321336000Y-170163693D01*
X321288687Y-169934582D01*
X321099835Y-169769591D01*
X320789526Y-169682311D01*
X320609623Y-169672000D01*
X320171933Y-169606170D01*
X319834940Y-169407158D01*
X319596604Y-169072678D01*
X319454888Y-168600445D01*
X319421922Y-168340363D01*
X319408873Y-168069068D01*
X319445566Y-167890187D01*
X319558497Y-167728401D01*
X319682537Y-167599529D01*
X319872475Y-167426600D01*
X320023414Y-167318987D01*
X320071898Y-167301333D01*
X320168300Y-167363215D01*
X320328722Y-167524447D01*
X320494993Y-167721257D01*
X320621311Y-167890748D01*
X320736690Y-168072702D01*
X320851302Y-168290371D01*
X320975317Y-168567010D01*
X321118908Y-168925873D01*
X321292244Y-169390214D01*
X321505496Y-169983287D01*
X321596093Y-170238707D01*
X321931434Y-171186415D01*
X321514883Y-171137080D01*
X321267018Y-171114086D01*
X321143638Y-171131038D01*
X321101948Y-171201584D01*
X321098333Y-171269941D01*
X321141314Y-171400205D01*
X321290489Y-171522731D01*
X321543970Y-171649216D01*
X321981856Y-171895054D01*
X322321217Y-172191620D01*
X322534127Y-172511465D01*
X322584531Y-172672045D01*
X322586716Y-172996485D01*
X324935430Y-172996485D01*
X324925423Y-172987635D01*
X324915242Y-172977117D01*
X324736503Y-172759873D01*
X324499866Y-172425601D01*
X324226836Y-172006833D01*
X323938921Y-171536102D01*
X323765333Y-171237624D01*
X323249252Y-170346099D01*
X322792240Y-169588340D01*
X322381610Y-168944735D01*
X322004675Y-168395672D01*
X321648746Y-167921539D01*
X321503530Y-167741319D01*
X321288805Y-167470277D01*
X321129299Y-167249071D01*
X321046326Y-167108391D01*
X321041461Y-167075983D01*
X321190934Y-167025116D01*
X321460193Y-167020431D01*
X321807725Y-167056572D01*
X322192015Y-167128186D01*
X322571549Y-167229920D01*
X322768087Y-167298652D01*
X323452366Y-167624229D01*
X324008925Y-168016495D01*
X324427494Y-168464783D01*
X324697806Y-168958426D01*
X324804137Y-169413874D01*
X324821431Y-169808168D01*
X324771521Y-170081724D01*
X324636736Y-170275733D01*
X324399408Y-170431384D01*
X324359025Y-170451473D01*
X324094655Y-170595275D01*
X323965072Y-170720920D01*
X323945028Y-170865585D01*
X323984460Y-171002966D01*
X324127989Y-171193327D01*
X324347841Y-171263844D01*
X324610347Y-171223420D01*
X324881835Y-171080956D01*
X325128637Y-170845354D01*
X325247483Y-170669039D01*
X325405349Y-170225093D01*
X325430148Y-169688231D01*
X325322007Y-169052889D01*
X325287237Y-168923396D01*
X325057366Y-168396279D01*
X324682448Y-167887023D01*
X324186722Y-167417511D01*
X323594428Y-167009625D01*
X322929803Y-166685247D01*
X322723124Y-166608586D01*
X322432329Y-166519483D01*
X322143828Y-166460465D01*
X321809019Y-166425423D01*
X321379295Y-166408245D01*
X321098333Y-166404311D01*
X320641008Y-166397247D01*
X320310753Y-166380934D01*
X320065325Y-166348928D01*
X319862486Y-166294784D01*
X319659993Y-166212056D01*
X319574333Y-166171776D01*
X319216645Y-166016900D01*
X318973439Y-165955747D01*
X318820665Y-165984661D01*
G36*
X267157705Y-167194216D02*
G01*
X266952536Y-167318234D01*
X266755071Y-167547805D01*
X266606333Y-167822459D01*
X266547345Y-168081726D01*
X266547501Y-168093707D01*
X266594591Y-168323120D01*
X266726379Y-168696565D01*
X266941961Y-169211972D01*
X267240438Y-169867268D01*
X267620908Y-170660381D01*
X267972307Y-171369940D01*
X268184150Y-171802801D01*
X268365844Y-172192917D01*
X268504504Y-172511092D01*
X268587247Y-172728128D01*
X268605000Y-172803608D01*
X268555519Y-172945579D01*
X268414827Y-172955443D01*
X268194546Y-172835624D01*
X268001184Y-172677666D01*
X267772768Y-172483065D01*
X267624131Y-172398678D01*
X267517787Y-172412561D01*
X267430115Y-172495743D01*
X267415005Y-172643261D01*
X267533078Y-172877992D01*
X267778074Y-173191083D01*
X268143732Y-173573679D01*
X268294815Y-173718385D01*
X268749077Y-174088164D01*
X269195009Y-174345084D01*
X269612131Y-174483377D01*
X269979961Y-174497280D01*
X270278019Y-174381027D01*
X270368241Y-174302043D01*
X270497595Y-174141924D01*
X270553581Y-174028248D01*
X270553630Y-174026876D01*
X270596094Y-173891422D01*
X270631827Y-173826136D01*
X270700082Y-173776692D01*
X270811629Y-173818719D01*
X270998107Y-173966793D01*
X271063214Y-174024864D01*
X271505155Y-174363306D01*
X271904867Y-174539832D01*
X272266814Y-174555293D01*
X272595456Y-174410541D01*
X272688831Y-174335458D01*
X272850210Y-174173597D01*
X272931966Y-174017976D01*
X272959609Y-173801109D01*
X272960854Y-173615791D01*
X272963850Y-173358615D01*
X272976259Y-173187018D01*
X272989871Y-173143333D01*
X273063803Y-173196056D01*
X273230199Y-173336004D01*
X273456821Y-173535841D01*
X273521542Y-173594156D01*
X274028737Y-174000720D01*
X274515704Y-174290347D01*
X274964490Y-174456105D01*
X275357146Y-174491066D01*
X275637023Y-174410823D01*
X275809936Y-174250565D01*
X275962351Y-174003005D01*
X276048645Y-173748299D01*
X276054839Y-173676704D01*
X276002559Y-173443540D01*
X275860452Y-173117107D01*
X275647780Y-172733646D01*
X275383805Y-172329402D01*
X275221086Y-172107896D01*
X274934935Y-171723324D01*
X274750807Y-171441764D01*
X274657880Y-171239980D01*
X274645330Y-171094734D01*
X274698919Y-170986840D01*
X274839673Y-170878044D01*
X274916286Y-170857333D01*
X275007876Y-170919562D01*
X275181815Y-171090046D01*
X275415088Y-171344478D01*
X275684682Y-171658552D01*
X275752756Y-171740741D01*
X276534227Y-172617285D01*
X277393018Y-173450890D01*
X278192110Y-174122807D01*
X278552429Y-174344174D01*
X278912876Y-174465644D01*
X279244697Y-174489655D01*
X279519137Y-174418646D01*
X279707442Y-174255056D01*
X279780858Y-174001324D01*
X279781000Y-173988048D01*
X279793653Y-173810411D01*
X279824097Y-173736002D01*
X279824291Y-173736000D01*
X279910194Y-173780355D01*
X280097138Y-173897473D01*
X280347144Y-174063428D01*
X280385903Y-174089802D01*
X280725642Y-174300904D01*
X281011098Y-174420888D01*
X281309275Y-174476802D01*
X281354945Y-174480983D01*
X281630254Y-174493869D01*
X281809379Y-174459674D01*
X281963734Y-174355491D01*
X282073513Y-174250512D01*
X282228649Y-174079574D01*
X282302293Y-173926768D01*
X282316299Y-173722607D01*
X282303048Y-173520665D01*
X282283712Y-173267126D01*
X282274152Y-173099318D01*
X282274965Y-173058666D01*
X282348894Y-173093209D01*
X282523452Y-173180348D01*
X282617333Y-173228000D01*
X282904920Y-173337455D01*
X283197937Y-173394838D01*
X283255088Y-173397333D01*
X283466044Y-173424458D01*
X283664713Y-173525033D01*
X283905384Y-173727861D01*
X283939851Y-173760618D01*
X284409610Y-174138650D01*
X284892727Y-174370946D01*
X285433395Y-174478270D01*
X285474230Y-174481616D01*
X285823651Y-174487131D01*
X286066333Y-174434689D01*
X286176772Y-174376532D01*
X286482897Y-174078647D01*
X286670000Y-173678752D01*
X286723350Y-173279667D01*
X286739802Y-173083672D01*
X285078949Y-173083672D01*
X285057905Y-173238515D01*
X285040319Y-173282228D01*
X284891603Y-173446059D01*
X284685897Y-173475232D01*
X284467369Y-173370887D01*
X284363787Y-173264817D01*
X284258095Y-173088044D01*
X284231127Y-172922058D01*
X280429429Y-172922058D01*
X280406289Y-173084751D01*
X280294669Y-173137475D01*
X280097688Y-173068103D01*
X279818463Y-172864508D01*
X279712217Y-172768997D01*
X279420340Y-172459294D01*
X279161695Y-172117153D01*
X278947225Y-171767586D01*
X278787870Y-171435606D01*
X278694572Y-171146222D01*
X278678274Y-170924449D01*
X278749918Y-170795296D01*
X278838883Y-170772666D01*
X278994847Y-170840074D01*
X279216796Y-171025622D01*
X279480272Y-171304295D01*
X279760813Y-171651079D01*
X279936797Y-171895435D01*
X280197801Y-172315273D01*
X280360972Y-172661522D01*
X280429429Y-172922058D01*
X284231127Y-172922058D01*
X284224584Y-172881789D01*
X284242257Y-172631321D01*
X284249633Y-172286081D01*
X284165752Y-172072072D01*
X283979691Y-171971461D01*
X283829872Y-171958000D01*
X283664104Y-171934012D01*
X283546635Y-171834431D01*
X283431105Y-171617832D01*
X283419122Y-171590967D01*
X283283692Y-171208594D01*
X283236315Y-170894475D01*
X283271276Y-170668122D01*
X283382864Y-170549051D01*
X283565365Y-170556775D01*
X283701339Y-170626964D01*
X283865834Y-170784919D01*
X284077606Y-171059669D01*
X284313292Y-171414116D01*
X284549530Y-171811161D01*
X284762958Y-172213702D01*
X284923331Y-172567478D01*
X285036738Y-172876166D01*
X285078949Y-173083672D01*
X286739802Y-173083672D01*
X286749227Y-172971394D01*
X286832504Y-172792185D01*
X286869528Y-172759011D01*
X286963877Y-172662279D01*
X286951441Y-172542232D01*
X286898818Y-172434537D01*
X286800045Y-172296445D01*
X286607851Y-172065037D01*
X286346724Y-171768536D01*
X286041153Y-171435163D01*
X285918011Y-171304193D01*
X285364604Y-170748430D01*
X284880360Y-170327468D01*
X284448291Y-170030326D01*
X284051410Y-169846024D01*
X283672730Y-169763582D01*
X283523860Y-169756666D01*
X283142820Y-169781670D01*
X282882642Y-169869974D01*
X282700503Y-170041515D01*
X282618210Y-170178305D01*
X282507314Y-170564494D01*
X282513585Y-171054937D01*
X282636012Y-171632612D01*
X282720156Y-171892448D01*
X282834887Y-172237940D01*
X282887153Y-172460786D01*
X282882445Y-172593438D01*
X282848311Y-172649889D01*
X282780154Y-172668463D01*
X282666084Y-172612796D01*
X282488464Y-172469035D01*
X282229659Y-172223332D01*
X281961492Y-171953441D01*
X281631079Y-171610214D01*
X281310845Y-171267134D01*
X281037380Y-170964025D01*
X280847471Y-170740954D01*
X280508137Y-170396980D01*
X280082909Y-170127313D01*
X279971962Y-170073215D01*
X279677766Y-169943338D01*
X279445496Y-169871648D01*
X279206170Y-169846301D01*
X278890810Y-169855450D01*
X278755041Y-169864244D01*
X278083099Y-169910300D01*
X277912224Y-169575358D01*
X277741551Y-169305499D01*
X277567406Y-169186777D01*
X277359715Y-169203099D01*
X277277739Y-169235809D01*
X277069064Y-169397708D01*
X276879431Y-169651064D01*
X276755997Y-169924130D01*
X276733316Y-170064130D01*
X276769552Y-170199759D01*
X276869723Y-170455527D01*
X277020679Y-170800801D01*
X277209270Y-171204949D01*
X277325666Y-171444046D01*
X277611925Y-172047999D01*
X277804112Y-172511652D01*
X277901935Y-172835693D01*
X277905104Y-173020814D01*
X277813329Y-173067706D01*
X277626318Y-172977058D01*
X277343781Y-172749561D01*
X276965428Y-172385907D01*
X276940061Y-172360166D01*
X276460639Y-171848150D01*
X276091261Y-171401379D01*
X275838032Y-171028927D01*
X275707056Y-170739871D01*
X275704439Y-170543284D01*
X275710001Y-170531744D01*
X275797955Y-170210231D01*
X275756165Y-169873064D01*
X275607749Y-169561430D01*
X275375827Y-169316511D01*
X275083517Y-169179493D01*
X274942209Y-169164000D01*
X274666442Y-169228765D01*
X274507182Y-169410214D01*
X274479992Y-169689076D01*
X274486398Y-169728465D01*
X274496493Y-169940027D01*
X274416126Y-170053256D01*
X274227223Y-170074379D01*
X273911714Y-170009624D01*
X273780661Y-169971662D01*
X273382780Y-169871979D01*
X273097138Y-169854753D01*
X272920740Y-169929431D01*
X272850587Y-170105458D01*
X272883684Y-170392281D01*
X273017034Y-170799345D01*
X273247639Y-171336097D01*
X273307172Y-171464111D01*
X273552087Y-171994052D01*
X273725448Y-172391967D01*
X273833560Y-172676202D01*
X273882729Y-172865104D01*
X273879260Y-172977018D01*
X273843075Y-173023291D01*
X273740099Y-172993579D01*
X273547913Y-172852883D01*
X273518311Y-172826554D01*
X271123009Y-172826554D01*
X271070148Y-173003251D01*
X270930339Y-173055928D01*
X270724601Y-172977433D01*
X270473952Y-172760610D01*
X270456253Y-172741166D01*
X270143134Y-172358052D01*
X269881308Y-171971467D01*
X269679809Y-171603875D01*
X269547670Y-171277743D01*
X269493924Y-171015536D01*
X269527604Y-170839721D01*
X269657743Y-170772763D01*
X269664760Y-170772666D01*
X269812850Y-170840439D01*
X270020802Y-171022404D01*
X270263084Y-171286528D01*
X270514164Y-171600779D01*
X270748508Y-171933124D01*
X270940584Y-172251532D01*
X271064859Y-172523970D01*
X271067904Y-172532991D01*
X271123009Y-172826554D01*
X273518311Y-172826554D01*
X273286075Y-172619999D01*
X272974145Y-172313722D01*
X272631682Y-171952849D01*
X272278245Y-171556175D01*
X272109208Y-171357099D01*
X271667401Y-170875628D01*
X271211482Y-170464460D01*
X270769198Y-170144687D01*
X270368293Y-169937401D01*
X270161174Y-169876174D01*
X269752828Y-169854400D01*
X269333453Y-169918278D01*
X269188820Y-169965460D01*
X269121132Y-169954268D01*
X269026317Y-169864248D01*
X268893508Y-169679431D01*
X268711836Y-169383852D01*
X268470433Y-168961540D01*
X268314900Y-168681497D01*
X268070339Y-168245144D01*
X267845771Y-167857349D01*
X267656756Y-167543980D01*
X267518851Y-167330905D01*
X267451978Y-167246788D01*
X267270873Y-167185868D01*
X267157705Y-167194216D01*
X267157705Y-167194216D01*
G37*
X267157705Y-167194216D02*
X266952536Y-167318234D01*
X266755071Y-167547805D01*
X266606333Y-167822459D01*
X266547345Y-168081726D01*
X266547501Y-168093707D01*
X266594591Y-168323120D01*
X266726379Y-168696565D01*
X266941961Y-169211972D01*
X267240438Y-169867268D01*
X267620908Y-170660381D01*
X267972307Y-171369940D01*
X268184150Y-171802801D01*
X268365844Y-172192917D01*
X268504504Y-172511092D01*
X268587247Y-172728128D01*
X268605000Y-172803608D01*
X268555519Y-172945579D01*
X268414827Y-172955443D01*
X268194546Y-172835624D01*
X268001184Y-172677666D01*
X267772768Y-172483065D01*
X267624131Y-172398678D01*
X267517787Y-172412561D01*
X267430115Y-172495743D01*
X267415005Y-172643261D01*
X267533078Y-172877992D01*
X267778074Y-173191083D01*
X268143732Y-173573679D01*
X268294815Y-173718385D01*
X268749077Y-174088164D01*
X269195009Y-174345084D01*
X269612131Y-174483377D01*
X269979961Y-174497280D01*
X270278019Y-174381027D01*
X270368241Y-174302043D01*
X270497595Y-174141924D01*
X270553581Y-174028248D01*
X270553630Y-174026876D01*
X270596094Y-173891422D01*
X270631827Y-173826136D01*
X270700082Y-173776692D01*
X270811629Y-173818719D01*
X270998107Y-173966793D01*
X271063214Y-174024864D01*
X271505155Y-174363306D01*
X271904867Y-174539832D01*
X272266814Y-174555293D01*
X272595456Y-174410541D01*
X272688831Y-174335458D01*
X272850210Y-174173597D01*
X272931966Y-174017976D01*
X272959609Y-173801109D01*
X272960854Y-173615791D01*
X272963850Y-173358615D01*
X272976259Y-173187018D01*
X272989871Y-173143333D01*
X273063803Y-173196056D01*
X273230199Y-173336004D01*
X273456821Y-173535841D01*
X273521542Y-173594156D01*
X274028737Y-174000720D01*
X274515704Y-174290347D01*
X274964490Y-174456105D01*
X275357146Y-174491066D01*
X275637023Y-174410823D01*
X275809936Y-174250565D01*
X275962351Y-174003005D01*
X276048645Y-173748299D01*
X276054839Y-173676704D01*
X276002559Y-173443540D01*
X275860452Y-173117107D01*
X275647780Y-172733646D01*
X275383805Y-172329402D01*
X275221086Y-172107896D01*
X274934935Y-171723324D01*
X274750807Y-171441764D01*
X274657880Y-171239980D01*
X274645330Y-171094734D01*
X274698919Y-170986840D01*
X274839673Y-170878044D01*
X274916286Y-170857333D01*
X275007876Y-170919562D01*
X275181815Y-171090046D01*
X275415088Y-171344478D01*
X275684682Y-171658552D01*
X275752756Y-171740741D01*
X276534227Y-172617285D01*
X277393018Y-173450890D01*
X278192110Y-174122807D01*
X278552429Y-174344174D01*
X278912876Y-174465644D01*
X279244697Y-174489655D01*
X279519137Y-174418646D01*
X279707442Y-174255056D01*
X279780858Y-174001324D01*
X279781000Y-173988048D01*
X279793653Y-173810411D01*
X279824097Y-173736002D01*
X279824291Y-173736000D01*
X279910194Y-173780355D01*
X280097138Y-173897473D01*
X280347144Y-174063428D01*
X280385903Y-174089802D01*
X280725642Y-174300904D01*
X281011098Y-174420888D01*
X281309275Y-174476802D01*
X281354945Y-174480983D01*
X281630254Y-174493869D01*
X281809379Y-174459674D01*
X281963734Y-174355491D01*
X282073513Y-174250512D01*
X282228649Y-174079574D01*
X282302293Y-173926768D01*
X282316299Y-173722607D01*
X282303048Y-173520665D01*
X282283712Y-173267126D01*
X282274152Y-173099318D01*
X282274965Y-173058666D01*
X282348894Y-173093209D01*
X282523452Y-173180348D01*
X282617333Y-173228000D01*
X282904920Y-173337455D01*
X283197937Y-173394838D01*
X283255088Y-173397333D01*
X283466044Y-173424458D01*
X283664713Y-173525033D01*
X283905384Y-173727861D01*
X283939851Y-173760618D01*
X284409610Y-174138650D01*
X284892727Y-174370946D01*
X285433395Y-174478270D01*
X285474230Y-174481616D01*
X285823651Y-174487131D01*
X286066333Y-174434689D01*
X286176772Y-174376532D01*
X286482897Y-174078647D01*
X286670000Y-173678752D01*
X286723350Y-173279667D01*
X286739802Y-173083672D01*
X285078949Y-173083672D01*
X285057905Y-173238515D01*
X285040319Y-173282228D01*
X284891603Y-173446059D01*
X284685897Y-173475232D01*
X284467369Y-173370887D01*
X284363787Y-173264817D01*
X284258095Y-173088044D01*
X284231127Y-172922058D01*
X280429429Y-172922058D01*
X280406289Y-173084751D01*
X280294669Y-173137475D01*
X280097688Y-173068103D01*
X279818463Y-172864508D01*
X279712217Y-172768997D01*
X279420340Y-172459294D01*
X279161695Y-172117153D01*
X278947225Y-171767586D01*
X278787870Y-171435606D01*
X278694572Y-171146222D01*
X278678274Y-170924449D01*
X278749918Y-170795296D01*
X278838883Y-170772666D01*
X278994847Y-170840074D01*
X279216796Y-171025622D01*
X279480272Y-171304295D01*
X279760813Y-171651079D01*
X279936797Y-171895435D01*
X280197801Y-172315273D01*
X280360972Y-172661522D01*
X280429429Y-172922058D01*
X284231127Y-172922058D01*
X284224584Y-172881789D01*
X284242257Y-172631321D01*
X284249633Y-172286081D01*
X284165752Y-172072072D01*
X283979691Y-171971461D01*
X283829872Y-171958000D01*
X283664104Y-171934012D01*
X283546635Y-171834431D01*
X283431105Y-171617832D01*
X283419122Y-171590967D01*
X283283692Y-171208594D01*
X283236315Y-170894475D01*
X283271276Y-170668122D01*
X283382864Y-170549051D01*
X283565365Y-170556775D01*
X283701339Y-170626964D01*
X283865834Y-170784919D01*
X284077606Y-171059669D01*
X284313292Y-171414116D01*
X284549530Y-171811161D01*
X284762958Y-172213702D01*
X284923331Y-172567478D01*
X285036738Y-172876166D01*
X285078949Y-173083672D01*
X286739802Y-173083672D01*
X286749227Y-172971394D01*
X286832504Y-172792185D01*
X286869528Y-172759011D01*
X286963877Y-172662279D01*
X286951441Y-172542232D01*
X286898818Y-172434537D01*
X286800045Y-172296445D01*
X286607851Y-172065037D01*
X286346724Y-171768536D01*
X286041153Y-171435163D01*
X285918011Y-171304193D01*
X285364604Y-170748430D01*
X284880360Y-170327468D01*
X284448291Y-170030326D01*
X284051410Y-169846024D01*
X283672730Y-169763582D01*
X283523860Y-169756666D01*
X283142820Y-169781670D01*
X282882642Y-169869974D01*
X282700503Y-170041515D01*
X282618210Y-170178305D01*
X282507314Y-170564494D01*
X282513585Y-171054937D01*
X282636012Y-171632612D01*
X282720156Y-171892448D01*
X282834887Y-172237940D01*
X282887153Y-172460786D01*
X282882445Y-172593438D01*
X282848311Y-172649889D01*
X282780154Y-172668463D01*
X282666084Y-172612796D01*
X282488464Y-172469035D01*
X282229659Y-172223332D01*
X281961492Y-171953441D01*
X281631079Y-171610214D01*
X281310845Y-171267134D01*
X281037380Y-170964025D01*
X280847471Y-170740954D01*
X280508137Y-170396980D01*
X280082909Y-170127313D01*
X279971962Y-170073215D01*
X279677766Y-169943338D01*
X279445496Y-169871648D01*
X279206170Y-169846301D01*
X278890810Y-169855450D01*
X278755041Y-169864244D01*
X278083099Y-169910300D01*
X277912224Y-169575358D01*
X277741551Y-169305499D01*
X277567406Y-169186777D01*
X277359715Y-169203099D01*
X277277739Y-169235809D01*
X277069064Y-169397708D01*
X276879431Y-169651064D01*
X276755997Y-169924130D01*
X276733316Y-170064130D01*
X276769552Y-170199759D01*
X276869723Y-170455527D01*
X277020679Y-170800801D01*
X277209270Y-171204949D01*
X277325666Y-171444046D01*
X277611925Y-172047999D01*
X277804112Y-172511652D01*
X277901935Y-172835693D01*
X277905104Y-173020814D01*
X277813329Y-173067706D01*
X277626318Y-172977058D01*
X277343781Y-172749561D01*
X276965428Y-172385907D01*
X276940061Y-172360166D01*
X276460639Y-171848150D01*
X276091261Y-171401379D01*
X275838032Y-171028927D01*
X275707056Y-170739871D01*
X275704439Y-170543284D01*
X275710001Y-170531744D01*
X275797955Y-170210231D01*
X275756165Y-169873064D01*
X275607749Y-169561430D01*
X275375827Y-169316511D01*
X275083517Y-169179493D01*
X274942209Y-169164000D01*
X274666442Y-169228765D01*
X274507182Y-169410214D01*
X274479992Y-169689076D01*
X274486398Y-169728465D01*
X274496493Y-169940027D01*
X274416126Y-170053256D01*
X274227223Y-170074379D01*
X273911714Y-170009624D01*
X273780661Y-169971662D01*
X273382780Y-169871979D01*
X273097138Y-169854753D01*
X272920740Y-169929431D01*
X272850587Y-170105458D01*
X272883684Y-170392281D01*
X273017034Y-170799345D01*
X273247639Y-171336097D01*
X273307172Y-171464111D01*
X273552087Y-171994052D01*
X273725448Y-172391967D01*
X273833560Y-172676202D01*
X273882729Y-172865104D01*
X273879260Y-172977018D01*
X273843075Y-173023291D01*
X273740099Y-172993579D01*
X273547913Y-172852883D01*
X273518311Y-172826554D01*
X271123009Y-172826554D01*
X271070148Y-173003251D01*
X270930339Y-173055928D01*
X270724601Y-172977433D01*
X270473952Y-172760610D01*
X270456253Y-172741166D01*
X270143134Y-172358052D01*
X269881308Y-171971467D01*
X269679809Y-171603875D01*
X269547670Y-171277743D01*
X269493924Y-171015536D01*
X269527604Y-170839721D01*
X269657743Y-170772763D01*
X269664760Y-170772666D01*
X269812850Y-170840439D01*
X270020802Y-171022404D01*
X270263084Y-171286528D01*
X270514164Y-171600779D01*
X270748508Y-171933124D01*
X270940584Y-172251532D01*
X271064859Y-172523970D01*
X271067904Y-172532991D01*
X271123009Y-172826554D01*
X273518311Y-172826554D01*
X273286075Y-172619999D01*
X272974145Y-172313722D01*
X272631682Y-171952849D01*
X272278245Y-171556175D01*
X272109208Y-171357099D01*
X271667401Y-170875628D01*
X271211482Y-170464460D01*
X270769198Y-170144687D01*
X270368293Y-169937401D01*
X270161174Y-169876174D01*
X269752828Y-169854400D01*
X269333453Y-169918278D01*
X269188820Y-169965460D01*
X269121132Y-169954268D01*
X269026317Y-169864248D01*
X268893508Y-169679431D01*
X268711836Y-169383852D01*
X268470433Y-168961540D01*
X268314900Y-168681497D01*
X268070339Y-168245144D01*
X267845771Y-167857349D01*
X267656756Y-167543980D01*
X267518851Y-167330905D01*
X267451978Y-167246788D01*
X267270873Y-167185868D01*
X267157705Y-167194216D01*
G36*
X310381809Y-167315421D02*
G01*
X310136621Y-167479271D01*
X310023054Y-167742428D01*
X310045027Y-168096773D01*
X310173270Y-168463750D01*
X310383541Y-168777481D01*
X310670363Y-169008488D01*
X310995251Y-169143392D01*
X311319721Y-169168814D01*
X311605288Y-169071372D01*
X311700333Y-168994666D01*
X311825843Y-168765097D01*
X311869452Y-168450514D01*
X311828148Y-168115740D01*
X311750711Y-167910962D01*
X311496771Y-167546805D01*
X311183679Y-167334094D01*
X310790939Y-167259413D01*
X310754698Y-167259000D01*
X310381809Y-167315421D01*
X310381809Y-167315421D01*
G37*
X310381809Y-167315421D02*
X310136621Y-167479271D01*
X310023054Y-167742428D01*
X310045027Y-168096773D01*
X310173270Y-168463750D01*
X310383541Y-168777481D01*
X310670363Y-169008488D01*
X310995251Y-169143392D01*
X311319721Y-169168814D01*
X311605288Y-169071372D01*
X311700333Y-168994666D01*
X311825843Y-168765097D01*
X311869452Y-168450514D01*
X311828148Y-168115740D01*
X311750711Y-167910962D01*
X311496771Y-167546805D01*
X311183679Y-167334094D01*
X310790939Y-167259413D01*
X310754698Y-167259000D01*
X310381809Y-167315421D01*
D12*
X207417600Y-270060052D02*
X207417600Y-269537548D01*
X208837600Y-270060052D02*
X208837600Y-269537548D01*
X209856000Y-270060052D02*
X209856000Y-269537548D01*
X211276000Y-270060052D02*
X211276000Y-269537548D01*
X194054252Y-137870000D02*
X193531748Y-137870000D01*
X194054252Y-136450000D02*
X193531748Y-136450000D01*
X177544252Y-137870000D02*
X177021748Y-137870000D01*
X177544252Y-136450000D02*
X177021748Y-136450000D01*
X240285200Y-277680052D02*
X240285200Y-277157548D01*
X241705200Y-277680052D02*
X241705200Y-277157548D01*
X236881600Y-286316052D02*
X236881600Y-285793548D01*
X238301600Y-286316052D02*
X238301600Y-285793548D01*
X224994400Y-286316052D02*
X224994400Y-285793548D01*
X226414400Y-286316052D02*
X226414400Y-285793548D01*
X222141148Y-281026800D02*
X222663652Y-281026800D01*
X222141148Y-282446800D02*
X222663652Y-282446800D01*
X210521000Y-292044000D02*
X207661000Y-292044000D01*
X210521000Y-290124000D02*
X210521000Y-292044000D01*
X207661000Y-290124000D02*
X210521000Y-290124000D01*
X191783000Y-297683000D02*
X191783000Y-297748000D01*
X195313000Y-297683000D02*
X195313000Y-297748000D01*
X191783000Y-291278000D02*
X191783000Y-291343000D01*
X195313000Y-291278000D02*
X195313000Y-291343000D01*
X196638000Y-291343000D02*
X195313000Y-291343000D01*
X195313000Y-297748000D02*
X191783000Y-297748000D01*
X195313000Y-291278000D02*
X191783000Y-291278000D01*
X245835200Y-292630000D02*
X244095200Y-292630000D01*
X245835200Y-294370000D02*
X245835200Y-292630000D01*
X236395200Y-292870000D02*
X236395200Y-294870000D01*
X239195200Y-292870000D02*
X236395200Y-292870000D01*
X245595200Y-292870000D02*
X242795200Y-292870000D01*
X245595200Y-307470000D02*
X245595200Y-292870000D01*
X236395200Y-307470000D02*
X245595200Y-307470000D01*
X236395200Y-298470000D02*
X236395200Y-307470000D01*
X194248000Y-299228000D02*
X192848000Y-299228000D01*
X192148000Y-299928000D02*
X192148000Y-300528000D01*
X192848000Y-301228000D02*
X194248000Y-301228000D01*
X194948000Y-300528000D02*
X194948000Y-299928000D01*
X194948000Y-299928000D02*
G75*
G03X194248000Y-299228000I-700000J0D01*
G01*
X194248000Y-301228000D02*
G75*
G03X194948000Y-300528000I0J700000D01*
G01*
X192148000Y-300528000D02*
G75*
G03X192848000Y-301228000I700000J0D01*
G01*
X192848000Y-299228000D02*
G75*
G03X192148000Y-299928000I0J-700000D01*
G01*
X213298000Y-278400000D02*
X211898000Y-278400000D01*
X211198000Y-279100000D02*
X211198000Y-279700000D01*
X211898000Y-280400000D02*
X213298000Y-280400000D01*
X213998000Y-279700000D02*
X213998000Y-279100000D01*
X213998000Y-279100000D02*
G75*
G03X213298000Y-278400000I-700000J0D01*
G01*
X213298000Y-280400000D02*
G75*
G03X213998000Y-279700000I0J700000D01*
G01*
X211198000Y-279700000D02*
G75*
G03X211898000Y-280400000I700000J0D01*
G01*
X211898000Y-278400000D02*
G75*
G03X211198000Y-279100000I0J-700000D01*
G01*
X214467600Y-288692000D02*
X214467600Y-281792000D01*
X219567600Y-288692000D02*
X219567600Y-281792000D01*
X194254000Y-123065000D02*
X194254000Y-124525000D01*
X197414000Y-123065000D02*
X197414000Y-125225000D01*
X197414000Y-123065000D02*
X196484000Y-123065000D01*
X194254000Y-123065000D02*
X195184000Y-123065000D01*
X178125000Y-123065000D02*
X178125000Y-124525000D01*
X181285000Y-123065000D02*
X181285000Y-125225000D01*
X181285000Y-123065000D02*
X180355000Y-123065000D01*
X178125000Y-123065000D02*
X179055000Y-123065000D01*
X203827748Y-290374000D02*
X204350252Y-290374000D01*
X203827748Y-291794000D02*
X204350252Y-291794000D01*
X198322000Y-132199748D02*
X198322000Y-132722252D01*
X196902000Y-132199748D02*
X196902000Y-132722252D01*
X194054252Y-128853000D02*
X193531748Y-128853000D01*
X194054252Y-127433000D02*
X193531748Y-127433000D01*
X177553252Y-128853000D02*
X177030748Y-128853000D01*
X177553252Y-127433000D02*
X177030748Y-127433000D01*
X182467200Y-268955200D02*
X182467200Y-268455200D01*
X176487200Y-268955200D02*
X182467200Y-268955200D01*
X176487200Y-286695200D02*
X176487200Y-268955200D01*
X176487200Y-286695200D02*
X182467200Y-286695200D01*
X185257200Y-268955200D02*
X186297200Y-268955200D01*
X185257200Y-286695200D02*
X186297200Y-286695200D01*
X205427200Y-286695200D02*
X205427200Y-285545200D01*
X205427200Y-286695200D02*
X204307200Y-286695200D01*
X205427200Y-268955200D02*
X205427200Y-270105200D01*
X205427200Y-268955200D02*
X204307200Y-268955200D01*
D10*
X223752400Y-285699800D02*
X221827400Y-285699800D01*
X222977400Y-288949800D02*
X221827400Y-288949800D01*
D12*
X222141148Y-278740800D02*
X222663652Y-278740800D01*
X222141148Y-280160800D02*
X222663652Y-280160800D01*
X222141148Y-283312800D02*
X222663652Y-283312800D01*
X222141148Y-284732800D02*
X222663652Y-284732800D01*
X234649000Y-286020000D02*
X233249000Y-286020000D01*
X232549000Y-286720000D02*
X232549000Y-287320000D01*
X233249000Y-288020000D02*
X234649000Y-288020000D01*
X235349000Y-287320000D02*
X235349000Y-286720000D01*
X235349000Y-286720000D02*
G75*
G03X234649000Y-286020000I-700000J0D01*
G01*
X234649000Y-288020000D02*
G75*
G03X235349000Y-287320000I0J700000D01*
G01*
X232549000Y-287320000D02*
G75*
G03X233249000Y-288020000I700000J0D01*
G01*
X233249000Y-286020000D02*
G75*
G03X232549000Y-286720000I0J-700000D01*
G01*
X194108000Y-132722252D02*
X194108000Y-132199748D01*
X195528000Y-132722252D02*
X195528000Y-132199748D01*
X177598000Y-132849252D02*
X177598000Y-132326748D01*
X179018000Y-132849252D02*
X179018000Y-132326748D01*
X182193000Y-132326748D02*
X182193000Y-132849252D01*
X180773000Y-132326748D02*
X180773000Y-132849252D01*
X239285200Y-286074864D02*
X239285200Y-281970736D01*
X242705200Y-286074864D02*
X242705200Y-281970736D01*
X219956748Y-290628000D02*
X220479252Y-290628000D01*
X219956748Y-292048000D02*
X220479252Y-292048000D01*
X227137801Y-291630949D02*
X227137801Y-292153453D01*
X228557801Y-291630949D02*
X228557801Y-292153453D01*
X228557801Y-296380949D02*
X228557801Y-296903453D01*
X227137801Y-296380949D02*
X227137801Y-296903453D01*
D10*
X208319666Y-266930142D02*
X208367285Y-266977761D01*
X208510142Y-267025380D01*
X208605380Y-267025380D01*
X208748238Y-266977761D01*
X208843476Y-266882523D01*
X208891095Y-266787285D01*
X208938714Y-266596809D01*
X208938714Y-266453952D01*
X208891095Y-266263476D01*
X208843476Y-266168238D01*
X208748238Y-266073000D01*
X208605380Y-266025380D01*
X208510142Y-266025380D01*
X208367285Y-266073000D01*
X208319666Y-266120619D01*
X207367285Y-267025380D02*
X207938714Y-267025380D01*
X207653000Y-267025380D02*
X207653000Y-266025380D01*
X207748238Y-266168238D01*
X207843476Y-266263476D01*
X207938714Y-266311095D01*
X210732666Y-266930142D02*
X210780285Y-266977761D01*
X210923142Y-267025380D01*
X211018380Y-267025380D01*
X211161238Y-266977761D01*
X211256476Y-266882523D01*
X211304095Y-266787285D01*
X211351714Y-266596809D01*
X211351714Y-266453952D01*
X211304095Y-266263476D01*
X211256476Y-266168238D01*
X211161238Y-266073000D01*
X211018380Y-266025380D01*
X210923142Y-266025380D01*
X210780285Y-266073000D01*
X210732666Y-266120619D01*
X210351714Y-266120619D02*
X210304095Y-266073000D01*
X210208857Y-266025380D01*
X209970761Y-266025380D01*
X209875523Y-266073000D01*
X209827904Y-266120619D01*
X209780285Y-266215857D01*
X209780285Y-266311095D01*
X209827904Y-266453952D01*
X210399333Y-267025380D01*
X209780285Y-267025380D01*
X197270666Y-137517142D02*
X197318285Y-137564761D01*
X197461142Y-137612380D01*
X197556380Y-137612380D01*
X197699238Y-137564761D01*
X197794476Y-137469523D01*
X197842095Y-137374285D01*
X197889714Y-137183809D01*
X197889714Y-137040952D01*
X197842095Y-136850476D01*
X197794476Y-136755238D01*
X197699238Y-136660000D01*
X197556380Y-136612380D01*
X197461142Y-136612380D01*
X197318285Y-136660000D01*
X197270666Y-136707619D01*
X196937333Y-136612380D02*
X196318285Y-136612380D01*
X196651619Y-136993333D01*
X196508761Y-136993333D01*
X196413523Y-137040952D01*
X196365904Y-137088571D01*
X196318285Y-137183809D01*
X196318285Y-137421904D01*
X196365904Y-137517142D01*
X196413523Y-137564761D01*
X196508761Y-137612380D01*
X196794476Y-137612380D01*
X196889714Y-137564761D01*
X196937333Y-137517142D01*
X180760666Y-137517142D02*
X180808285Y-137564761D01*
X180951142Y-137612380D01*
X181046380Y-137612380D01*
X181189238Y-137564761D01*
X181284476Y-137469523D01*
X181332095Y-137374285D01*
X181379714Y-137183809D01*
X181379714Y-137040952D01*
X181332095Y-136850476D01*
X181284476Y-136755238D01*
X181189238Y-136660000D01*
X181046380Y-136612380D01*
X180951142Y-136612380D01*
X180808285Y-136660000D01*
X180760666Y-136707619D01*
X179903523Y-136945714D02*
X179903523Y-137612380D01*
X180141619Y-136564761D02*
X180379714Y-137279047D01*
X179760666Y-137279047D01*
X238926666Y-277775942D02*
X238974285Y-277823561D01*
X239117142Y-277871180D01*
X239212380Y-277871180D01*
X239355238Y-277823561D01*
X239450476Y-277728323D01*
X239498095Y-277633085D01*
X239545714Y-277442609D01*
X239545714Y-277299752D01*
X239498095Y-277109276D01*
X239450476Y-277014038D01*
X239355238Y-276918800D01*
X239212380Y-276871180D01*
X239117142Y-276871180D01*
X238974285Y-276918800D01*
X238926666Y-276966419D01*
X238021904Y-276871180D02*
X238498095Y-276871180D01*
X238545714Y-277347371D01*
X238498095Y-277299752D01*
X238402857Y-277252133D01*
X238164761Y-277252133D01*
X238069523Y-277299752D01*
X238021904Y-277347371D01*
X237974285Y-277442609D01*
X237974285Y-277680704D01*
X238021904Y-277775942D01*
X238069523Y-277823561D01*
X238164761Y-277871180D01*
X238402857Y-277871180D01*
X238498095Y-277823561D01*
X238545714Y-277775942D01*
X237783666Y-283313142D02*
X237831285Y-283360761D01*
X237974142Y-283408380D01*
X238069380Y-283408380D01*
X238212238Y-283360761D01*
X238307476Y-283265523D01*
X238355095Y-283170285D01*
X238402714Y-282979809D01*
X238402714Y-282836952D01*
X238355095Y-282646476D01*
X238307476Y-282551238D01*
X238212238Y-282456000D01*
X238069380Y-282408380D01*
X237974142Y-282408380D01*
X237831285Y-282456000D01*
X237783666Y-282503619D01*
X236926523Y-282408380D02*
X237117000Y-282408380D01*
X237212238Y-282456000D01*
X237259857Y-282503619D01*
X237355095Y-282646476D01*
X237402714Y-282836952D01*
X237402714Y-283217904D01*
X237355095Y-283313142D01*
X237307476Y-283360761D01*
X237212238Y-283408380D01*
X237021761Y-283408380D01*
X236926523Y-283360761D01*
X236878904Y-283313142D01*
X236831285Y-283217904D01*
X236831285Y-282979809D01*
X236878904Y-282884571D01*
X236926523Y-282836952D01*
X237021761Y-282789333D01*
X237212238Y-282789333D01*
X237307476Y-282836952D01*
X237355095Y-282884571D01*
X237402714Y-282979809D01*
X225845666Y-289917142D02*
X225893285Y-289964761D01*
X226036142Y-290012380D01*
X226131380Y-290012380D01*
X226274238Y-289964761D01*
X226369476Y-289869523D01*
X226417095Y-289774285D01*
X226464714Y-289583809D01*
X226464714Y-289440952D01*
X226417095Y-289250476D01*
X226369476Y-289155238D01*
X226274238Y-289060000D01*
X226131380Y-289012380D01*
X226036142Y-289012380D01*
X225893285Y-289060000D01*
X225845666Y-289107619D01*
X225512333Y-289012380D02*
X224845666Y-289012380D01*
X225274238Y-290012380D01*
X225845666Y-282043142D02*
X225893285Y-282090761D01*
X226036142Y-282138380D01*
X226131380Y-282138380D01*
X226274238Y-282090761D01*
X226369476Y-281995523D01*
X226417095Y-281900285D01*
X226464714Y-281709809D01*
X226464714Y-281566952D01*
X226417095Y-281376476D01*
X226369476Y-281281238D01*
X226274238Y-281186000D01*
X226131380Y-281138380D01*
X226036142Y-281138380D01*
X225893285Y-281186000D01*
X225845666Y-281233619D01*
X225274238Y-281566952D02*
X225369476Y-281519333D01*
X225417095Y-281471714D01*
X225464714Y-281376476D01*
X225464714Y-281328857D01*
X225417095Y-281233619D01*
X225369476Y-281186000D01*
X225274238Y-281138380D01*
X225083761Y-281138380D01*
X224988523Y-281186000D01*
X224940904Y-281233619D01*
X224893285Y-281328857D01*
X224893285Y-281376476D01*
X224940904Y-281471714D01*
X224988523Y-281519333D01*
X225083761Y-281566952D01*
X225274238Y-281566952D01*
X225369476Y-281614571D01*
X225417095Y-281662190D01*
X225464714Y-281757428D01*
X225464714Y-281947904D01*
X225417095Y-282043142D01*
X225369476Y-282090761D01*
X225274238Y-282138380D01*
X225083761Y-282138380D01*
X224988523Y-282090761D01*
X224940904Y-282043142D01*
X224893285Y-281947904D01*
X224893285Y-281757428D01*
X224940904Y-281662190D01*
X224988523Y-281614571D01*
X225083761Y-281566952D01*
X209399095Y-289631380D02*
X209399095Y-288631380D01*
X209161000Y-288631380D01*
X209018142Y-288679000D01*
X208922904Y-288774238D01*
X208875285Y-288869476D01*
X208827666Y-289059952D01*
X208827666Y-289202809D01*
X208875285Y-289393285D01*
X208922904Y-289488523D01*
X209018142Y-289583761D01*
X209161000Y-289631380D01*
X209399095Y-289631380D01*
X207875285Y-289631380D02*
X208446714Y-289631380D01*
X208161000Y-289631380D02*
X208161000Y-288631380D01*
X208256238Y-288774238D01*
X208351476Y-288869476D01*
X208446714Y-288917095D01*
X193881333Y-289730380D02*
X193881333Y-290444666D01*
X193928952Y-290587523D01*
X194024190Y-290682761D01*
X194167047Y-290730380D01*
X194262285Y-290730380D01*
X192881333Y-290730380D02*
X193452761Y-290730380D01*
X193167047Y-290730380D02*
X193167047Y-289730380D01*
X193262285Y-289873238D01*
X193357523Y-289968476D01*
X193452761Y-290016095D01*
X241379333Y-290155380D02*
X241379333Y-290869666D01*
X241426952Y-291012523D01*
X241522190Y-291107761D01*
X241665047Y-291155380D01*
X241760285Y-291155380D01*
X240950761Y-290250619D02*
X240903142Y-290203000D01*
X240807904Y-290155380D01*
X240569809Y-290155380D01*
X240474571Y-290203000D01*
X240426952Y-290250619D01*
X240379333Y-290345857D01*
X240379333Y-290441095D01*
X240426952Y-290583952D01*
X240998380Y-291155380D01*
X240379333Y-291155380D01*
X197556333Y-299680380D02*
X197556333Y-300394666D01*
X197603952Y-300537523D01*
X197699190Y-300632761D01*
X197842047Y-300680380D01*
X197937285Y-300680380D01*
X197080142Y-300680380D02*
X197080142Y-299680380D01*
X196699190Y-299680380D01*
X196603952Y-299728000D01*
X196556333Y-299775619D01*
X196508714Y-299870857D01*
X196508714Y-300013714D01*
X196556333Y-300108952D01*
X196603952Y-300156571D01*
X196699190Y-300204190D01*
X197080142Y-300204190D01*
X195556333Y-300680380D02*
X196127761Y-300680380D01*
X195842047Y-300680380D02*
X195842047Y-299680380D01*
X195937285Y-299823238D01*
X196032523Y-299918476D01*
X196127761Y-299966095D01*
X213431333Y-277052380D02*
X213431333Y-277766666D01*
X213478952Y-277909523D01*
X213574190Y-278004761D01*
X213717047Y-278052380D01*
X213812285Y-278052380D01*
X212955142Y-278052380D02*
X212955142Y-277052380D01*
X212574190Y-277052380D01*
X212478952Y-277100000D01*
X212431333Y-277147619D01*
X212383714Y-277242857D01*
X212383714Y-277385714D01*
X212431333Y-277480952D01*
X212478952Y-277528571D01*
X212574190Y-277576190D01*
X212955142Y-277576190D01*
X211478952Y-277052380D02*
X211955142Y-277052380D01*
X212002761Y-277528571D01*
X211955142Y-277480952D01*
X211859904Y-277433333D01*
X211621809Y-277433333D01*
X211526571Y-277480952D01*
X211478952Y-277528571D01*
X211431333Y-277623809D01*
X211431333Y-277861904D01*
X211478952Y-277957142D01*
X211526571Y-278004761D01*
X211621809Y-278052380D01*
X211859904Y-278052380D01*
X211955142Y-278004761D01*
X212002761Y-277957142D01*
X213272666Y-285694380D02*
X213748857Y-285694380D01*
X213748857Y-284694380D01*
X212415523Y-285694380D02*
X212986952Y-285694380D01*
X212701238Y-285694380D02*
X212701238Y-284694380D01*
X212796476Y-284837238D01*
X212891714Y-284932476D01*
X212986952Y-284980095D01*
X195929238Y-121451619D02*
X196024476Y-121404000D01*
X196119714Y-121308761D01*
X196262571Y-121165904D01*
X196357809Y-121118285D01*
X196453047Y-121118285D01*
X196405428Y-121356380D02*
X196500666Y-121308761D01*
X196595904Y-121213523D01*
X196643523Y-121023047D01*
X196643523Y-120689714D01*
X196595904Y-120499238D01*
X196500666Y-120404000D01*
X196405428Y-120356380D01*
X196214952Y-120356380D01*
X196119714Y-120404000D01*
X196024476Y-120499238D01*
X195976857Y-120689714D01*
X195976857Y-121023047D01*
X196024476Y-121213523D01*
X196119714Y-121308761D01*
X196214952Y-121356380D01*
X196405428Y-121356380D01*
X195024476Y-121356380D02*
X195595904Y-121356380D01*
X195310190Y-121356380D02*
X195310190Y-120356380D01*
X195405428Y-120499238D01*
X195500666Y-120594476D01*
X195595904Y-120642095D01*
X179800238Y-121324619D02*
X179895476Y-121277000D01*
X179990714Y-121181761D01*
X180133571Y-121038904D01*
X180228809Y-120991285D01*
X180324047Y-120991285D01*
X180276428Y-121229380D02*
X180371666Y-121181761D01*
X180466904Y-121086523D01*
X180514523Y-120896047D01*
X180514523Y-120562714D01*
X180466904Y-120372238D01*
X180371666Y-120277000D01*
X180276428Y-120229380D01*
X180085952Y-120229380D01*
X179990714Y-120277000D01*
X179895476Y-120372238D01*
X179847857Y-120562714D01*
X179847857Y-120896047D01*
X179895476Y-121086523D01*
X179990714Y-121181761D01*
X180085952Y-121229380D01*
X180276428Y-121229380D01*
X179466904Y-120324619D02*
X179419285Y-120277000D01*
X179324047Y-120229380D01*
X179085952Y-120229380D01*
X178990714Y-120277000D01*
X178943095Y-120324619D01*
X178895476Y-120419857D01*
X178895476Y-120515095D01*
X178943095Y-120657952D01*
X179514523Y-121229380D01*
X178895476Y-121229380D01*
X204255666Y-289631380D02*
X204589000Y-289155190D01*
X204827095Y-289631380D02*
X204827095Y-288631380D01*
X204446142Y-288631380D01*
X204350904Y-288679000D01*
X204303285Y-288726619D01*
X204255666Y-288821857D01*
X204255666Y-288964714D01*
X204303285Y-289059952D01*
X204350904Y-289107571D01*
X204446142Y-289155190D01*
X204827095Y-289155190D01*
X203303285Y-289631380D02*
X203874714Y-289631380D01*
X203589000Y-289631380D02*
X203589000Y-288631380D01*
X203684238Y-288774238D01*
X203779476Y-288869476D01*
X203874714Y-288917095D01*
X200064666Y-132913380D02*
X200398000Y-132437190D01*
X200636095Y-132913380D02*
X200636095Y-131913380D01*
X200255142Y-131913380D01*
X200159904Y-131961000D01*
X200112285Y-132008619D01*
X200064666Y-132103857D01*
X200064666Y-132246714D01*
X200112285Y-132341952D01*
X200159904Y-132389571D01*
X200255142Y-132437190D01*
X200636095Y-132437190D01*
X199683714Y-132008619D02*
X199636095Y-131961000D01*
X199540857Y-131913380D01*
X199302761Y-131913380D01*
X199207523Y-131961000D01*
X199159904Y-132008619D01*
X199112285Y-132103857D01*
X199112285Y-132199095D01*
X199159904Y-132341952D01*
X199731333Y-132913380D01*
X199112285Y-132913380D01*
X190666666Y-128595380D02*
X191000000Y-128119190D01*
X191238095Y-128595380D02*
X191238095Y-127595380D01*
X190857142Y-127595380D01*
X190761904Y-127643000D01*
X190714285Y-127690619D01*
X190666666Y-127785857D01*
X190666666Y-127928714D01*
X190714285Y-128023952D01*
X190761904Y-128071571D01*
X190857142Y-128119190D01*
X191238095Y-128119190D01*
X190333333Y-127595380D02*
X189714285Y-127595380D01*
X190047619Y-127976333D01*
X189904761Y-127976333D01*
X189809523Y-128023952D01*
X189761904Y-128071571D01*
X189714285Y-128166809D01*
X189714285Y-128404904D01*
X189761904Y-128500142D01*
X189809523Y-128547761D01*
X189904761Y-128595380D01*
X190190476Y-128595380D01*
X190285714Y-128547761D01*
X190333333Y-128500142D01*
X174283666Y-128595380D02*
X174617000Y-128119190D01*
X174855095Y-128595380D02*
X174855095Y-127595380D01*
X174474142Y-127595380D01*
X174378904Y-127643000D01*
X174331285Y-127690619D01*
X174283666Y-127785857D01*
X174283666Y-127928714D01*
X174331285Y-128023952D01*
X174378904Y-128071571D01*
X174474142Y-128119190D01*
X174855095Y-128119190D01*
X173378904Y-127595380D02*
X173855095Y-127595380D01*
X173902714Y-128071571D01*
X173855095Y-128023952D01*
X173759857Y-127976333D01*
X173521761Y-127976333D01*
X173426523Y-128023952D01*
X173378904Y-128071571D01*
X173331285Y-128166809D01*
X173331285Y-128404904D01*
X173378904Y-128500142D01*
X173426523Y-128547761D01*
X173521761Y-128595380D01*
X173759857Y-128595380D01*
X173855095Y-128547761D01*
X173902714Y-128500142D01*
X206809580Y-277063295D02*
X207619104Y-277063295D01*
X207714342Y-277110914D01*
X207761961Y-277158533D01*
X207809580Y-277253771D01*
X207809580Y-277444247D01*
X207761961Y-277539485D01*
X207714342Y-277587104D01*
X207619104Y-277634723D01*
X206809580Y-277634723D01*
X207809580Y-278634723D02*
X207809580Y-278063295D01*
X207809580Y-278349009D02*
X206809580Y-278349009D01*
X206952438Y-278253771D01*
X207047676Y-278158533D01*
X207095295Y-278063295D01*
X224408904Y-290663380D02*
X224408904Y-291472904D01*
X224361285Y-291568142D01*
X224313666Y-291615761D01*
X224218428Y-291663380D01*
X224027952Y-291663380D01*
X223932714Y-291615761D01*
X223885095Y-291568142D01*
X223837476Y-291472904D01*
X223837476Y-290663380D01*
X223408904Y-290758619D02*
X223361285Y-290711000D01*
X223266047Y-290663380D01*
X223027952Y-290663380D01*
X222932714Y-290711000D01*
X222885095Y-290758619D01*
X222837476Y-290853857D01*
X222837476Y-290949095D01*
X222885095Y-291091952D01*
X223456523Y-291663380D01*
X222837476Y-291663380D01*
X225972666Y-279757142D02*
X226020285Y-279804761D01*
X226163142Y-279852380D01*
X226258380Y-279852380D01*
X226401238Y-279804761D01*
X226496476Y-279709523D01*
X226544095Y-279614285D01*
X226591714Y-279423809D01*
X226591714Y-279280952D01*
X226544095Y-279090476D01*
X226496476Y-278995238D01*
X226401238Y-278900000D01*
X226258380Y-278852380D01*
X226163142Y-278852380D01*
X226020285Y-278900000D01*
X225972666Y-278947619D01*
X225496476Y-279852380D02*
X225306000Y-279852380D01*
X225210761Y-279804761D01*
X225163142Y-279757142D01*
X225067904Y-279614285D01*
X225020285Y-279423809D01*
X225020285Y-279042857D01*
X225067904Y-278947619D01*
X225115523Y-278900000D01*
X225210761Y-278852380D01*
X225401238Y-278852380D01*
X225496476Y-278900000D01*
X225544095Y-278947619D01*
X225591714Y-279042857D01*
X225591714Y-279280952D01*
X225544095Y-279376190D01*
X225496476Y-279423809D01*
X225401238Y-279471428D01*
X225210761Y-279471428D01*
X225115523Y-279423809D01*
X225067904Y-279376190D01*
X225020285Y-279280952D01*
X226702857Y-283440142D02*
X226750476Y-283487761D01*
X226893333Y-283535380D01*
X226988571Y-283535380D01*
X227131428Y-283487761D01*
X227226666Y-283392523D01*
X227274285Y-283297285D01*
X227321904Y-283106809D01*
X227321904Y-282963952D01*
X227274285Y-282773476D01*
X227226666Y-282678238D01*
X227131428Y-282583000D01*
X226988571Y-282535380D01*
X226893333Y-282535380D01*
X226750476Y-282583000D01*
X226702857Y-282630619D01*
X225750476Y-283535380D02*
X226321904Y-283535380D01*
X226036190Y-283535380D02*
X226036190Y-282535380D01*
X226131428Y-282678238D01*
X226226666Y-282773476D01*
X226321904Y-282821095D01*
X225131428Y-282535380D02*
X225036190Y-282535380D01*
X224940952Y-282583000D01*
X224893333Y-282630619D01*
X224845714Y-282725857D01*
X224798095Y-282916333D01*
X224798095Y-283154428D01*
X224845714Y-283344904D01*
X224893333Y-283440142D01*
X224940952Y-283487761D01*
X225036190Y-283535380D01*
X225131428Y-283535380D01*
X225226666Y-283487761D01*
X225274285Y-283440142D01*
X225321904Y-283344904D01*
X225369523Y-283154428D01*
X225369523Y-282916333D01*
X225321904Y-282725857D01*
X225274285Y-282630619D01*
X225226666Y-282583000D01*
X225131428Y-282535380D01*
X234782333Y-284672380D02*
X234782333Y-285386666D01*
X234829952Y-285529523D01*
X234925190Y-285624761D01*
X235068047Y-285672380D01*
X235163285Y-285672380D01*
X234306142Y-285672380D02*
X234306142Y-284672380D01*
X233925190Y-284672380D01*
X233829952Y-284720000D01*
X233782333Y-284767619D01*
X233734714Y-284862857D01*
X233734714Y-285005714D01*
X233782333Y-285100952D01*
X233829952Y-285148571D01*
X233925190Y-285196190D01*
X234306142Y-285196190D01*
X232877571Y-285005714D02*
X232877571Y-285672380D01*
X233115666Y-284624761D02*
X233353761Y-285339047D01*
X232734714Y-285339047D01*
X192571666Y-132913380D02*
X192905000Y-132437190D01*
X193143095Y-132913380D02*
X193143095Y-131913380D01*
X192762142Y-131913380D01*
X192666904Y-131961000D01*
X192619285Y-132008619D01*
X192571666Y-132103857D01*
X192571666Y-132246714D01*
X192619285Y-132341952D01*
X192666904Y-132389571D01*
X192762142Y-132437190D01*
X193143095Y-132437190D01*
X191714523Y-132246714D02*
X191714523Y-132913380D01*
X191952619Y-131865761D02*
X192190714Y-132580047D01*
X191571666Y-132580047D01*
X176188666Y-133040380D02*
X176522000Y-132564190D01*
X176760095Y-133040380D02*
X176760095Y-132040380D01*
X176379142Y-132040380D01*
X176283904Y-132088000D01*
X176236285Y-132135619D01*
X176188666Y-132230857D01*
X176188666Y-132373714D01*
X176236285Y-132468952D01*
X176283904Y-132516571D01*
X176379142Y-132564190D01*
X176760095Y-132564190D01*
X175331523Y-132040380D02*
X175522000Y-132040380D01*
X175617238Y-132088000D01*
X175664857Y-132135619D01*
X175760095Y-132278476D01*
X175807714Y-132468952D01*
X175807714Y-132849904D01*
X175760095Y-132945142D01*
X175712476Y-132992761D01*
X175617238Y-133040380D01*
X175426761Y-133040380D01*
X175331523Y-132992761D01*
X175283904Y-132945142D01*
X175236285Y-132849904D01*
X175236285Y-132611809D01*
X175283904Y-132516571D01*
X175331523Y-132468952D01*
X175426761Y-132421333D01*
X175617238Y-132421333D01*
X175712476Y-132468952D01*
X175760095Y-132516571D01*
X175807714Y-132611809D01*
X183935666Y-133040380D02*
X184269000Y-132564190D01*
X184507095Y-133040380D02*
X184507095Y-132040380D01*
X184126142Y-132040380D01*
X184030904Y-132088000D01*
X183983285Y-132135619D01*
X183935666Y-132230857D01*
X183935666Y-132373714D01*
X183983285Y-132468952D01*
X184030904Y-132516571D01*
X184126142Y-132564190D01*
X184507095Y-132564190D01*
X183602333Y-132040380D02*
X182935666Y-132040380D01*
X183364238Y-133040380D01*
X244133666Y-284551380D02*
X244467000Y-284075190D01*
X244705095Y-284551380D02*
X244705095Y-283551380D01*
X244324142Y-283551380D01*
X244228904Y-283599000D01*
X244181285Y-283646619D01*
X244133666Y-283741857D01*
X244133666Y-283884714D01*
X244181285Y-283979952D01*
X244228904Y-284027571D01*
X244324142Y-284075190D01*
X244705095Y-284075190D01*
X243562238Y-283979952D02*
X243657476Y-283932333D01*
X243705095Y-283884714D01*
X243752714Y-283789476D01*
X243752714Y-283741857D01*
X243705095Y-283646619D01*
X243657476Y-283599000D01*
X243562238Y-283551380D01*
X243371761Y-283551380D01*
X243276523Y-283599000D01*
X243228904Y-283646619D01*
X243181285Y-283741857D01*
X243181285Y-283789476D01*
X243228904Y-283884714D01*
X243276523Y-283932333D01*
X243371761Y-283979952D01*
X243562238Y-283979952D01*
X243657476Y-284027571D01*
X243705095Y-284075190D01*
X243752714Y-284170428D01*
X243752714Y-284360904D01*
X243705095Y-284456142D01*
X243657476Y-284503761D01*
X243562238Y-284551380D01*
X243371761Y-284551380D01*
X243276523Y-284503761D01*
X243228904Y-284456142D01*
X243181285Y-284360904D01*
X243181285Y-284170428D01*
X243228904Y-284075190D01*
X243276523Y-284027571D01*
X243371761Y-283979952D01*
X220384666Y-293440380D02*
X220718000Y-292964190D01*
X220956095Y-293440380D02*
X220956095Y-292440380D01*
X220575142Y-292440380D01*
X220479904Y-292488000D01*
X220432285Y-292535619D01*
X220384666Y-292630857D01*
X220384666Y-292773714D01*
X220432285Y-292868952D01*
X220479904Y-292916571D01*
X220575142Y-292964190D01*
X220956095Y-292964190D01*
X219908476Y-293440380D02*
X219718000Y-293440380D01*
X219622761Y-293392761D01*
X219575142Y-293345142D01*
X219479904Y-293202285D01*
X219432285Y-293011809D01*
X219432285Y-292630857D01*
X219479904Y-292535619D01*
X219527523Y-292488000D01*
X219622761Y-292440380D01*
X219813238Y-292440380D01*
X219908476Y-292488000D01*
X219956095Y-292535619D01*
X220003714Y-292630857D01*
X220003714Y-292868952D01*
X219956095Y-292964190D01*
X219908476Y-293011809D01*
X219813238Y-293059428D01*
X219622761Y-293059428D01*
X219527523Y-293011809D01*
X219479904Y-292964190D01*
X219432285Y-292868952D01*
X231147857Y-292344581D02*
X231481190Y-291868391D01*
X231719285Y-292344581D02*
X231719285Y-291344581D01*
X231338333Y-291344581D01*
X231243095Y-291392201D01*
X231195476Y-291439820D01*
X231147857Y-291535058D01*
X231147857Y-291677915D01*
X231195476Y-291773153D01*
X231243095Y-291820772D01*
X231338333Y-291868391D01*
X231719285Y-291868391D01*
X230195476Y-292344581D02*
X230766904Y-292344581D01*
X230481190Y-292344581D02*
X230481190Y-291344581D01*
X230576428Y-291487439D01*
X230671666Y-291582677D01*
X230766904Y-291630296D01*
X229576428Y-291344581D02*
X229481190Y-291344581D01*
X229385952Y-291392201D01*
X229338333Y-291439820D01*
X229290714Y-291535058D01*
X229243095Y-291725534D01*
X229243095Y-291963629D01*
X229290714Y-292154105D01*
X229338333Y-292249343D01*
X229385952Y-292296962D01*
X229481190Y-292344581D01*
X229576428Y-292344581D01*
X229671666Y-292296962D01*
X229719285Y-292249343D01*
X229766904Y-292154105D01*
X229814523Y-291963629D01*
X229814523Y-291725534D01*
X229766904Y-291535058D01*
X229719285Y-291439820D01*
X229671666Y-291392201D01*
X229576428Y-291344581D01*
X231147857Y-297124380D02*
X231481190Y-296648190D01*
X231719285Y-297124380D02*
X231719285Y-296124380D01*
X231338333Y-296124380D01*
X231243095Y-296172000D01*
X231195476Y-296219619D01*
X231147857Y-296314857D01*
X231147857Y-296457714D01*
X231195476Y-296552952D01*
X231243095Y-296600571D01*
X231338333Y-296648190D01*
X231719285Y-296648190D01*
X230195476Y-297124380D02*
X230766904Y-297124380D01*
X230481190Y-297124380D02*
X230481190Y-296124380D01*
X230576428Y-296267238D01*
X230671666Y-296362476D01*
X230766904Y-296410095D01*
X229243095Y-297124380D02*
X229814523Y-297124380D01*
X229528809Y-297124380D02*
X229528809Y-296124380D01*
X229624047Y-296267238D01*
X229719285Y-296362476D01*
X229814523Y-296410095D01*
M02*
