G04 #@! TF.GenerationSoftware,KiCad,Pcbnew,(5.1.4)-1*
G04 #@! TF.CreationDate,2019-09-11T03:03:15-07:00*
G04 #@! TF.ProjectId,BrightBoard1,42726967-6874-4426-9f61-7264312e6b69,rev?*
G04 #@! TF.SameCoordinates,Original*
G04 #@! TF.FileFunction,Soldermask,Top*
G04 #@! TF.FilePolarity,Negative*
%FSLAX46Y46*%
G04 Gerber Fmt 4.6, Leading zero omitted, Abs format (unit mm)*
G04 Created by KiCad (PCBNEW (5.1.4)-1) date 2019-09-11 03:03:15*
%MOMM*%
%LPD*%
G04 APERTURE LIST*
%ADD10C,1.270000*%
%ADD11C,7.400000*%
%ADD12R,0.900000X0.700000*%
%ADD13R,2.200000X1.390000*%
%ADD14R,2.200000X2.460000*%
%ADD15C,3.000000*%
%ADD16R,3.000000X3.000000*%
%ADD17C,0.500000*%
%ADD18C,0.100000*%
G04 APERTURE END LIST*
D10*
X442595000Y-302895000D02*
X442595000Y-97155000D01*
X154305000Y-97155000D02*
X154305000Y-302895000D01*
X442595000Y-97155000D02*
X154305000Y-97155000D01*
X154305000Y-302895000D02*
X442595000Y-302895000D01*
D11*
X159385000Y-297815000D03*
D12*
X427354994Y-113535000D03*
D13*
X427354994Y-112890000D03*
D14*
X427354994Y-110915000D03*
D12*
X169545000Y-113535000D03*
D13*
X169545000Y-112890000D03*
D14*
X169545000Y-110915000D03*
D12*
X189376538Y-113535000D03*
D13*
X189376538Y-112890000D03*
D14*
X189376538Y-110915000D03*
D12*
X209208076Y-113535000D03*
D13*
X209208076Y-112890000D03*
D14*
X209208076Y-110915000D03*
D12*
X229039614Y-113535000D03*
D13*
X229039614Y-112890000D03*
D14*
X229039614Y-110915000D03*
D12*
X248871152Y-113535000D03*
D13*
X248871152Y-112890000D03*
D14*
X248871152Y-110915000D03*
D12*
X268702690Y-113535000D03*
D13*
X268702690Y-112890000D03*
D14*
X268702690Y-110915000D03*
D12*
X288534228Y-113535000D03*
D13*
X288534228Y-112890000D03*
D14*
X288534228Y-110915000D03*
D12*
X308365766Y-113535000D03*
D13*
X308365766Y-112890000D03*
D14*
X308365766Y-110915000D03*
D12*
X328197304Y-113535000D03*
D13*
X328197304Y-112890000D03*
D14*
X328197304Y-110915000D03*
D12*
X348028842Y-113535000D03*
D13*
X348028842Y-112890000D03*
D14*
X348028842Y-110915000D03*
D12*
X367860380Y-113535000D03*
D13*
X367860380Y-112890000D03*
D14*
X367860380Y-110915000D03*
D12*
X387691918Y-113535000D03*
D13*
X387691918Y-112890000D03*
D14*
X387691918Y-110915000D03*
D12*
X407523456Y-113535000D03*
D13*
X407523456Y-112890000D03*
D14*
X407523456Y-110915000D03*
D12*
X169545000Y-138572034D03*
D13*
X169545000Y-137927034D03*
D14*
X169545000Y-135952034D03*
D12*
X189376538Y-138572034D03*
D13*
X189376538Y-137927034D03*
D14*
X189376538Y-135952034D03*
D12*
X209208076Y-138572034D03*
D13*
X209208076Y-137927034D03*
D14*
X209208076Y-135952034D03*
D12*
X229039614Y-138572034D03*
D13*
X229039614Y-137927034D03*
D14*
X229039614Y-135952034D03*
D12*
X248871152Y-138572034D03*
D13*
X248871152Y-137927034D03*
D14*
X248871152Y-135952034D03*
D12*
X268702690Y-138572034D03*
D13*
X268702690Y-137927034D03*
D14*
X268702690Y-135952034D03*
D12*
X288534228Y-138572034D03*
D13*
X288534228Y-137927034D03*
D14*
X288534228Y-135952034D03*
D12*
X308365766Y-138572034D03*
D13*
X308365766Y-137927034D03*
D14*
X308365766Y-135952034D03*
D12*
X328197304Y-138572034D03*
D13*
X328197304Y-137927034D03*
D14*
X328197304Y-135952034D03*
D12*
X348028842Y-138572034D03*
D13*
X348028842Y-137927034D03*
D14*
X348028842Y-135952034D03*
D12*
X367860380Y-138572034D03*
D13*
X367860380Y-137927034D03*
D14*
X367860380Y-135952034D03*
D12*
X387691918Y-138572034D03*
D13*
X387691918Y-137927034D03*
D14*
X387691918Y-135952034D03*
D12*
X407523456Y-138572034D03*
D13*
X407523456Y-137927034D03*
D14*
X407523456Y-135952034D03*
D12*
X427354994Y-138572034D03*
D13*
X427354994Y-137927034D03*
D14*
X427354994Y-135952034D03*
D12*
X169545000Y-163609068D03*
D13*
X169545000Y-162964068D03*
D14*
X169545000Y-160989068D03*
D12*
X189376538Y-163609068D03*
D13*
X189376538Y-162964068D03*
D14*
X189376538Y-160989068D03*
D12*
X209208076Y-163609068D03*
D13*
X209208076Y-162964068D03*
D14*
X209208076Y-160989068D03*
D12*
X229039614Y-163609068D03*
D13*
X229039614Y-162964068D03*
D14*
X229039614Y-160989068D03*
D12*
X248871152Y-163609068D03*
D13*
X248871152Y-162964068D03*
D14*
X248871152Y-160989068D03*
D12*
X268702690Y-163609068D03*
D13*
X268702690Y-162964068D03*
D14*
X268702690Y-160989068D03*
D12*
X288534228Y-163609068D03*
D13*
X288534228Y-162964068D03*
D14*
X288534228Y-160989068D03*
D12*
X308365766Y-163609068D03*
D13*
X308365766Y-162964068D03*
D14*
X308365766Y-160989068D03*
D12*
X328197304Y-163609068D03*
D13*
X328197304Y-162964068D03*
D14*
X328197304Y-160989068D03*
D12*
X348028842Y-163609068D03*
D13*
X348028842Y-162964068D03*
D14*
X348028842Y-160989068D03*
D12*
X367860380Y-163609068D03*
D13*
X367860380Y-162964068D03*
D14*
X367860380Y-160989068D03*
D12*
X387691918Y-163609068D03*
D13*
X387691918Y-162964068D03*
D14*
X387691918Y-160989068D03*
D12*
X407523456Y-163609068D03*
D13*
X407523456Y-162964068D03*
D14*
X407523456Y-160989068D03*
D12*
X427354994Y-163609068D03*
D13*
X427354994Y-162964068D03*
D14*
X427354994Y-160989068D03*
D12*
X169545000Y-188646102D03*
D13*
X169545000Y-188001102D03*
D14*
X169545000Y-186026102D03*
D12*
X189376538Y-188646102D03*
D13*
X189376538Y-188001102D03*
D14*
X189376538Y-186026102D03*
D12*
X209208076Y-188646102D03*
D13*
X209208076Y-188001102D03*
D14*
X209208076Y-186026102D03*
D12*
X229039614Y-188646102D03*
D13*
X229039614Y-188001102D03*
D14*
X229039614Y-186026102D03*
D12*
X248871152Y-188646102D03*
D13*
X248871152Y-188001102D03*
D14*
X248871152Y-186026102D03*
D12*
X268702690Y-188646102D03*
D13*
X268702690Y-188001102D03*
D14*
X268702690Y-186026102D03*
D12*
X288534228Y-188646102D03*
D13*
X288534228Y-188001102D03*
D14*
X288534228Y-186026102D03*
D12*
X308365766Y-188646102D03*
D13*
X308365766Y-188001102D03*
D14*
X308365766Y-186026102D03*
D12*
X328197304Y-188646102D03*
D13*
X328197304Y-188001102D03*
D14*
X328197304Y-186026102D03*
D12*
X348028842Y-188646102D03*
D13*
X348028842Y-188001102D03*
D14*
X348028842Y-186026102D03*
D12*
X367860380Y-188646102D03*
D13*
X367860380Y-188001102D03*
D14*
X367860380Y-186026102D03*
D12*
X387691918Y-188646102D03*
D13*
X387691918Y-188001102D03*
D14*
X387691918Y-186026102D03*
D12*
X407523456Y-188646102D03*
D13*
X407523456Y-188001102D03*
D14*
X407523456Y-186026102D03*
D12*
X427354994Y-188646102D03*
D13*
X427354994Y-188001102D03*
D14*
X427354994Y-186026102D03*
D12*
X169545000Y-213683136D03*
D13*
X169545000Y-213038136D03*
D14*
X169545000Y-211063136D03*
D12*
X189376538Y-213683136D03*
D13*
X189376538Y-213038136D03*
D14*
X189376538Y-211063136D03*
D12*
X209208076Y-213683136D03*
D13*
X209208076Y-213038136D03*
D14*
X209208076Y-211063136D03*
D12*
X229039614Y-213683136D03*
D13*
X229039614Y-213038136D03*
D14*
X229039614Y-211063136D03*
D12*
X248871152Y-213683136D03*
D13*
X248871152Y-213038136D03*
D14*
X248871152Y-211063136D03*
D12*
X268702690Y-213683136D03*
D13*
X268702690Y-213038136D03*
D14*
X268702690Y-211063136D03*
D12*
X288534228Y-213683136D03*
D13*
X288534228Y-213038136D03*
D14*
X288534228Y-211063136D03*
D12*
X308365766Y-213683136D03*
D13*
X308365766Y-213038136D03*
D14*
X308365766Y-211063136D03*
D12*
X328197304Y-213683136D03*
D13*
X328197304Y-213038136D03*
D14*
X328197304Y-211063136D03*
D12*
X348028842Y-213683136D03*
D13*
X348028842Y-213038136D03*
D14*
X348028842Y-211063136D03*
D12*
X367860380Y-213683136D03*
D13*
X367860380Y-213038136D03*
D14*
X367860380Y-211063136D03*
D12*
X387691918Y-213683136D03*
D13*
X387691918Y-213038136D03*
D14*
X387691918Y-211063136D03*
D12*
X407523456Y-213683136D03*
D13*
X407523456Y-213038136D03*
D14*
X407523456Y-211063136D03*
D12*
X427354994Y-213683136D03*
D13*
X427354994Y-213038136D03*
D14*
X427354994Y-211063136D03*
D12*
X169545000Y-238720170D03*
D13*
X169545000Y-238075170D03*
D14*
X169545000Y-236100170D03*
D12*
X189376538Y-238720170D03*
D13*
X189376538Y-238075170D03*
D14*
X189376538Y-236100170D03*
D12*
X209208076Y-238720170D03*
D13*
X209208076Y-238075170D03*
D14*
X209208076Y-236100170D03*
D12*
X229039614Y-238720170D03*
D13*
X229039614Y-238075170D03*
D14*
X229039614Y-236100170D03*
D12*
X248871152Y-238720170D03*
D13*
X248871152Y-238075170D03*
D14*
X248871152Y-236100170D03*
D12*
X268702690Y-238720170D03*
D13*
X268702690Y-238075170D03*
D14*
X268702690Y-236100170D03*
D12*
X288534228Y-238720170D03*
D13*
X288534228Y-238075170D03*
D14*
X288534228Y-236100170D03*
D12*
X308365766Y-238720170D03*
D13*
X308365766Y-238075170D03*
D14*
X308365766Y-236100170D03*
D12*
X328197304Y-238720170D03*
D13*
X328197304Y-238075170D03*
D14*
X328197304Y-236100170D03*
D12*
X348028842Y-238720170D03*
D13*
X348028842Y-238075170D03*
D14*
X348028842Y-236100170D03*
D12*
X367860380Y-238720170D03*
D13*
X367860380Y-238075170D03*
D14*
X367860380Y-236100170D03*
D12*
X387691918Y-238720170D03*
D13*
X387691918Y-238075170D03*
D14*
X387691918Y-236100170D03*
D12*
X407523456Y-238720170D03*
D13*
X407523456Y-238075170D03*
D14*
X407523456Y-236100170D03*
D12*
X427354994Y-238720170D03*
D13*
X427354994Y-238075170D03*
D14*
X427354994Y-236100170D03*
D12*
X169545000Y-263757204D03*
D13*
X169545000Y-263112204D03*
D14*
X169545000Y-261137204D03*
D12*
X189376538Y-263757204D03*
D13*
X189376538Y-263112204D03*
D14*
X189376538Y-261137204D03*
D12*
X209208076Y-263757204D03*
D13*
X209208076Y-263112204D03*
D14*
X209208076Y-261137204D03*
D12*
X229039614Y-263757204D03*
D13*
X229039614Y-263112204D03*
D14*
X229039614Y-261137204D03*
D12*
X248871152Y-263757204D03*
D13*
X248871152Y-263112204D03*
D14*
X248871152Y-261137204D03*
D12*
X268702690Y-263757204D03*
D13*
X268702690Y-263112204D03*
D14*
X268702690Y-261137204D03*
D12*
X288534228Y-263757204D03*
D13*
X288534228Y-263112204D03*
D14*
X288534228Y-261137204D03*
D12*
X308365766Y-263757204D03*
D13*
X308365766Y-263112204D03*
D14*
X308365766Y-261137204D03*
D12*
X328197304Y-263757204D03*
D13*
X328197304Y-263112204D03*
D14*
X328197304Y-261137204D03*
D12*
X348028842Y-263757204D03*
D13*
X348028842Y-263112204D03*
D14*
X348028842Y-261137204D03*
D12*
X367860380Y-263757204D03*
D13*
X367860380Y-263112204D03*
D14*
X367860380Y-261137204D03*
D12*
X387691918Y-263757204D03*
D13*
X387691918Y-263112204D03*
D14*
X387691918Y-261137204D03*
D12*
X407523456Y-263757204D03*
D13*
X407523456Y-263112204D03*
D14*
X407523456Y-261137204D03*
D12*
X427354994Y-263757204D03*
D13*
X427354994Y-263112204D03*
D14*
X427354994Y-261137204D03*
D12*
X169545000Y-288794238D03*
D13*
X169545000Y-288149238D03*
D14*
X169545000Y-286174238D03*
D12*
X189376538Y-288794238D03*
D13*
X189376538Y-288149238D03*
D14*
X189376538Y-286174238D03*
D12*
X209208076Y-288794238D03*
D13*
X209208076Y-288149238D03*
D14*
X209208076Y-286174238D03*
D12*
X229039614Y-288794238D03*
D13*
X229039614Y-288149238D03*
D14*
X229039614Y-286174238D03*
D12*
X248871152Y-288794238D03*
D13*
X248871152Y-288149238D03*
D14*
X248871152Y-286174238D03*
D12*
X268702690Y-288794238D03*
D13*
X268702690Y-288149238D03*
D14*
X268702690Y-286174238D03*
D12*
X288534228Y-288794238D03*
D13*
X288534228Y-288149238D03*
D14*
X288534228Y-286174238D03*
D12*
X308365766Y-288794238D03*
D13*
X308365766Y-288149238D03*
D14*
X308365766Y-286174238D03*
D12*
X328197304Y-288794238D03*
D13*
X328197304Y-288149238D03*
D14*
X328197304Y-286174238D03*
D12*
X348028842Y-288794238D03*
D13*
X348028842Y-288149238D03*
D14*
X348028842Y-286174238D03*
D12*
X367860380Y-288794238D03*
D13*
X367860380Y-288149238D03*
D14*
X367860380Y-286174238D03*
D12*
X387691918Y-288794238D03*
D13*
X387691918Y-288149238D03*
D14*
X387691918Y-286174238D03*
D12*
X407523456Y-288794238D03*
D13*
X407523456Y-288149238D03*
D14*
X407523456Y-286174238D03*
D12*
X427354994Y-288794238D03*
D13*
X427354994Y-288149238D03*
D14*
X427354994Y-286174238D03*
D15*
X236295200Y-296670000D03*
X240995200Y-299670000D03*
D16*
X240995200Y-293670000D03*
D17*
X160416000Y-109855000D03*
D18*
G36*
X160422112Y-108905602D02*
G01*
X160440534Y-108905602D01*
X160460140Y-108906565D01*
X160508971Y-108911375D01*
X160528380Y-108914254D01*
X160576505Y-108923826D01*
X160595548Y-108928596D01*
X160642503Y-108942840D01*
X160660980Y-108949451D01*
X160706313Y-108968228D01*
X160724061Y-108976623D01*
X160767334Y-108999754D01*
X160784162Y-109009840D01*
X160824961Y-109037100D01*
X160840730Y-109048795D01*
X160878659Y-109079923D01*
X160893200Y-109093103D01*
X160927897Y-109127800D01*
X160941077Y-109142341D01*
X160972205Y-109180270D01*
X160983900Y-109196039D01*
X161011160Y-109236838D01*
X161021246Y-109253666D01*
X161044377Y-109296939D01*
X161052772Y-109314687D01*
X161071549Y-109360020D01*
X161078160Y-109378497D01*
X161092404Y-109425452D01*
X161097174Y-109444495D01*
X161106746Y-109492620D01*
X161109625Y-109512029D01*
X161114435Y-109560860D01*
X161115398Y-109580466D01*
X161115398Y-109598888D01*
X161116000Y-109605000D01*
X161116000Y-110105000D01*
X161115398Y-110111112D01*
X161115398Y-110129534D01*
X161114435Y-110149140D01*
X161109625Y-110197971D01*
X161106746Y-110217380D01*
X161097174Y-110265505D01*
X161092404Y-110284548D01*
X161078160Y-110331503D01*
X161071549Y-110349980D01*
X161052772Y-110395313D01*
X161044377Y-110413061D01*
X161021246Y-110456334D01*
X161011160Y-110473162D01*
X160983900Y-110513961D01*
X160972205Y-110529730D01*
X160941077Y-110567659D01*
X160927897Y-110582200D01*
X160893200Y-110616897D01*
X160878659Y-110630077D01*
X160840730Y-110661205D01*
X160824961Y-110672900D01*
X160784162Y-110700160D01*
X160767334Y-110710246D01*
X160724061Y-110733377D01*
X160706313Y-110741772D01*
X160660980Y-110760549D01*
X160642503Y-110767160D01*
X160595548Y-110781404D01*
X160576505Y-110786174D01*
X160528380Y-110795746D01*
X160508971Y-110798625D01*
X160460140Y-110803435D01*
X160440534Y-110804398D01*
X160422112Y-110804398D01*
X160416000Y-110805000D01*
X159916000Y-110805000D01*
X159876982Y-110801157D01*
X159839463Y-110789776D01*
X159804886Y-110771294D01*
X159774579Y-110746421D01*
X159749706Y-110716114D01*
X159731224Y-110681537D01*
X159719843Y-110644018D01*
X159716000Y-110605000D01*
X159716000Y-109105000D01*
X159719843Y-109065982D01*
X159731224Y-109028463D01*
X159749706Y-108993886D01*
X159774579Y-108963579D01*
X159804886Y-108938706D01*
X159839463Y-108920224D01*
X159876982Y-108908843D01*
X159916000Y-108905000D01*
X160416000Y-108905000D01*
X160422112Y-108905602D01*
X160422112Y-108905602D01*
G37*
D17*
X159116000Y-109855000D03*
D18*
G36*
X159655018Y-108908843D02*
G01*
X159692537Y-108920224D01*
X159727114Y-108938706D01*
X159757421Y-108963579D01*
X159782294Y-108993886D01*
X159800776Y-109028463D01*
X159812157Y-109065982D01*
X159816000Y-109105000D01*
X159816000Y-110605000D01*
X159812157Y-110644018D01*
X159800776Y-110681537D01*
X159782294Y-110716114D01*
X159757421Y-110746421D01*
X159727114Y-110771294D01*
X159692537Y-110789776D01*
X159655018Y-110801157D01*
X159616000Y-110805000D01*
X159116000Y-110805000D01*
X159109888Y-110804398D01*
X159091466Y-110804398D01*
X159071860Y-110803435D01*
X159023029Y-110798625D01*
X159003620Y-110795746D01*
X158955495Y-110786174D01*
X158936452Y-110781404D01*
X158889497Y-110767160D01*
X158871020Y-110760549D01*
X158825687Y-110741772D01*
X158807939Y-110733377D01*
X158764666Y-110710246D01*
X158747838Y-110700160D01*
X158707039Y-110672900D01*
X158691270Y-110661205D01*
X158653341Y-110630077D01*
X158638800Y-110616897D01*
X158604103Y-110582200D01*
X158590923Y-110567659D01*
X158559795Y-110529730D01*
X158548100Y-110513961D01*
X158520840Y-110473162D01*
X158510754Y-110456334D01*
X158487623Y-110413061D01*
X158479228Y-110395313D01*
X158460451Y-110349980D01*
X158453840Y-110331503D01*
X158439596Y-110284548D01*
X158434826Y-110265505D01*
X158425254Y-110217380D01*
X158422375Y-110197971D01*
X158417565Y-110149140D01*
X158416602Y-110129534D01*
X158416602Y-110111112D01*
X158416000Y-110105000D01*
X158416000Y-109605000D01*
X158416602Y-109598888D01*
X158416602Y-109580466D01*
X158417565Y-109560860D01*
X158422375Y-109512029D01*
X158425254Y-109492620D01*
X158434826Y-109444495D01*
X158439596Y-109425452D01*
X158453840Y-109378497D01*
X158460451Y-109360020D01*
X158479228Y-109314687D01*
X158487623Y-109296939D01*
X158510754Y-109253666D01*
X158520840Y-109236838D01*
X158548100Y-109196039D01*
X158559795Y-109180270D01*
X158590923Y-109142341D01*
X158604103Y-109127800D01*
X158638800Y-109093103D01*
X158653341Y-109079923D01*
X158691270Y-109048795D01*
X158707039Y-109037100D01*
X158747838Y-109009840D01*
X158764666Y-108999754D01*
X158807939Y-108976623D01*
X158825687Y-108968228D01*
X158871020Y-108949451D01*
X158889497Y-108942840D01*
X158936452Y-108928596D01*
X158955495Y-108923826D01*
X159003620Y-108914254D01*
X159023029Y-108911375D01*
X159071860Y-108906565D01*
X159091466Y-108905602D01*
X159109888Y-108905602D01*
X159116000Y-108905000D01*
X159616000Y-108905000D01*
X159655018Y-108908843D01*
X159655018Y-108908843D01*
G37*
D17*
X180736000Y-105791000D03*
D18*
G36*
X180742112Y-104841602D02*
G01*
X180760534Y-104841602D01*
X180780140Y-104842565D01*
X180828971Y-104847375D01*
X180848380Y-104850254D01*
X180896505Y-104859826D01*
X180915548Y-104864596D01*
X180962503Y-104878840D01*
X180980980Y-104885451D01*
X181026313Y-104904228D01*
X181044061Y-104912623D01*
X181087334Y-104935754D01*
X181104162Y-104945840D01*
X181144961Y-104973100D01*
X181160730Y-104984795D01*
X181198659Y-105015923D01*
X181213200Y-105029103D01*
X181247897Y-105063800D01*
X181261077Y-105078341D01*
X181292205Y-105116270D01*
X181303900Y-105132039D01*
X181331160Y-105172838D01*
X181341246Y-105189666D01*
X181364377Y-105232939D01*
X181372772Y-105250687D01*
X181391549Y-105296020D01*
X181398160Y-105314497D01*
X181412404Y-105361452D01*
X181417174Y-105380495D01*
X181426746Y-105428620D01*
X181429625Y-105448029D01*
X181434435Y-105496860D01*
X181435398Y-105516466D01*
X181435398Y-105534888D01*
X181436000Y-105541000D01*
X181436000Y-106041000D01*
X181435398Y-106047112D01*
X181435398Y-106065534D01*
X181434435Y-106085140D01*
X181429625Y-106133971D01*
X181426746Y-106153380D01*
X181417174Y-106201505D01*
X181412404Y-106220548D01*
X181398160Y-106267503D01*
X181391549Y-106285980D01*
X181372772Y-106331313D01*
X181364377Y-106349061D01*
X181341246Y-106392334D01*
X181331160Y-106409162D01*
X181303900Y-106449961D01*
X181292205Y-106465730D01*
X181261077Y-106503659D01*
X181247897Y-106518200D01*
X181213200Y-106552897D01*
X181198659Y-106566077D01*
X181160730Y-106597205D01*
X181144961Y-106608900D01*
X181104162Y-106636160D01*
X181087334Y-106646246D01*
X181044061Y-106669377D01*
X181026313Y-106677772D01*
X180980980Y-106696549D01*
X180962503Y-106703160D01*
X180915548Y-106717404D01*
X180896505Y-106722174D01*
X180848380Y-106731746D01*
X180828971Y-106734625D01*
X180780140Y-106739435D01*
X180760534Y-106740398D01*
X180742112Y-106740398D01*
X180736000Y-106741000D01*
X180236000Y-106741000D01*
X180196982Y-106737157D01*
X180159463Y-106725776D01*
X180124886Y-106707294D01*
X180094579Y-106682421D01*
X180069706Y-106652114D01*
X180051224Y-106617537D01*
X180039843Y-106580018D01*
X180036000Y-106541000D01*
X180036000Y-105041000D01*
X180039843Y-105001982D01*
X180051224Y-104964463D01*
X180069706Y-104929886D01*
X180094579Y-104899579D01*
X180124886Y-104874706D01*
X180159463Y-104856224D01*
X180196982Y-104844843D01*
X180236000Y-104841000D01*
X180736000Y-104841000D01*
X180742112Y-104841602D01*
X180742112Y-104841602D01*
G37*
D17*
X179436000Y-105791000D03*
D18*
G36*
X179975018Y-104844843D02*
G01*
X180012537Y-104856224D01*
X180047114Y-104874706D01*
X180077421Y-104899579D01*
X180102294Y-104929886D01*
X180120776Y-104964463D01*
X180132157Y-105001982D01*
X180136000Y-105041000D01*
X180136000Y-106541000D01*
X180132157Y-106580018D01*
X180120776Y-106617537D01*
X180102294Y-106652114D01*
X180077421Y-106682421D01*
X180047114Y-106707294D01*
X180012537Y-106725776D01*
X179975018Y-106737157D01*
X179936000Y-106741000D01*
X179436000Y-106741000D01*
X179429888Y-106740398D01*
X179411466Y-106740398D01*
X179391860Y-106739435D01*
X179343029Y-106734625D01*
X179323620Y-106731746D01*
X179275495Y-106722174D01*
X179256452Y-106717404D01*
X179209497Y-106703160D01*
X179191020Y-106696549D01*
X179145687Y-106677772D01*
X179127939Y-106669377D01*
X179084666Y-106646246D01*
X179067838Y-106636160D01*
X179027039Y-106608900D01*
X179011270Y-106597205D01*
X178973341Y-106566077D01*
X178958800Y-106552897D01*
X178924103Y-106518200D01*
X178910923Y-106503659D01*
X178879795Y-106465730D01*
X178868100Y-106449961D01*
X178840840Y-106409162D01*
X178830754Y-106392334D01*
X178807623Y-106349061D01*
X178799228Y-106331313D01*
X178780451Y-106285980D01*
X178773840Y-106267503D01*
X178759596Y-106220548D01*
X178754826Y-106201505D01*
X178745254Y-106153380D01*
X178742375Y-106133971D01*
X178737565Y-106085140D01*
X178736602Y-106065534D01*
X178736602Y-106047112D01*
X178736000Y-106041000D01*
X178736000Y-105541000D01*
X178736602Y-105534888D01*
X178736602Y-105516466D01*
X178737565Y-105496860D01*
X178742375Y-105448029D01*
X178745254Y-105428620D01*
X178754826Y-105380495D01*
X178759596Y-105361452D01*
X178773840Y-105314497D01*
X178780451Y-105296020D01*
X178799228Y-105250687D01*
X178807623Y-105232939D01*
X178830754Y-105189666D01*
X178840840Y-105172838D01*
X178868100Y-105132039D01*
X178879795Y-105116270D01*
X178910923Y-105078341D01*
X178924103Y-105063800D01*
X178958800Y-105029103D01*
X178973341Y-105015923D01*
X179011270Y-104984795D01*
X179027039Y-104973100D01*
X179067838Y-104945840D01*
X179084666Y-104935754D01*
X179127939Y-104912623D01*
X179145687Y-104904228D01*
X179191020Y-104885451D01*
X179209497Y-104878840D01*
X179256452Y-104864596D01*
X179275495Y-104859826D01*
X179323620Y-104850254D01*
X179343029Y-104847375D01*
X179391860Y-104842565D01*
X179411466Y-104841602D01*
X179429888Y-104841602D01*
X179436000Y-104841000D01*
X179936000Y-104841000D01*
X179975018Y-104844843D01*
X179975018Y-104844843D01*
G37*
D11*
X159385000Y-102235000D03*
X437515000Y-102235000D03*
X437515000Y-297815000D03*
X258445000Y-221615000D03*
X258445000Y-297815000D03*
X338455000Y-221615000D03*
X338455000Y-297815000D03*
M02*
