G04 #@! TF.GenerationSoftware,KiCad,Pcbnew,(5.1.4)-1*
G04 #@! TF.CreationDate,2019-09-11T03:03:15-07:00*
G04 #@! TF.ProjectId,BrightBoard1,42726967-6874-4426-9f61-7264312e6b69,rev?*
G04 #@! TF.SameCoordinates,Original*
G04 #@! TF.FileFunction,Soldermask,Bot*
G04 #@! TF.FilePolarity,Negative*
%FSLAX46Y46*%
G04 Gerber Fmt 4.6, Leading zero omitted, Abs format (unit mm)*
G04 Created by KiCad (PCBNEW (5.1.4)-1) date 2019-09-11 03:03:15*
%MOMM*%
%LPD*%
G04 APERTURE LIST*
%ADD10C,1.270000*%
%ADD11C,7.400000*%
%ADD12C,0.100000*%
%ADD13C,1.550000*%
%ADD14R,2.800000X1.140000*%
%ADD15C,3.000000*%
%ADD16R,3.000000X3.000000*%
%ADD17C,0.500000*%
%ADD18R,4.600000X2.800000*%
%ADD19R,1.200000X1.300000*%
%ADD20R,1.100000X2.200000*%
%ADD21R,2.200000X1.100000*%
%ADD22R,1.240000X2.800000*%
%ADD23R,0.900000X0.650000*%
%ADD24C,0.900000*%
%ADD25C,1.925000*%
G04 APERTURE END LIST*
D10*
X442595000Y-302895000D02*
X442595000Y-97155000D01*
X154305000Y-97155000D02*
X154305000Y-302895000D01*
X442595000Y-97155000D02*
X154305000Y-97155000D01*
X154305000Y-302895000D02*
X442595000Y-302895000D01*
D11*
X159385000Y-297815000D03*
D12*
G36*
X208723671Y-268000423D02*
G01*
X208756381Y-268005275D01*
X208788457Y-268013309D01*
X208819591Y-268024449D01*
X208849484Y-268038587D01*
X208877847Y-268055587D01*
X208904407Y-268075285D01*
X208928908Y-268097492D01*
X208951115Y-268121993D01*
X208970813Y-268148553D01*
X208987813Y-268176916D01*
X209001951Y-268206809D01*
X209013091Y-268237943D01*
X209021125Y-268270019D01*
X209025977Y-268302729D01*
X209027600Y-268335756D01*
X209027600Y-269211844D01*
X209025977Y-269244871D01*
X209021125Y-269277581D01*
X209013091Y-269309657D01*
X209001951Y-269340791D01*
X208987813Y-269370684D01*
X208970813Y-269399047D01*
X208951115Y-269425607D01*
X208928908Y-269450108D01*
X208904407Y-269472315D01*
X208877847Y-269492013D01*
X208849484Y-269509013D01*
X208819591Y-269523151D01*
X208788457Y-269534291D01*
X208756381Y-269542325D01*
X208723671Y-269547177D01*
X208690644Y-269548800D01*
X207564556Y-269548800D01*
X207531529Y-269547177D01*
X207498819Y-269542325D01*
X207466743Y-269534291D01*
X207435609Y-269523151D01*
X207405716Y-269509013D01*
X207377353Y-269492013D01*
X207350793Y-269472315D01*
X207326292Y-269450108D01*
X207304085Y-269425607D01*
X207284387Y-269399047D01*
X207267387Y-269370684D01*
X207253249Y-269340791D01*
X207242109Y-269309657D01*
X207234075Y-269277581D01*
X207229223Y-269244871D01*
X207227600Y-269211844D01*
X207227600Y-268335756D01*
X207229223Y-268302729D01*
X207234075Y-268270019D01*
X207242109Y-268237943D01*
X207253249Y-268206809D01*
X207267387Y-268176916D01*
X207284387Y-268148553D01*
X207304085Y-268121993D01*
X207326292Y-268097492D01*
X207350793Y-268075285D01*
X207377353Y-268055587D01*
X207405716Y-268038587D01*
X207435609Y-268024449D01*
X207466743Y-268013309D01*
X207498819Y-268005275D01*
X207531529Y-268000423D01*
X207564556Y-267998800D01*
X208690644Y-267998800D01*
X208723671Y-268000423D01*
X208723671Y-268000423D01*
G37*
D13*
X208127600Y-268773800D03*
D12*
G36*
X208723671Y-270050423D02*
G01*
X208756381Y-270055275D01*
X208788457Y-270063309D01*
X208819591Y-270074449D01*
X208849484Y-270088587D01*
X208877847Y-270105587D01*
X208904407Y-270125285D01*
X208928908Y-270147492D01*
X208951115Y-270171993D01*
X208970813Y-270198553D01*
X208987813Y-270226916D01*
X209001951Y-270256809D01*
X209013091Y-270287943D01*
X209021125Y-270320019D01*
X209025977Y-270352729D01*
X209027600Y-270385756D01*
X209027600Y-271261844D01*
X209025977Y-271294871D01*
X209021125Y-271327581D01*
X209013091Y-271359657D01*
X209001951Y-271390791D01*
X208987813Y-271420684D01*
X208970813Y-271449047D01*
X208951115Y-271475607D01*
X208928908Y-271500108D01*
X208904407Y-271522315D01*
X208877847Y-271542013D01*
X208849484Y-271559013D01*
X208819591Y-271573151D01*
X208788457Y-271584291D01*
X208756381Y-271592325D01*
X208723671Y-271597177D01*
X208690644Y-271598800D01*
X207564556Y-271598800D01*
X207531529Y-271597177D01*
X207498819Y-271592325D01*
X207466743Y-271584291D01*
X207435609Y-271573151D01*
X207405716Y-271559013D01*
X207377353Y-271542013D01*
X207350793Y-271522315D01*
X207326292Y-271500108D01*
X207304085Y-271475607D01*
X207284387Y-271449047D01*
X207267387Y-271420684D01*
X207253249Y-271390791D01*
X207242109Y-271359657D01*
X207234075Y-271327581D01*
X207229223Y-271294871D01*
X207227600Y-271261844D01*
X207227600Y-270385756D01*
X207229223Y-270352729D01*
X207234075Y-270320019D01*
X207242109Y-270287943D01*
X207253249Y-270256809D01*
X207267387Y-270226916D01*
X207284387Y-270198553D01*
X207304085Y-270171993D01*
X207326292Y-270147492D01*
X207350793Y-270125285D01*
X207377353Y-270105587D01*
X207405716Y-270088587D01*
X207435609Y-270074449D01*
X207466743Y-270063309D01*
X207498819Y-270055275D01*
X207531529Y-270050423D01*
X207564556Y-270048800D01*
X208690644Y-270048800D01*
X208723671Y-270050423D01*
X208723671Y-270050423D01*
G37*
D13*
X208127600Y-270823800D03*
D12*
G36*
X211162071Y-268000423D02*
G01*
X211194781Y-268005275D01*
X211226857Y-268013309D01*
X211257991Y-268024449D01*
X211287884Y-268038587D01*
X211316247Y-268055587D01*
X211342807Y-268075285D01*
X211367308Y-268097492D01*
X211389515Y-268121993D01*
X211409213Y-268148553D01*
X211426213Y-268176916D01*
X211440351Y-268206809D01*
X211451491Y-268237943D01*
X211459525Y-268270019D01*
X211464377Y-268302729D01*
X211466000Y-268335756D01*
X211466000Y-269211844D01*
X211464377Y-269244871D01*
X211459525Y-269277581D01*
X211451491Y-269309657D01*
X211440351Y-269340791D01*
X211426213Y-269370684D01*
X211409213Y-269399047D01*
X211389515Y-269425607D01*
X211367308Y-269450108D01*
X211342807Y-269472315D01*
X211316247Y-269492013D01*
X211287884Y-269509013D01*
X211257991Y-269523151D01*
X211226857Y-269534291D01*
X211194781Y-269542325D01*
X211162071Y-269547177D01*
X211129044Y-269548800D01*
X210002956Y-269548800D01*
X209969929Y-269547177D01*
X209937219Y-269542325D01*
X209905143Y-269534291D01*
X209874009Y-269523151D01*
X209844116Y-269509013D01*
X209815753Y-269492013D01*
X209789193Y-269472315D01*
X209764692Y-269450108D01*
X209742485Y-269425607D01*
X209722787Y-269399047D01*
X209705787Y-269370684D01*
X209691649Y-269340791D01*
X209680509Y-269309657D01*
X209672475Y-269277581D01*
X209667623Y-269244871D01*
X209666000Y-269211844D01*
X209666000Y-268335756D01*
X209667623Y-268302729D01*
X209672475Y-268270019D01*
X209680509Y-268237943D01*
X209691649Y-268206809D01*
X209705787Y-268176916D01*
X209722787Y-268148553D01*
X209742485Y-268121993D01*
X209764692Y-268097492D01*
X209789193Y-268075285D01*
X209815753Y-268055587D01*
X209844116Y-268038587D01*
X209874009Y-268024449D01*
X209905143Y-268013309D01*
X209937219Y-268005275D01*
X209969929Y-268000423D01*
X210002956Y-267998800D01*
X211129044Y-267998800D01*
X211162071Y-268000423D01*
X211162071Y-268000423D01*
G37*
D13*
X210566000Y-268773800D03*
D12*
G36*
X211162071Y-270050423D02*
G01*
X211194781Y-270055275D01*
X211226857Y-270063309D01*
X211257991Y-270074449D01*
X211287884Y-270088587D01*
X211316247Y-270105587D01*
X211342807Y-270125285D01*
X211367308Y-270147492D01*
X211389515Y-270171993D01*
X211409213Y-270198553D01*
X211426213Y-270226916D01*
X211440351Y-270256809D01*
X211451491Y-270287943D01*
X211459525Y-270320019D01*
X211464377Y-270352729D01*
X211466000Y-270385756D01*
X211466000Y-271261844D01*
X211464377Y-271294871D01*
X211459525Y-271327581D01*
X211451491Y-271359657D01*
X211440351Y-271390791D01*
X211426213Y-271420684D01*
X211409213Y-271449047D01*
X211389515Y-271475607D01*
X211367308Y-271500108D01*
X211342807Y-271522315D01*
X211316247Y-271542013D01*
X211287884Y-271559013D01*
X211257991Y-271573151D01*
X211226857Y-271584291D01*
X211194781Y-271592325D01*
X211162071Y-271597177D01*
X211129044Y-271598800D01*
X210002956Y-271598800D01*
X209969929Y-271597177D01*
X209937219Y-271592325D01*
X209905143Y-271584291D01*
X209874009Y-271573151D01*
X209844116Y-271559013D01*
X209815753Y-271542013D01*
X209789193Y-271522315D01*
X209764692Y-271500108D01*
X209742485Y-271475607D01*
X209722787Y-271449047D01*
X209705787Y-271420684D01*
X209691649Y-271390791D01*
X209680509Y-271359657D01*
X209672475Y-271327581D01*
X209667623Y-271294871D01*
X209666000Y-271261844D01*
X209666000Y-270385756D01*
X209667623Y-270352729D01*
X209672475Y-270320019D01*
X209680509Y-270287943D01*
X209691649Y-270256809D01*
X209705787Y-270226916D01*
X209722787Y-270198553D01*
X209742485Y-270171993D01*
X209764692Y-270147492D01*
X209789193Y-270125285D01*
X209815753Y-270105587D01*
X209844116Y-270088587D01*
X209874009Y-270074449D01*
X209905143Y-270063309D01*
X209937219Y-270055275D01*
X209969929Y-270050423D01*
X210002956Y-270048800D01*
X211129044Y-270048800D01*
X211162071Y-270050423D01*
X211162071Y-270050423D01*
G37*
D13*
X210566000Y-270823800D03*
D12*
G36*
X193239071Y-136261623D02*
G01*
X193271781Y-136266475D01*
X193303857Y-136274509D01*
X193334991Y-136285649D01*
X193364884Y-136299787D01*
X193393247Y-136316787D01*
X193419807Y-136336485D01*
X193444308Y-136358692D01*
X193466515Y-136383193D01*
X193486213Y-136409753D01*
X193503213Y-136438116D01*
X193517351Y-136468009D01*
X193528491Y-136499143D01*
X193536525Y-136531219D01*
X193541377Y-136563929D01*
X193543000Y-136596956D01*
X193543000Y-137723044D01*
X193541377Y-137756071D01*
X193536525Y-137788781D01*
X193528491Y-137820857D01*
X193517351Y-137851991D01*
X193503213Y-137881884D01*
X193486213Y-137910247D01*
X193466515Y-137936807D01*
X193444308Y-137961308D01*
X193419807Y-137983515D01*
X193393247Y-138003213D01*
X193364884Y-138020213D01*
X193334991Y-138034351D01*
X193303857Y-138045491D01*
X193271781Y-138053525D01*
X193239071Y-138058377D01*
X193206044Y-138060000D01*
X192329956Y-138060000D01*
X192296929Y-138058377D01*
X192264219Y-138053525D01*
X192232143Y-138045491D01*
X192201009Y-138034351D01*
X192171116Y-138020213D01*
X192142753Y-138003213D01*
X192116193Y-137983515D01*
X192091692Y-137961308D01*
X192069485Y-137936807D01*
X192049787Y-137910247D01*
X192032787Y-137881884D01*
X192018649Y-137851991D01*
X192007509Y-137820857D01*
X191999475Y-137788781D01*
X191994623Y-137756071D01*
X191993000Y-137723044D01*
X191993000Y-136596956D01*
X191994623Y-136563929D01*
X191999475Y-136531219D01*
X192007509Y-136499143D01*
X192018649Y-136468009D01*
X192032787Y-136438116D01*
X192049787Y-136409753D01*
X192069485Y-136383193D01*
X192091692Y-136358692D01*
X192116193Y-136336485D01*
X192142753Y-136316787D01*
X192171116Y-136299787D01*
X192201009Y-136285649D01*
X192232143Y-136274509D01*
X192264219Y-136266475D01*
X192296929Y-136261623D01*
X192329956Y-136260000D01*
X193206044Y-136260000D01*
X193239071Y-136261623D01*
X193239071Y-136261623D01*
G37*
D13*
X192768000Y-137160000D03*
D12*
G36*
X195289071Y-136261623D02*
G01*
X195321781Y-136266475D01*
X195353857Y-136274509D01*
X195384991Y-136285649D01*
X195414884Y-136299787D01*
X195443247Y-136316787D01*
X195469807Y-136336485D01*
X195494308Y-136358692D01*
X195516515Y-136383193D01*
X195536213Y-136409753D01*
X195553213Y-136438116D01*
X195567351Y-136468009D01*
X195578491Y-136499143D01*
X195586525Y-136531219D01*
X195591377Y-136563929D01*
X195593000Y-136596956D01*
X195593000Y-137723044D01*
X195591377Y-137756071D01*
X195586525Y-137788781D01*
X195578491Y-137820857D01*
X195567351Y-137851991D01*
X195553213Y-137881884D01*
X195536213Y-137910247D01*
X195516515Y-137936807D01*
X195494308Y-137961308D01*
X195469807Y-137983515D01*
X195443247Y-138003213D01*
X195414884Y-138020213D01*
X195384991Y-138034351D01*
X195353857Y-138045491D01*
X195321781Y-138053525D01*
X195289071Y-138058377D01*
X195256044Y-138060000D01*
X194379956Y-138060000D01*
X194346929Y-138058377D01*
X194314219Y-138053525D01*
X194282143Y-138045491D01*
X194251009Y-138034351D01*
X194221116Y-138020213D01*
X194192753Y-138003213D01*
X194166193Y-137983515D01*
X194141692Y-137961308D01*
X194119485Y-137936807D01*
X194099787Y-137910247D01*
X194082787Y-137881884D01*
X194068649Y-137851991D01*
X194057509Y-137820857D01*
X194049475Y-137788781D01*
X194044623Y-137756071D01*
X194043000Y-137723044D01*
X194043000Y-136596956D01*
X194044623Y-136563929D01*
X194049475Y-136531219D01*
X194057509Y-136499143D01*
X194068649Y-136468009D01*
X194082787Y-136438116D01*
X194099787Y-136409753D01*
X194119485Y-136383193D01*
X194141692Y-136358692D01*
X194166193Y-136336485D01*
X194192753Y-136316787D01*
X194221116Y-136299787D01*
X194251009Y-136285649D01*
X194282143Y-136274509D01*
X194314219Y-136266475D01*
X194346929Y-136261623D01*
X194379956Y-136260000D01*
X195256044Y-136260000D01*
X195289071Y-136261623D01*
X195289071Y-136261623D01*
G37*
D13*
X194818000Y-137160000D03*
D12*
G36*
X176729071Y-136261623D02*
G01*
X176761781Y-136266475D01*
X176793857Y-136274509D01*
X176824991Y-136285649D01*
X176854884Y-136299787D01*
X176883247Y-136316787D01*
X176909807Y-136336485D01*
X176934308Y-136358692D01*
X176956515Y-136383193D01*
X176976213Y-136409753D01*
X176993213Y-136438116D01*
X177007351Y-136468009D01*
X177018491Y-136499143D01*
X177026525Y-136531219D01*
X177031377Y-136563929D01*
X177033000Y-136596956D01*
X177033000Y-137723044D01*
X177031377Y-137756071D01*
X177026525Y-137788781D01*
X177018491Y-137820857D01*
X177007351Y-137851991D01*
X176993213Y-137881884D01*
X176976213Y-137910247D01*
X176956515Y-137936807D01*
X176934308Y-137961308D01*
X176909807Y-137983515D01*
X176883247Y-138003213D01*
X176854884Y-138020213D01*
X176824991Y-138034351D01*
X176793857Y-138045491D01*
X176761781Y-138053525D01*
X176729071Y-138058377D01*
X176696044Y-138060000D01*
X175819956Y-138060000D01*
X175786929Y-138058377D01*
X175754219Y-138053525D01*
X175722143Y-138045491D01*
X175691009Y-138034351D01*
X175661116Y-138020213D01*
X175632753Y-138003213D01*
X175606193Y-137983515D01*
X175581692Y-137961308D01*
X175559485Y-137936807D01*
X175539787Y-137910247D01*
X175522787Y-137881884D01*
X175508649Y-137851991D01*
X175497509Y-137820857D01*
X175489475Y-137788781D01*
X175484623Y-137756071D01*
X175483000Y-137723044D01*
X175483000Y-136596956D01*
X175484623Y-136563929D01*
X175489475Y-136531219D01*
X175497509Y-136499143D01*
X175508649Y-136468009D01*
X175522787Y-136438116D01*
X175539787Y-136409753D01*
X175559485Y-136383193D01*
X175581692Y-136358692D01*
X175606193Y-136336485D01*
X175632753Y-136316787D01*
X175661116Y-136299787D01*
X175691009Y-136285649D01*
X175722143Y-136274509D01*
X175754219Y-136266475D01*
X175786929Y-136261623D01*
X175819956Y-136260000D01*
X176696044Y-136260000D01*
X176729071Y-136261623D01*
X176729071Y-136261623D01*
G37*
D13*
X176258000Y-137160000D03*
D12*
G36*
X178779071Y-136261623D02*
G01*
X178811781Y-136266475D01*
X178843857Y-136274509D01*
X178874991Y-136285649D01*
X178904884Y-136299787D01*
X178933247Y-136316787D01*
X178959807Y-136336485D01*
X178984308Y-136358692D01*
X179006515Y-136383193D01*
X179026213Y-136409753D01*
X179043213Y-136438116D01*
X179057351Y-136468009D01*
X179068491Y-136499143D01*
X179076525Y-136531219D01*
X179081377Y-136563929D01*
X179083000Y-136596956D01*
X179083000Y-137723044D01*
X179081377Y-137756071D01*
X179076525Y-137788781D01*
X179068491Y-137820857D01*
X179057351Y-137851991D01*
X179043213Y-137881884D01*
X179026213Y-137910247D01*
X179006515Y-137936807D01*
X178984308Y-137961308D01*
X178959807Y-137983515D01*
X178933247Y-138003213D01*
X178904884Y-138020213D01*
X178874991Y-138034351D01*
X178843857Y-138045491D01*
X178811781Y-138053525D01*
X178779071Y-138058377D01*
X178746044Y-138060000D01*
X177869956Y-138060000D01*
X177836929Y-138058377D01*
X177804219Y-138053525D01*
X177772143Y-138045491D01*
X177741009Y-138034351D01*
X177711116Y-138020213D01*
X177682753Y-138003213D01*
X177656193Y-137983515D01*
X177631692Y-137961308D01*
X177609485Y-137936807D01*
X177589787Y-137910247D01*
X177572787Y-137881884D01*
X177558649Y-137851991D01*
X177547509Y-137820857D01*
X177539475Y-137788781D01*
X177534623Y-137756071D01*
X177533000Y-137723044D01*
X177533000Y-136596956D01*
X177534623Y-136563929D01*
X177539475Y-136531219D01*
X177547509Y-136499143D01*
X177558649Y-136468009D01*
X177572787Y-136438116D01*
X177589787Y-136409753D01*
X177609485Y-136383193D01*
X177631692Y-136358692D01*
X177656193Y-136336485D01*
X177682753Y-136316787D01*
X177711116Y-136299787D01*
X177741009Y-136285649D01*
X177772143Y-136274509D01*
X177804219Y-136266475D01*
X177836929Y-136261623D01*
X177869956Y-136260000D01*
X178746044Y-136260000D01*
X178779071Y-136261623D01*
X178779071Y-136261623D01*
G37*
D13*
X178308000Y-137160000D03*
D12*
G36*
X241591271Y-275620423D02*
G01*
X241623981Y-275625275D01*
X241656057Y-275633309D01*
X241687191Y-275644449D01*
X241717084Y-275658587D01*
X241745447Y-275675587D01*
X241772007Y-275695285D01*
X241796508Y-275717492D01*
X241818715Y-275741993D01*
X241838413Y-275768553D01*
X241855413Y-275796916D01*
X241869551Y-275826809D01*
X241880691Y-275857943D01*
X241888725Y-275890019D01*
X241893577Y-275922729D01*
X241895200Y-275955756D01*
X241895200Y-276831844D01*
X241893577Y-276864871D01*
X241888725Y-276897581D01*
X241880691Y-276929657D01*
X241869551Y-276960791D01*
X241855413Y-276990684D01*
X241838413Y-277019047D01*
X241818715Y-277045607D01*
X241796508Y-277070108D01*
X241772007Y-277092315D01*
X241745447Y-277112013D01*
X241717084Y-277129013D01*
X241687191Y-277143151D01*
X241656057Y-277154291D01*
X241623981Y-277162325D01*
X241591271Y-277167177D01*
X241558244Y-277168800D01*
X240432156Y-277168800D01*
X240399129Y-277167177D01*
X240366419Y-277162325D01*
X240334343Y-277154291D01*
X240303209Y-277143151D01*
X240273316Y-277129013D01*
X240244953Y-277112013D01*
X240218393Y-277092315D01*
X240193892Y-277070108D01*
X240171685Y-277045607D01*
X240151987Y-277019047D01*
X240134987Y-276990684D01*
X240120849Y-276960791D01*
X240109709Y-276929657D01*
X240101675Y-276897581D01*
X240096823Y-276864871D01*
X240095200Y-276831844D01*
X240095200Y-275955756D01*
X240096823Y-275922729D01*
X240101675Y-275890019D01*
X240109709Y-275857943D01*
X240120849Y-275826809D01*
X240134987Y-275796916D01*
X240151987Y-275768553D01*
X240171685Y-275741993D01*
X240193892Y-275717492D01*
X240218393Y-275695285D01*
X240244953Y-275675587D01*
X240273316Y-275658587D01*
X240303209Y-275644449D01*
X240334343Y-275633309D01*
X240366419Y-275625275D01*
X240399129Y-275620423D01*
X240432156Y-275618800D01*
X241558244Y-275618800D01*
X241591271Y-275620423D01*
X241591271Y-275620423D01*
G37*
D13*
X240995200Y-276393800D03*
D12*
G36*
X241591271Y-277670423D02*
G01*
X241623981Y-277675275D01*
X241656057Y-277683309D01*
X241687191Y-277694449D01*
X241717084Y-277708587D01*
X241745447Y-277725587D01*
X241772007Y-277745285D01*
X241796508Y-277767492D01*
X241818715Y-277791993D01*
X241838413Y-277818553D01*
X241855413Y-277846916D01*
X241869551Y-277876809D01*
X241880691Y-277907943D01*
X241888725Y-277940019D01*
X241893577Y-277972729D01*
X241895200Y-278005756D01*
X241895200Y-278881844D01*
X241893577Y-278914871D01*
X241888725Y-278947581D01*
X241880691Y-278979657D01*
X241869551Y-279010791D01*
X241855413Y-279040684D01*
X241838413Y-279069047D01*
X241818715Y-279095607D01*
X241796508Y-279120108D01*
X241772007Y-279142315D01*
X241745447Y-279162013D01*
X241717084Y-279179013D01*
X241687191Y-279193151D01*
X241656057Y-279204291D01*
X241623981Y-279212325D01*
X241591271Y-279217177D01*
X241558244Y-279218800D01*
X240432156Y-279218800D01*
X240399129Y-279217177D01*
X240366419Y-279212325D01*
X240334343Y-279204291D01*
X240303209Y-279193151D01*
X240273316Y-279179013D01*
X240244953Y-279162013D01*
X240218393Y-279142315D01*
X240193892Y-279120108D01*
X240171685Y-279095607D01*
X240151987Y-279069047D01*
X240134987Y-279040684D01*
X240120849Y-279010791D01*
X240109709Y-278979657D01*
X240101675Y-278947581D01*
X240096823Y-278914871D01*
X240095200Y-278881844D01*
X240095200Y-278005756D01*
X240096823Y-277972729D01*
X240101675Y-277940019D01*
X240109709Y-277907943D01*
X240120849Y-277876809D01*
X240134987Y-277846916D01*
X240151987Y-277818553D01*
X240171685Y-277791993D01*
X240193892Y-277767492D01*
X240218393Y-277745285D01*
X240244953Y-277725587D01*
X240273316Y-277708587D01*
X240303209Y-277694449D01*
X240334343Y-277683309D01*
X240366419Y-277675275D01*
X240399129Y-277670423D01*
X240432156Y-277668800D01*
X241558244Y-277668800D01*
X241591271Y-277670423D01*
X241591271Y-277670423D01*
G37*
D13*
X240995200Y-278443800D03*
D12*
G36*
X238187671Y-284256423D02*
G01*
X238220381Y-284261275D01*
X238252457Y-284269309D01*
X238283591Y-284280449D01*
X238313484Y-284294587D01*
X238341847Y-284311587D01*
X238368407Y-284331285D01*
X238392908Y-284353492D01*
X238415115Y-284377993D01*
X238434813Y-284404553D01*
X238451813Y-284432916D01*
X238465951Y-284462809D01*
X238477091Y-284493943D01*
X238485125Y-284526019D01*
X238489977Y-284558729D01*
X238491600Y-284591756D01*
X238491600Y-285467844D01*
X238489977Y-285500871D01*
X238485125Y-285533581D01*
X238477091Y-285565657D01*
X238465951Y-285596791D01*
X238451813Y-285626684D01*
X238434813Y-285655047D01*
X238415115Y-285681607D01*
X238392908Y-285706108D01*
X238368407Y-285728315D01*
X238341847Y-285748013D01*
X238313484Y-285765013D01*
X238283591Y-285779151D01*
X238252457Y-285790291D01*
X238220381Y-285798325D01*
X238187671Y-285803177D01*
X238154644Y-285804800D01*
X237028556Y-285804800D01*
X236995529Y-285803177D01*
X236962819Y-285798325D01*
X236930743Y-285790291D01*
X236899609Y-285779151D01*
X236869716Y-285765013D01*
X236841353Y-285748013D01*
X236814793Y-285728315D01*
X236790292Y-285706108D01*
X236768085Y-285681607D01*
X236748387Y-285655047D01*
X236731387Y-285626684D01*
X236717249Y-285596791D01*
X236706109Y-285565657D01*
X236698075Y-285533581D01*
X236693223Y-285500871D01*
X236691600Y-285467844D01*
X236691600Y-284591756D01*
X236693223Y-284558729D01*
X236698075Y-284526019D01*
X236706109Y-284493943D01*
X236717249Y-284462809D01*
X236731387Y-284432916D01*
X236748387Y-284404553D01*
X236768085Y-284377993D01*
X236790292Y-284353492D01*
X236814793Y-284331285D01*
X236841353Y-284311587D01*
X236869716Y-284294587D01*
X236899609Y-284280449D01*
X236930743Y-284269309D01*
X236962819Y-284261275D01*
X236995529Y-284256423D01*
X237028556Y-284254800D01*
X238154644Y-284254800D01*
X238187671Y-284256423D01*
X238187671Y-284256423D01*
G37*
D13*
X237591600Y-285029800D03*
D12*
G36*
X238187671Y-286306423D02*
G01*
X238220381Y-286311275D01*
X238252457Y-286319309D01*
X238283591Y-286330449D01*
X238313484Y-286344587D01*
X238341847Y-286361587D01*
X238368407Y-286381285D01*
X238392908Y-286403492D01*
X238415115Y-286427993D01*
X238434813Y-286454553D01*
X238451813Y-286482916D01*
X238465951Y-286512809D01*
X238477091Y-286543943D01*
X238485125Y-286576019D01*
X238489977Y-286608729D01*
X238491600Y-286641756D01*
X238491600Y-287517844D01*
X238489977Y-287550871D01*
X238485125Y-287583581D01*
X238477091Y-287615657D01*
X238465951Y-287646791D01*
X238451813Y-287676684D01*
X238434813Y-287705047D01*
X238415115Y-287731607D01*
X238392908Y-287756108D01*
X238368407Y-287778315D01*
X238341847Y-287798013D01*
X238313484Y-287815013D01*
X238283591Y-287829151D01*
X238252457Y-287840291D01*
X238220381Y-287848325D01*
X238187671Y-287853177D01*
X238154644Y-287854800D01*
X237028556Y-287854800D01*
X236995529Y-287853177D01*
X236962819Y-287848325D01*
X236930743Y-287840291D01*
X236899609Y-287829151D01*
X236869716Y-287815013D01*
X236841353Y-287798013D01*
X236814793Y-287778315D01*
X236790292Y-287756108D01*
X236768085Y-287731607D01*
X236748387Y-287705047D01*
X236731387Y-287676684D01*
X236717249Y-287646791D01*
X236706109Y-287615657D01*
X236698075Y-287583581D01*
X236693223Y-287550871D01*
X236691600Y-287517844D01*
X236691600Y-286641756D01*
X236693223Y-286608729D01*
X236698075Y-286576019D01*
X236706109Y-286543943D01*
X236717249Y-286512809D01*
X236731387Y-286482916D01*
X236748387Y-286454553D01*
X236768085Y-286427993D01*
X236790292Y-286403492D01*
X236814793Y-286381285D01*
X236841353Y-286361587D01*
X236869716Y-286344587D01*
X236899609Y-286330449D01*
X236930743Y-286319309D01*
X236962819Y-286311275D01*
X236995529Y-286306423D01*
X237028556Y-286304800D01*
X238154644Y-286304800D01*
X238187671Y-286306423D01*
X238187671Y-286306423D01*
G37*
D13*
X237591600Y-287079800D03*
D12*
G36*
X226301018Y-284256420D02*
G01*
X226333669Y-284261263D01*
X226365687Y-284269283D01*
X226396766Y-284280403D01*
X226426604Y-284294516D01*
X226454916Y-284311485D01*
X226481428Y-284331148D01*
X226505885Y-284353315D01*
X226528052Y-284377772D01*
X226547715Y-284404284D01*
X226564684Y-284432596D01*
X226578797Y-284462434D01*
X226589917Y-284493513D01*
X226597937Y-284525531D01*
X226602780Y-284558182D01*
X226604400Y-284591150D01*
X226604400Y-285468450D01*
X226602780Y-285501418D01*
X226597937Y-285534069D01*
X226589917Y-285566087D01*
X226578797Y-285597166D01*
X226564684Y-285627004D01*
X226547715Y-285655316D01*
X226528052Y-285681828D01*
X226505885Y-285706285D01*
X226481428Y-285728452D01*
X226454916Y-285748115D01*
X226426604Y-285765084D01*
X226396766Y-285779197D01*
X226365687Y-285790317D01*
X226333669Y-285798337D01*
X226301018Y-285803180D01*
X226268050Y-285804800D01*
X225140750Y-285804800D01*
X225107782Y-285803180D01*
X225075131Y-285798337D01*
X225043113Y-285790317D01*
X225012034Y-285779197D01*
X224982196Y-285765084D01*
X224953884Y-285748115D01*
X224927372Y-285728452D01*
X224902915Y-285706285D01*
X224880748Y-285681828D01*
X224861085Y-285655316D01*
X224844116Y-285627004D01*
X224830003Y-285597166D01*
X224818883Y-285566087D01*
X224810863Y-285534069D01*
X224806020Y-285501418D01*
X224804400Y-285468450D01*
X224804400Y-284591150D01*
X224806020Y-284558182D01*
X224810863Y-284525531D01*
X224818883Y-284493513D01*
X224830003Y-284462434D01*
X224844116Y-284432596D01*
X224861085Y-284404284D01*
X224880748Y-284377772D01*
X224902915Y-284353315D01*
X224927372Y-284331148D01*
X224953884Y-284311485D01*
X224982196Y-284294516D01*
X225012034Y-284280403D01*
X225043113Y-284269283D01*
X225075131Y-284261263D01*
X225107782Y-284256420D01*
X225140750Y-284254800D01*
X226268050Y-284254800D01*
X226301018Y-284256420D01*
X226301018Y-284256420D01*
G37*
D13*
X225704400Y-285029800D03*
D12*
G36*
X226300471Y-286306423D02*
G01*
X226333181Y-286311275D01*
X226365257Y-286319309D01*
X226396391Y-286330449D01*
X226426284Y-286344587D01*
X226454647Y-286361587D01*
X226481207Y-286381285D01*
X226505708Y-286403492D01*
X226527915Y-286427993D01*
X226547613Y-286454553D01*
X226564613Y-286482916D01*
X226578751Y-286512809D01*
X226589891Y-286543943D01*
X226597925Y-286576019D01*
X226602777Y-286608729D01*
X226604400Y-286641756D01*
X226604400Y-287517844D01*
X226602777Y-287550871D01*
X226597925Y-287583581D01*
X226589891Y-287615657D01*
X226578751Y-287646791D01*
X226564613Y-287676684D01*
X226547613Y-287705047D01*
X226527915Y-287731607D01*
X226505708Y-287756108D01*
X226481207Y-287778315D01*
X226454647Y-287798013D01*
X226426284Y-287815013D01*
X226396391Y-287829151D01*
X226365257Y-287840291D01*
X226333181Y-287848325D01*
X226300471Y-287853177D01*
X226267444Y-287854800D01*
X225141356Y-287854800D01*
X225108329Y-287853177D01*
X225075619Y-287848325D01*
X225043543Y-287840291D01*
X225012409Y-287829151D01*
X224982516Y-287815013D01*
X224954153Y-287798013D01*
X224927593Y-287778315D01*
X224903092Y-287756108D01*
X224880885Y-287731607D01*
X224861187Y-287705047D01*
X224844187Y-287676684D01*
X224830049Y-287646791D01*
X224818909Y-287615657D01*
X224810875Y-287583581D01*
X224806023Y-287550871D01*
X224804400Y-287517844D01*
X224804400Y-286641756D01*
X224806023Y-286608729D01*
X224810875Y-286576019D01*
X224818909Y-286543943D01*
X224830049Y-286512809D01*
X224844187Y-286482916D01*
X224861187Y-286454553D01*
X224880885Y-286427993D01*
X224903092Y-286403492D01*
X224927593Y-286381285D01*
X224954153Y-286361587D01*
X224982516Y-286344587D01*
X225012409Y-286330449D01*
X225043543Y-286319309D01*
X225075619Y-286311275D01*
X225108329Y-286306423D01*
X225141356Y-286304800D01*
X226267444Y-286304800D01*
X226300471Y-286306423D01*
X226300471Y-286306423D01*
G37*
D13*
X225704400Y-287079800D03*
D12*
G36*
X223898471Y-280838423D02*
G01*
X223931181Y-280843275D01*
X223963257Y-280851309D01*
X223994391Y-280862449D01*
X224024284Y-280876587D01*
X224052647Y-280893587D01*
X224079207Y-280913285D01*
X224103708Y-280935492D01*
X224125915Y-280959993D01*
X224145613Y-280986553D01*
X224162613Y-281014916D01*
X224176751Y-281044809D01*
X224187891Y-281075943D01*
X224195925Y-281108019D01*
X224200777Y-281140729D01*
X224202400Y-281173756D01*
X224202400Y-282299844D01*
X224200777Y-282332871D01*
X224195925Y-282365581D01*
X224187891Y-282397657D01*
X224176751Y-282428791D01*
X224162613Y-282458684D01*
X224145613Y-282487047D01*
X224125915Y-282513607D01*
X224103708Y-282538108D01*
X224079207Y-282560315D01*
X224052647Y-282580013D01*
X224024284Y-282597013D01*
X223994391Y-282611151D01*
X223963257Y-282622291D01*
X223931181Y-282630325D01*
X223898471Y-282635177D01*
X223865444Y-282636800D01*
X222989356Y-282636800D01*
X222956329Y-282635177D01*
X222923619Y-282630325D01*
X222891543Y-282622291D01*
X222860409Y-282611151D01*
X222830516Y-282597013D01*
X222802153Y-282580013D01*
X222775593Y-282560315D01*
X222751092Y-282538108D01*
X222728885Y-282513607D01*
X222709187Y-282487047D01*
X222692187Y-282458684D01*
X222678049Y-282428791D01*
X222666909Y-282397657D01*
X222658875Y-282365581D01*
X222654023Y-282332871D01*
X222652400Y-282299844D01*
X222652400Y-281173756D01*
X222654023Y-281140729D01*
X222658875Y-281108019D01*
X222666909Y-281075943D01*
X222678049Y-281044809D01*
X222692187Y-281014916D01*
X222709187Y-280986553D01*
X222728885Y-280959993D01*
X222751092Y-280935492D01*
X222775593Y-280913285D01*
X222802153Y-280893587D01*
X222830516Y-280876587D01*
X222860409Y-280862449D01*
X222891543Y-280851309D01*
X222923619Y-280843275D01*
X222956329Y-280838423D01*
X222989356Y-280836800D01*
X223865444Y-280836800D01*
X223898471Y-280838423D01*
X223898471Y-280838423D01*
G37*
D13*
X223427400Y-281736800D03*
D12*
G36*
X221848471Y-280838423D02*
G01*
X221881181Y-280843275D01*
X221913257Y-280851309D01*
X221944391Y-280862449D01*
X221974284Y-280876587D01*
X222002647Y-280893587D01*
X222029207Y-280913285D01*
X222053708Y-280935492D01*
X222075915Y-280959993D01*
X222095613Y-280986553D01*
X222112613Y-281014916D01*
X222126751Y-281044809D01*
X222137891Y-281075943D01*
X222145925Y-281108019D01*
X222150777Y-281140729D01*
X222152400Y-281173756D01*
X222152400Y-282299844D01*
X222150777Y-282332871D01*
X222145925Y-282365581D01*
X222137891Y-282397657D01*
X222126751Y-282428791D01*
X222112613Y-282458684D01*
X222095613Y-282487047D01*
X222075915Y-282513607D01*
X222053708Y-282538108D01*
X222029207Y-282560315D01*
X222002647Y-282580013D01*
X221974284Y-282597013D01*
X221944391Y-282611151D01*
X221913257Y-282622291D01*
X221881181Y-282630325D01*
X221848471Y-282635177D01*
X221815444Y-282636800D01*
X220939356Y-282636800D01*
X220906329Y-282635177D01*
X220873619Y-282630325D01*
X220841543Y-282622291D01*
X220810409Y-282611151D01*
X220780516Y-282597013D01*
X220752153Y-282580013D01*
X220725593Y-282560315D01*
X220701092Y-282538108D01*
X220678885Y-282513607D01*
X220659187Y-282487047D01*
X220642187Y-282458684D01*
X220628049Y-282428791D01*
X220616909Y-282397657D01*
X220608875Y-282365581D01*
X220604023Y-282332871D01*
X220602400Y-282299844D01*
X220602400Y-281173756D01*
X220604023Y-281140729D01*
X220608875Y-281108019D01*
X220616909Y-281075943D01*
X220628049Y-281044809D01*
X220642187Y-281014916D01*
X220659187Y-280986553D01*
X220678885Y-280959993D01*
X220701092Y-280935492D01*
X220725593Y-280913285D01*
X220752153Y-280893587D01*
X220780516Y-280876587D01*
X220810409Y-280862449D01*
X220841543Y-280851309D01*
X220873619Y-280843275D01*
X220906329Y-280838423D01*
X220939356Y-280836800D01*
X221815444Y-280836800D01*
X221848471Y-280838423D01*
X221848471Y-280838423D01*
G37*
D13*
X221377400Y-281736800D03*
D12*
G36*
X208107071Y-290185623D02*
G01*
X208139781Y-290190475D01*
X208171857Y-290198509D01*
X208202991Y-290209649D01*
X208232884Y-290223787D01*
X208261247Y-290240787D01*
X208287807Y-290260485D01*
X208312308Y-290282692D01*
X208334515Y-290307193D01*
X208354213Y-290333753D01*
X208371213Y-290362116D01*
X208385351Y-290392009D01*
X208396491Y-290423143D01*
X208404525Y-290455219D01*
X208409377Y-290487929D01*
X208411000Y-290520956D01*
X208411000Y-291647044D01*
X208409377Y-291680071D01*
X208404525Y-291712781D01*
X208396491Y-291744857D01*
X208385351Y-291775991D01*
X208371213Y-291805884D01*
X208354213Y-291834247D01*
X208334515Y-291860807D01*
X208312308Y-291885308D01*
X208287807Y-291907515D01*
X208261247Y-291927213D01*
X208232884Y-291944213D01*
X208202991Y-291958351D01*
X208171857Y-291969491D01*
X208139781Y-291977525D01*
X208107071Y-291982377D01*
X208074044Y-291984000D01*
X207197956Y-291984000D01*
X207164929Y-291982377D01*
X207132219Y-291977525D01*
X207100143Y-291969491D01*
X207069009Y-291958351D01*
X207039116Y-291944213D01*
X207010753Y-291927213D01*
X206984193Y-291907515D01*
X206959692Y-291885308D01*
X206937485Y-291860807D01*
X206917787Y-291834247D01*
X206900787Y-291805884D01*
X206886649Y-291775991D01*
X206875509Y-291744857D01*
X206867475Y-291712781D01*
X206862623Y-291680071D01*
X206861000Y-291647044D01*
X206861000Y-290520956D01*
X206862623Y-290487929D01*
X206867475Y-290455219D01*
X206875509Y-290423143D01*
X206886649Y-290392009D01*
X206900787Y-290362116D01*
X206917787Y-290333753D01*
X206937485Y-290307193D01*
X206959692Y-290282692D01*
X206984193Y-290260485D01*
X207010753Y-290240787D01*
X207039116Y-290223787D01*
X207069009Y-290209649D01*
X207100143Y-290198509D01*
X207132219Y-290190475D01*
X207164929Y-290185623D01*
X207197956Y-290184000D01*
X208074044Y-290184000D01*
X208107071Y-290185623D01*
X208107071Y-290185623D01*
G37*
D13*
X207636000Y-291084000D03*
D12*
G36*
X210157071Y-290185623D02*
G01*
X210189781Y-290190475D01*
X210221857Y-290198509D01*
X210252991Y-290209649D01*
X210282884Y-290223787D01*
X210311247Y-290240787D01*
X210337807Y-290260485D01*
X210362308Y-290282692D01*
X210384515Y-290307193D01*
X210404213Y-290333753D01*
X210421213Y-290362116D01*
X210435351Y-290392009D01*
X210446491Y-290423143D01*
X210454525Y-290455219D01*
X210459377Y-290487929D01*
X210461000Y-290520956D01*
X210461000Y-291647044D01*
X210459377Y-291680071D01*
X210454525Y-291712781D01*
X210446491Y-291744857D01*
X210435351Y-291775991D01*
X210421213Y-291805884D01*
X210404213Y-291834247D01*
X210384515Y-291860807D01*
X210362308Y-291885308D01*
X210337807Y-291907515D01*
X210311247Y-291927213D01*
X210282884Y-291944213D01*
X210252991Y-291958351D01*
X210221857Y-291969491D01*
X210189781Y-291977525D01*
X210157071Y-291982377D01*
X210124044Y-291984000D01*
X209247956Y-291984000D01*
X209214929Y-291982377D01*
X209182219Y-291977525D01*
X209150143Y-291969491D01*
X209119009Y-291958351D01*
X209089116Y-291944213D01*
X209060753Y-291927213D01*
X209034193Y-291907515D01*
X209009692Y-291885308D01*
X208987485Y-291860807D01*
X208967787Y-291834247D01*
X208950787Y-291805884D01*
X208936649Y-291775991D01*
X208925509Y-291744857D01*
X208917475Y-291712781D01*
X208912623Y-291680071D01*
X208911000Y-291647044D01*
X208911000Y-290520956D01*
X208912623Y-290487929D01*
X208917475Y-290455219D01*
X208925509Y-290423143D01*
X208936649Y-290392009D01*
X208950787Y-290362116D01*
X208967787Y-290333753D01*
X208987485Y-290307193D01*
X209009692Y-290282692D01*
X209034193Y-290260485D01*
X209060753Y-290240787D01*
X209089116Y-290223787D01*
X209119009Y-290209649D01*
X209150143Y-290198509D01*
X209182219Y-290190475D01*
X209214929Y-290185623D01*
X209247956Y-290184000D01*
X210124044Y-290184000D01*
X210157071Y-290185623D01*
X210157071Y-290185623D01*
G37*
D13*
X209686000Y-291084000D03*
D14*
X191598000Y-297053000D03*
X195498000Y-297053000D03*
X191598000Y-295783000D03*
X195498000Y-295783000D03*
X191598000Y-294513000D03*
X195498000Y-294513000D03*
X191598000Y-293243000D03*
X195498000Y-293243000D03*
X191598000Y-291973000D03*
X195498000Y-291973000D03*
D15*
X236295200Y-296670000D03*
X240995200Y-299670000D03*
D16*
X240995200Y-293670000D03*
D17*
X192898000Y-300228000D03*
D12*
G36*
X192891888Y-301177398D02*
G01*
X192873466Y-301177398D01*
X192853860Y-301176435D01*
X192805029Y-301171625D01*
X192785620Y-301168746D01*
X192737495Y-301159174D01*
X192718452Y-301154404D01*
X192671497Y-301140160D01*
X192653020Y-301133549D01*
X192607687Y-301114772D01*
X192589939Y-301106377D01*
X192546666Y-301083246D01*
X192529838Y-301073160D01*
X192489039Y-301045900D01*
X192473270Y-301034205D01*
X192435341Y-301003077D01*
X192420800Y-300989897D01*
X192386103Y-300955200D01*
X192372923Y-300940659D01*
X192341795Y-300902730D01*
X192330100Y-300886961D01*
X192302840Y-300846162D01*
X192292754Y-300829334D01*
X192269623Y-300786061D01*
X192261228Y-300768313D01*
X192242451Y-300722980D01*
X192235840Y-300704503D01*
X192221596Y-300657548D01*
X192216826Y-300638505D01*
X192207254Y-300590380D01*
X192204375Y-300570971D01*
X192199565Y-300522140D01*
X192198602Y-300502534D01*
X192198602Y-300484112D01*
X192198000Y-300478000D01*
X192198000Y-299978000D01*
X192198602Y-299971888D01*
X192198602Y-299953466D01*
X192199565Y-299933860D01*
X192204375Y-299885029D01*
X192207254Y-299865620D01*
X192216826Y-299817495D01*
X192221596Y-299798452D01*
X192235840Y-299751497D01*
X192242451Y-299733020D01*
X192261228Y-299687687D01*
X192269623Y-299669939D01*
X192292754Y-299626666D01*
X192302840Y-299609838D01*
X192330100Y-299569039D01*
X192341795Y-299553270D01*
X192372923Y-299515341D01*
X192386103Y-299500800D01*
X192420800Y-299466103D01*
X192435341Y-299452923D01*
X192473270Y-299421795D01*
X192489039Y-299410100D01*
X192529838Y-299382840D01*
X192546666Y-299372754D01*
X192589939Y-299349623D01*
X192607687Y-299341228D01*
X192653020Y-299322451D01*
X192671497Y-299315840D01*
X192718452Y-299301596D01*
X192737495Y-299296826D01*
X192785620Y-299287254D01*
X192805029Y-299284375D01*
X192853860Y-299279565D01*
X192873466Y-299278602D01*
X192891888Y-299278602D01*
X192898000Y-299278000D01*
X193398000Y-299278000D01*
X193437018Y-299281843D01*
X193474537Y-299293224D01*
X193509114Y-299311706D01*
X193539421Y-299336579D01*
X193564294Y-299366886D01*
X193582776Y-299401463D01*
X193594157Y-299438982D01*
X193598000Y-299478000D01*
X193598000Y-300978000D01*
X193594157Y-301017018D01*
X193582776Y-301054537D01*
X193564294Y-301089114D01*
X193539421Y-301119421D01*
X193509114Y-301144294D01*
X193474537Y-301162776D01*
X193437018Y-301174157D01*
X193398000Y-301178000D01*
X192898000Y-301178000D01*
X192891888Y-301177398D01*
X192891888Y-301177398D01*
G37*
D17*
X194198000Y-300228000D03*
D12*
G36*
X193658982Y-301174157D02*
G01*
X193621463Y-301162776D01*
X193586886Y-301144294D01*
X193556579Y-301119421D01*
X193531706Y-301089114D01*
X193513224Y-301054537D01*
X193501843Y-301017018D01*
X193498000Y-300978000D01*
X193498000Y-299478000D01*
X193501843Y-299438982D01*
X193513224Y-299401463D01*
X193531706Y-299366886D01*
X193556579Y-299336579D01*
X193586886Y-299311706D01*
X193621463Y-299293224D01*
X193658982Y-299281843D01*
X193698000Y-299278000D01*
X194198000Y-299278000D01*
X194204112Y-299278602D01*
X194222534Y-299278602D01*
X194242140Y-299279565D01*
X194290971Y-299284375D01*
X194310380Y-299287254D01*
X194358505Y-299296826D01*
X194377548Y-299301596D01*
X194424503Y-299315840D01*
X194442980Y-299322451D01*
X194488313Y-299341228D01*
X194506061Y-299349623D01*
X194549334Y-299372754D01*
X194566162Y-299382840D01*
X194606961Y-299410100D01*
X194622730Y-299421795D01*
X194660659Y-299452923D01*
X194675200Y-299466103D01*
X194709897Y-299500800D01*
X194723077Y-299515341D01*
X194754205Y-299553270D01*
X194765900Y-299569039D01*
X194793160Y-299609838D01*
X194803246Y-299626666D01*
X194826377Y-299669939D01*
X194834772Y-299687687D01*
X194853549Y-299733020D01*
X194860160Y-299751497D01*
X194874404Y-299798452D01*
X194879174Y-299817495D01*
X194888746Y-299865620D01*
X194891625Y-299885029D01*
X194896435Y-299933860D01*
X194897398Y-299953466D01*
X194897398Y-299971888D01*
X194898000Y-299978000D01*
X194898000Y-300478000D01*
X194897398Y-300484112D01*
X194897398Y-300502534D01*
X194896435Y-300522140D01*
X194891625Y-300570971D01*
X194888746Y-300590380D01*
X194879174Y-300638505D01*
X194874404Y-300657548D01*
X194860160Y-300704503D01*
X194853549Y-300722980D01*
X194834772Y-300768313D01*
X194826377Y-300786061D01*
X194803246Y-300829334D01*
X194793160Y-300846162D01*
X194765900Y-300886961D01*
X194754205Y-300902730D01*
X194723077Y-300940659D01*
X194709897Y-300955200D01*
X194675200Y-300989897D01*
X194660659Y-301003077D01*
X194622730Y-301034205D01*
X194606961Y-301045900D01*
X194566162Y-301073160D01*
X194549334Y-301083246D01*
X194506061Y-301106377D01*
X194488313Y-301114772D01*
X194442980Y-301133549D01*
X194424503Y-301140160D01*
X194377548Y-301154404D01*
X194358505Y-301159174D01*
X194310380Y-301168746D01*
X194290971Y-301171625D01*
X194242140Y-301176435D01*
X194222534Y-301177398D01*
X194204112Y-301177398D01*
X194198000Y-301178000D01*
X193698000Y-301178000D01*
X193658982Y-301174157D01*
X193658982Y-301174157D01*
G37*
D17*
X213248000Y-279400000D03*
D12*
G36*
X212708982Y-280346157D02*
G01*
X212671463Y-280334776D01*
X212636886Y-280316294D01*
X212606579Y-280291421D01*
X212581706Y-280261114D01*
X212563224Y-280226537D01*
X212551843Y-280189018D01*
X212548000Y-280150000D01*
X212548000Y-278650000D01*
X212551843Y-278610982D01*
X212563224Y-278573463D01*
X212581706Y-278538886D01*
X212606579Y-278508579D01*
X212636886Y-278483706D01*
X212671463Y-278465224D01*
X212708982Y-278453843D01*
X212748000Y-278450000D01*
X213248000Y-278450000D01*
X213254112Y-278450602D01*
X213272534Y-278450602D01*
X213292140Y-278451565D01*
X213340971Y-278456375D01*
X213360380Y-278459254D01*
X213408505Y-278468826D01*
X213427548Y-278473596D01*
X213474503Y-278487840D01*
X213492980Y-278494451D01*
X213538313Y-278513228D01*
X213556061Y-278521623D01*
X213599334Y-278544754D01*
X213616162Y-278554840D01*
X213656961Y-278582100D01*
X213672730Y-278593795D01*
X213710659Y-278624923D01*
X213725200Y-278638103D01*
X213759897Y-278672800D01*
X213773077Y-278687341D01*
X213804205Y-278725270D01*
X213815900Y-278741039D01*
X213843160Y-278781838D01*
X213853246Y-278798666D01*
X213876377Y-278841939D01*
X213884772Y-278859687D01*
X213903549Y-278905020D01*
X213910160Y-278923497D01*
X213924404Y-278970452D01*
X213929174Y-278989495D01*
X213938746Y-279037620D01*
X213941625Y-279057029D01*
X213946435Y-279105860D01*
X213947398Y-279125466D01*
X213947398Y-279143888D01*
X213948000Y-279150000D01*
X213948000Y-279650000D01*
X213947398Y-279656112D01*
X213947398Y-279674534D01*
X213946435Y-279694140D01*
X213941625Y-279742971D01*
X213938746Y-279762380D01*
X213929174Y-279810505D01*
X213924404Y-279829548D01*
X213910160Y-279876503D01*
X213903549Y-279894980D01*
X213884772Y-279940313D01*
X213876377Y-279958061D01*
X213853246Y-280001334D01*
X213843160Y-280018162D01*
X213815900Y-280058961D01*
X213804205Y-280074730D01*
X213773077Y-280112659D01*
X213759897Y-280127200D01*
X213725200Y-280161897D01*
X213710659Y-280175077D01*
X213672730Y-280206205D01*
X213656961Y-280217900D01*
X213616162Y-280245160D01*
X213599334Y-280255246D01*
X213556061Y-280278377D01*
X213538313Y-280286772D01*
X213492980Y-280305549D01*
X213474503Y-280312160D01*
X213427548Y-280326404D01*
X213408505Y-280331174D01*
X213360380Y-280340746D01*
X213340971Y-280343625D01*
X213292140Y-280348435D01*
X213272534Y-280349398D01*
X213254112Y-280349398D01*
X213248000Y-280350000D01*
X212748000Y-280350000D01*
X212708982Y-280346157D01*
X212708982Y-280346157D01*
G37*
D17*
X211948000Y-279400000D03*
D12*
G36*
X211941888Y-280349398D02*
G01*
X211923466Y-280349398D01*
X211903860Y-280348435D01*
X211855029Y-280343625D01*
X211835620Y-280340746D01*
X211787495Y-280331174D01*
X211768452Y-280326404D01*
X211721497Y-280312160D01*
X211703020Y-280305549D01*
X211657687Y-280286772D01*
X211639939Y-280278377D01*
X211596666Y-280255246D01*
X211579838Y-280245160D01*
X211539039Y-280217900D01*
X211523270Y-280206205D01*
X211485341Y-280175077D01*
X211470800Y-280161897D01*
X211436103Y-280127200D01*
X211422923Y-280112659D01*
X211391795Y-280074730D01*
X211380100Y-280058961D01*
X211352840Y-280018162D01*
X211342754Y-280001334D01*
X211319623Y-279958061D01*
X211311228Y-279940313D01*
X211292451Y-279894980D01*
X211285840Y-279876503D01*
X211271596Y-279829548D01*
X211266826Y-279810505D01*
X211257254Y-279762380D01*
X211254375Y-279742971D01*
X211249565Y-279694140D01*
X211248602Y-279674534D01*
X211248602Y-279656112D01*
X211248000Y-279650000D01*
X211248000Y-279150000D01*
X211248602Y-279143888D01*
X211248602Y-279125466D01*
X211249565Y-279105860D01*
X211254375Y-279057029D01*
X211257254Y-279037620D01*
X211266826Y-278989495D01*
X211271596Y-278970452D01*
X211285840Y-278923497D01*
X211292451Y-278905020D01*
X211311228Y-278859687D01*
X211319623Y-278841939D01*
X211342754Y-278798666D01*
X211352840Y-278781838D01*
X211380100Y-278741039D01*
X211391795Y-278725270D01*
X211422923Y-278687341D01*
X211436103Y-278672800D01*
X211470800Y-278638103D01*
X211485341Y-278624923D01*
X211523270Y-278593795D01*
X211539039Y-278582100D01*
X211579838Y-278554840D01*
X211596666Y-278544754D01*
X211639939Y-278521623D01*
X211657687Y-278513228D01*
X211703020Y-278494451D01*
X211721497Y-278487840D01*
X211768452Y-278473596D01*
X211787495Y-278468826D01*
X211835620Y-278459254D01*
X211855029Y-278456375D01*
X211903860Y-278451565D01*
X211923466Y-278450602D01*
X211941888Y-278450602D01*
X211948000Y-278450000D01*
X212448000Y-278450000D01*
X212487018Y-278453843D01*
X212524537Y-278465224D01*
X212559114Y-278483706D01*
X212589421Y-278508579D01*
X212614294Y-278538886D01*
X212632776Y-278573463D01*
X212644157Y-278610982D01*
X212648000Y-278650000D01*
X212648000Y-280150000D01*
X212644157Y-280189018D01*
X212632776Y-280226537D01*
X212614294Y-280261114D01*
X212589421Y-280291421D01*
X212559114Y-280316294D01*
X212524537Y-280334776D01*
X212487018Y-280346157D01*
X212448000Y-280350000D01*
X211948000Y-280350000D01*
X211941888Y-280349398D01*
X211941888Y-280349398D01*
G37*
D18*
X217017600Y-282992000D03*
X217017600Y-287492000D03*
D19*
X195834000Y-122825000D03*
X194884000Y-124825000D03*
X196784000Y-124825000D03*
X179705000Y-122825000D03*
X178755000Y-124825000D03*
X180655000Y-124825000D03*
D12*
G36*
X205585071Y-290185623D02*
G01*
X205617781Y-290190475D01*
X205649857Y-290198509D01*
X205680991Y-290209649D01*
X205710884Y-290223787D01*
X205739247Y-290240787D01*
X205765807Y-290260485D01*
X205790308Y-290282692D01*
X205812515Y-290307193D01*
X205832213Y-290333753D01*
X205849213Y-290362116D01*
X205863351Y-290392009D01*
X205874491Y-290423143D01*
X205882525Y-290455219D01*
X205887377Y-290487929D01*
X205889000Y-290520956D01*
X205889000Y-291647044D01*
X205887377Y-291680071D01*
X205882525Y-291712781D01*
X205874491Y-291744857D01*
X205863351Y-291775991D01*
X205849213Y-291805884D01*
X205832213Y-291834247D01*
X205812515Y-291860807D01*
X205790308Y-291885308D01*
X205765807Y-291907515D01*
X205739247Y-291927213D01*
X205710884Y-291944213D01*
X205680991Y-291958351D01*
X205649857Y-291969491D01*
X205617781Y-291977525D01*
X205585071Y-291982377D01*
X205552044Y-291984000D01*
X204675956Y-291984000D01*
X204642929Y-291982377D01*
X204610219Y-291977525D01*
X204578143Y-291969491D01*
X204547009Y-291958351D01*
X204517116Y-291944213D01*
X204488753Y-291927213D01*
X204462193Y-291907515D01*
X204437692Y-291885308D01*
X204415485Y-291860807D01*
X204395787Y-291834247D01*
X204378787Y-291805884D01*
X204364649Y-291775991D01*
X204353509Y-291744857D01*
X204345475Y-291712781D01*
X204340623Y-291680071D01*
X204339000Y-291647044D01*
X204339000Y-290520956D01*
X204340623Y-290487929D01*
X204345475Y-290455219D01*
X204353509Y-290423143D01*
X204364649Y-290392009D01*
X204378787Y-290362116D01*
X204395787Y-290333753D01*
X204415485Y-290307193D01*
X204437692Y-290282692D01*
X204462193Y-290260485D01*
X204488753Y-290240787D01*
X204517116Y-290223787D01*
X204547009Y-290209649D01*
X204578143Y-290198509D01*
X204610219Y-290190475D01*
X204642929Y-290185623D01*
X204675956Y-290184000D01*
X205552044Y-290184000D01*
X205585071Y-290185623D01*
X205585071Y-290185623D01*
G37*
D13*
X205114000Y-291084000D03*
D12*
G36*
X203535071Y-290185623D02*
G01*
X203567781Y-290190475D01*
X203599857Y-290198509D01*
X203630991Y-290209649D01*
X203660884Y-290223787D01*
X203689247Y-290240787D01*
X203715807Y-290260485D01*
X203740308Y-290282692D01*
X203762515Y-290307193D01*
X203782213Y-290333753D01*
X203799213Y-290362116D01*
X203813351Y-290392009D01*
X203824491Y-290423143D01*
X203832525Y-290455219D01*
X203837377Y-290487929D01*
X203839000Y-290520956D01*
X203839000Y-291647044D01*
X203837377Y-291680071D01*
X203832525Y-291712781D01*
X203824491Y-291744857D01*
X203813351Y-291775991D01*
X203799213Y-291805884D01*
X203782213Y-291834247D01*
X203762515Y-291860807D01*
X203740308Y-291885308D01*
X203715807Y-291907515D01*
X203689247Y-291927213D01*
X203660884Y-291944213D01*
X203630991Y-291958351D01*
X203599857Y-291969491D01*
X203567781Y-291977525D01*
X203535071Y-291982377D01*
X203502044Y-291984000D01*
X202625956Y-291984000D01*
X202592929Y-291982377D01*
X202560219Y-291977525D01*
X202528143Y-291969491D01*
X202497009Y-291958351D01*
X202467116Y-291944213D01*
X202438753Y-291927213D01*
X202412193Y-291907515D01*
X202387692Y-291885308D01*
X202365485Y-291860807D01*
X202345787Y-291834247D01*
X202328787Y-291805884D01*
X202314649Y-291775991D01*
X202303509Y-291744857D01*
X202295475Y-291712781D01*
X202290623Y-291680071D01*
X202289000Y-291647044D01*
X202289000Y-290520956D01*
X202290623Y-290487929D01*
X202295475Y-290455219D01*
X202303509Y-290423143D01*
X202314649Y-290392009D01*
X202328787Y-290362116D01*
X202345787Y-290333753D01*
X202365485Y-290307193D01*
X202387692Y-290282692D01*
X202412193Y-290260485D01*
X202438753Y-290240787D01*
X202467116Y-290223787D01*
X202497009Y-290209649D01*
X202528143Y-290198509D01*
X202560219Y-290190475D01*
X202592929Y-290185623D01*
X202625956Y-290184000D01*
X203502044Y-290184000D01*
X203535071Y-290185623D01*
X203535071Y-290185623D01*
G37*
D13*
X203064000Y-291084000D03*
D12*
G36*
X198208071Y-132712623D02*
G01*
X198240781Y-132717475D01*
X198272857Y-132725509D01*
X198303991Y-132736649D01*
X198333884Y-132750787D01*
X198362247Y-132767787D01*
X198388807Y-132787485D01*
X198413308Y-132809692D01*
X198435515Y-132834193D01*
X198455213Y-132860753D01*
X198472213Y-132889116D01*
X198486351Y-132919009D01*
X198497491Y-132950143D01*
X198505525Y-132982219D01*
X198510377Y-133014929D01*
X198512000Y-133047956D01*
X198512000Y-133924044D01*
X198510377Y-133957071D01*
X198505525Y-133989781D01*
X198497491Y-134021857D01*
X198486351Y-134052991D01*
X198472213Y-134082884D01*
X198455213Y-134111247D01*
X198435515Y-134137807D01*
X198413308Y-134162308D01*
X198388807Y-134184515D01*
X198362247Y-134204213D01*
X198333884Y-134221213D01*
X198303991Y-134235351D01*
X198272857Y-134246491D01*
X198240781Y-134254525D01*
X198208071Y-134259377D01*
X198175044Y-134261000D01*
X197048956Y-134261000D01*
X197015929Y-134259377D01*
X196983219Y-134254525D01*
X196951143Y-134246491D01*
X196920009Y-134235351D01*
X196890116Y-134221213D01*
X196861753Y-134204213D01*
X196835193Y-134184515D01*
X196810692Y-134162308D01*
X196788485Y-134137807D01*
X196768787Y-134111247D01*
X196751787Y-134082884D01*
X196737649Y-134052991D01*
X196726509Y-134021857D01*
X196718475Y-133989781D01*
X196713623Y-133957071D01*
X196712000Y-133924044D01*
X196712000Y-133047956D01*
X196713623Y-133014929D01*
X196718475Y-132982219D01*
X196726509Y-132950143D01*
X196737649Y-132919009D01*
X196751787Y-132889116D01*
X196768787Y-132860753D01*
X196788485Y-132834193D01*
X196810692Y-132809692D01*
X196835193Y-132787485D01*
X196861753Y-132767787D01*
X196890116Y-132750787D01*
X196920009Y-132736649D01*
X196951143Y-132725509D01*
X196983219Y-132717475D01*
X197015929Y-132712623D01*
X197048956Y-132711000D01*
X198175044Y-132711000D01*
X198208071Y-132712623D01*
X198208071Y-132712623D01*
G37*
D13*
X197612000Y-133486000D03*
D12*
G36*
X198208071Y-130662623D02*
G01*
X198240781Y-130667475D01*
X198272857Y-130675509D01*
X198303991Y-130686649D01*
X198333884Y-130700787D01*
X198362247Y-130717787D01*
X198388807Y-130737485D01*
X198413308Y-130759692D01*
X198435515Y-130784193D01*
X198455213Y-130810753D01*
X198472213Y-130839116D01*
X198486351Y-130869009D01*
X198497491Y-130900143D01*
X198505525Y-130932219D01*
X198510377Y-130964929D01*
X198512000Y-130997956D01*
X198512000Y-131874044D01*
X198510377Y-131907071D01*
X198505525Y-131939781D01*
X198497491Y-131971857D01*
X198486351Y-132002991D01*
X198472213Y-132032884D01*
X198455213Y-132061247D01*
X198435515Y-132087807D01*
X198413308Y-132112308D01*
X198388807Y-132134515D01*
X198362247Y-132154213D01*
X198333884Y-132171213D01*
X198303991Y-132185351D01*
X198272857Y-132196491D01*
X198240781Y-132204525D01*
X198208071Y-132209377D01*
X198175044Y-132211000D01*
X197048956Y-132211000D01*
X197015929Y-132209377D01*
X196983219Y-132204525D01*
X196951143Y-132196491D01*
X196920009Y-132185351D01*
X196890116Y-132171213D01*
X196861753Y-132154213D01*
X196835193Y-132134515D01*
X196810692Y-132112308D01*
X196788485Y-132087807D01*
X196768787Y-132061247D01*
X196751787Y-132032884D01*
X196737649Y-132002991D01*
X196726509Y-131971857D01*
X196718475Y-131939781D01*
X196713623Y-131907071D01*
X196712000Y-131874044D01*
X196712000Y-130997956D01*
X196713623Y-130964929D01*
X196718475Y-130932219D01*
X196726509Y-130900143D01*
X196737649Y-130869009D01*
X196751787Y-130839116D01*
X196768787Y-130810753D01*
X196788485Y-130784193D01*
X196810692Y-130759692D01*
X196835193Y-130737485D01*
X196861753Y-130717787D01*
X196890116Y-130700787D01*
X196920009Y-130686649D01*
X196951143Y-130675509D01*
X196983219Y-130667475D01*
X197015929Y-130662623D01*
X197048956Y-130661000D01*
X198175044Y-130661000D01*
X198208071Y-130662623D01*
X198208071Y-130662623D01*
G37*
D13*
X197612000Y-131436000D03*
D12*
G36*
X193239618Y-127244620D02*
G01*
X193272269Y-127249463D01*
X193304287Y-127257483D01*
X193335366Y-127268603D01*
X193365204Y-127282716D01*
X193393516Y-127299685D01*
X193420028Y-127319348D01*
X193444485Y-127341515D01*
X193466652Y-127365972D01*
X193486315Y-127392484D01*
X193503284Y-127420796D01*
X193517397Y-127450634D01*
X193528517Y-127481713D01*
X193536537Y-127513731D01*
X193541380Y-127546382D01*
X193543000Y-127579350D01*
X193543000Y-128706650D01*
X193541380Y-128739618D01*
X193536537Y-128772269D01*
X193528517Y-128804287D01*
X193517397Y-128835366D01*
X193503284Y-128865204D01*
X193486315Y-128893516D01*
X193466652Y-128920028D01*
X193444485Y-128944485D01*
X193420028Y-128966652D01*
X193393516Y-128986315D01*
X193365204Y-129003284D01*
X193335366Y-129017397D01*
X193304287Y-129028517D01*
X193272269Y-129036537D01*
X193239618Y-129041380D01*
X193206650Y-129043000D01*
X192329350Y-129043000D01*
X192296382Y-129041380D01*
X192263731Y-129036537D01*
X192231713Y-129028517D01*
X192200634Y-129017397D01*
X192170796Y-129003284D01*
X192142484Y-128986315D01*
X192115972Y-128966652D01*
X192091515Y-128944485D01*
X192069348Y-128920028D01*
X192049685Y-128893516D01*
X192032716Y-128865204D01*
X192018603Y-128835366D01*
X192007483Y-128804287D01*
X191999463Y-128772269D01*
X191994620Y-128739618D01*
X191993000Y-128706650D01*
X191993000Y-127579350D01*
X191994620Y-127546382D01*
X191999463Y-127513731D01*
X192007483Y-127481713D01*
X192018603Y-127450634D01*
X192032716Y-127420796D01*
X192049685Y-127392484D01*
X192069348Y-127365972D01*
X192091515Y-127341515D01*
X192115972Y-127319348D01*
X192142484Y-127299685D01*
X192170796Y-127282716D01*
X192200634Y-127268603D01*
X192231713Y-127257483D01*
X192263731Y-127249463D01*
X192296382Y-127244620D01*
X192329350Y-127243000D01*
X193206650Y-127243000D01*
X193239618Y-127244620D01*
X193239618Y-127244620D01*
G37*
D13*
X192768000Y-128143000D03*
D12*
G36*
X195289071Y-127244623D02*
G01*
X195321781Y-127249475D01*
X195353857Y-127257509D01*
X195384991Y-127268649D01*
X195414884Y-127282787D01*
X195443247Y-127299787D01*
X195469807Y-127319485D01*
X195494308Y-127341692D01*
X195516515Y-127366193D01*
X195536213Y-127392753D01*
X195553213Y-127421116D01*
X195567351Y-127451009D01*
X195578491Y-127482143D01*
X195586525Y-127514219D01*
X195591377Y-127546929D01*
X195593000Y-127579956D01*
X195593000Y-128706044D01*
X195591377Y-128739071D01*
X195586525Y-128771781D01*
X195578491Y-128803857D01*
X195567351Y-128834991D01*
X195553213Y-128864884D01*
X195536213Y-128893247D01*
X195516515Y-128919807D01*
X195494308Y-128944308D01*
X195469807Y-128966515D01*
X195443247Y-128986213D01*
X195414884Y-129003213D01*
X195384991Y-129017351D01*
X195353857Y-129028491D01*
X195321781Y-129036525D01*
X195289071Y-129041377D01*
X195256044Y-129043000D01*
X194379956Y-129043000D01*
X194346929Y-129041377D01*
X194314219Y-129036525D01*
X194282143Y-129028491D01*
X194251009Y-129017351D01*
X194221116Y-129003213D01*
X194192753Y-128986213D01*
X194166193Y-128966515D01*
X194141692Y-128944308D01*
X194119485Y-128919807D01*
X194099787Y-128893247D01*
X194082787Y-128864884D01*
X194068649Y-128834991D01*
X194057509Y-128803857D01*
X194049475Y-128771781D01*
X194044623Y-128739071D01*
X194043000Y-128706044D01*
X194043000Y-127579956D01*
X194044623Y-127546929D01*
X194049475Y-127514219D01*
X194057509Y-127482143D01*
X194068649Y-127451009D01*
X194082787Y-127421116D01*
X194099787Y-127392753D01*
X194119485Y-127366193D01*
X194141692Y-127341692D01*
X194166193Y-127319485D01*
X194192753Y-127299787D01*
X194221116Y-127282787D01*
X194251009Y-127268649D01*
X194282143Y-127257509D01*
X194314219Y-127249475D01*
X194346929Y-127244623D01*
X194379956Y-127243000D01*
X195256044Y-127243000D01*
X195289071Y-127244623D01*
X195289071Y-127244623D01*
G37*
D13*
X194818000Y-128143000D03*
D12*
G36*
X176738618Y-127244620D02*
G01*
X176771269Y-127249463D01*
X176803287Y-127257483D01*
X176834366Y-127268603D01*
X176864204Y-127282716D01*
X176892516Y-127299685D01*
X176919028Y-127319348D01*
X176943485Y-127341515D01*
X176965652Y-127365972D01*
X176985315Y-127392484D01*
X177002284Y-127420796D01*
X177016397Y-127450634D01*
X177027517Y-127481713D01*
X177035537Y-127513731D01*
X177040380Y-127546382D01*
X177042000Y-127579350D01*
X177042000Y-128706650D01*
X177040380Y-128739618D01*
X177035537Y-128772269D01*
X177027517Y-128804287D01*
X177016397Y-128835366D01*
X177002284Y-128865204D01*
X176985315Y-128893516D01*
X176965652Y-128920028D01*
X176943485Y-128944485D01*
X176919028Y-128966652D01*
X176892516Y-128986315D01*
X176864204Y-129003284D01*
X176834366Y-129017397D01*
X176803287Y-129028517D01*
X176771269Y-129036537D01*
X176738618Y-129041380D01*
X176705650Y-129043000D01*
X175828350Y-129043000D01*
X175795382Y-129041380D01*
X175762731Y-129036537D01*
X175730713Y-129028517D01*
X175699634Y-129017397D01*
X175669796Y-129003284D01*
X175641484Y-128986315D01*
X175614972Y-128966652D01*
X175590515Y-128944485D01*
X175568348Y-128920028D01*
X175548685Y-128893516D01*
X175531716Y-128865204D01*
X175517603Y-128835366D01*
X175506483Y-128804287D01*
X175498463Y-128772269D01*
X175493620Y-128739618D01*
X175492000Y-128706650D01*
X175492000Y-127579350D01*
X175493620Y-127546382D01*
X175498463Y-127513731D01*
X175506483Y-127481713D01*
X175517603Y-127450634D01*
X175531716Y-127420796D01*
X175548685Y-127392484D01*
X175568348Y-127365972D01*
X175590515Y-127341515D01*
X175614972Y-127319348D01*
X175641484Y-127299685D01*
X175669796Y-127282716D01*
X175699634Y-127268603D01*
X175730713Y-127257483D01*
X175762731Y-127249463D01*
X175795382Y-127244620D01*
X175828350Y-127243000D01*
X176705650Y-127243000D01*
X176738618Y-127244620D01*
X176738618Y-127244620D01*
G37*
D13*
X176267000Y-128143000D03*
D12*
G36*
X178788071Y-127244623D02*
G01*
X178820781Y-127249475D01*
X178852857Y-127257509D01*
X178883991Y-127268649D01*
X178913884Y-127282787D01*
X178942247Y-127299787D01*
X178968807Y-127319485D01*
X178993308Y-127341692D01*
X179015515Y-127366193D01*
X179035213Y-127392753D01*
X179052213Y-127421116D01*
X179066351Y-127451009D01*
X179077491Y-127482143D01*
X179085525Y-127514219D01*
X179090377Y-127546929D01*
X179092000Y-127579956D01*
X179092000Y-128706044D01*
X179090377Y-128739071D01*
X179085525Y-128771781D01*
X179077491Y-128803857D01*
X179066351Y-128834991D01*
X179052213Y-128864884D01*
X179035213Y-128893247D01*
X179015515Y-128919807D01*
X178993308Y-128944308D01*
X178968807Y-128966515D01*
X178942247Y-128986213D01*
X178913884Y-129003213D01*
X178883991Y-129017351D01*
X178852857Y-129028491D01*
X178820781Y-129036525D01*
X178788071Y-129041377D01*
X178755044Y-129043000D01*
X177878956Y-129043000D01*
X177845929Y-129041377D01*
X177813219Y-129036525D01*
X177781143Y-129028491D01*
X177750009Y-129017351D01*
X177720116Y-129003213D01*
X177691753Y-128986213D01*
X177665193Y-128966515D01*
X177640692Y-128944308D01*
X177618485Y-128919807D01*
X177598787Y-128893247D01*
X177581787Y-128864884D01*
X177567649Y-128834991D01*
X177556509Y-128803857D01*
X177548475Y-128771781D01*
X177543623Y-128739071D01*
X177542000Y-128706044D01*
X177542000Y-127579956D01*
X177543623Y-127546929D01*
X177548475Y-127514219D01*
X177556509Y-127482143D01*
X177567649Y-127451009D01*
X177581787Y-127421116D01*
X177598787Y-127392753D01*
X177618485Y-127366193D01*
X177640692Y-127341692D01*
X177665193Y-127319485D01*
X177691753Y-127299787D01*
X177720116Y-127282787D01*
X177750009Y-127268649D01*
X177781143Y-127257509D01*
X177813219Y-127249475D01*
X177845929Y-127244623D01*
X177878956Y-127243000D01*
X178755044Y-127243000D01*
X178788071Y-127244623D01*
X178788071Y-127244623D01*
G37*
D13*
X178317000Y-128143000D03*
D20*
X183237200Y-286575200D03*
X184507200Y-286575200D03*
X187047200Y-286575200D03*
X188317200Y-286575200D03*
X189587200Y-286575200D03*
X190857200Y-286575200D03*
X192127200Y-286575200D03*
X193397200Y-286575200D03*
X194667200Y-286575200D03*
X195937200Y-286575200D03*
X197207200Y-286575200D03*
X198477200Y-286575200D03*
X199747200Y-286575200D03*
X201017200Y-286575200D03*
X202287200Y-286575200D03*
X203557200Y-286575200D03*
D21*
X205307200Y-284810200D03*
X205307200Y-283540200D03*
X205307200Y-282270200D03*
X205307200Y-281000200D03*
X205307200Y-279730200D03*
X205307200Y-278460200D03*
X205307200Y-277190200D03*
X205307200Y-275920200D03*
X205307200Y-274650200D03*
X205307200Y-273380200D03*
X205307200Y-272110200D03*
X205307200Y-270840200D03*
D20*
X203557200Y-269075200D03*
X202287200Y-269075200D03*
X201017200Y-269075200D03*
X199747200Y-269075200D03*
X198477200Y-269075200D03*
X197207200Y-269075200D03*
X195937200Y-269075200D03*
X194667200Y-269075200D03*
X193397200Y-269075200D03*
X192127200Y-269075200D03*
X190857200Y-269075200D03*
X189587200Y-269075200D03*
X188317200Y-269075200D03*
X187047200Y-269075200D03*
X184507200Y-269075200D03*
X183237200Y-269075200D03*
D22*
X222402400Y-287324800D03*
D23*
X221452400Y-286324800D03*
X221452400Y-286824800D03*
X221452400Y-287324800D03*
X221452400Y-287824800D03*
X221452400Y-288324800D03*
X223352400Y-288324800D03*
X223352400Y-287824800D03*
X223352400Y-287324800D03*
X223352400Y-286824800D03*
X223352400Y-286324800D03*
D24*
X222402400Y-287324800D03*
X222402400Y-286374800D03*
X222402400Y-288274800D03*
D12*
G36*
X223898471Y-278552423D02*
G01*
X223931181Y-278557275D01*
X223963257Y-278565309D01*
X223994391Y-278576449D01*
X224024284Y-278590587D01*
X224052647Y-278607587D01*
X224079207Y-278627285D01*
X224103708Y-278649492D01*
X224125915Y-278673993D01*
X224145613Y-278700553D01*
X224162613Y-278728916D01*
X224176751Y-278758809D01*
X224187891Y-278789943D01*
X224195925Y-278822019D01*
X224200777Y-278854729D01*
X224202400Y-278887756D01*
X224202400Y-280013844D01*
X224200777Y-280046871D01*
X224195925Y-280079581D01*
X224187891Y-280111657D01*
X224176751Y-280142791D01*
X224162613Y-280172684D01*
X224145613Y-280201047D01*
X224125915Y-280227607D01*
X224103708Y-280252108D01*
X224079207Y-280274315D01*
X224052647Y-280294013D01*
X224024284Y-280311013D01*
X223994391Y-280325151D01*
X223963257Y-280336291D01*
X223931181Y-280344325D01*
X223898471Y-280349177D01*
X223865444Y-280350800D01*
X222989356Y-280350800D01*
X222956329Y-280349177D01*
X222923619Y-280344325D01*
X222891543Y-280336291D01*
X222860409Y-280325151D01*
X222830516Y-280311013D01*
X222802153Y-280294013D01*
X222775593Y-280274315D01*
X222751092Y-280252108D01*
X222728885Y-280227607D01*
X222709187Y-280201047D01*
X222692187Y-280172684D01*
X222678049Y-280142791D01*
X222666909Y-280111657D01*
X222658875Y-280079581D01*
X222654023Y-280046871D01*
X222652400Y-280013844D01*
X222652400Y-278887756D01*
X222654023Y-278854729D01*
X222658875Y-278822019D01*
X222666909Y-278789943D01*
X222678049Y-278758809D01*
X222692187Y-278728916D01*
X222709187Y-278700553D01*
X222728885Y-278673993D01*
X222751092Y-278649492D01*
X222775593Y-278627285D01*
X222802153Y-278607587D01*
X222830516Y-278590587D01*
X222860409Y-278576449D01*
X222891543Y-278565309D01*
X222923619Y-278557275D01*
X222956329Y-278552423D01*
X222989356Y-278550800D01*
X223865444Y-278550800D01*
X223898471Y-278552423D01*
X223898471Y-278552423D01*
G37*
D13*
X223427400Y-279450800D03*
D12*
G36*
X221848471Y-278552423D02*
G01*
X221881181Y-278557275D01*
X221913257Y-278565309D01*
X221944391Y-278576449D01*
X221974284Y-278590587D01*
X222002647Y-278607587D01*
X222029207Y-278627285D01*
X222053708Y-278649492D01*
X222075915Y-278673993D01*
X222095613Y-278700553D01*
X222112613Y-278728916D01*
X222126751Y-278758809D01*
X222137891Y-278789943D01*
X222145925Y-278822019D01*
X222150777Y-278854729D01*
X222152400Y-278887756D01*
X222152400Y-280013844D01*
X222150777Y-280046871D01*
X222145925Y-280079581D01*
X222137891Y-280111657D01*
X222126751Y-280142791D01*
X222112613Y-280172684D01*
X222095613Y-280201047D01*
X222075915Y-280227607D01*
X222053708Y-280252108D01*
X222029207Y-280274315D01*
X222002647Y-280294013D01*
X221974284Y-280311013D01*
X221944391Y-280325151D01*
X221913257Y-280336291D01*
X221881181Y-280344325D01*
X221848471Y-280349177D01*
X221815444Y-280350800D01*
X220939356Y-280350800D01*
X220906329Y-280349177D01*
X220873619Y-280344325D01*
X220841543Y-280336291D01*
X220810409Y-280325151D01*
X220780516Y-280311013D01*
X220752153Y-280294013D01*
X220725593Y-280274315D01*
X220701092Y-280252108D01*
X220678885Y-280227607D01*
X220659187Y-280201047D01*
X220642187Y-280172684D01*
X220628049Y-280142791D01*
X220616909Y-280111657D01*
X220608875Y-280079581D01*
X220604023Y-280046871D01*
X220602400Y-280013844D01*
X220602400Y-278887756D01*
X220604023Y-278854729D01*
X220608875Y-278822019D01*
X220616909Y-278789943D01*
X220628049Y-278758809D01*
X220642187Y-278728916D01*
X220659187Y-278700553D01*
X220678885Y-278673993D01*
X220701092Y-278649492D01*
X220725593Y-278627285D01*
X220752153Y-278607587D01*
X220780516Y-278590587D01*
X220810409Y-278576449D01*
X220841543Y-278565309D01*
X220873619Y-278557275D01*
X220906329Y-278552423D01*
X220939356Y-278550800D01*
X221815444Y-278550800D01*
X221848471Y-278552423D01*
X221848471Y-278552423D01*
G37*
D13*
X221377400Y-279450800D03*
D12*
G36*
X223899018Y-283124420D02*
G01*
X223931669Y-283129263D01*
X223963687Y-283137283D01*
X223994766Y-283148403D01*
X224024604Y-283162516D01*
X224052916Y-283179485D01*
X224079428Y-283199148D01*
X224103885Y-283221315D01*
X224126052Y-283245772D01*
X224145715Y-283272284D01*
X224162684Y-283300596D01*
X224176797Y-283330434D01*
X224187917Y-283361513D01*
X224195937Y-283393531D01*
X224200780Y-283426182D01*
X224202400Y-283459150D01*
X224202400Y-284586450D01*
X224200780Y-284619418D01*
X224195937Y-284652069D01*
X224187917Y-284684087D01*
X224176797Y-284715166D01*
X224162684Y-284745004D01*
X224145715Y-284773316D01*
X224126052Y-284799828D01*
X224103885Y-284824285D01*
X224079428Y-284846452D01*
X224052916Y-284866115D01*
X224024604Y-284883084D01*
X223994766Y-284897197D01*
X223963687Y-284908317D01*
X223931669Y-284916337D01*
X223899018Y-284921180D01*
X223866050Y-284922800D01*
X222988750Y-284922800D01*
X222955782Y-284921180D01*
X222923131Y-284916337D01*
X222891113Y-284908317D01*
X222860034Y-284897197D01*
X222830196Y-284883084D01*
X222801884Y-284866115D01*
X222775372Y-284846452D01*
X222750915Y-284824285D01*
X222728748Y-284799828D01*
X222709085Y-284773316D01*
X222692116Y-284745004D01*
X222678003Y-284715166D01*
X222666883Y-284684087D01*
X222658863Y-284652069D01*
X222654020Y-284619418D01*
X222652400Y-284586450D01*
X222652400Y-283459150D01*
X222654020Y-283426182D01*
X222658863Y-283393531D01*
X222666883Y-283361513D01*
X222678003Y-283330434D01*
X222692116Y-283300596D01*
X222709085Y-283272284D01*
X222728748Y-283245772D01*
X222750915Y-283221315D01*
X222775372Y-283199148D01*
X222801884Y-283179485D01*
X222830196Y-283162516D01*
X222860034Y-283148403D01*
X222891113Y-283137283D01*
X222923131Y-283129263D01*
X222955782Y-283124420D01*
X222988750Y-283122800D01*
X223866050Y-283122800D01*
X223899018Y-283124420D01*
X223899018Y-283124420D01*
G37*
D13*
X223427400Y-284022800D03*
D12*
G36*
X221848471Y-283124423D02*
G01*
X221881181Y-283129275D01*
X221913257Y-283137309D01*
X221944391Y-283148449D01*
X221974284Y-283162587D01*
X222002647Y-283179587D01*
X222029207Y-283199285D01*
X222053708Y-283221492D01*
X222075915Y-283245993D01*
X222095613Y-283272553D01*
X222112613Y-283300916D01*
X222126751Y-283330809D01*
X222137891Y-283361943D01*
X222145925Y-283394019D01*
X222150777Y-283426729D01*
X222152400Y-283459756D01*
X222152400Y-284585844D01*
X222150777Y-284618871D01*
X222145925Y-284651581D01*
X222137891Y-284683657D01*
X222126751Y-284714791D01*
X222112613Y-284744684D01*
X222095613Y-284773047D01*
X222075915Y-284799607D01*
X222053708Y-284824108D01*
X222029207Y-284846315D01*
X222002647Y-284866013D01*
X221974284Y-284883013D01*
X221944391Y-284897151D01*
X221913257Y-284908291D01*
X221881181Y-284916325D01*
X221848471Y-284921177D01*
X221815444Y-284922800D01*
X220939356Y-284922800D01*
X220906329Y-284921177D01*
X220873619Y-284916325D01*
X220841543Y-284908291D01*
X220810409Y-284897151D01*
X220780516Y-284883013D01*
X220752153Y-284866013D01*
X220725593Y-284846315D01*
X220701092Y-284824108D01*
X220678885Y-284799607D01*
X220659187Y-284773047D01*
X220642187Y-284744684D01*
X220628049Y-284714791D01*
X220616909Y-284683657D01*
X220608875Y-284651581D01*
X220604023Y-284618871D01*
X220602400Y-284585844D01*
X220602400Y-283459756D01*
X220604023Y-283426729D01*
X220608875Y-283394019D01*
X220616909Y-283361943D01*
X220628049Y-283330809D01*
X220642187Y-283300916D01*
X220659187Y-283272553D01*
X220678885Y-283245993D01*
X220701092Y-283221492D01*
X220725593Y-283199285D01*
X220752153Y-283179587D01*
X220780516Y-283162587D01*
X220810409Y-283148449D01*
X220841543Y-283137309D01*
X220873619Y-283129275D01*
X220906329Y-283124423D01*
X220939356Y-283122800D01*
X221815444Y-283122800D01*
X221848471Y-283124423D01*
X221848471Y-283124423D01*
G37*
D13*
X221377400Y-284022800D03*
D17*
X234599000Y-287020000D03*
D12*
G36*
X234059982Y-287966157D02*
G01*
X234022463Y-287954776D01*
X233987886Y-287936294D01*
X233957579Y-287911421D01*
X233932706Y-287881114D01*
X233914224Y-287846537D01*
X233902843Y-287809018D01*
X233899000Y-287770000D01*
X233899000Y-286270000D01*
X233902843Y-286230982D01*
X233914224Y-286193463D01*
X233932706Y-286158886D01*
X233957579Y-286128579D01*
X233987886Y-286103706D01*
X234022463Y-286085224D01*
X234059982Y-286073843D01*
X234099000Y-286070000D01*
X234599000Y-286070000D01*
X234605112Y-286070602D01*
X234623534Y-286070602D01*
X234643140Y-286071565D01*
X234691971Y-286076375D01*
X234711380Y-286079254D01*
X234759505Y-286088826D01*
X234778548Y-286093596D01*
X234825503Y-286107840D01*
X234843980Y-286114451D01*
X234889313Y-286133228D01*
X234907061Y-286141623D01*
X234950334Y-286164754D01*
X234967162Y-286174840D01*
X235007961Y-286202100D01*
X235023730Y-286213795D01*
X235061659Y-286244923D01*
X235076200Y-286258103D01*
X235110897Y-286292800D01*
X235124077Y-286307341D01*
X235155205Y-286345270D01*
X235166900Y-286361039D01*
X235194160Y-286401838D01*
X235204246Y-286418666D01*
X235227377Y-286461939D01*
X235235772Y-286479687D01*
X235254549Y-286525020D01*
X235261160Y-286543497D01*
X235275404Y-286590452D01*
X235280174Y-286609495D01*
X235289746Y-286657620D01*
X235292625Y-286677029D01*
X235297435Y-286725860D01*
X235298398Y-286745466D01*
X235298398Y-286763888D01*
X235299000Y-286770000D01*
X235299000Y-287270000D01*
X235298398Y-287276112D01*
X235298398Y-287294534D01*
X235297435Y-287314140D01*
X235292625Y-287362971D01*
X235289746Y-287382380D01*
X235280174Y-287430505D01*
X235275404Y-287449548D01*
X235261160Y-287496503D01*
X235254549Y-287514980D01*
X235235772Y-287560313D01*
X235227377Y-287578061D01*
X235204246Y-287621334D01*
X235194160Y-287638162D01*
X235166900Y-287678961D01*
X235155205Y-287694730D01*
X235124077Y-287732659D01*
X235110897Y-287747200D01*
X235076200Y-287781897D01*
X235061659Y-287795077D01*
X235023730Y-287826205D01*
X235007961Y-287837900D01*
X234967162Y-287865160D01*
X234950334Y-287875246D01*
X234907061Y-287898377D01*
X234889313Y-287906772D01*
X234843980Y-287925549D01*
X234825503Y-287932160D01*
X234778548Y-287946404D01*
X234759505Y-287951174D01*
X234711380Y-287960746D01*
X234691971Y-287963625D01*
X234643140Y-287968435D01*
X234623534Y-287969398D01*
X234605112Y-287969398D01*
X234599000Y-287970000D01*
X234099000Y-287970000D01*
X234059982Y-287966157D01*
X234059982Y-287966157D01*
G37*
D17*
X233299000Y-287020000D03*
D12*
G36*
X233292888Y-287969398D02*
G01*
X233274466Y-287969398D01*
X233254860Y-287968435D01*
X233206029Y-287963625D01*
X233186620Y-287960746D01*
X233138495Y-287951174D01*
X233119452Y-287946404D01*
X233072497Y-287932160D01*
X233054020Y-287925549D01*
X233008687Y-287906772D01*
X232990939Y-287898377D01*
X232947666Y-287875246D01*
X232930838Y-287865160D01*
X232890039Y-287837900D01*
X232874270Y-287826205D01*
X232836341Y-287795077D01*
X232821800Y-287781897D01*
X232787103Y-287747200D01*
X232773923Y-287732659D01*
X232742795Y-287694730D01*
X232731100Y-287678961D01*
X232703840Y-287638162D01*
X232693754Y-287621334D01*
X232670623Y-287578061D01*
X232662228Y-287560313D01*
X232643451Y-287514980D01*
X232636840Y-287496503D01*
X232622596Y-287449548D01*
X232617826Y-287430505D01*
X232608254Y-287382380D01*
X232605375Y-287362971D01*
X232600565Y-287314140D01*
X232599602Y-287294534D01*
X232599602Y-287276112D01*
X232599000Y-287270000D01*
X232599000Y-286770000D01*
X232599602Y-286763888D01*
X232599602Y-286745466D01*
X232600565Y-286725860D01*
X232605375Y-286677029D01*
X232608254Y-286657620D01*
X232617826Y-286609495D01*
X232622596Y-286590452D01*
X232636840Y-286543497D01*
X232643451Y-286525020D01*
X232662228Y-286479687D01*
X232670623Y-286461939D01*
X232693754Y-286418666D01*
X232703840Y-286401838D01*
X232731100Y-286361039D01*
X232742795Y-286345270D01*
X232773923Y-286307341D01*
X232787103Y-286292800D01*
X232821800Y-286258103D01*
X232836341Y-286244923D01*
X232874270Y-286213795D01*
X232890039Y-286202100D01*
X232930838Y-286174840D01*
X232947666Y-286164754D01*
X232990939Y-286141623D01*
X233008687Y-286133228D01*
X233054020Y-286114451D01*
X233072497Y-286107840D01*
X233119452Y-286093596D01*
X233138495Y-286088826D01*
X233186620Y-286079254D01*
X233206029Y-286076375D01*
X233254860Y-286071565D01*
X233274466Y-286070602D01*
X233292888Y-286070602D01*
X233299000Y-286070000D01*
X233799000Y-286070000D01*
X233838018Y-286073843D01*
X233875537Y-286085224D01*
X233910114Y-286103706D01*
X233940421Y-286128579D01*
X233965294Y-286158886D01*
X233983776Y-286193463D01*
X233995157Y-286230982D01*
X233999000Y-286270000D01*
X233999000Y-287770000D01*
X233995157Y-287809018D01*
X233983776Y-287846537D01*
X233965294Y-287881114D01*
X233940421Y-287911421D01*
X233910114Y-287936294D01*
X233875537Y-287954776D01*
X233838018Y-287966157D01*
X233799000Y-287970000D01*
X233299000Y-287970000D01*
X233292888Y-287969398D01*
X233292888Y-287969398D01*
G37*
D11*
X159385000Y-102235000D03*
X437515000Y-102235000D03*
X437515000Y-297815000D03*
D12*
G36*
X195414071Y-130662623D02*
G01*
X195446781Y-130667475D01*
X195478857Y-130675509D01*
X195509991Y-130686649D01*
X195539884Y-130700787D01*
X195568247Y-130717787D01*
X195594807Y-130737485D01*
X195619308Y-130759692D01*
X195641515Y-130784193D01*
X195661213Y-130810753D01*
X195678213Y-130839116D01*
X195692351Y-130869009D01*
X195703491Y-130900143D01*
X195711525Y-130932219D01*
X195716377Y-130964929D01*
X195718000Y-130997956D01*
X195718000Y-131874044D01*
X195716377Y-131907071D01*
X195711525Y-131939781D01*
X195703491Y-131971857D01*
X195692351Y-132002991D01*
X195678213Y-132032884D01*
X195661213Y-132061247D01*
X195641515Y-132087807D01*
X195619308Y-132112308D01*
X195594807Y-132134515D01*
X195568247Y-132154213D01*
X195539884Y-132171213D01*
X195509991Y-132185351D01*
X195478857Y-132196491D01*
X195446781Y-132204525D01*
X195414071Y-132209377D01*
X195381044Y-132211000D01*
X194254956Y-132211000D01*
X194221929Y-132209377D01*
X194189219Y-132204525D01*
X194157143Y-132196491D01*
X194126009Y-132185351D01*
X194096116Y-132171213D01*
X194067753Y-132154213D01*
X194041193Y-132134515D01*
X194016692Y-132112308D01*
X193994485Y-132087807D01*
X193974787Y-132061247D01*
X193957787Y-132032884D01*
X193943649Y-132002991D01*
X193932509Y-131971857D01*
X193924475Y-131939781D01*
X193919623Y-131907071D01*
X193918000Y-131874044D01*
X193918000Y-130997956D01*
X193919623Y-130964929D01*
X193924475Y-130932219D01*
X193932509Y-130900143D01*
X193943649Y-130869009D01*
X193957787Y-130839116D01*
X193974787Y-130810753D01*
X193994485Y-130784193D01*
X194016692Y-130759692D01*
X194041193Y-130737485D01*
X194067753Y-130717787D01*
X194096116Y-130700787D01*
X194126009Y-130686649D01*
X194157143Y-130675509D01*
X194189219Y-130667475D01*
X194221929Y-130662623D01*
X194254956Y-130661000D01*
X195381044Y-130661000D01*
X195414071Y-130662623D01*
X195414071Y-130662623D01*
G37*
D13*
X194818000Y-131436000D03*
D12*
G36*
X195414071Y-132712623D02*
G01*
X195446781Y-132717475D01*
X195478857Y-132725509D01*
X195509991Y-132736649D01*
X195539884Y-132750787D01*
X195568247Y-132767787D01*
X195594807Y-132787485D01*
X195619308Y-132809692D01*
X195641515Y-132834193D01*
X195661213Y-132860753D01*
X195678213Y-132889116D01*
X195692351Y-132919009D01*
X195703491Y-132950143D01*
X195711525Y-132982219D01*
X195716377Y-133014929D01*
X195718000Y-133047956D01*
X195718000Y-133924044D01*
X195716377Y-133957071D01*
X195711525Y-133989781D01*
X195703491Y-134021857D01*
X195692351Y-134052991D01*
X195678213Y-134082884D01*
X195661213Y-134111247D01*
X195641515Y-134137807D01*
X195619308Y-134162308D01*
X195594807Y-134184515D01*
X195568247Y-134204213D01*
X195539884Y-134221213D01*
X195509991Y-134235351D01*
X195478857Y-134246491D01*
X195446781Y-134254525D01*
X195414071Y-134259377D01*
X195381044Y-134261000D01*
X194254956Y-134261000D01*
X194221929Y-134259377D01*
X194189219Y-134254525D01*
X194157143Y-134246491D01*
X194126009Y-134235351D01*
X194096116Y-134221213D01*
X194067753Y-134204213D01*
X194041193Y-134184515D01*
X194016692Y-134162308D01*
X193994485Y-134137807D01*
X193974787Y-134111247D01*
X193957787Y-134082884D01*
X193943649Y-134052991D01*
X193932509Y-134021857D01*
X193924475Y-133989781D01*
X193919623Y-133957071D01*
X193918000Y-133924044D01*
X193918000Y-133047956D01*
X193919623Y-133014929D01*
X193924475Y-132982219D01*
X193932509Y-132950143D01*
X193943649Y-132919009D01*
X193957787Y-132889116D01*
X193974787Y-132860753D01*
X193994485Y-132834193D01*
X194016692Y-132809692D01*
X194041193Y-132787485D01*
X194067753Y-132767787D01*
X194096116Y-132750787D01*
X194126009Y-132736649D01*
X194157143Y-132725509D01*
X194189219Y-132717475D01*
X194221929Y-132712623D01*
X194254956Y-132711000D01*
X195381044Y-132711000D01*
X195414071Y-132712623D01*
X195414071Y-132712623D01*
G37*
D13*
X194818000Y-133486000D03*
D12*
G36*
X178904071Y-130789623D02*
G01*
X178936781Y-130794475D01*
X178968857Y-130802509D01*
X178999991Y-130813649D01*
X179029884Y-130827787D01*
X179058247Y-130844787D01*
X179084807Y-130864485D01*
X179109308Y-130886692D01*
X179131515Y-130911193D01*
X179151213Y-130937753D01*
X179168213Y-130966116D01*
X179182351Y-130996009D01*
X179193491Y-131027143D01*
X179201525Y-131059219D01*
X179206377Y-131091929D01*
X179208000Y-131124956D01*
X179208000Y-132001044D01*
X179206377Y-132034071D01*
X179201525Y-132066781D01*
X179193491Y-132098857D01*
X179182351Y-132129991D01*
X179168213Y-132159884D01*
X179151213Y-132188247D01*
X179131515Y-132214807D01*
X179109308Y-132239308D01*
X179084807Y-132261515D01*
X179058247Y-132281213D01*
X179029884Y-132298213D01*
X178999991Y-132312351D01*
X178968857Y-132323491D01*
X178936781Y-132331525D01*
X178904071Y-132336377D01*
X178871044Y-132338000D01*
X177744956Y-132338000D01*
X177711929Y-132336377D01*
X177679219Y-132331525D01*
X177647143Y-132323491D01*
X177616009Y-132312351D01*
X177586116Y-132298213D01*
X177557753Y-132281213D01*
X177531193Y-132261515D01*
X177506692Y-132239308D01*
X177484485Y-132214807D01*
X177464787Y-132188247D01*
X177447787Y-132159884D01*
X177433649Y-132129991D01*
X177422509Y-132098857D01*
X177414475Y-132066781D01*
X177409623Y-132034071D01*
X177408000Y-132001044D01*
X177408000Y-131124956D01*
X177409623Y-131091929D01*
X177414475Y-131059219D01*
X177422509Y-131027143D01*
X177433649Y-130996009D01*
X177447787Y-130966116D01*
X177464787Y-130937753D01*
X177484485Y-130911193D01*
X177506692Y-130886692D01*
X177531193Y-130864485D01*
X177557753Y-130844787D01*
X177586116Y-130827787D01*
X177616009Y-130813649D01*
X177647143Y-130802509D01*
X177679219Y-130794475D01*
X177711929Y-130789623D01*
X177744956Y-130788000D01*
X178871044Y-130788000D01*
X178904071Y-130789623D01*
X178904071Y-130789623D01*
G37*
D13*
X178308000Y-131563000D03*
D12*
G36*
X178904071Y-132839623D02*
G01*
X178936781Y-132844475D01*
X178968857Y-132852509D01*
X178999991Y-132863649D01*
X179029884Y-132877787D01*
X179058247Y-132894787D01*
X179084807Y-132914485D01*
X179109308Y-132936692D01*
X179131515Y-132961193D01*
X179151213Y-132987753D01*
X179168213Y-133016116D01*
X179182351Y-133046009D01*
X179193491Y-133077143D01*
X179201525Y-133109219D01*
X179206377Y-133141929D01*
X179208000Y-133174956D01*
X179208000Y-134051044D01*
X179206377Y-134084071D01*
X179201525Y-134116781D01*
X179193491Y-134148857D01*
X179182351Y-134179991D01*
X179168213Y-134209884D01*
X179151213Y-134238247D01*
X179131515Y-134264807D01*
X179109308Y-134289308D01*
X179084807Y-134311515D01*
X179058247Y-134331213D01*
X179029884Y-134348213D01*
X178999991Y-134362351D01*
X178968857Y-134373491D01*
X178936781Y-134381525D01*
X178904071Y-134386377D01*
X178871044Y-134388000D01*
X177744956Y-134388000D01*
X177711929Y-134386377D01*
X177679219Y-134381525D01*
X177647143Y-134373491D01*
X177616009Y-134362351D01*
X177586116Y-134348213D01*
X177557753Y-134331213D01*
X177531193Y-134311515D01*
X177506692Y-134289308D01*
X177484485Y-134264807D01*
X177464787Y-134238247D01*
X177447787Y-134209884D01*
X177433649Y-134179991D01*
X177422509Y-134148857D01*
X177414475Y-134116781D01*
X177409623Y-134084071D01*
X177408000Y-134051044D01*
X177408000Y-133174956D01*
X177409623Y-133141929D01*
X177414475Y-133109219D01*
X177422509Y-133077143D01*
X177433649Y-133046009D01*
X177447787Y-133016116D01*
X177464787Y-132987753D01*
X177484485Y-132961193D01*
X177506692Y-132936692D01*
X177531193Y-132914485D01*
X177557753Y-132894787D01*
X177586116Y-132877787D01*
X177616009Y-132863649D01*
X177647143Y-132852509D01*
X177679219Y-132844475D01*
X177711929Y-132839623D01*
X177744956Y-132838000D01*
X178871044Y-132838000D01*
X178904071Y-132839623D01*
X178904071Y-132839623D01*
G37*
D13*
X178308000Y-133613000D03*
D12*
G36*
X182079071Y-132839623D02*
G01*
X182111781Y-132844475D01*
X182143857Y-132852509D01*
X182174991Y-132863649D01*
X182204884Y-132877787D01*
X182233247Y-132894787D01*
X182259807Y-132914485D01*
X182284308Y-132936692D01*
X182306515Y-132961193D01*
X182326213Y-132987753D01*
X182343213Y-133016116D01*
X182357351Y-133046009D01*
X182368491Y-133077143D01*
X182376525Y-133109219D01*
X182381377Y-133141929D01*
X182383000Y-133174956D01*
X182383000Y-134051044D01*
X182381377Y-134084071D01*
X182376525Y-134116781D01*
X182368491Y-134148857D01*
X182357351Y-134179991D01*
X182343213Y-134209884D01*
X182326213Y-134238247D01*
X182306515Y-134264807D01*
X182284308Y-134289308D01*
X182259807Y-134311515D01*
X182233247Y-134331213D01*
X182204884Y-134348213D01*
X182174991Y-134362351D01*
X182143857Y-134373491D01*
X182111781Y-134381525D01*
X182079071Y-134386377D01*
X182046044Y-134388000D01*
X180919956Y-134388000D01*
X180886929Y-134386377D01*
X180854219Y-134381525D01*
X180822143Y-134373491D01*
X180791009Y-134362351D01*
X180761116Y-134348213D01*
X180732753Y-134331213D01*
X180706193Y-134311515D01*
X180681692Y-134289308D01*
X180659485Y-134264807D01*
X180639787Y-134238247D01*
X180622787Y-134209884D01*
X180608649Y-134179991D01*
X180597509Y-134148857D01*
X180589475Y-134116781D01*
X180584623Y-134084071D01*
X180583000Y-134051044D01*
X180583000Y-133174956D01*
X180584623Y-133141929D01*
X180589475Y-133109219D01*
X180597509Y-133077143D01*
X180608649Y-133046009D01*
X180622787Y-133016116D01*
X180639787Y-132987753D01*
X180659485Y-132961193D01*
X180681692Y-132936692D01*
X180706193Y-132914485D01*
X180732753Y-132894787D01*
X180761116Y-132877787D01*
X180791009Y-132863649D01*
X180822143Y-132852509D01*
X180854219Y-132844475D01*
X180886929Y-132839623D01*
X180919956Y-132838000D01*
X182046044Y-132838000D01*
X182079071Y-132839623D01*
X182079071Y-132839623D01*
G37*
D13*
X181483000Y-133613000D03*
D12*
G36*
X182079071Y-130789623D02*
G01*
X182111781Y-130794475D01*
X182143857Y-130802509D01*
X182174991Y-130813649D01*
X182204884Y-130827787D01*
X182233247Y-130844787D01*
X182259807Y-130864485D01*
X182284308Y-130886692D01*
X182306515Y-130911193D01*
X182326213Y-130937753D01*
X182343213Y-130966116D01*
X182357351Y-130996009D01*
X182368491Y-131027143D01*
X182376525Y-131059219D01*
X182381377Y-131091929D01*
X182383000Y-131124956D01*
X182383000Y-132001044D01*
X182381377Y-132034071D01*
X182376525Y-132066781D01*
X182368491Y-132098857D01*
X182357351Y-132129991D01*
X182343213Y-132159884D01*
X182326213Y-132188247D01*
X182306515Y-132214807D01*
X182284308Y-132239308D01*
X182259807Y-132261515D01*
X182233247Y-132281213D01*
X182204884Y-132298213D01*
X182174991Y-132312351D01*
X182143857Y-132323491D01*
X182111781Y-132331525D01*
X182079071Y-132336377D01*
X182046044Y-132338000D01*
X180919956Y-132338000D01*
X180886929Y-132336377D01*
X180854219Y-132331525D01*
X180822143Y-132323491D01*
X180791009Y-132312351D01*
X180761116Y-132298213D01*
X180732753Y-132281213D01*
X180706193Y-132261515D01*
X180681692Y-132239308D01*
X180659485Y-132214807D01*
X180639787Y-132188247D01*
X180622787Y-132159884D01*
X180608649Y-132129991D01*
X180597509Y-132098857D01*
X180589475Y-132066781D01*
X180584623Y-132034071D01*
X180583000Y-132001044D01*
X180583000Y-131124956D01*
X180584623Y-131091929D01*
X180589475Y-131059219D01*
X180597509Y-131027143D01*
X180608649Y-130996009D01*
X180622787Y-130966116D01*
X180639787Y-130937753D01*
X180659485Y-130911193D01*
X180681692Y-130886692D01*
X180706193Y-130864485D01*
X180732753Y-130844787D01*
X180761116Y-130827787D01*
X180791009Y-130813649D01*
X180822143Y-130802509D01*
X180854219Y-130794475D01*
X180886929Y-130789623D01*
X180919956Y-130788000D01*
X182046044Y-130788000D01*
X182079071Y-130789623D01*
X182079071Y-130789623D01*
G37*
D13*
X181483000Y-131563000D03*
D12*
G36*
X242585559Y-280074320D02*
G01*
X242616193Y-280078864D01*
X242646234Y-280086388D01*
X242675392Y-280096821D01*
X242703388Y-280110062D01*
X242729950Y-280125983D01*
X242754825Y-280144432D01*
X242777771Y-280165229D01*
X242798568Y-280188175D01*
X242817017Y-280213050D01*
X242832938Y-280239612D01*
X242846179Y-280267608D01*
X242856612Y-280296766D01*
X242864136Y-280326807D01*
X242868680Y-280357441D01*
X242870200Y-280388372D01*
X242870200Y-281682228D01*
X242868680Y-281713159D01*
X242864136Y-281743793D01*
X242856612Y-281773834D01*
X242846179Y-281802992D01*
X242832938Y-281830988D01*
X242817017Y-281857550D01*
X242798568Y-281882425D01*
X242777771Y-281905371D01*
X242754825Y-281926168D01*
X242729950Y-281944617D01*
X242703388Y-281960538D01*
X242675392Y-281973779D01*
X242646234Y-281984212D01*
X242616193Y-281991736D01*
X242585559Y-281996280D01*
X242554628Y-281997800D01*
X239435772Y-281997800D01*
X239404841Y-281996280D01*
X239374207Y-281991736D01*
X239344166Y-281984212D01*
X239315008Y-281973779D01*
X239287012Y-281960538D01*
X239260450Y-281944617D01*
X239235575Y-281926168D01*
X239212629Y-281905371D01*
X239191832Y-281882425D01*
X239173383Y-281857550D01*
X239157462Y-281830988D01*
X239144221Y-281802992D01*
X239133788Y-281773834D01*
X239126264Y-281743793D01*
X239121720Y-281713159D01*
X239120200Y-281682228D01*
X239120200Y-280388372D01*
X239121720Y-280357441D01*
X239126264Y-280326807D01*
X239133788Y-280296766D01*
X239144221Y-280267608D01*
X239157462Y-280239612D01*
X239173383Y-280213050D01*
X239191832Y-280188175D01*
X239212629Y-280165229D01*
X239235575Y-280144432D01*
X239260450Y-280125983D01*
X239287012Y-280110062D01*
X239315008Y-280096821D01*
X239344166Y-280086388D01*
X239374207Y-280078864D01*
X239404841Y-280074320D01*
X239435772Y-280072800D01*
X242554628Y-280072800D01*
X242585559Y-280074320D01*
X242585559Y-280074320D01*
G37*
D25*
X240995200Y-281035300D03*
D12*
G36*
X242585559Y-286049320D02*
G01*
X242616193Y-286053864D01*
X242646234Y-286061388D01*
X242675392Y-286071821D01*
X242703388Y-286085062D01*
X242729950Y-286100983D01*
X242754825Y-286119432D01*
X242777771Y-286140229D01*
X242798568Y-286163175D01*
X242817017Y-286188050D01*
X242832938Y-286214612D01*
X242846179Y-286242608D01*
X242856612Y-286271766D01*
X242864136Y-286301807D01*
X242868680Y-286332441D01*
X242870200Y-286363372D01*
X242870200Y-287657228D01*
X242868680Y-287688159D01*
X242864136Y-287718793D01*
X242856612Y-287748834D01*
X242846179Y-287777992D01*
X242832938Y-287805988D01*
X242817017Y-287832550D01*
X242798568Y-287857425D01*
X242777771Y-287880371D01*
X242754825Y-287901168D01*
X242729950Y-287919617D01*
X242703388Y-287935538D01*
X242675392Y-287948779D01*
X242646234Y-287959212D01*
X242616193Y-287966736D01*
X242585559Y-287971280D01*
X242554628Y-287972800D01*
X239435772Y-287972800D01*
X239404841Y-287971280D01*
X239374207Y-287966736D01*
X239344166Y-287959212D01*
X239315008Y-287948779D01*
X239287012Y-287935538D01*
X239260450Y-287919617D01*
X239235575Y-287901168D01*
X239212629Y-287880371D01*
X239191832Y-287857425D01*
X239173383Y-287832550D01*
X239157462Y-287805988D01*
X239144221Y-287777992D01*
X239133788Y-287748834D01*
X239126264Y-287718793D01*
X239121720Y-287688159D01*
X239120200Y-287657228D01*
X239120200Y-286363372D01*
X239121720Y-286332441D01*
X239126264Y-286301807D01*
X239133788Y-286271766D01*
X239144221Y-286242608D01*
X239157462Y-286214612D01*
X239173383Y-286188050D01*
X239191832Y-286163175D01*
X239212629Y-286140229D01*
X239235575Y-286119432D01*
X239260450Y-286100983D01*
X239287012Y-286085062D01*
X239315008Y-286071821D01*
X239344166Y-286061388D01*
X239374207Y-286053864D01*
X239404841Y-286049320D01*
X239435772Y-286047800D01*
X242554628Y-286047800D01*
X242585559Y-286049320D01*
X242585559Y-286049320D01*
G37*
D25*
X240995200Y-287010300D03*
D12*
G36*
X221714071Y-290439623D02*
G01*
X221746781Y-290444475D01*
X221778857Y-290452509D01*
X221809991Y-290463649D01*
X221839884Y-290477787D01*
X221868247Y-290494787D01*
X221894807Y-290514485D01*
X221919308Y-290536692D01*
X221941515Y-290561193D01*
X221961213Y-290587753D01*
X221978213Y-290616116D01*
X221992351Y-290646009D01*
X222003491Y-290677143D01*
X222011525Y-290709219D01*
X222016377Y-290741929D01*
X222018000Y-290774956D01*
X222018000Y-291901044D01*
X222016377Y-291934071D01*
X222011525Y-291966781D01*
X222003491Y-291998857D01*
X221992351Y-292029991D01*
X221978213Y-292059884D01*
X221961213Y-292088247D01*
X221941515Y-292114807D01*
X221919308Y-292139308D01*
X221894807Y-292161515D01*
X221868247Y-292181213D01*
X221839884Y-292198213D01*
X221809991Y-292212351D01*
X221778857Y-292223491D01*
X221746781Y-292231525D01*
X221714071Y-292236377D01*
X221681044Y-292238000D01*
X220804956Y-292238000D01*
X220771929Y-292236377D01*
X220739219Y-292231525D01*
X220707143Y-292223491D01*
X220676009Y-292212351D01*
X220646116Y-292198213D01*
X220617753Y-292181213D01*
X220591193Y-292161515D01*
X220566692Y-292139308D01*
X220544485Y-292114807D01*
X220524787Y-292088247D01*
X220507787Y-292059884D01*
X220493649Y-292029991D01*
X220482509Y-291998857D01*
X220474475Y-291966781D01*
X220469623Y-291934071D01*
X220468000Y-291901044D01*
X220468000Y-290774956D01*
X220469623Y-290741929D01*
X220474475Y-290709219D01*
X220482509Y-290677143D01*
X220493649Y-290646009D01*
X220507787Y-290616116D01*
X220524787Y-290587753D01*
X220544485Y-290561193D01*
X220566692Y-290536692D01*
X220591193Y-290514485D01*
X220617753Y-290494787D01*
X220646116Y-290477787D01*
X220676009Y-290463649D01*
X220707143Y-290452509D01*
X220739219Y-290444475D01*
X220771929Y-290439623D01*
X220804956Y-290438000D01*
X221681044Y-290438000D01*
X221714071Y-290439623D01*
X221714071Y-290439623D01*
G37*
D13*
X221243000Y-291338000D03*
D12*
G36*
X219664071Y-290439623D02*
G01*
X219696781Y-290444475D01*
X219728857Y-290452509D01*
X219759991Y-290463649D01*
X219789884Y-290477787D01*
X219818247Y-290494787D01*
X219844807Y-290514485D01*
X219869308Y-290536692D01*
X219891515Y-290561193D01*
X219911213Y-290587753D01*
X219928213Y-290616116D01*
X219942351Y-290646009D01*
X219953491Y-290677143D01*
X219961525Y-290709219D01*
X219966377Y-290741929D01*
X219968000Y-290774956D01*
X219968000Y-291901044D01*
X219966377Y-291934071D01*
X219961525Y-291966781D01*
X219953491Y-291998857D01*
X219942351Y-292029991D01*
X219928213Y-292059884D01*
X219911213Y-292088247D01*
X219891515Y-292114807D01*
X219869308Y-292139308D01*
X219844807Y-292161515D01*
X219818247Y-292181213D01*
X219789884Y-292198213D01*
X219759991Y-292212351D01*
X219728857Y-292223491D01*
X219696781Y-292231525D01*
X219664071Y-292236377D01*
X219631044Y-292238000D01*
X218754956Y-292238000D01*
X218721929Y-292236377D01*
X218689219Y-292231525D01*
X218657143Y-292223491D01*
X218626009Y-292212351D01*
X218596116Y-292198213D01*
X218567753Y-292181213D01*
X218541193Y-292161515D01*
X218516692Y-292139308D01*
X218494485Y-292114807D01*
X218474787Y-292088247D01*
X218457787Y-292059884D01*
X218443649Y-292029991D01*
X218432509Y-291998857D01*
X218424475Y-291966781D01*
X218419623Y-291934071D01*
X218418000Y-291901044D01*
X218418000Y-290774956D01*
X218419623Y-290741929D01*
X218424475Y-290709219D01*
X218432509Y-290677143D01*
X218443649Y-290646009D01*
X218457787Y-290616116D01*
X218474787Y-290587753D01*
X218494485Y-290561193D01*
X218516692Y-290536692D01*
X218541193Y-290514485D01*
X218567753Y-290494787D01*
X218596116Y-290477787D01*
X218626009Y-290463649D01*
X218657143Y-290452509D01*
X218689219Y-290444475D01*
X218721929Y-290439623D01*
X218754956Y-290438000D01*
X219631044Y-290438000D01*
X219664071Y-290439623D01*
X219664071Y-290439623D01*
G37*
D13*
X219193000Y-291338000D03*
D11*
X258445000Y-221615000D03*
X258445000Y-297815000D03*
X338455000Y-221615000D03*
X338455000Y-297815000D03*
D12*
G36*
X228443872Y-290093824D02*
G01*
X228476582Y-290098676D01*
X228508658Y-290106710D01*
X228539792Y-290117850D01*
X228569685Y-290131988D01*
X228598048Y-290148988D01*
X228624608Y-290168686D01*
X228649109Y-290190893D01*
X228671316Y-290215394D01*
X228691014Y-290241954D01*
X228708014Y-290270317D01*
X228722152Y-290300210D01*
X228733292Y-290331344D01*
X228741326Y-290363420D01*
X228746178Y-290396130D01*
X228747801Y-290429157D01*
X228747801Y-291305245D01*
X228746178Y-291338272D01*
X228741326Y-291370982D01*
X228733292Y-291403058D01*
X228722152Y-291434192D01*
X228708014Y-291464085D01*
X228691014Y-291492448D01*
X228671316Y-291519008D01*
X228649109Y-291543509D01*
X228624608Y-291565716D01*
X228598048Y-291585414D01*
X228569685Y-291602414D01*
X228539792Y-291616552D01*
X228508658Y-291627692D01*
X228476582Y-291635726D01*
X228443872Y-291640578D01*
X228410845Y-291642201D01*
X227284757Y-291642201D01*
X227251730Y-291640578D01*
X227219020Y-291635726D01*
X227186944Y-291627692D01*
X227155810Y-291616552D01*
X227125917Y-291602414D01*
X227097554Y-291585414D01*
X227070994Y-291565716D01*
X227046493Y-291543509D01*
X227024286Y-291519008D01*
X227004588Y-291492448D01*
X226987588Y-291464085D01*
X226973450Y-291434192D01*
X226962310Y-291403058D01*
X226954276Y-291370982D01*
X226949424Y-291338272D01*
X226947801Y-291305245D01*
X226947801Y-290429157D01*
X226949424Y-290396130D01*
X226954276Y-290363420D01*
X226962310Y-290331344D01*
X226973450Y-290300210D01*
X226987588Y-290270317D01*
X227004588Y-290241954D01*
X227024286Y-290215394D01*
X227046493Y-290190893D01*
X227070994Y-290168686D01*
X227097554Y-290148988D01*
X227125917Y-290131988D01*
X227155810Y-290117850D01*
X227186944Y-290106710D01*
X227219020Y-290098676D01*
X227251730Y-290093824D01*
X227284757Y-290092201D01*
X228410845Y-290092201D01*
X228443872Y-290093824D01*
X228443872Y-290093824D01*
G37*
D13*
X227847801Y-290867201D03*
D12*
G36*
X228443872Y-292143824D02*
G01*
X228476582Y-292148676D01*
X228508658Y-292156710D01*
X228539792Y-292167850D01*
X228569685Y-292181988D01*
X228598048Y-292198988D01*
X228624608Y-292218686D01*
X228649109Y-292240893D01*
X228671316Y-292265394D01*
X228691014Y-292291954D01*
X228708014Y-292320317D01*
X228722152Y-292350210D01*
X228733292Y-292381344D01*
X228741326Y-292413420D01*
X228746178Y-292446130D01*
X228747801Y-292479157D01*
X228747801Y-293355245D01*
X228746178Y-293388272D01*
X228741326Y-293420982D01*
X228733292Y-293453058D01*
X228722152Y-293484192D01*
X228708014Y-293514085D01*
X228691014Y-293542448D01*
X228671316Y-293569008D01*
X228649109Y-293593509D01*
X228624608Y-293615716D01*
X228598048Y-293635414D01*
X228569685Y-293652414D01*
X228539792Y-293666552D01*
X228508658Y-293677692D01*
X228476582Y-293685726D01*
X228443872Y-293690578D01*
X228410845Y-293692201D01*
X227284757Y-293692201D01*
X227251730Y-293690578D01*
X227219020Y-293685726D01*
X227186944Y-293677692D01*
X227155810Y-293666552D01*
X227125917Y-293652414D01*
X227097554Y-293635414D01*
X227070994Y-293615716D01*
X227046493Y-293593509D01*
X227024286Y-293569008D01*
X227004588Y-293542448D01*
X226987588Y-293514085D01*
X226973450Y-293484192D01*
X226962310Y-293453058D01*
X226954276Y-293420982D01*
X226949424Y-293388272D01*
X226947801Y-293355245D01*
X226947801Y-292479157D01*
X226949424Y-292446130D01*
X226954276Y-292413420D01*
X226962310Y-292381344D01*
X226973450Y-292350210D01*
X226987588Y-292320317D01*
X227004588Y-292291954D01*
X227024286Y-292265394D01*
X227046493Y-292240893D01*
X227070994Y-292218686D01*
X227097554Y-292198988D01*
X227125917Y-292181988D01*
X227155810Y-292167850D01*
X227186944Y-292156710D01*
X227219020Y-292148676D01*
X227251730Y-292143824D01*
X227284757Y-292142201D01*
X228410845Y-292142201D01*
X228443872Y-292143824D01*
X228443872Y-292143824D01*
G37*
D13*
X227847801Y-292917201D03*
D12*
G36*
X228443872Y-296893824D02*
G01*
X228476582Y-296898676D01*
X228508658Y-296906710D01*
X228539792Y-296917850D01*
X228569685Y-296931988D01*
X228598048Y-296948988D01*
X228624608Y-296968686D01*
X228649109Y-296990893D01*
X228671316Y-297015394D01*
X228691014Y-297041954D01*
X228708014Y-297070317D01*
X228722152Y-297100210D01*
X228733292Y-297131344D01*
X228741326Y-297163420D01*
X228746178Y-297196130D01*
X228747801Y-297229157D01*
X228747801Y-298105245D01*
X228746178Y-298138272D01*
X228741326Y-298170982D01*
X228733292Y-298203058D01*
X228722152Y-298234192D01*
X228708014Y-298264085D01*
X228691014Y-298292448D01*
X228671316Y-298319008D01*
X228649109Y-298343509D01*
X228624608Y-298365716D01*
X228598048Y-298385414D01*
X228569685Y-298402414D01*
X228539792Y-298416552D01*
X228508658Y-298427692D01*
X228476582Y-298435726D01*
X228443872Y-298440578D01*
X228410845Y-298442201D01*
X227284757Y-298442201D01*
X227251730Y-298440578D01*
X227219020Y-298435726D01*
X227186944Y-298427692D01*
X227155810Y-298416552D01*
X227125917Y-298402414D01*
X227097554Y-298385414D01*
X227070994Y-298365716D01*
X227046493Y-298343509D01*
X227024286Y-298319008D01*
X227004588Y-298292448D01*
X226987588Y-298264085D01*
X226973450Y-298234192D01*
X226962310Y-298203058D01*
X226954276Y-298170982D01*
X226949424Y-298138272D01*
X226947801Y-298105245D01*
X226947801Y-297229157D01*
X226949424Y-297196130D01*
X226954276Y-297163420D01*
X226962310Y-297131344D01*
X226973450Y-297100210D01*
X226987588Y-297070317D01*
X227004588Y-297041954D01*
X227024286Y-297015394D01*
X227046493Y-296990893D01*
X227070994Y-296968686D01*
X227097554Y-296948988D01*
X227125917Y-296931988D01*
X227155810Y-296917850D01*
X227186944Y-296906710D01*
X227219020Y-296898676D01*
X227251730Y-296893824D01*
X227284757Y-296892201D01*
X228410845Y-296892201D01*
X228443872Y-296893824D01*
X228443872Y-296893824D01*
G37*
D13*
X227847801Y-297667201D03*
D12*
G36*
X228443872Y-294843824D02*
G01*
X228476582Y-294848676D01*
X228508658Y-294856710D01*
X228539792Y-294867850D01*
X228569685Y-294881988D01*
X228598048Y-294898988D01*
X228624608Y-294918686D01*
X228649109Y-294940893D01*
X228671316Y-294965394D01*
X228691014Y-294991954D01*
X228708014Y-295020317D01*
X228722152Y-295050210D01*
X228733292Y-295081344D01*
X228741326Y-295113420D01*
X228746178Y-295146130D01*
X228747801Y-295179157D01*
X228747801Y-296055245D01*
X228746178Y-296088272D01*
X228741326Y-296120982D01*
X228733292Y-296153058D01*
X228722152Y-296184192D01*
X228708014Y-296214085D01*
X228691014Y-296242448D01*
X228671316Y-296269008D01*
X228649109Y-296293509D01*
X228624608Y-296315716D01*
X228598048Y-296335414D01*
X228569685Y-296352414D01*
X228539792Y-296366552D01*
X228508658Y-296377692D01*
X228476582Y-296385726D01*
X228443872Y-296390578D01*
X228410845Y-296392201D01*
X227284757Y-296392201D01*
X227251730Y-296390578D01*
X227219020Y-296385726D01*
X227186944Y-296377692D01*
X227155810Y-296366552D01*
X227125917Y-296352414D01*
X227097554Y-296335414D01*
X227070994Y-296315716D01*
X227046493Y-296293509D01*
X227024286Y-296269008D01*
X227004588Y-296242448D01*
X226987588Y-296214085D01*
X226973450Y-296184192D01*
X226962310Y-296153058D01*
X226954276Y-296120982D01*
X226949424Y-296088272D01*
X226947801Y-296055245D01*
X226947801Y-295179157D01*
X226949424Y-295146130D01*
X226954276Y-295113420D01*
X226962310Y-295081344D01*
X226973450Y-295050210D01*
X226987588Y-295020317D01*
X227004588Y-294991954D01*
X227024286Y-294965394D01*
X227046493Y-294940893D01*
X227070994Y-294918686D01*
X227097554Y-294898988D01*
X227125917Y-294881988D01*
X227155810Y-294867850D01*
X227186944Y-294856710D01*
X227219020Y-294848676D01*
X227251730Y-294843824D01*
X227284757Y-294842201D01*
X228410845Y-294842201D01*
X228443872Y-294843824D01*
X228443872Y-294843824D01*
G37*
D13*
X227847801Y-295617201D03*
M02*
