G04 #@! TF.GenerationSoftware,KiCad,Pcbnew,(5.1.4)-1*
G04 #@! TF.CreationDate,2019-09-11T03:03:15-07:00*
G04 #@! TF.ProjectId,BrightBoard1,42726967-6874-4426-9f61-7264312e6b69,rev?*
G04 #@! TF.SameCoordinates,Original*
G04 #@! TF.FileFunction,Paste,Bot*
G04 #@! TF.FilePolarity,Positive*
%FSLAX46Y46*%
G04 Gerber Fmt 4.6, Leading zero omitted, Abs format (unit mm)*
G04 Created by KiCad (PCBNEW (5.1.4)-1) date 2019-09-11 03:03:15*
%MOMM*%
%LPD*%
G04 APERTURE LIST*
%ADD10C,0.100000*%
%ADD11C,1.150000*%
%ADD12R,2.400000X0.740000*%
%ADD13R,4.200000X2.400000*%
%ADD14R,0.800000X0.900000*%
%ADD15R,0.700000X1.800000*%
%ADD16R,1.800000X0.700000*%
%ADD17R,0.650000X0.700000*%
%ADD18R,0.500000X0.250000*%
%ADD19C,1.525000*%
G04 APERTURE END LIST*
D10*
G36*
X208602105Y-268200004D02*
G01*
X208626373Y-268203604D01*
X208650172Y-268209565D01*
X208673271Y-268217830D01*
X208695450Y-268228320D01*
X208716493Y-268240932D01*
X208736199Y-268255547D01*
X208754377Y-268272023D01*
X208770853Y-268290201D01*
X208785468Y-268309907D01*
X208798080Y-268330950D01*
X208808570Y-268353129D01*
X208816835Y-268376228D01*
X208822796Y-268400027D01*
X208826396Y-268424295D01*
X208827600Y-268448799D01*
X208827600Y-269098801D01*
X208826396Y-269123305D01*
X208822796Y-269147573D01*
X208816835Y-269171372D01*
X208808570Y-269194471D01*
X208798080Y-269216650D01*
X208785468Y-269237693D01*
X208770853Y-269257399D01*
X208754377Y-269275577D01*
X208736199Y-269292053D01*
X208716493Y-269306668D01*
X208695450Y-269319280D01*
X208673271Y-269329770D01*
X208650172Y-269338035D01*
X208626373Y-269343996D01*
X208602105Y-269347596D01*
X208577601Y-269348800D01*
X207677599Y-269348800D01*
X207653095Y-269347596D01*
X207628827Y-269343996D01*
X207605028Y-269338035D01*
X207581929Y-269329770D01*
X207559750Y-269319280D01*
X207538707Y-269306668D01*
X207519001Y-269292053D01*
X207500823Y-269275577D01*
X207484347Y-269257399D01*
X207469732Y-269237693D01*
X207457120Y-269216650D01*
X207446630Y-269194471D01*
X207438365Y-269171372D01*
X207432404Y-269147573D01*
X207428804Y-269123305D01*
X207427600Y-269098801D01*
X207427600Y-268448799D01*
X207428804Y-268424295D01*
X207432404Y-268400027D01*
X207438365Y-268376228D01*
X207446630Y-268353129D01*
X207457120Y-268330950D01*
X207469732Y-268309907D01*
X207484347Y-268290201D01*
X207500823Y-268272023D01*
X207519001Y-268255547D01*
X207538707Y-268240932D01*
X207559750Y-268228320D01*
X207581929Y-268217830D01*
X207605028Y-268209565D01*
X207628827Y-268203604D01*
X207653095Y-268200004D01*
X207677599Y-268198800D01*
X208577601Y-268198800D01*
X208602105Y-268200004D01*
X208602105Y-268200004D01*
G37*
D11*
X208127600Y-268773800D03*
D10*
G36*
X208602105Y-270250004D02*
G01*
X208626373Y-270253604D01*
X208650172Y-270259565D01*
X208673271Y-270267830D01*
X208695450Y-270278320D01*
X208716493Y-270290932D01*
X208736199Y-270305547D01*
X208754377Y-270322023D01*
X208770853Y-270340201D01*
X208785468Y-270359907D01*
X208798080Y-270380950D01*
X208808570Y-270403129D01*
X208816835Y-270426228D01*
X208822796Y-270450027D01*
X208826396Y-270474295D01*
X208827600Y-270498799D01*
X208827600Y-271148801D01*
X208826396Y-271173305D01*
X208822796Y-271197573D01*
X208816835Y-271221372D01*
X208808570Y-271244471D01*
X208798080Y-271266650D01*
X208785468Y-271287693D01*
X208770853Y-271307399D01*
X208754377Y-271325577D01*
X208736199Y-271342053D01*
X208716493Y-271356668D01*
X208695450Y-271369280D01*
X208673271Y-271379770D01*
X208650172Y-271388035D01*
X208626373Y-271393996D01*
X208602105Y-271397596D01*
X208577601Y-271398800D01*
X207677599Y-271398800D01*
X207653095Y-271397596D01*
X207628827Y-271393996D01*
X207605028Y-271388035D01*
X207581929Y-271379770D01*
X207559750Y-271369280D01*
X207538707Y-271356668D01*
X207519001Y-271342053D01*
X207500823Y-271325577D01*
X207484347Y-271307399D01*
X207469732Y-271287693D01*
X207457120Y-271266650D01*
X207446630Y-271244471D01*
X207438365Y-271221372D01*
X207432404Y-271197573D01*
X207428804Y-271173305D01*
X207427600Y-271148801D01*
X207427600Y-270498799D01*
X207428804Y-270474295D01*
X207432404Y-270450027D01*
X207438365Y-270426228D01*
X207446630Y-270403129D01*
X207457120Y-270380950D01*
X207469732Y-270359907D01*
X207484347Y-270340201D01*
X207500823Y-270322023D01*
X207519001Y-270305547D01*
X207538707Y-270290932D01*
X207559750Y-270278320D01*
X207581929Y-270267830D01*
X207605028Y-270259565D01*
X207628827Y-270253604D01*
X207653095Y-270250004D01*
X207677599Y-270248800D01*
X208577601Y-270248800D01*
X208602105Y-270250004D01*
X208602105Y-270250004D01*
G37*
D11*
X208127600Y-270823800D03*
D10*
G36*
X211040505Y-268200004D02*
G01*
X211064773Y-268203604D01*
X211088572Y-268209565D01*
X211111671Y-268217830D01*
X211133850Y-268228320D01*
X211154893Y-268240932D01*
X211174599Y-268255547D01*
X211192777Y-268272023D01*
X211209253Y-268290201D01*
X211223868Y-268309907D01*
X211236480Y-268330950D01*
X211246970Y-268353129D01*
X211255235Y-268376228D01*
X211261196Y-268400027D01*
X211264796Y-268424295D01*
X211266000Y-268448799D01*
X211266000Y-269098801D01*
X211264796Y-269123305D01*
X211261196Y-269147573D01*
X211255235Y-269171372D01*
X211246970Y-269194471D01*
X211236480Y-269216650D01*
X211223868Y-269237693D01*
X211209253Y-269257399D01*
X211192777Y-269275577D01*
X211174599Y-269292053D01*
X211154893Y-269306668D01*
X211133850Y-269319280D01*
X211111671Y-269329770D01*
X211088572Y-269338035D01*
X211064773Y-269343996D01*
X211040505Y-269347596D01*
X211016001Y-269348800D01*
X210115999Y-269348800D01*
X210091495Y-269347596D01*
X210067227Y-269343996D01*
X210043428Y-269338035D01*
X210020329Y-269329770D01*
X209998150Y-269319280D01*
X209977107Y-269306668D01*
X209957401Y-269292053D01*
X209939223Y-269275577D01*
X209922747Y-269257399D01*
X209908132Y-269237693D01*
X209895520Y-269216650D01*
X209885030Y-269194471D01*
X209876765Y-269171372D01*
X209870804Y-269147573D01*
X209867204Y-269123305D01*
X209866000Y-269098801D01*
X209866000Y-268448799D01*
X209867204Y-268424295D01*
X209870804Y-268400027D01*
X209876765Y-268376228D01*
X209885030Y-268353129D01*
X209895520Y-268330950D01*
X209908132Y-268309907D01*
X209922747Y-268290201D01*
X209939223Y-268272023D01*
X209957401Y-268255547D01*
X209977107Y-268240932D01*
X209998150Y-268228320D01*
X210020329Y-268217830D01*
X210043428Y-268209565D01*
X210067227Y-268203604D01*
X210091495Y-268200004D01*
X210115999Y-268198800D01*
X211016001Y-268198800D01*
X211040505Y-268200004D01*
X211040505Y-268200004D01*
G37*
D11*
X210566000Y-268773800D03*
D10*
G36*
X211040505Y-270250004D02*
G01*
X211064773Y-270253604D01*
X211088572Y-270259565D01*
X211111671Y-270267830D01*
X211133850Y-270278320D01*
X211154893Y-270290932D01*
X211174599Y-270305547D01*
X211192777Y-270322023D01*
X211209253Y-270340201D01*
X211223868Y-270359907D01*
X211236480Y-270380950D01*
X211246970Y-270403129D01*
X211255235Y-270426228D01*
X211261196Y-270450027D01*
X211264796Y-270474295D01*
X211266000Y-270498799D01*
X211266000Y-271148801D01*
X211264796Y-271173305D01*
X211261196Y-271197573D01*
X211255235Y-271221372D01*
X211246970Y-271244471D01*
X211236480Y-271266650D01*
X211223868Y-271287693D01*
X211209253Y-271307399D01*
X211192777Y-271325577D01*
X211174599Y-271342053D01*
X211154893Y-271356668D01*
X211133850Y-271369280D01*
X211111671Y-271379770D01*
X211088572Y-271388035D01*
X211064773Y-271393996D01*
X211040505Y-271397596D01*
X211016001Y-271398800D01*
X210115999Y-271398800D01*
X210091495Y-271397596D01*
X210067227Y-271393996D01*
X210043428Y-271388035D01*
X210020329Y-271379770D01*
X209998150Y-271369280D01*
X209977107Y-271356668D01*
X209957401Y-271342053D01*
X209939223Y-271325577D01*
X209922747Y-271307399D01*
X209908132Y-271287693D01*
X209895520Y-271266650D01*
X209885030Y-271244471D01*
X209876765Y-271221372D01*
X209870804Y-271197573D01*
X209867204Y-271173305D01*
X209866000Y-271148801D01*
X209866000Y-270498799D01*
X209867204Y-270474295D01*
X209870804Y-270450027D01*
X209876765Y-270426228D01*
X209885030Y-270403129D01*
X209895520Y-270380950D01*
X209908132Y-270359907D01*
X209922747Y-270340201D01*
X209939223Y-270322023D01*
X209957401Y-270305547D01*
X209977107Y-270290932D01*
X209998150Y-270278320D01*
X210020329Y-270267830D01*
X210043428Y-270259565D01*
X210067227Y-270253604D01*
X210091495Y-270250004D01*
X210115999Y-270248800D01*
X211016001Y-270248800D01*
X211040505Y-270250004D01*
X211040505Y-270250004D01*
G37*
D11*
X210566000Y-270823800D03*
D10*
G36*
X193117505Y-136461204D02*
G01*
X193141773Y-136464804D01*
X193165572Y-136470765D01*
X193188671Y-136479030D01*
X193210850Y-136489520D01*
X193231893Y-136502132D01*
X193251599Y-136516747D01*
X193269777Y-136533223D01*
X193286253Y-136551401D01*
X193300868Y-136571107D01*
X193313480Y-136592150D01*
X193323970Y-136614329D01*
X193332235Y-136637428D01*
X193338196Y-136661227D01*
X193341796Y-136685495D01*
X193343000Y-136709999D01*
X193343000Y-137610001D01*
X193341796Y-137634505D01*
X193338196Y-137658773D01*
X193332235Y-137682572D01*
X193323970Y-137705671D01*
X193313480Y-137727850D01*
X193300868Y-137748893D01*
X193286253Y-137768599D01*
X193269777Y-137786777D01*
X193251599Y-137803253D01*
X193231893Y-137817868D01*
X193210850Y-137830480D01*
X193188671Y-137840970D01*
X193165572Y-137849235D01*
X193141773Y-137855196D01*
X193117505Y-137858796D01*
X193093001Y-137860000D01*
X192442999Y-137860000D01*
X192418495Y-137858796D01*
X192394227Y-137855196D01*
X192370428Y-137849235D01*
X192347329Y-137840970D01*
X192325150Y-137830480D01*
X192304107Y-137817868D01*
X192284401Y-137803253D01*
X192266223Y-137786777D01*
X192249747Y-137768599D01*
X192235132Y-137748893D01*
X192222520Y-137727850D01*
X192212030Y-137705671D01*
X192203765Y-137682572D01*
X192197804Y-137658773D01*
X192194204Y-137634505D01*
X192193000Y-137610001D01*
X192193000Y-136709999D01*
X192194204Y-136685495D01*
X192197804Y-136661227D01*
X192203765Y-136637428D01*
X192212030Y-136614329D01*
X192222520Y-136592150D01*
X192235132Y-136571107D01*
X192249747Y-136551401D01*
X192266223Y-136533223D01*
X192284401Y-136516747D01*
X192304107Y-136502132D01*
X192325150Y-136489520D01*
X192347329Y-136479030D01*
X192370428Y-136470765D01*
X192394227Y-136464804D01*
X192418495Y-136461204D01*
X192442999Y-136460000D01*
X193093001Y-136460000D01*
X193117505Y-136461204D01*
X193117505Y-136461204D01*
G37*
D11*
X192768000Y-137160000D03*
D10*
G36*
X195167505Y-136461204D02*
G01*
X195191773Y-136464804D01*
X195215572Y-136470765D01*
X195238671Y-136479030D01*
X195260850Y-136489520D01*
X195281893Y-136502132D01*
X195301599Y-136516747D01*
X195319777Y-136533223D01*
X195336253Y-136551401D01*
X195350868Y-136571107D01*
X195363480Y-136592150D01*
X195373970Y-136614329D01*
X195382235Y-136637428D01*
X195388196Y-136661227D01*
X195391796Y-136685495D01*
X195393000Y-136709999D01*
X195393000Y-137610001D01*
X195391796Y-137634505D01*
X195388196Y-137658773D01*
X195382235Y-137682572D01*
X195373970Y-137705671D01*
X195363480Y-137727850D01*
X195350868Y-137748893D01*
X195336253Y-137768599D01*
X195319777Y-137786777D01*
X195301599Y-137803253D01*
X195281893Y-137817868D01*
X195260850Y-137830480D01*
X195238671Y-137840970D01*
X195215572Y-137849235D01*
X195191773Y-137855196D01*
X195167505Y-137858796D01*
X195143001Y-137860000D01*
X194492999Y-137860000D01*
X194468495Y-137858796D01*
X194444227Y-137855196D01*
X194420428Y-137849235D01*
X194397329Y-137840970D01*
X194375150Y-137830480D01*
X194354107Y-137817868D01*
X194334401Y-137803253D01*
X194316223Y-137786777D01*
X194299747Y-137768599D01*
X194285132Y-137748893D01*
X194272520Y-137727850D01*
X194262030Y-137705671D01*
X194253765Y-137682572D01*
X194247804Y-137658773D01*
X194244204Y-137634505D01*
X194243000Y-137610001D01*
X194243000Y-136709999D01*
X194244204Y-136685495D01*
X194247804Y-136661227D01*
X194253765Y-136637428D01*
X194262030Y-136614329D01*
X194272520Y-136592150D01*
X194285132Y-136571107D01*
X194299747Y-136551401D01*
X194316223Y-136533223D01*
X194334401Y-136516747D01*
X194354107Y-136502132D01*
X194375150Y-136489520D01*
X194397329Y-136479030D01*
X194420428Y-136470765D01*
X194444227Y-136464804D01*
X194468495Y-136461204D01*
X194492999Y-136460000D01*
X195143001Y-136460000D01*
X195167505Y-136461204D01*
X195167505Y-136461204D01*
G37*
D11*
X194818000Y-137160000D03*
D10*
G36*
X176607505Y-136461204D02*
G01*
X176631773Y-136464804D01*
X176655572Y-136470765D01*
X176678671Y-136479030D01*
X176700850Y-136489520D01*
X176721893Y-136502132D01*
X176741599Y-136516747D01*
X176759777Y-136533223D01*
X176776253Y-136551401D01*
X176790868Y-136571107D01*
X176803480Y-136592150D01*
X176813970Y-136614329D01*
X176822235Y-136637428D01*
X176828196Y-136661227D01*
X176831796Y-136685495D01*
X176833000Y-136709999D01*
X176833000Y-137610001D01*
X176831796Y-137634505D01*
X176828196Y-137658773D01*
X176822235Y-137682572D01*
X176813970Y-137705671D01*
X176803480Y-137727850D01*
X176790868Y-137748893D01*
X176776253Y-137768599D01*
X176759777Y-137786777D01*
X176741599Y-137803253D01*
X176721893Y-137817868D01*
X176700850Y-137830480D01*
X176678671Y-137840970D01*
X176655572Y-137849235D01*
X176631773Y-137855196D01*
X176607505Y-137858796D01*
X176583001Y-137860000D01*
X175932999Y-137860000D01*
X175908495Y-137858796D01*
X175884227Y-137855196D01*
X175860428Y-137849235D01*
X175837329Y-137840970D01*
X175815150Y-137830480D01*
X175794107Y-137817868D01*
X175774401Y-137803253D01*
X175756223Y-137786777D01*
X175739747Y-137768599D01*
X175725132Y-137748893D01*
X175712520Y-137727850D01*
X175702030Y-137705671D01*
X175693765Y-137682572D01*
X175687804Y-137658773D01*
X175684204Y-137634505D01*
X175683000Y-137610001D01*
X175683000Y-136709999D01*
X175684204Y-136685495D01*
X175687804Y-136661227D01*
X175693765Y-136637428D01*
X175702030Y-136614329D01*
X175712520Y-136592150D01*
X175725132Y-136571107D01*
X175739747Y-136551401D01*
X175756223Y-136533223D01*
X175774401Y-136516747D01*
X175794107Y-136502132D01*
X175815150Y-136489520D01*
X175837329Y-136479030D01*
X175860428Y-136470765D01*
X175884227Y-136464804D01*
X175908495Y-136461204D01*
X175932999Y-136460000D01*
X176583001Y-136460000D01*
X176607505Y-136461204D01*
X176607505Y-136461204D01*
G37*
D11*
X176258000Y-137160000D03*
D10*
G36*
X178657505Y-136461204D02*
G01*
X178681773Y-136464804D01*
X178705572Y-136470765D01*
X178728671Y-136479030D01*
X178750850Y-136489520D01*
X178771893Y-136502132D01*
X178791599Y-136516747D01*
X178809777Y-136533223D01*
X178826253Y-136551401D01*
X178840868Y-136571107D01*
X178853480Y-136592150D01*
X178863970Y-136614329D01*
X178872235Y-136637428D01*
X178878196Y-136661227D01*
X178881796Y-136685495D01*
X178883000Y-136709999D01*
X178883000Y-137610001D01*
X178881796Y-137634505D01*
X178878196Y-137658773D01*
X178872235Y-137682572D01*
X178863970Y-137705671D01*
X178853480Y-137727850D01*
X178840868Y-137748893D01*
X178826253Y-137768599D01*
X178809777Y-137786777D01*
X178791599Y-137803253D01*
X178771893Y-137817868D01*
X178750850Y-137830480D01*
X178728671Y-137840970D01*
X178705572Y-137849235D01*
X178681773Y-137855196D01*
X178657505Y-137858796D01*
X178633001Y-137860000D01*
X177982999Y-137860000D01*
X177958495Y-137858796D01*
X177934227Y-137855196D01*
X177910428Y-137849235D01*
X177887329Y-137840970D01*
X177865150Y-137830480D01*
X177844107Y-137817868D01*
X177824401Y-137803253D01*
X177806223Y-137786777D01*
X177789747Y-137768599D01*
X177775132Y-137748893D01*
X177762520Y-137727850D01*
X177752030Y-137705671D01*
X177743765Y-137682572D01*
X177737804Y-137658773D01*
X177734204Y-137634505D01*
X177733000Y-137610001D01*
X177733000Y-136709999D01*
X177734204Y-136685495D01*
X177737804Y-136661227D01*
X177743765Y-136637428D01*
X177752030Y-136614329D01*
X177762520Y-136592150D01*
X177775132Y-136571107D01*
X177789747Y-136551401D01*
X177806223Y-136533223D01*
X177824401Y-136516747D01*
X177844107Y-136502132D01*
X177865150Y-136489520D01*
X177887329Y-136479030D01*
X177910428Y-136470765D01*
X177934227Y-136464804D01*
X177958495Y-136461204D01*
X177982999Y-136460000D01*
X178633001Y-136460000D01*
X178657505Y-136461204D01*
X178657505Y-136461204D01*
G37*
D11*
X178308000Y-137160000D03*
D10*
G36*
X241469705Y-275820004D02*
G01*
X241493973Y-275823604D01*
X241517772Y-275829565D01*
X241540871Y-275837830D01*
X241563050Y-275848320D01*
X241584093Y-275860932D01*
X241603799Y-275875547D01*
X241621977Y-275892023D01*
X241638453Y-275910201D01*
X241653068Y-275929907D01*
X241665680Y-275950950D01*
X241676170Y-275973129D01*
X241684435Y-275996228D01*
X241690396Y-276020027D01*
X241693996Y-276044295D01*
X241695200Y-276068799D01*
X241695200Y-276718801D01*
X241693996Y-276743305D01*
X241690396Y-276767573D01*
X241684435Y-276791372D01*
X241676170Y-276814471D01*
X241665680Y-276836650D01*
X241653068Y-276857693D01*
X241638453Y-276877399D01*
X241621977Y-276895577D01*
X241603799Y-276912053D01*
X241584093Y-276926668D01*
X241563050Y-276939280D01*
X241540871Y-276949770D01*
X241517772Y-276958035D01*
X241493973Y-276963996D01*
X241469705Y-276967596D01*
X241445201Y-276968800D01*
X240545199Y-276968800D01*
X240520695Y-276967596D01*
X240496427Y-276963996D01*
X240472628Y-276958035D01*
X240449529Y-276949770D01*
X240427350Y-276939280D01*
X240406307Y-276926668D01*
X240386601Y-276912053D01*
X240368423Y-276895577D01*
X240351947Y-276877399D01*
X240337332Y-276857693D01*
X240324720Y-276836650D01*
X240314230Y-276814471D01*
X240305965Y-276791372D01*
X240300004Y-276767573D01*
X240296404Y-276743305D01*
X240295200Y-276718801D01*
X240295200Y-276068799D01*
X240296404Y-276044295D01*
X240300004Y-276020027D01*
X240305965Y-275996228D01*
X240314230Y-275973129D01*
X240324720Y-275950950D01*
X240337332Y-275929907D01*
X240351947Y-275910201D01*
X240368423Y-275892023D01*
X240386601Y-275875547D01*
X240406307Y-275860932D01*
X240427350Y-275848320D01*
X240449529Y-275837830D01*
X240472628Y-275829565D01*
X240496427Y-275823604D01*
X240520695Y-275820004D01*
X240545199Y-275818800D01*
X241445201Y-275818800D01*
X241469705Y-275820004D01*
X241469705Y-275820004D01*
G37*
D11*
X240995200Y-276393800D03*
D10*
G36*
X241469705Y-277870004D02*
G01*
X241493973Y-277873604D01*
X241517772Y-277879565D01*
X241540871Y-277887830D01*
X241563050Y-277898320D01*
X241584093Y-277910932D01*
X241603799Y-277925547D01*
X241621977Y-277942023D01*
X241638453Y-277960201D01*
X241653068Y-277979907D01*
X241665680Y-278000950D01*
X241676170Y-278023129D01*
X241684435Y-278046228D01*
X241690396Y-278070027D01*
X241693996Y-278094295D01*
X241695200Y-278118799D01*
X241695200Y-278768801D01*
X241693996Y-278793305D01*
X241690396Y-278817573D01*
X241684435Y-278841372D01*
X241676170Y-278864471D01*
X241665680Y-278886650D01*
X241653068Y-278907693D01*
X241638453Y-278927399D01*
X241621977Y-278945577D01*
X241603799Y-278962053D01*
X241584093Y-278976668D01*
X241563050Y-278989280D01*
X241540871Y-278999770D01*
X241517772Y-279008035D01*
X241493973Y-279013996D01*
X241469705Y-279017596D01*
X241445201Y-279018800D01*
X240545199Y-279018800D01*
X240520695Y-279017596D01*
X240496427Y-279013996D01*
X240472628Y-279008035D01*
X240449529Y-278999770D01*
X240427350Y-278989280D01*
X240406307Y-278976668D01*
X240386601Y-278962053D01*
X240368423Y-278945577D01*
X240351947Y-278927399D01*
X240337332Y-278907693D01*
X240324720Y-278886650D01*
X240314230Y-278864471D01*
X240305965Y-278841372D01*
X240300004Y-278817573D01*
X240296404Y-278793305D01*
X240295200Y-278768801D01*
X240295200Y-278118799D01*
X240296404Y-278094295D01*
X240300004Y-278070027D01*
X240305965Y-278046228D01*
X240314230Y-278023129D01*
X240324720Y-278000950D01*
X240337332Y-277979907D01*
X240351947Y-277960201D01*
X240368423Y-277942023D01*
X240386601Y-277925547D01*
X240406307Y-277910932D01*
X240427350Y-277898320D01*
X240449529Y-277887830D01*
X240472628Y-277879565D01*
X240496427Y-277873604D01*
X240520695Y-277870004D01*
X240545199Y-277868800D01*
X241445201Y-277868800D01*
X241469705Y-277870004D01*
X241469705Y-277870004D01*
G37*
D11*
X240995200Y-278443800D03*
D10*
G36*
X238066105Y-284456004D02*
G01*
X238090373Y-284459604D01*
X238114172Y-284465565D01*
X238137271Y-284473830D01*
X238159450Y-284484320D01*
X238180493Y-284496932D01*
X238200199Y-284511547D01*
X238218377Y-284528023D01*
X238234853Y-284546201D01*
X238249468Y-284565907D01*
X238262080Y-284586950D01*
X238272570Y-284609129D01*
X238280835Y-284632228D01*
X238286796Y-284656027D01*
X238290396Y-284680295D01*
X238291600Y-284704799D01*
X238291600Y-285354801D01*
X238290396Y-285379305D01*
X238286796Y-285403573D01*
X238280835Y-285427372D01*
X238272570Y-285450471D01*
X238262080Y-285472650D01*
X238249468Y-285493693D01*
X238234853Y-285513399D01*
X238218377Y-285531577D01*
X238200199Y-285548053D01*
X238180493Y-285562668D01*
X238159450Y-285575280D01*
X238137271Y-285585770D01*
X238114172Y-285594035D01*
X238090373Y-285599996D01*
X238066105Y-285603596D01*
X238041601Y-285604800D01*
X237141599Y-285604800D01*
X237117095Y-285603596D01*
X237092827Y-285599996D01*
X237069028Y-285594035D01*
X237045929Y-285585770D01*
X237023750Y-285575280D01*
X237002707Y-285562668D01*
X236983001Y-285548053D01*
X236964823Y-285531577D01*
X236948347Y-285513399D01*
X236933732Y-285493693D01*
X236921120Y-285472650D01*
X236910630Y-285450471D01*
X236902365Y-285427372D01*
X236896404Y-285403573D01*
X236892804Y-285379305D01*
X236891600Y-285354801D01*
X236891600Y-284704799D01*
X236892804Y-284680295D01*
X236896404Y-284656027D01*
X236902365Y-284632228D01*
X236910630Y-284609129D01*
X236921120Y-284586950D01*
X236933732Y-284565907D01*
X236948347Y-284546201D01*
X236964823Y-284528023D01*
X236983001Y-284511547D01*
X237002707Y-284496932D01*
X237023750Y-284484320D01*
X237045929Y-284473830D01*
X237069028Y-284465565D01*
X237092827Y-284459604D01*
X237117095Y-284456004D01*
X237141599Y-284454800D01*
X238041601Y-284454800D01*
X238066105Y-284456004D01*
X238066105Y-284456004D01*
G37*
D11*
X237591600Y-285029800D03*
D10*
G36*
X238066105Y-286506004D02*
G01*
X238090373Y-286509604D01*
X238114172Y-286515565D01*
X238137271Y-286523830D01*
X238159450Y-286534320D01*
X238180493Y-286546932D01*
X238200199Y-286561547D01*
X238218377Y-286578023D01*
X238234853Y-286596201D01*
X238249468Y-286615907D01*
X238262080Y-286636950D01*
X238272570Y-286659129D01*
X238280835Y-286682228D01*
X238286796Y-286706027D01*
X238290396Y-286730295D01*
X238291600Y-286754799D01*
X238291600Y-287404801D01*
X238290396Y-287429305D01*
X238286796Y-287453573D01*
X238280835Y-287477372D01*
X238272570Y-287500471D01*
X238262080Y-287522650D01*
X238249468Y-287543693D01*
X238234853Y-287563399D01*
X238218377Y-287581577D01*
X238200199Y-287598053D01*
X238180493Y-287612668D01*
X238159450Y-287625280D01*
X238137271Y-287635770D01*
X238114172Y-287644035D01*
X238090373Y-287649996D01*
X238066105Y-287653596D01*
X238041601Y-287654800D01*
X237141599Y-287654800D01*
X237117095Y-287653596D01*
X237092827Y-287649996D01*
X237069028Y-287644035D01*
X237045929Y-287635770D01*
X237023750Y-287625280D01*
X237002707Y-287612668D01*
X236983001Y-287598053D01*
X236964823Y-287581577D01*
X236948347Y-287563399D01*
X236933732Y-287543693D01*
X236921120Y-287522650D01*
X236910630Y-287500471D01*
X236902365Y-287477372D01*
X236896404Y-287453573D01*
X236892804Y-287429305D01*
X236891600Y-287404801D01*
X236891600Y-286754799D01*
X236892804Y-286730295D01*
X236896404Y-286706027D01*
X236902365Y-286682228D01*
X236910630Y-286659129D01*
X236921120Y-286636950D01*
X236933732Y-286615907D01*
X236948347Y-286596201D01*
X236964823Y-286578023D01*
X236983001Y-286561547D01*
X237002707Y-286546932D01*
X237023750Y-286534320D01*
X237045929Y-286523830D01*
X237069028Y-286515565D01*
X237092827Y-286509604D01*
X237117095Y-286506004D01*
X237141599Y-286504800D01*
X238041601Y-286504800D01*
X238066105Y-286506004D01*
X238066105Y-286506004D01*
G37*
D11*
X237591600Y-287079800D03*
D10*
G36*
X226179310Y-284456002D02*
G01*
X226203535Y-284459595D01*
X226227291Y-284465546D01*
X226250349Y-284473796D01*
X226272487Y-284484267D01*
X226293493Y-284496857D01*
X226313163Y-284511445D01*
X226331308Y-284527892D01*
X226347755Y-284546037D01*
X226362343Y-284565707D01*
X226374933Y-284586713D01*
X226385404Y-284608851D01*
X226393654Y-284631909D01*
X226399605Y-284655665D01*
X226403198Y-284679890D01*
X226404400Y-284704350D01*
X226404400Y-285355250D01*
X226403198Y-285379710D01*
X226399605Y-285403935D01*
X226393654Y-285427691D01*
X226385404Y-285450749D01*
X226374933Y-285472887D01*
X226362343Y-285493893D01*
X226347755Y-285513563D01*
X226331308Y-285531708D01*
X226313163Y-285548155D01*
X226293493Y-285562743D01*
X226272487Y-285575333D01*
X226250349Y-285585804D01*
X226227291Y-285594054D01*
X226203535Y-285600005D01*
X226179310Y-285603598D01*
X226154850Y-285604800D01*
X225253950Y-285604800D01*
X225229490Y-285603598D01*
X225205265Y-285600005D01*
X225181509Y-285594054D01*
X225158451Y-285585804D01*
X225136313Y-285575333D01*
X225115307Y-285562743D01*
X225095637Y-285548155D01*
X225077492Y-285531708D01*
X225061045Y-285513563D01*
X225046457Y-285493893D01*
X225033867Y-285472887D01*
X225023396Y-285450749D01*
X225015146Y-285427691D01*
X225009195Y-285403935D01*
X225005602Y-285379710D01*
X225004400Y-285355250D01*
X225004400Y-284704350D01*
X225005602Y-284679890D01*
X225009195Y-284655665D01*
X225015146Y-284631909D01*
X225023396Y-284608851D01*
X225033867Y-284586713D01*
X225046457Y-284565707D01*
X225061045Y-284546037D01*
X225077492Y-284527892D01*
X225095637Y-284511445D01*
X225115307Y-284496857D01*
X225136313Y-284484267D01*
X225158451Y-284473796D01*
X225181509Y-284465546D01*
X225205265Y-284459595D01*
X225229490Y-284456002D01*
X225253950Y-284454800D01*
X226154850Y-284454800D01*
X226179310Y-284456002D01*
X226179310Y-284456002D01*
G37*
D11*
X225704400Y-285029800D03*
D10*
G36*
X226178905Y-286506004D02*
G01*
X226203173Y-286509604D01*
X226226972Y-286515565D01*
X226250071Y-286523830D01*
X226272250Y-286534320D01*
X226293293Y-286546932D01*
X226312999Y-286561547D01*
X226331177Y-286578023D01*
X226347653Y-286596201D01*
X226362268Y-286615907D01*
X226374880Y-286636950D01*
X226385370Y-286659129D01*
X226393635Y-286682228D01*
X226399596Y-286706027D01*
X226403196Y-286730295D01*
X226404400Y-286754799D01*
X226404400Y-287404801D01*
X226403196Y-287429305D01*
X226399596Y-287453573D01*
X226393635Y-287477372D01*
X226385370Y-287500471D01*
X226374880Y-287522650D01*
X226362268Y-287543693D01*
X226347653Y-287563399D01*
X226331177Y-287581577D01*
X226312999Y-287598053D01*
X226293293Y-287612668D01*
X226272250Y-287625280D01*
X226250071Y-287635770D01*
X226226972Y-287644035D01*
X226203173Y-287649996D01*
X226178905Y-287653596D01*
X226154401Y-287654800D01*
X225254399Y-287654800D01*
X225229895Y-287653596D01*
X225205627Y-287649996D01*
X225181828Y-287644035D01*
X225158729Y-287635770D01*
X225136550Y-287625280D01*
X225115507Y-287612668D01*
X225095801Y-287598053D01*
X225077623Y-287581577D01*
X225061147Y-287563399D01*
X225046532Y-287543693D01*
X225033920Y-287522650D01*
X225023430Y-287500471D01*
X225015165Y-287477372D01*
X225009204Y-287453573D01*
X225005604Y-287429305D01*
X225004400Y-287404801D01*
X225004400Y-286754799D01*
X225005604Y-286730295D01*
X225009204Y-286706027D01*
X225015165Y-286682228D01*
X225023430Y-286659129D01*
X225033920Y-286636950D01*
X225046532Y-286615907D01*
X225061147Y-286596201D01*
X225077623Y-286578023D01*
X225095801Y-286561547D01*
X225115507Y-286546932D01*
X225136550Y-286534320D01*
X225158729Y-286523830D01*
X225181828Y-286515565D01*
X225205627Y-286509604D01*
X225229895Y-286506004D01*
X225254399Y-286504800D01*
X226154401Y-286504800D01*
X226178905Y-286506004D01*
X226178905Y-286506004D01*
G37*
D11*
X225704400Y-287079800D03*
D10*
G36*
X223776905Y-281038004D02*
G01*
X223801173Y-281041604D01*
X223824972Y-281047565D01*
X223848071Y-281055830D01*
X223870250Y-281066320D01*
X223891293Y-281078932D01*
X223910999Y-281093547D01*
X223929177Y-281110023D01*
X223945653Y-281128201D01*
X223960268Y-281147907D01*
X223972880Y-281168950D01*
X223983370Y-281191129D01*
X223991635Y-281214228D01*
X223997596Y-281238027D01*
X224001196Y-281262295D01*
X224002400Y-281286799D01*
X224002400Y-282186801D01*
X224001196Y-282211305D01*
X223997596Y-282235573D01*
X223991635Y-282259372D01*
X223983370Y-282282471D01*
X223972880Y-282304650D01*
X223960268Y-282325693D01*
X223945653Y-282345399D01*
X223929177Y-282363577D01*
X223910999Y-282380053D01*
X223891293Y-282394668D01*
X223870250Y-282407280D01*
X223848071Y-282417770D01*
X223824972Y-282426035D01*
X223801173Y-282431996D01*
X223776905Y-282435596D01*
X223752401Y-282436800D01*
X223102399Y-282436800D01*
X223077895Y-282435596D01*
X223053627Y-282431996D01*
X223029828Y-282426035D01*
X223006729Y-282417770D01*
X222984550Y-282407280D01*
X222963507Y-282394668D01*
X222943801Y-282380053D01*
X222925623Y-282363577D01*
X222909147Y-282345399D01*
X222894532Y-282325693D01*
X222881920Y-282304650D01*
X222871430Y-282282471D01*
X222863165Y-282259372D01*
X222857204Y-282235573D01*
X222853604Y-282211305D01*
X222852400Y-282186801D01*
X222852400Y-281286799D01*
X222853604Y-281262295D01*
X222857204Y-281238027D01*
X222863165Y-281214228D01*
X222871430Y-281191129D01*
X222881920Y-281168950D01*
X222894532Y-281147907D01*
X222909147Y-281128201D01*
X222925623Y-281110023D01*
X222943801Y-281093547D01*
X222963507Y-281078932D01*
X222984550Y-281066320D01*
X223006729Y-281055830D01*
X223029828Y-281047565D01*
X223053627Y-281041604D01*
X223077895Y-281038004D01*
X223102399Y-281036800D01*
X223752401Y-281036800D01*
X223776905Y-281038004D01*
X223776905Y-281038004D01*
G37*
D11*
X223427400Y-281736800D03*
D10*
G36*
X221726905Y-281038004D02*
G01*
X221751173Y-281041604D01*
X221774972Y-281047565D01*
X221798071Y-281055830D01*
X221820250Y-281066320D01*
X221841293Y-281078932D01*
X221860999Y-281093547D01*
X221879177Y-281110023D01*
X221895653Y-281128201D01*
X221910268Y-281147907D01*
X221922880Y-281168950D01*
X221933370Y-281191129D01*
X221941635Y-281214228D01*
X221947596Y-281238027D01*
X221951196Y-281262295D01*
X221952400Y-281286799D01*
X221952400Y-282186801D01*
X221951196Y-282211305D01*
X221947596Y-282235573D01*
X221941635Y-282259372D01*
X221933370Y-282282471D01*
X221922880Y-282304650D01*
X221910268Y-282325693D01*
X221895653Y-282345399D01*
X221879177Y-282363577D01*
X221860999Y-282380053D01*
X221841293Y-282394668D01*
X221820250Y-282407280D01*
X221798071Y-282417770D01*
X221774972Y-282426035D01*
X221751173Y-282431996D01*
X221726905Y-282435596D01*
X221702401Y-282436800D01*
X221052399Y-282436800D01*
X221027895Y-282435596D01*
X221003627Y-282431996D01*
X220979828Y-282426035D01*
X220956729Y-282417770D01*
X220934550Y-282407280D01*
X220913507Y-282394668D01*
X220893801Y-282380053D01*
X220875623Y-282363577D01*
X220859147Y-282345399D01*
X220844532Y-282325693D01*
X220831920Y-282304650D01*
X220821430Y-282282471D01*
X220813165Y-282259372D01*
X220807204Y-282235573D01*
X220803604Y-282211305D01*
X220802400Y-282186801D01*
X220802400Y-281286799D01*
X220803604Y-281262295D01*
X220807204Y-281238027D01*
X220813165Y-281214228D01*
X220821430Y-281191129D01*
X220831920Y-281168950D01*
X220844532Y-281147907D01*
X220859147Y-281128201D01*
X220875623Y-281110023D01*
X220893801Y-281093547D01*
X220913507Y-281078932D01*
X220934550Y-281066320D01*
X220956729Y-281055830D01*
X220979828Y-281047565D01*
X221003627Y-281041604D01*
X221027895Y-281038004D01*
X221052399Y-281036800D01*
X221702401Y-281036800D01*
X221726905Y-281038004D01*
X221726905Y-281038004D01*
G37*
D11*
X221377400Y-281736800D03*
D10*
G36*
X207985505Y-290385204D02*
G01*
X208009773Y-290388804D01*
X208033572Y-290394765D01*
X208056671Y-290403030D01*
X208078850Y-290413520D01*
X208099893Y-290426132D01*
X208119599Y-290440747D01*
X208137777Y-290457223D01*
X208154253Y-290475401D01*
X208168868Y-290495107D01*
X208181480Y-290516150D01*
X208191970Y-290538329D01*
X208200235Y-290561428D01*
X208206196Y-290585227D01*
X208209796Y-290609495D01*
X208211000Y-290633999D01*
X208211000Y-291534001D01*
X208209796Y-291558505D01*
X208206196Y-291582773D01*
X208200235Y-291606572D01*
X208191970Y-291629671D01*
X208181480Y-291651850D01*
X208168868Y-291672893D01*
X208154253Y-291692599D01*
X208137777Y-291710777D01*
X208119599Y-291727253D01*
X208099893Y-291741868D01*
X208078850Y-291754480D01*
X208056671Y-291764970D01*
X208033572Y-291773235D01*
X208009773Y-291779196D01*
X207985505Y-291782796D01*
X207961001Y-291784000D01*
X207310999Y-291784000D01*
X207286495Y-291782796D01*
X207262227Y-291779196D01*
X207238428Y-291773235D01*
X207215329Y-291764970D01*
X207193150Y-291754480D01*
X207172107Y-291741868D01*
X207152401Y-291727253D01*
X207134223Y-291710777D01*
X207117747Y-291692599D01*
X207103132Y-291672893D01*
X207090520Y-291651850D01*
X207080030Y-291629671D01*
X207071765Y-291606572D01*
X207065804Y-291582773D01*
X207062204Y-291558505D01*
X207061000Y-291534001D01*
X207061000Y-290633999D01*
X207062204Y-290609495D01*
X207065804Y-290585227D01*
X207071765Y-290561428D01*
X207080030Y-290538329D01*
X207090520Y-290516150D01*
X207103132Y-290495107D01*
X207117747Y-290475401D01*
X207134223Y-290457223D01*
X207152401Y-290440747D01*
X207172107Y-290426132D01*
X207193150Y-290413520D01*
X207215329Y-290403030D01*
X207238428Y-290394765D01*
X207262227Y-290388804D01*
X207286495Y-290385204D01*
X207310999Y-290384000D01*
X207961001Y-290384000D01*
X207985505Y-290385204D01*
X207985505Y-290385204D01*
G37*
D11*
X207636000Y-291084000D03*
D10*
G36*
X210035505Y-290385204D02*
G01*
X210059773Y-290388804D01*
X210083572Y-290394765D01*
X210106671Y-290403030D01*
X210128850Y-290413520D01*
X210149893Y-290426132D01*
X210169599Y-290440747D01*
X210187777Y-290457223D01*
X210204253Y-290475401D01*
X210218868Y-290495107D01*
X210231480Y-290516150D01*
X210241970Y-290538329D01*
X210250235Y-290561428D01*
X210256196Y-290585227D01*
X210259796Y-290609495D01*
X210261000Y-290633999D01*
X210261000Y-291534001D01*
X210259796Y-291558505D01*
X210256196Y-291582773D01*
X210250235Y-291606572D01*
X210241970Y-291629671D01*
X210231480Y-291651850D01*
X210218868Y-291672893D01*
X210204253Y-291692599D01*
X210187777Y-291710777D01*
X210169599Y-291727253D01*
X210149893Y-291741868D01*
X210128850Y-291754480D01*
X210106671Y-291764970D01*
X210083572Y-291773235D01*
X210059773Y-291779196D01*
X210035505Y-291782796D01*
X210011001Y-291784000D01*
X209360999Y-291784000D01*
X209336495Y-291782796D01*
X209312227Y-291779196D01*
X209288428Y-291773235D01*
X209265329Y-291764970D01*
X209243150Y-291754480D01*
X209222107Y-291741868D01*
X209202401Y-291727253D01*
X209184223Y-291710777D01*
X209167747Y-291692599D01*
X209153132Y-291672893D01*
X209140520Y-291651850D01*
X209130030Y-291629671D01*
X209121765Y-291606572D01*
X209115804Y-291582773D01*
X209112204Y-291558505D01*
X209111000Y-291534001D01*
X209111000Y-290633999D01*
X209112204Y-290609495D01*
X209115804Y-290585227D01*
X209121765Y-290561428D01*
X209130030Y-290538329D01*
X209140520Y-290516150D01*
X209153132Y-290495107D01*
X209167747Y-290475401D01*
X209184223Y-290457223D01*
X209202401Y-290440747D01*
X209222107Y-290426132D01*
X209243150Y-290413520D01*
X209265329Y-290403030D01*
X209288428Y-290394765D01*
X209312227Y-290388804D01*
X209336495Y-290385204D01*
X209360999Y-290384000D01*
X210011001Y-290384000D01*
X210035505Y-290385204D01*
X210035505Y-290385204D01*
G37*
D11*
X209686000Y-291084000D03*
D12*
X191598000Y-297053000D03*
X195498000Y-297053000D03*
X191598000Y-295783000D03*
X195498000Y-295783000D03*
X191598000Y-294513000D03*
X195498000Y-294513000D03*
X191598000Y-293243000D03*
X195498000Y-293243000D03*
X191598000Y-291973000D03*
X195498000Y-291973000D03*
D13*
X217017600Y-282992000D03*
X217017600Y-287492000D03*
D14*
X195834000Y-122825000D03*
X194884000Y-124825000D03*
X196784000Y-124825000D03*
X179705000Y-122825000D03*
X178755000Y-124825000D03*
X180655000Y-124825000D03*
D10*
G36*
X205463505Y-290385204D02*
G01*
X205487773Y-290388804D01*
X205511572Y-290394765D01*
X205534671Y-290403030D01*
X205556850Y-290413520D01*
X205577893Y-290426132D01*
X205597599Y-290440747D01*
X205615777Y-290457223D01*
X205632253Y-290475401D01*
X205646868Y-290495107D01*
X205659480Y-290516150D01*
X205669970Y-290538329D01*
X205678235Y-290561428D01*
X205684196Y-290585227D01*
X205687796Y-290609495D01*
X205689000Y-290633999D01*
X205689000Y-291534001D01*
X205687796Y-291558505D01*
X205684196Y-291582773D01*
X205678235Y-291606572D01*
X205669970Y-291629671D01*
X205659480Y-291651850D01*
X205646868Y-291672893D01*
X205632253Y-291692599D01*
X205615777Y-291710777D01*
X205597599Y-291727253D01*
X205577893Y-291741868D01*
X205556850Y-291754480D01*
X205534671Y-291764970D01*
X205511572Y-291773235D01*
X205487773Y-291779196D01*
X205463505Y-291782796D01*
X205439001Y-291784000D01*
X204788999Y-291784000D01*
X204764495Y-291782796D01*
X204740227Y-291779196D01*
X204716428Y-291773235D01*
X204693329Y-291764970D01*
X204671150Y-291754480D01*
X204650107Y-291741868D01*
X204630401Y-291727253D01*
X204612223Y-291710777D01*
X204595747Y-291692599D01*
X204581132Y-291672893D01*
X204568520Y-291651850D01*
X204558030Y-291629671D01*
X204549765Y-291606572D01*
X204543804Y-291582773D01*
X204540204Y-291558505D01*
X204539000Y-291534001D01*
X204539000Y-290633999D01*
X204540204Y-290609495D01*
X204543804Y-290585227D01*
X204549765Y-290561428D01*
X204558030Y-290538329D01*
X204568520Y-290516150D01*
X204581132Y-290495107D01*
X204595747Y-290475401D01*
X204612223Y-290457223D01*
X204630401Y-290440747D01*
X204650107Y-290426132D01*
X204671150Y-290413520D01*
X204693329Y-290403030D01*
X204716428Y-290394765D01*
X204740227Y-290388804D01*
X204764495Y-290385204D01*
X204788999Y-290384000D01*
X205439001Y-290384000D01*
X205463505Y-290385204D01*
X205463505Y-290385204D01*
G37*
D11*
X205114000Y-291084000D03*
D10*
G36*
X203413505Y-290385204D02*
G01*
X203437773Y-290388804D01*
X203461572Y-290394765D01*
X203484671Y-290403030D01*
X203506850Y-290413520D01*
X203527893Y-290426132D01*
X203547599Y-290440747D01*
X203565777Y-290457223D01*
X203582253Y-290475401D01*
X203596868Y-290495107D01*
X203609480Y-290516150D01*
X203619970Y-290538329D01*
X203628235Y-290561428D01*
X203634196Y-290585227D01*
X203637796Y-290609495D01*
X203639000Y-290633999D01*
X203639000Y-291534001D01*
X203637796Y-291558505D01*
X203634196Y-291582773D01*
X203628235Y-291606572D01*
X203619970Y-291629671D01*
X203609480Y-291651850D01*
X203596868Y-291672893D01*
X203582253Y-291692599D01*
X203565777Y-291710777D01*
X203547599Y-291727253D01*
X203527893Y-291741868D01*
X203506850Y-291754480D01*
X203484671Y-291764970D01*
X203461572Y-291773235D01*
X203437773Y-291779196D01*
X203413505Y-291782796D01*
X203389001Y-291784000D01*
X202738999Y-291784000D01*
X202714495Y-291782796D01*
X202690227Y-291779196D01*
X202666428Y-291773235D01*
X202643329Y-291764970D01*
X202621150Y-291754480D01*
X202600107Y-291741868D01*
X202580401Y-291727253D01*
X202562223Y-291710777D01*
X202545747Y-291692599D01*
X202531132Y-291672893D01*
X202518520Y-291651850D01*
X202508030Y-291629671D01*
X202499765Y-291606572D01*
X202493804Y-291582773D01*
X202490204Y-291558505D01*
X202489000Y-291534001D01*
X202489000Y-290633999D01*
X202490204Y-290609495D01*
X202493804Y-290585227D01*
X202499765Y-290561428D01*
X202508030Y-290538329D01*
X202518520Y-290516150D01*
X202531132Y-290495107D01*
X202545747Y-290475401D01*
X202562223Y-290457223D01*
X202580401Y-290440747D01*
X202600107Y-290426132D01*
X202621150Y-290413520D01*
X202643329Y-290403030D01*
X202666428Y-290394765D01*
X202690227Y-290388804D01*
X202714495Y-290385204D01*
X202738999Y-290384000D01*
X203389001Y-290384000D01*
X203413505Y-290385204D01*
X203413505Y-290385204D01*
G37*
D11*
X203064000Y-291084000D03*
D10*
G36*
X198086505Y-132912204D02*
G01*
X198110773Y-132915804D01*
X198134572Y-132921765D01*
X198157671Y-132930030D01*
X198179850Y-132940520D01*
X198200893Y-132953132D01*
X198220599Y-132967747D01*
X198238777Y-132984223D01*
X198255253Y-133002401D01*
X198269868Y-133022107D01*
X198282480Y-133043150D01*
X198292970Y-133065329D01*
X198301235Y-133088428D01*
X198307196Y-133112227D01*
X198310796Y-133136495D01*
X198312000Y-133160999D01*
X198312000Y-133811001D01*
X198310796Y-133835505D01*
X198307196Y-133859773D01*
X198301235Y-133883572D01*
X198292970Y-133906671D01*
X198282480Y-133928850D01*
X198269868Y-133949893D01*
X198255253Y-133969599D01*
X198238777Y-133987777D01*
X198220599Y-134004253D01*
X198200893Y-134018868D01*
X198179850Y-134031480D01*
X198157671Y-134041970D01*
X198134572Y-134050235D01*
X198110773Y-134056196D01*
X198086505Y-134059796D01*
X198062001Y-134061000D01*
X197161999Y-134061000D01*
X197137495Y-134059796D01*
X197113227Y-134056196D01*
X197089428Y-134050235D01*
X197066329Y-134041970D01*
X197044150Y-134031480D01*
X197023107Y-134018868D01*
X197003401Y-134004253D01*
X196985223Y-133987777D01*
X196968747Y-133969599D01*
X196954132Y-133949893D01*
X196941520Y-133928850D01*
X196931030Y-133906671D01*
X196922765Y-133883572D01*
X196916804Y-133859773D01*
X196913204Y-133835505D01*
X196912000Y-133811001D01*
X196912000Y-133160999D01*
X196913204Y-133136495D01*
X196916804Y-133112227D01*
X196922765Y-133088428D01*
X196931030Y-133065329D01*
X196941520Y-133043150D01*
X196954132Y-133022107D01*
X196968747Y-133002401D01*
X196985223Y-132984223D01*
X197003401Y-132967747D01*
X197023107Y-132953132D01*
X197044150Y-132940520D01*
X197066329Y-132930030D01*
X197089428Y-132921765D01*
X197113227Y-132915804D01*
X197137495Y-132912204D01*
X197161999Y-132911000D01*
X198062001Y-132911000D01*
X198086505Y-132912204D01*
X198086505Y-132912204D01*
G37*
D11*
X197612000Y-133486000D03*
D10*
G36*
X198086505Y-130862204D02*
G01*
X198110773Y-130865804D01*
X198134572Y-130871765D01*
X198157671Y-130880030D01*
X198179850Y-130890520D01*
X198200893Y-130903132D01*
X198220599Y-130917747D01*
X198238777Y-130934223D01*
X198255253Y-130952401D01*
X198269868Y-130972107D01*
X198282480Y-130993150D01*
X198292970Y-131015329D01*
X198301235Y-131038428D01*
X198307196Y-131062227D01*
X198310796Y-131086495D01*
X198312000Y-131110999D01*
X198312000Y-131761001D01*
X198310796Y-131785505D01*
X198307196Y-131809773D01*
X198301235Y-131833572D01*
X198292970Y-131856671D01*
X198282480Y-131878850D01*
X198269868Y-131899893D01*
X198255253Y-131919599D01*
X198238777Y-131937777D01*
X198220599Y-131954253D01*
X198200893Y-131968868D01*
X198179850Y-131981480D01*
X198157671Y-131991970D01*
X198134572Y-132000235D01*
X198110773Y-132006196D01*
X198086505Y-132009796D01*
X198062001Y-132011000D01*
X197161999Y-132011000D01*
X197137495Y-132009796D01*
X197113227Y-132006196D01*
X197089428Y-132000235D01*
X197066329Y-131991970D01*
X197044150Y-131981480D01*
X197023107Y-131968868D01*
X197003401Y-131954253D01*
X196985223Y-131937777D01*
X196968747Y-131919599D01*
X196954132Y-131899893D01*
X196941520Y-131878850D01*
X196931030Y-131856671D01*
X196922765Y-131833572D01*
X196916804Y-131809773D01*
X196913204Y-131785505D01*
X196912000Y-131761001D01*
X196912000Y-131110999D01*
X196913204Y-131086495D01*
X196916804Y-131062227D01*
X196922765Y-131038428D01*
X196931030Y-131015329D01*
X196941520Y-130993150D01*
X196954132Y-130972107D01*
X196968747Y-130952401D01*
X196985223Y-130934223D01*
X197003401Y-130917747D01*
X197023107Y-130903132D01*
X197044150Y-130890520D01*
X197066329Y-130880030D01*
X197089428Y-130871765D01*
X197113227Y-130865804D01*
X197137495Y-130862204D01*
X197161999Y-130861000D01*
X198062001Y-130861000D01*
X198086505Y-130862204D01*
X198086505Y-130862204D01*
G37*
D11*
X197612000Y-131436000D03*
D10*
G36*
X193117910Y-127444202D02*
G01*
X193142135Y-127447795D01*
X193165891Y-127453746D01*
X193188949Y-127461996D01*
X193211087Y-127472467D01*
X193232093Y-127485057D01*
X193251763Y-127499645D01*
X193269908Y-127516092D01*
X193286355Y-127534237D01*
X193300943Y-127553907D01*
X193313533Y-127574913D01*
X193324004Y-127597051D01*
X193332254Y-127620109D01*
X193338205Y-127643865D01*
X193341798Y-127668090D01*
X193343000Y-127692550D01*
X193343000Y-128593450D01*
X193341798Y-128617910D01*
X193338205Y-128642135D01*
X193332254Y-128665891D01*
X193324004Y-128688949D01*
X193313533Y-128711087D01*
X193300943Y-128732093D01*
X193286355Y-128751763D01*
X193269908Y-128769908D01*
X193251763Y-128786355D01*
X193232093Y-128800943D01*
X193211087Y-128813533D01*
X193188949Y-128824004D01*
X193165891Y-128832254D01*
X193142135Y-128838205D01*
X193117910Y-128841798D01*
X193093450Y-128843000D01*
X192442550Y-128843000D01*
X192418090Y-128841798D01*
X192393865Y-128838205D01*
X192370109Y-128832254D01*
X192347051Y-128824004D01*
X192324913Y-128813533D01*
X192303907Y-128800943D01*
X192284237Y-128786355D01*
X192266092Y-128769908D01*
X192249645Y-128751763D01*
X192235057Y-128732093D01*
X192222467Y-128711087D01*
X192211996Y-128688949D01*
X192203746Y-128665891D01*
X192197795Y-128642135D01*
X192194202Y-128617910D01*
X192193000Y-128593450D01*
X192193000Y-127692550D01*
X192194202Y-127668090D01*
X192197795Y-127643865D01*
X192203746Y-127620109D01*
X192211996Y-127597051D01*
X192222467Y-127574913D01*
X192235057Y-127553907D01*
X192249645Y-127534237D01*
X192266092Y-127516092D01*
X192284237Y-127499645D01*
X192303907Y-127485057D01*
X192324913Y-127472467D01*
X192347051Y-127461996D01*
X192370109Y-127453746D01*
X192393865Y-127447795D01*
X192418090Y-127444202D01*
X192442550Y-127443000D01*
X193093450Y-127443000D01*
X193117910Y-127444202D01*
X193117910Y-127444202D01*
G37*
D11*
X192768000Y-128143000D03*
D10*
G36*
X195167505Y-127444204D02*
G01*
X195191773Y-127447804D01*
X195215572Y-127453765D01*
X195238671Y-127462030D01*
X195260850Y-127472520D01*
X195281893Y-127485132D01*
X195301599Y-127499747D01*
X195319777Y-127516223D01*
X195336253Y-127534401D01*
X195350868Y-127554107D01*
X195363480Y-127575150D01*
X195373970Y-127597329D01*
X195382235Y-127620428D01*
X195388196Y-127644227D01*
X195391796Y-127668495D01*
X195393000Y-127692999D01*
X195393000Y-128593001D01*
X195391796Y-128617505D01*
X195388196Y-128641773D01*
X195382235Y-128665572D01*
X195373970Y-128688671D01*
X195363480Y-128710850D01*
X195350868Y-128731893D01*
X195336253Y-128751599D01*
X195319777Y-128769777D01*
X195301599Y-128786253D01*
X195281893Y-128800868D01*
X195260850Y-128813480D01*
X195238671Y-128823970D01*
X195215572Y-128832235D01*
X195191773Y-128838196D01*
X195167505Y-128841796D01*
X195143001Y-128843000D01*
X194492999Y-128843000D01*
X194468495Y-128841796D01*
X194444227Y-128838196D01*
X194420428Y-128832235D01*
X194397329Y-128823970D01*
X194375150Y-128813480D01*
X194354107Y-128800868D01*
X194334401Y-128786253D01*
X194316223Y-128769777D01*
X194299747Y-128751599D01*
X194285132Y-128731893D01*
X194272520Y-128710850D01*
X194262030Y-128688671D01*
X194253765Y-128665572D01*
X194247804Y-128641773D01*
X194244204Y-128617505D01*
X194243000Y-128593001D01*
X194243000Y-127692999D01*
X194244204Y-127668495D01*
X194247804Y-127644227D01*
X194253765Y-127620428D01*
X194262030Y-127597329D01*
X194272520Y-127575150D01*
X194285132Y-127554107D01*
X194299747Y-127534401D01*
X194316223Y-127516223D01*
X194334401Y-127499747D01*
X194354107Y-127485132D01*
X194375150Y-127472520D01*
X194397329Y-127462030D01*
X194420428Y-127453765D01*
X194444227Y-127447804D01*
X194468495Y-127444204D01*
X194492999Y-127443000D01*
X195143001Y-127443000D01*
X195167505Y-127444204D01*
X195167505Y-127444204D01*
G37*
D11*
X194818000Y-128143000D03*
D10*
G36*
X176616910Y-127444202D02*
G01*
X176641135Y-127447795D01*
X176664891Y-127453746D01*
X176687949Y-127461996D01*
X176710087Y-127472467D01*
X176731093Y-127485057D01*
X176750763Y-127499645D01*
X176768908Y-127516092D01*
X176785355Y-127534237D01*
X176799943Y-127553907D01*
X176812533Y-127574913D01*
X176823004Y-127597051D01*
X176831254Y-127620109D01*
X176837205Y-127643865D01*
X176840798Y-127668090D01*
X176842000Y-127692550D01*
X176842000Y-128593450D01*
X176840798Y-128617910D01*
X176837205Y-128642135D01*
X176831254Y-128665891D01*
X176823004Y-128688949D01*
X176812533Y-128711087D01*
X176799943Y-128732093D01*
X176785355Y-128751763D01*
X176768908Y-128769908D01*
X176750763Y-128786355D01*
X176731093Y-128800943D01*
X176710087Y-128813533D01*
X176687949Y-128824004D01*
X176664891Y-128832254D01*
X176641135Y-128838205D01*
X176616910Y-128841798D01*
X176592450Y-128843000D01*
X175941550Y-128843000D01*
X175917090Y-128841798D01*
X175892865Y-128838205D01*
X175869109Y-128832254D01*
X175846051Y-128824004D01*
X175823913Y-128813533D01*
X175802907Y-128800943D01*
X175783237Y-128786355D01*
X175765092Y-128769908D01*
X175748645Y-128751763D01*
X175734057Y-128732093D01*
X175721467Y-128711087D01*
X175710996Y-128688949D01*
X175702746Y-128665891D01*
X175696795Y-128642135D01*
X175693202Y-128617910D01*
X175692000Y-128593450D01*
X175692000Y-127692550D01*
X175693202Y-127668090D01*
X175696795Y-127643865D01*
X175702746Y-127620109D01*
X175710996Y-127597051D01*
X175721467Y-127574913D01*
X175734057Y-127553907D01*
X175748645Y-127534237D01*
X175765092Y-127516092D01*
X175783237Y-127499645D01*
X175802907Y-127485057D01*
X175823913Y-127472467D01*
X175846051Y-127461996D01*
X175869109Y-127453746D01*
X175892865Y-127447795D01*
X175917090Y-127444202D01*
X175941550Y-127443000D01*
X176592450Y-127443000D01*
X176616910Y-127444202D01*
X176616910Y-127444202D01*
G37*
D11*
X176267000Y-128143000D03*
D10*
G36*
X178666505Y-127444204D02*
G01*
X178690773Y-127447804D01*
X178714572Y-127453765D01*
X178737671Y-127462030D01*
X178759850Y-127472520D01*
X178780893Y-127485132D01*
X178800599Y-127499747D01*
X178818777Y-127516223D01*
X178835253Y-127534401D01*
X178849868Y-127554107D01*
X178862480Y-127575150D01*
X178872970Y-127597329D01*
X178881235Y-127620428D01*
X178887196Y-127644227D01*
X178890796Y-127668495D01*
X178892000Y-127692999D01*
X178892000Y-128593001D01*
X178890796Y-128617505D01*
X178887196Y-128641773D01*
X178881235Y-128665572D01*
X178872970Y-128688671D01*
X178862480Y-128710850D01*
X178849868Y-128731893D01*
X178835253Y-128751599D01*
X178818777Y-128769777D01*
X178800599Y-128786253D01*
X178780893Y-128800868D01*
X178759850Y-128813480D01*
X178737671Y-128823970D01*
X178714572Y-128832235D01*
X178690773Y-128838196D01*
X178666505Y-128841796D01*
X178642001Y-128843000D01*
X177991999Y-128843000D01*
X177967495Y-128841796D01*
X177943227Y-128838196D01*
X177919428Y-128832235D01*
X177896329Y-128823970D01*
X177874150Y-128813480D01*
X177853107Y-128800868D01*
X177833401Y-128786253D01*
X177815223Y-128769777D01*
X177798747Y-128751599D01*
X177784132Y-128731893D01*
X177771520Y-128710850D01*
X177761030Y-128688671D01*
X177752765Y-128665572D01*
X177746804Y-128641773D01*
X177743204Y-128617505D01*
X177742000Y-128593001D01*
X177742000Y-127692999D01*
X177743204Y-127668495D01*
X177746804Y-127644227D01*
X177752765Y-127620428D01*
X177761030Y-127597329D01*
X177771520Y-127575150D01*
X177784132Y-127554107D01*
X177798747Y-127534401D01*
X177815223Y-127516223D01*
X177833401Y-127499747D01*
X177853107Y-127485132D01*
X177874150Y-127472520D01*
X177896329Y-127462030D01*
X177919428Y-127453765D01*
X177943227Y-127447804D01*
X177967495Y-127444204D01*
X177991999Y-127443000D01*
X178642001Y-127443000D01*
X178666505Y-127444204D01*
X178666505Y-127444204D01*
G37*
D11*
X178317000Y-128143000D03*
D15*
X183237200Y-286575200D03*
X184507200Y-286575200D03*
X187047200Y-286575200D03*
X188317200Y-286575200D03*
X189587200Y-286575200D03*
X190857200Y-286575200D03*
X192127200Y-286575200D03*
X193397200Y-286575200D03*
X194667200Y-286575200D03*
X195937200Y-286575200D03*
X197207200Y-286575200D03*
X198477200Y-286575200D03*
X199747200Y-286575200D03*
X201017200Y-286575200D03*
X202287200Y-286575200D03*
X203557200Y-286575200D03*
D16*
X205307200Y-284810200D03*
X205307200Y-283540200D03*
X205307200Y-282270200D03*
X205307200Y-281000200D03*
X205307200Y-279730200D03*
X205307200Y-278460200D03*
X205307200Y-277190200D03*
X205307200Y-275920200D03*
X205307200Y-274650200D03*
X205307200Y-273380200D03*
X205307200Y-272110200D03*
X205307200Y-270840200D03*
D15*
X203557200Y-269075200D03*
X202287200Y-269075200D03*
X201017200Y-269075200D03*
X199747200Y-269075200D03*
X198477200Y-269075200D03*
X197207200Y-269075200D03*
X195937200Y-269075200D03*
X194667200Y-269075200D03*
X193397200Y-269075200D03*
X192127200Y-269075200D03*
X190857200Y-269075200D03*
X189587200Y-269075200D03*
X188317200Y-269075200D03*
X187047200Y-269075200D03*
X184507200Y-269075200D03*
X183237200Y-269075200D03*
D17*
X222402400Y-287799800D03*
X222402400Y-286849800D03*
D18*
X221452400Y-286324800D03*
X221452400Y-286824800D03*
X221452400Y-287324800D03*
X221452400Y-287824800D03*
X221452400Y-288324800D03*
X223352400Y-288324800D03*
X223352400Y-287824800D03*
X223352400Y-287324800D03*
X223352400Y-286824800D03*
X223352400Y-286324800D03*
D10*
G36*
X223776905Y-278752004D02*
G01*
X223801173Y-278755604D01*
X223824972Y-278761565D01*
X223848071Y-278769830D01*
X223870250Y-278780320D01*
X223891293Y-278792932D01*
X223910999Y-278807547D01*
X223929177Y-278824023D01*
X223945653Y-278842201D01*
X223960268Y-278861907D01*
X223972880Y-278882950D01*
X223983370Y-278905129D01*
X223991635Y-278928228D01*
X223997596Y-278952027D01*
X224001196Y-278976295D01*
X224002400Y-279000799D01*
X224002400Y-279900801D01*
X224001196Y-279925305D01*
X223997596Y-279949573D01*
X223991635Y-279973372D01*
X223983370Y-279996471D01*
X223972880Y-280018650D01*
X223960268Y-280039693D01*
X223945653Y-280059399D01*
X223929177Y-280077577D01*
X223910999Y-280094053D01*
X223891293Y-280108668D01*
X223870250Y-280121280D01*
X223848071Y-280131770D01*
X223824972Y-280140035D01*
X223801173Y-280145996D01*
X223776905Y-280149596D01*
X223752401Y-280150800D01*
X223102399Y-280150800D01*
X223077895Y-280149596D01*
X223053627Y-280145996D01*
X223029828Y-280140035D01*
X223006729Y-280131770D01*
X222984550Y-280121280D01*
X222963507Y-280108668D01*
X222943801Y-280094053D01*
X222925623Y-280077577D01*
X222909147Y-280059399D01*
X222894532Y-280039693D01*
X222881920Y-280018650D01*
X222871430Y-279996471D01*
X222863165Y-279973372D01*
X222857204Y-279949573D01*
X222853604Y-279925305D01*
X222852400Y-279900801D01*
X222852400Y-279000799D01*
X222853604Y-278976295D01*
X222857204Y-278952027D01*
X222863165Y-278928228D01*
X222871430Y-278905129D01*
X222881920Y-278882950D01*
X222894532Y-278861907D01*
X222909147Y-278842201D01*
X222925623Y-278824023D01*
X222943801Y-278807547D01*
X222963507Y-278792932D01*
X222984550Y-278780320D01*
X223006729Y-278769830D01*
X223029828Y-278761565D01*
X223053627Y-278755604D01*
X223077895Y-278752004D01*
X223102399Y-278750800D01*
X223752401Y-278750800D01*
X223776905Y-278752004D01*
X223776905Y-278752004D01*
G37*
D11*
X223427400Y-279450800D03*
D10*
G36*
X221726905Y-278752004D02*
G01*
X221751173Y-278755604D01*
X221774972Y-278761565D01*
X221798071Y-278769830D01*
X221820250Y-278780320D01*
X221841293Y-278792932D01*
X221860999Y-278807547D01*
X221879177Y-278824023D01*
X221895653Y-278842201D01*
X221910268Y-278861907D01*
X221922880Y-278882950D01*
X221933370Y-278905129D01*
X221941635Y-278928228D01*
X221947596Y-278952027D01*
X221951196Y-278976295D01*
X221952400Y-279000799D01*
X221952400Y-279900801D01*
X221951196Y-279925305D01*
X221947596Y-279949573D01*
X221941635Y-279973372D01*
X221933370Y-279996471D01*
X221922880Y-280018650D01*
X221910268Y-280039693D01*
X221895653Y-280059399D01*
X221879177Y-280077577D01*
X221860999Y-280094053D01*
X221841293Y-280108668D01*
X221820250Y-280121280D01*
X221798071Y-280131770D01*
X221774972Y-280140035D01*
X221751173Y-280145996D01*
X221726905Y-280149596D01*
X221702401Y-280150800D01*
X221052399Y-280150800D01*
X221027895Y-280149596D01*
X221003627Y-280145996D01*
X220979828Y-280140035D01*
X220956729Y-280131770D01*
X220934550Y-280121280D01*
X220913507Y-280108668D01*
X220893801Y-280094053D01*
X220875623Y-280077577D01*
X220859147Y-280059399D01*
X220844532Y-280039693D01*
X220831920Y-280018650D01*
X220821430Y-279996471D01*
X220813165Y-279973372D01*
X220807204Y-279949573D01*
X220803604Y-279925305D01*
X220802400Y-279900801D01*
X220802400Y-279000799D01*
X220803604Y-278976295D01*
X220807204Y-278952027D01*
X220813165Y-278928228D01*
X220821430Y-278905129D01*
X220831920Y-278882950D01*
X220844532Y-278861907D01*
X220859147Y-278842201D01*
X220875623Y-278824023D01*
X220893801Y-278807547D01*
X220913507Y-278792932D01*
X220934550Y-278780320D01*
X220956729Y-278769830D01*
X220979828Y-278761565D01*
X221003627Y-278755604D01*
X221027895Y-278752004D01*
X221052399Y-278750800D01*
X221702401Y-278750800D01*
X221726905Y-278752004D01*
X221726905Y-278752004D01*
G37*
D11*
X221377400Y-279450800D03*
D10*
G36*
X223777310Y-283324002D02*
G01*
X223801535Y-283327595D01*
X223825291Y-283333546D01*
X223848349Y-283341796D01*
X223870487Y-283352267D01*
X223891493Y-283364857D01*
X223911163Y-283379445D01*
X223929308Y-283395892D01*
X223945755Y-283414037D01*
X223960343Y-283433707D01*
X223972933Y-283454713D01*
X223983404Y-283476851D01*
X223991654Y-283499909D01*
X223997605Y-283523665D01*
X224001198Y-283547890D01*
X224002400Y-283572350D01*
X224002400Y-284473250D01*
X224001198Y-284497710D01*
X223997605Y-284521935D01*
X223991654Y-284545691D01*
X223983404Y-284568749D01*
X223972933Y-284590887D01*
X223960343Y-284611893D01*
X223945755Y-284631563D01*
X223929308Y-284649708D01*
X223911163Y-284666155D01*
X223891493Y-284680743D01*
X223870487Y-284693333D01*
X223848349Y-284703804D01*
X223825291Y-284712054D01*
X223801535Y-284718005D01*
X223777310Y-284721598D01*
X223752850Y-284722800D01*
X223101950Y-284722800D01*
X223077490Y-284721598D01*
X223053265Y-284718005D01*
X223029509Y-284712054D01*
X223006451Y-284703804D01*
X222984313Y-284693333D01*
X222963307Y-284680743D01*
X222943637Y-284666155D01*
X222925492Y-284649708D01*
X222909045Y-284631563D01*
X222894457Y-284611893D01*
X222881867Y-284590887D01*
X222871396Y-284568749D01*
X222863146Y-284545691D01*
X222857195Y-284521935D01*
X222853602Y-284497710D01*
X222852400Y-284473250D01*
X222852400Y-283572350D01*
X222853602Y-283547890D01*
X222857195Y-283523665D01*
X222863146Y-283499909D01*
X222871396Y-283476851D01*
X222881867Y-283454713D01*
X222894457Y-283433707D01*
X222909045Y-283414037D01*
X222925492Y-283395892D01*
X222943637Y-283379445D01*
X222963307Y-283364857D01*
X222984313Y-283352267D01*
X223006451Y-283341796D01*
X223029509Y-283333546D01*
X223053265Y-283327595D01*
X223077490Y-283324002D01*
X223101950Y-283322800D01*
X223752850Y-283322800D01*
X223777310Y-283324002D01*
X223777310Y-283324002D01*
G37*
D11*
X223427400Y-284022800D03*
D10*
G36*
X221726905Y-283324004D02*
G01*
X221751173Y-283327604D01*
X221774972Y-283333565D01*
X221798071Y-283341830D01*
X221820250Y-283352320D01*
X221841293Y-283364932D01*
X221860999Y-283379547D01*
X221879177Y-283396023D01*
X221895653Y-283414201D01*
X221910268Y-283433907D01*
X221922880Y-283454950D01*
X221933370Y-283477129D01*
X221941635Y-283500228D01*
X221947596Y-283524027D01*
X221951196Y-283548295D01*
X221952400Y-283572799D01*
X221952400Y-284472801D01*
X221951196Y-284497305D01*
X221947596Y-284521573D01*
X221941635Y-284545372D01*
X221933370Y-284568471D01*
X221922880Y-284590650D01*
X221910268Y-284611693D01*
X221895653Y-284631399D01*
X221879177Y-284649577D01*
X221860999Y-284666053D01*
X221841293Y-284680668D01*
X221820250Y-284693280D01*
X221798071Y-284703770D01*
X221774972Y-284712035D01*
X221751173Y-284717996D01*
X221726905Y-284721596D01*
X221702401Y-284722800D01*
X221052399Y-284722800D01*
X221027895Y-284721596D01*
X221003627Y-284717996D01*
X220979828Y-284712035D01*
X220956729Y-284703770D01*
X220934550Y-284693280D01*
X220913507Y-284680668D01*
X220893801Y-284666053D01*
X220875623Y-284649577D01*
X220859147Y-284631399D01*
X220844532Y-284611693D01*
X220831920Y-284590650D01*
X220821430Y-284568471D01*
X220813165Y-284545372D01*
X220807204Y-284521573D01*
X220803604Y-284497305D01*
X220802400Y-284472801D01*
X220802400Y-283572799D01*
X220803604Y-283548295D01*
X220807204Y-283524027D01*
X220813165Y-283500228D01*
X220821430Y-283477129D01*
X220831920Y-283454950D01*
X220844532Y-283433907D01*
X220859147Y-283414201D01*
X220875623Y-283396023D01*
X220893801Y-283379547D01*
X220913507Y-283364932D01*
X220934550Y-283352320D01*
X220956729Y-283341830D01*
X220979828Y-283333565D01*
X221003627Y-283327604D01*
X221027895Y-283324004D01*
X221052399Y-283322800D01*
X221702401Y-283322800D01*
X221726905Y-283324004D01*
X221726905Y-283324004D01*
G37*
D11*
X221377400Y-284022800D03*
D10*
G36*
X195292505Y-130862204D02*
G01*
X195316773Y-130865804D01*
X195340572Y-130871765D01*
X195363671Y-130880030D01*
X195385850Y-130890520D01*
X195406893Y-130903132D01*
X195426599Y-130917747D01*
X195444777Y-130934223D01*
X195461253Y-130952401D01*
X195475868Y-130972107D01*
X195488480Y-130993150D01*
X195498970Y-131015329D01*
X195507235Y-131038428D01*
X195513196Y-131062227D01*
X195516796Y-131086495D01*
X195518000Y-131110999D01*
X195518000Y-131761001D01*
X195516796Y-131785505D01*
X195513196Y-131809773D01*
X195507235Y-131833572D01*
X195498970Y-131856671D01*
X195488480Y-131878850D01*
X195475868Y-131899893D01*
X195461253Y-131919599D01*
X195444777Y-131937777D01*
X195426599Y-131954253D01*
X195406893Y-131968868D01*
X195385850Y-131981480D01*
X195363671Y-131991970D01*
X195340572Y-132000235D01*
X195316773Y-132006196D01*
X195292505Y-132009796D01*
X195268001Y-132011000D01*
X194367999Y-132011000D01*
X194343495Y-132009796D01*
X194319227Y-132006196D01*
X194295428Y-132000235D01*
X194272329Y-131991970D01*
X194250150Y-131981480D01*
X194229107Y-131968868D01*
X194209401Y-131954253D01*
X194191223Y-131937777D01*
X194174747Y-131919599D01*
X194160132Y-131899893D01*
X194147520Y-131878850D01*
X194137030Y-131856671D01*
X194128765Y-131833572D01*
X194122804Y-131809773D01*
X194119204Y-131785505D01*
X194118000Y-131761001D01*
X194118000Y-131110999D01*
X194119204Y-131086495D01*
X194122804Y-131062227D01*
X194128765Y-131038428D01*
X194137030Y-131015329D01*
X194147520Y-130993150D01*
X194160132Y-130972107D01*
X194174747Y-130952401D01*
X194191223Y-130934223D01*
X194209401Y-130917747D01*
X194229107Y-130903132D01*
X194250150Y-130890520D01*
X194272329Y-130880030D01*
X194295428Y-130871765D01*
X194319227Y-130865804D01*
X194343495Y-130862204D01*
X194367999Y-130861000D01*
X195268001Y-130861000D01*
X195292505Y-130862204D01*
X195292505Y-130862204D01*
G37*
D11*
X194818000Y-131436000D03*
D10*
G36*
X195292505Y-132912204D02*
G01*
X195316773Y-132915804D01*
X195340572Y-132921765D01*
X195363671Y-132930030D01*
X195385850Y-132940520D01*
X195406893Y-132953132D01*
X195426599Y-132967747D01*
X195444777Y-132984223D01*
X195461253Y-133002401D01*
X195475868Y-133022107D01*
X195488480Y-133043150D01*
X195498970Y-133065329D01*
X195507235Y-133088428D01*
X195513196Y-133112227D01*
X195516796Y-133136495D01*
X195518000Y-133160999D01*
X195518000Y-133811001D01*
X195516796Y-133835505D01*
X195513196Y-133859773D01*
X195507235Y-133883572D01*
X195498970Y-133906671D01*
X195488480Y-133928850D01*
X195475868Y-133949893D01*
X195461253Y-133969599D01*
X195444777Y-133987777D01*
X195426599Y-134004253D01*
X195406893Y-134018868D01*
X195385850Y-134031480D01*
X195363671Y-134041970D01*
X195340572Y-134050235D01*
X195316773Y-134056196D01*
X195292505Y-134059796D01*
X195268001Y-134061000D01*
X194367999Y-134061000D01*
X194343495Y-134059796D01*
X194319227Y-134056196D01*
X194295428Y-134050235D01*
X194272329Y-134041970D01*
X194250150Y-134031480D01*
X194229107Y-134018868D01*
X194209401Y-134004253D01*
X194191223Y-133987777D01*
X194174747Y-133969599D01*
X194160132Y-133949893D01*
X194147520Y-133928850D01*
X194137030Y-133906671D01*
X194128765Y-133883572D01*
X194122804Y-133859773D01*
X194119204Y-133835505D01*
X194118000Y-133811001D01*
X194118000Y-133160999D01*
X194119204Y-133136495D01*
X194122804Y-133112227D01*
X194128765Y-133088428D01*
X194137030Y-133065329D01*
X194147520Y-133043150D01*
X194160132Y-133022107D01*
X194174747Y-133002401D01*
X194191223Y-132984223D01*
X194209401Y-132967747D01*
X194229107Y-132953132D01*
X194250150Y-132940520D01*
X194272329Y-132930030D01*
X194295428Y-132921765D01*
X194319227Y-132915804D01*
X194343495Y-132912204D01*
X194367999Y-132911000D01*
X195268001Y-132911000D01*
X195292505Y-132912204D01*
X195292505Y-132912204D01*
G37*
D11*
X194818000Y-133486000D03*
D10*
G36*
X178782505Y-130989204D02*
G01*
X178806773Y-130992804D01*
X178830572Y-130998765D01*
X178853671Y-131007030D01*
X178875850Y-131017520D01*
X178896893Y-131030132D01*
X178916599Y-131044747D01*
X178934777Y-131061223D01*
X178951253Y-131079401D01*
X178965868Y-131099107D01*
X178978480Y-131120150D01*
X178988970Y-131142329D01*
X178997235Y-131165428D01*
X179003196Y-131189227D01*
X179006796Y-131213495D01*
X179008000Y-131237999D01*
X179008000Y-131888001D01*
X179006796Y-131912505D01*
X179003196Y-131936773D01*
X178997235Y-131960572D01*
X178988970Y-131983671D01*
X178978480Y-132005850D01*
X178965868Y-132026893D01*
X178951253Y-132046599D01*
X178934777Y-132064777D01*
X178916599Y-132081253D01*
X178896893Y-132095868D01*
X178875850Y-132108480D01*
X178853671Y-132118970D01*
X178830572Y-132127235D01*
X178806773Y-132133196D01*
X178782505Y-132136796D01*
X178758001Y-132138000D01*
X177857999Y-132138000D01*
X177833495Y-132136796D01*
X177809227Y-132133196D01*
X177785428Y-132127235D01*
X177762329Y-132118970D01*
X177740150Y-132108480D01*
X177719107Y-132095868D01*
X177699401Y-132081253D01*
X177681223Y-132064777D01*
X177664747Y-132046599D01*
X177650132Y-132026893D01*
X177637520Y-132005850D01*
X177627030Y-131983671D01*
X177618765Y-131960572D01*
X177612804Y-131936773D01*
X177609204Y-131912505D01*
X177608000Y-131888001D01*
X177608000Y-131237999D01*
X177609204Y-131213495D01*
X177612804Y-131189227D01*
X177618765Y-131165428D01*
X177627030Y-131142329D01*
X177637520Y-131120150D01*
X177650132Y-131099107D01*
X177664747Y-131079401D01*
X177681223Y-131061223D01*
X177699401Y-131044747D01*
X177719107Y-131030132D01*
X177740150Y-131017520D01*
X177762329Y-131007030D01*
X177785428Y-130998765D01*
X177809227Y-130992804D01*
X177833495Y-130989204D01*
X177857999Y-130988000D01*
X178758001Y-130988000D01*
X178782505Y-130989204D01*
X178782505Y-130989204D01*
G37*
D11*
X178308000Y-131563000D03*
D10*
G36*
X178782505Y-133039204D02*
G01*
X178806773Y-133042804D01*
X178830572Y-133048765D01*
X178853671Y-133057030D01*
X178875850Y-133067520D01*
X178896893Y-133080132D01*
X178916599Y-133094747D01*
X178934777Y-133111223D01*
X178951253Y-133129401D01*
X178965868Y-133149107D01*
X178978480Y-133170150D01*
X178988970Y-133192329D01*
X178997235Y-133215428D01*
X179003196Y-133239227D01*
X179006796Y-133263495D01*
X179008000Y-133287999D01*
X179008000Y-133938001D01*
X179006796Y-133962505D01*
X179003196Y-133986773D01*
X178997235Y-134010572D01*
X178988970Y-134033671D01*
X178978480Y-134055850D01*
X178965868Y-134076893D01*
X178951253Y-134096599D01*
X178934777Y-134114777D01*
X178916599Y-134131253D01*
X178896893Y-134145868D01*
X178875850Y-134158480D01*
X178853671Y-134168970D01*
X178830572Y-134177235D01*
X178806773Y-134183196D01*
X178782505Y-134186796D01*
X178758001Y-134188000D01*
X177857999Y-134188000D01*
X177833495Y-134186796D01*
X177809227Y-134183196D01*
X177785428Y-134177235D01*
X177762329Y-134168970D01*
X177740150Y-134158480D01*
X177719107Y-134145868D01*
X177699401Y-134131253D01*
X177681223Y-134114777D01*
X177664747Y-134096599D01*
X177650132Y-134076893D01*
X177637520Y-134055850D01*
X177627030Y-134033671D01*
X177618765Y-134010572D01*
X177612804Y-133986773D01*
X177609204Y-133962505D01*
X177608000Y-133938001D01*
X177608000Y-133287999D01*
X177609204Y-133263495D01*
X177612804Y-133239227D01*
X177618765Y-133215428D01*
X177627030Y-133192329D01*
X177637520Y-133170150D01*
X177650132Y-133149107D01*
X177664747Y-133129401D01*
X177681223Y-133111223D01*
X177699401Y-133094747D01*
X177719107Y-133080132D01*
X177740150Y-133067520D01*
X177762329Y-133057030D01*
X177785428Y-133048765D01*
X177809227Y-133042804D01*
X177833495Y-133039204D01*
X177857999Y-133038000D01*
X178758001Y-133038000D01*
X178782505Y-133039204D01*
X178782505Y-133039204D01*
G37*
D11*
X178308000Y-133613000D03*
D10*
G36*
X181957505Y-133039204D02*
G01*
X181981773Y-133042804D01*
X182005572Y-133048765D01*
X182028671Y-133057030D01*
X182050850Y-133067520D01*
X182071893Y-133080132D01*
X182091599Y-133094747D01*
X182109777Y-133111223D01*
X182126253Y-133129401D01*
X182140868Y-133149107D01*
X182153480Y-133170150D01*
X182163970Y-133192329D01*
X182172235Y-133215428D01*
X182178196Y-133239227D01*
X182181796Y-133263495D01*
X182183000Y-133287999D01*
X182183000Y-133938001D01*
X182181796Y-133962505D01*
X182178196Y-133986773D01*
X182172235Y-134010572D01*
X182163970Y-134033671D01*
X182153480Y-134055850D01*
X182140868Y-134076893D01*
X182126253Y-134096599D01*
X182109777Y-134114777D01*
X182091599Y-134131253D01*
X182071893Y-134145868D01*
X182050850Y-134158480D01*
X182028671Y-134168970D01*
X182005572Y-134177235D01*
X181981773Y-134183196D01*
X181957505Y-134186796D01*
X181933001Y-134188000D01*
X181032999Y-134188000D01*
X181008495Y-134186796D01*
X180984227Y-134183196D01*
X180960428Y-134177235D01*
X180937329Y-134168970D01*
X180915150Y-134158480D01*
X180894107Y-134145868D01*
X180874401Y-134131253D01*
X180856223Y-134114777D01*
X180839747Y-134096599D01*
X180825132Y-134076893D01*
X180812520Y-134055850D01*
X180802030Y-134033671D01*
X180793765Y-134010572D01*
X180787804Y-133986773D01*
X180784204Y-133962505D01*
X180783000Y-133938001D01*
X180783000Y-133287999D01*
X180784204Y-133263495D01*
X180787804Y-133239227D01*
X180793765Y-133215428D01*
X180802030Y-133192329D01*
X180812520Y-133170150D01*
X180825132Y-133149107D01*
X180839747Y-133129401D01*
X180856223Y-133111223D01*
X180874401Y-133094747D01*
X180894107Y-133080132D01*
X180915150Y-133067520D01*
X180937329Y-133057030D01*
X180960428Y-133048765D01*
X180984227Y-133042804D01*
X181008495Y-133039204D01*
X181032999Y-133038000D01*
X181933001Y-133038000D01*
X181957505Y-133039204D01*
X181957505Y-133039204D01*
G37*
D11*
X181483000Y-133613000D03*
D10*
G36*
X181957505Y-130989204D02*
G01*
X181981773Y-130992804D01*
X182005572Y-130998765D01*
X182028671Y-131007030D01*
X182050850Y-131017520D01*
X182071893Y-131030132D01*
X182091599Y-131044747D01*
X182109777Y-131061223D01*
X182126253Y-131079401D01*
X182140868Y-131099107D01*
X182153480Y-131120150D01*
X182163970Y-131142329D01*
X182172235Y-131165428D01*
X182178196Y-131189227D01*
X182181796Y-131213495D01*
X182183000Y-131237999D01*
X182183000Y-131888001D01*
X182181796Y-131912505D01*
X182178196Y-131936773D01*
X182172235Y-131960572D01*
X182163970Y-131983671D01*
X182153480Y-132005850D01*
X182140868Y-132026893D01*
X182126253Y-132046599D01*
X182109777Y-132064777D01*
X182091599Y-132081253D01*
X182071893Y-132095868D01*
X182050850Y-132108480D01*
X182028671Y-132118970D01*
X182005572Y-132127235D01*
X181981773Y-132133196D01*
X181957505Y-132136796D01*
X181933001Y-132138000D01*
X181032999Y-132138000D01*
X181008495Y-132136796D01*
X180984227Y-132133196D01*
X180960428Y-132127235D01*
X180937329Y-132118970D01*
X180915150Y-132108480D01*
X180894107Y-132095868D01*
X180874401Y-132081253D01*
X180856223Y-132064777D01*
X180839747Y-132046599D01*
X180825132Y-132026893D01*
X180812520Y-132005850D01*
X180802030Y-131983671D01*
X180793765Y-131960572D01*
X180787804Y-131936773D01*
X180784204Y-131912505D01*
X180783000Y-131888001D01*
X180783000Y-131237999D01*
X180784204Y-131213495D01*
X180787804Y-131189227D01*
X180793765Y-131165428D01*
X180802030Y-131142329D01*
X180812520Y-131120150D01*
X180825132Y-131099107D01*
X180839747Y-131079401D01*
X180856223Y-131061223D01*
X180874401Y-131044747D01*
X180894107Y-131030132D01*
X180915150Y-131017520D01*
X180937329Y-131007030D01*
X180960428Y-130998765D01*
X180984227Y-130992804D01*
X181008495Y-130989204D01*
X181032999Y-130988000D01*
X181933001Y-130988000D01*
X181957505Y-130989204D01*
X181957505Y-130989204D01*
G37*
D11*
X181483000Y-131563000D03*
D10*
G36*
X242444705Y-280274004D02*
G01*
X242468973Y-280277604D01*
X242492772Y-280283565D01*
X242515871Y-280291830D01*
X242538050Y-280302320D01*
X242559093Y-280314932D01*
X242578799Y-280329547D01*
X242596977Y-280346023D01*
X242613453Y-280364201D01*
X242628068Y-280383907D01*
X242640680Y-280404950D01*
X242651170Y-280427129D01*
X242659435Y-280450228D01*
X242665396Y-280474027D01*
X242668996Y-280498295D01*
X242670200Y-280522799D01*
X242670200Y-281547801D01*
X242668996Y-281572305D01*
X242665396Y-281596573D01*
X242659435Y-281620372D01*
X242651170Y-281643471D01*
X242640680Y-281665650D01*
X242628068Y-281686693D01*
X242613453Y-281706399D01*
X242596977Y-281724577D01*
X242578799Y-281741053D01*
X242559093Y-281755668D01*
X242538050Y-281768280D01*
X242515871Y-281778770D01*
X242492772Y-281787035D01*
X242468973Y-281792996D01*
X242444705Y-281796596D01*
X242420201Y-281797800D01*
X239570199Y-281797800D01*
X239545695Y-281796596D01*
X239521427Y-281792996D01*
X239497628Y-281787035D01*
X239474529Y-281778770D01*
X239452350Y-281768280D01*
X239431307Y-281755668D01*
X239411601Y-281741053D01*
X239393423Y-281724577D01*
X239376947Y-281706399D01*
X239362332Y-281686693D01*
X239349720Y-281665650D01*
X239339230Y-281643471D01*
X239330965Y-281620372D01*
X239325004Y-281596573D01*
X239321404Y-281572305D01*
X239320200Y-281547801D01*
X239320200Y-280522799D01*
X239321404Y-280498295D01*
X239325004Y-280474027D01*
X239330965Y-280450228D01*
X239339230Y-280427129D01*
X239349720Y-280404950D01*
X239362332Y-280383907D01*
X239376947Y-280364201D01*
X239393423Y-280346023D01*
X239411601Y-280329547D01*
X239431307Y-280314932D01*
X239452350Y-280302320D01*
X239474529Y-280291830D01*
X239497628Y-280283565D01*
X239521427Y-280277604D01*
X239545695Y-280274004D01*
X239570199Y-280272800D01*
X242420201Y-280272800D01*
X242444705Y-280274004D01*
X242444705Y-280274004D01*
G37*
D19*
X240995200Y-281035300D03*
D10*
G36*
X242444705Y-286249004D02*
G01*
X242468973Y-286252604D01*
X242492772Y-286258565D01*
X242515871Y-286266830D01*
X242538050Y-286277320D01*
X242559093Y-286289932D01*
X242578799Y-286304547D01*
X242596977Y-286321023D01*
X242613453Y-286339201D01*
X242628068Y-286358907D01*
X242640680Y-286379950D01*
X242651170Y-286402129D01*
X242659435Y-286425228D01*
X242665396Y-286449027D01*
X242668996Y-286473295D01*
X242670200Y-286497799D01*
X242670200Y-287522801D01*
X242668996Y-287547305D01*
X242665396Y-287571573D01*
X242659435Y-287595372D01*
X242651170Y-287618471D01*
X242640680Y-287640650D01*
X242628068Y-287661693D01*
X242613453Y-287681399D01*
X242596977Y-287699577D01*
X242578799Y-287716053D01*
X242559093Y-287730668D01*
X242538050Y-287743280D01*
X242515871Y-287753770D01*
X242492772Y-287762035D01*
X242468973Y-287767996D01*
X242444705Y-287771596D01*
X242420201Y-287772800D01*
X239570199Y-287772800D01*
X239545695Y-287771596D01*
X239521427Y-287767996D01*
X239497628Y-287762035D01*
X239474529Y-287753770D01*
X239452350Y-287743280D01*
X239431307Y-287730668D01*
X239411601Y-287716053D01*
X239393423Y-287699577D01*
X239376947Y-287681399D01*
X239362332Y-287661693D01*
X239349720Y-287640650D01*
X239339230Y-287618471D01*
X239330965Y-287595372D01*
X239325004Y-287571573D01*
X239321404Y-287547305D01*
X239320200Y-287522801D01*
X239320200Y-286497799D01*
X239321404Y-286473295D01*
X239325004Y-286449027D01*
X239330965Y-286425228D01*
X239339230Y-286402129D01*
X239349720Y-286379950D01*
X239362332Y-286358907D01*
X239376947Y-286339201D01*
X239393423Y-286321023D01*
X239411601Y-286304547D01*
X239431307Y-286289932D01*
X239452350Y-286277320D01*
X239474529Y-286266830D01*
X239497628Y-286258565D01*
X239521427Y-286252604D01*
X239545695Y-286249004D01*
X239570199Y-286247800D01*
X242420201Y-286247800D01*
X242444705Y-286249004D01*
X242444705Y-286249004D01*
G37*
D19*
X240995200Y-287010300D03*
D10*
G36*
X221592505Y-290639204D02*
G01*
X221616773Y-290642804D01*
X221640572Y-290648765D01*
X221663671Y-290657030D01*
X221685850Y-290667520D01*
X221706893Y-290680132D01*
X221726599Y-290694747D01*
X221744777Y-290711223D01*
X221761253Y-290729401D01*
X221775868Y-290749107D01*
X221788480Y-290770150D01*
X221798970Y-290792329D01*
X221807235Y-290815428D01*
X221813196Y-290839227D01*
X221816796Y-290863495D01*
X221818000Y-290887999D01*
X221818000Y-291788001D01*
X221816796Y-291812505D01*
X221813196Y-291836773D01*
X221807235Y-291860572D01*
X221798970Y-291883671D01*
X221788480Y-291905850D01*
X221775868Y-291926893D01*
X221761253Y-291946599D01*
X221744777Y-291964777D01*
X221726599Y-291981253D01*
X221706893Y-291995868D01*
X221685850Y-292008480D01*
X221663671Y-292018970D01*
X221640572Y-292027235D01*
X221616773Y-292033196D01*
X221592505Y-292036796D01*
X221568001Y-292038000D01*
X220917999Y-292038000D01*
X220893495Y-292036796D01*
X220869227Y-292033196D01*
X220845428Y-292027235D01*
X220822329Y-292018970D01*
X220800150Y-292008480D01*
X220779107Y-291995868D01*
X220759401Y-291981253D01*
X220741223Y-291964777D01*
X220724747Y-291946599D01*
X220710132Y-291926893D01*
X220697520Y-291905850D01*
X220687030Y-291883671D01*
X220678765Y-291860572D01*
X220672804Y-291836773D01*
X220669204Y-291812505D01*
X220668000Y-291788001D01*
X220668000Y-290887999D01*
X220669204Y-290863495D01*
X220672804Y-290839227D01*
X220678765Y-290815428D01*
X220687030Y-290792329D01*
X220697520Y-290770150D01*
X220710132Y-290749107D01*
X220724747Y-290729401D01*
X220741223Y-290711223D01*
X220759401Y-290694747D01*
X220779107Y-290680132D01*
X220800150Y-290667520D01*
X220822329Y-290657030D01*
X220845428Y-290648765D01*
X220869227Y-290642804D01*
X220893495Y-290639204D01*
X220917999Y-290638000D01*
X221568001Y-290638000D01*
X221592505Y-290639204D01*
X221592505Y-290639204D01*
G37*
D11*
X221243000Y-291338000D03*
D10*
G36*
X219542505Y-290639204D02*
G01*
X219566773Y-290642804D01*
X219590572Y-290648765D01*
X219613671Y-290657030D01*
X219635850Y-290667520D01*
X219656893Y-290680132D01*
X219676599Y-290694747D01*
X219694777Y-290711223D01*
X219711253Y-290729401D01*
X219725868Y-290749107D01*
X219738480Y-290770150D01*
X219748970Y-290792329D01*
X219757235Y-290815428D01*
X219763196Y-290839227D01*
X219766796Y-290863495D01*
X219768000Y-290887999D01*
X219768000Y-291788001D01*
X219766796Y-291812505D01*
X219763196Y-291836773D01*
X219757235Y-291860572D01*
X219748970Y-291883671D01*
X219738480Y-291905850D01*
X219725868Y-291926893D01*
X219711253Y-291946599D01*
X219694777Y-291964777D01*
X219676599Y-291981253D01*
X219656893Y-291995868D01*
X219635850Y-292008480D01*
X219613671Y-292018970D01*
X219590572Y-292027235D01*
X219566773Y-292033196D01*
X219542505Y-292036796D01*
X219518001Y-292038000D01*
X218867999Y-292038000D01*
X218843495Y-292036796D01*
X218819227Y-292033196D01*
X218795428Y-292027235D01*
X218772329Y-292018970D01*
X218750150Y-292008480D01*
X218729107Y-291995868D01*
X218709401Y-291981253D01*
X218691223Y-291964777D01*
X218674747Y-291946599D01*
X218660132Y-291926893D01*
X218647520Y-291905850D01*
X218637030Y-291883671D01*
X218628765Y-291860572D01*
X218622804Y-291836773D01*
X218619204Y-291812505D01*
X218618000Y-291788001D01*
X218618000Y-290887999D01*
X218619204Y-290863495D01*
X218622804Y-290839227D01*
X218628765Y-290815428D01*
X218637030Y-290792329D01*
X218647520Y-290770150D01*
X218660132Y-290749107D01*
X218674747Y-290729401D01*
X218691223Y-290711223D01*
X218709401Y-290694747D01*
X218729107Y-290680132D01*
X218750150Y-290667520D01*
X218772329Y-290657030D01*
X218795428Y-290648765D01*
X218819227Y-290642804D01*
X218843495Y-290639204D01*
X218867999Y-290638000D01*
X219518001Y-290638000D01*
X219542505Y-290639204D01*
X219542505Y-290639204D01*
G37*
D11*
X219193000Y-291338000D03*
D10*
G36*
X228322306Y-290293405D02*
G01*
X228346574Y-290297005D01*
X228370373Y-290302966D01*
X228393472Y-290311231D01*
X228415651Y-290321721D01*
X228436694Y-290334333D01*
X228456400Y-290348948D01*
X228474578Y-290365424D01*
X228491054Y-290383602D01*
X228505669Y-290403308D01*
X228518281Y-290424351D01*
X228528771Y-290446530D01*
X228537036Y-290469629D01*
X228542997Y-290493428D01*
X228546597Y-290517696D01*
X228547801Y-290542200D01*
X228547801Y-291192202D01*
X228546597Y-291216706D01*
X228542997Y-291240974D01*
X228537036Y-291264773D01*
X228528771Y-291287872D01*
X228518281Y-291310051D01*
X228505669Y-291331094D01*
X228491054Y-291350800D01*
X228474578Y-291368978D01*
X228456400Y-291385454D01*
X228436694Y-291400069D01*
X228415651Y-291412681D01*
X228393472Y-291423171D01*
X228370373Y-291431436D01*
X228346574Y-291437397D01*
X228322306Y-291440997D01*
X228297802Y-291442201D01*
X227397800Y-291442201D01*
X227373296Y-291440997D01*
X227349028Y-291437397D01*
X227325229Y-291431436D01*
X227302130Y-291423171D01*
X227279951Y-291412681D01*
X227258908Y-291400069D01*
X227239202Y-291385454D01*
X227221024Y-291368978D01*
X227204548Y-291350800D01*
X227189933Y-291331094D01*
X227177321Y-291310051D01*
X227166831Y-291287872D01*
X227158566Y-291264773D01*
X227152605Y-291240974D01*
X227149005Y-291216706D01*
X227147801Y-291192202D01*
X227147801Y-290542200D01*
X227149005Y-290517696D01*
X227152605Y-290493428D01*
X227158566Y-290469629D01*
X227166831Y-290446530D01*
X227177321Y-290424351D01*
X227189933Y-290403308D01*
X227204548Y-290383602D01*
X227221024Y-290365424D01*
X227239202Y-290348948D01*
X227258908Y-290334333D01*
X227279951Y-290321721D01*
X227302130Y-290311231D01*
X227325229Y-290302966D01*
X227349028Y-290297005D01*
X227373296Y-290293405D01*
X227397800Y-290292201D01*
X228297802Y-290292201D01*
X228322306Y-290293405D01*
X228322306Y-290293405D01*
G37*
D11*
X227847801Y-290867201D03*
D10*
G36*
X228322306Y-292343405D02*
G01*
X228346574Y-292347005D01*
X228370373Y-292352966D01*
X228393472Y-292361231D01*
X228415651Y-292371721D01*
X228436694Y-292384333D01*
X228456400Y-292398948D01*
X228474578Y-292415424D01*
X228491054Y-292433602D01*
X228505669Y-292453308D01*
X228518281Y-292474351D01*
X228528771Y-292496530D01*
X228537036Y-292519629D01*
X228542997Y-292543428D01*
X228546597Y-292567696D01*
X228547801Y-292592200D01*
X228547801Y-293242202D01*
X228546597Y-293266706D01*
X228542997Y-293290974D01*
X228537036Y-293314773D01*
X228528771Y-293337872D01*
X228518281Y-293360051D01*
X228505669Y-293381094D01*
X228491054Y-293400800D01*
X228474578Y-293418978D01*
X228456400Y-293435454D01*
X228436694Y-293450069D01*
X228415651Y-293462681D01*
X228393472Y-293473171D01*
X228370373Y-293481436D01*
X228346574Y-293487397D01*
X228322306Y-293490997D01*
X228297802Y-293492201D01*
X227397800Y-293492201D01*
X227373296Y-293490997D01*
X227349028Y-293487397D01*
X227325229Y-293481436D01*
X227302130Y-293473171D01*
X227279951Y-293462681D01*
X227258908Y-293450069D01*
X227239202Y-293435454D01*
X227221024Y-293418978D01*
X227204548Y-293400800D01*
X227189933Y-293381094D01*
X227177321Y-293360051D01*
X227166831Y-293337872D01*
X227158566Y-293314773D01*
X227152605Y-293290974D01*
X227149005Y-293266706D01*
X227147801Y-293242202D01*
X227147801Y-292592200D01*
X227149005Y-292567696D01*
X227152605Y-292543428D01*
X227158566Y-292519629D01*
X227166831Y-292496530D01*
X227177321Y-292474351D01*
X227189933Y-292453308D01*
X227204548Y-292433602D01*
X227221024Y-292415424D01*
X227239202Y-292398948D01*
X227258908Y-292384333D01*
X227279951Y-292371721D01*
X227302130Y-292361231D01*
X227325229Y-292352966D01*
X227349028Y-292347005D01*
X227373296Y-292343405D01*
X227397800Y-292342201D01*
X228297802Y-292342201D01*
X228322306Y-292343405D01*
X228322306Y-292343405D01*
G37*
D11*
X227847801Y-292917201D03*
D10*
G36*
X228322306Y-297093405D02*
G01*
X228346574Y-297097005D01*
X228370373Y-297102966D01*
X228393472Y-297111231D01*
X228415651Y-297121721D01*
X228436694Y-297134333D01*
X228456400Y-297148948D01*
X228474578Y-297165424D01*
X228491054Y-297183602D01*
X228505669Y-297203308D01*
X228518281Y-297224351D01*
X228528771Y-297246530D01*
X228537036Y-297269629D01*
X228542997Y-297293428D01*
X228546597Y-297317696D01*
X228547801Y-297342200D01*
X228547801Y-297992202D01*
X228546597Y-298016706D01*
X228542997Y-298040974D01*
X228537036Y-298064773D01*
X228528771Y-298087872D01*
X228518281Y-298110051D01*
X228505669Y-298131094D01*
X228491054Y-298150800D01*
X228474578Y-298168978D01*
X228456400Y-298185454D01*
X228436694Y-298200069D01*
X228415651Y-298212681D01*
X228393472Y-298223171D01*
X228370373Y-298231436D01*
X228346574Y-298237397D01*
X228322306Y-298240997D01*
X228297802Y-298242201D01*
X227397800Y-298242201D01*
X227373296Y-298240997D01*
X227349028Y-298237397D01*
X227325229Y-298231436D01*
X227302130Y-298223171D01*
X227279951Y-298212681D01*
X227258908Y-298200069D01*
X227239202Y-298185454D01*
X227221024Y-298168978D01*
X227204548Y-298150800D01*
X227189933Y-298131094D01*
X227177321Y-298110051D01*
X227166831Y-298087872D01*
X227158566Y-298064773D01*
X227152605Y-298040974D01*
X227149005Y-298016706D01*
X227147801Y-297992202D01*
X227147801Y-297342200D01*
X227149005Y-297317696D01*
X227152605Y-297293428D01*
X227158566Y-297269629D01*
X227166831Y-297246530D01*
X227177321Y-297224351D01*
X227189933Y-297203308D01*
X227204548Y-297183602D01*
X227221024Y-297165424D01*
X227239202Y-297148948D01*
X227258908Y-297134333D01*
X227279951Y-297121721D01*
X227302130Y-297111231D01*
X227325229Y-297102966D01*
X227349028Y-297097005D01*
X227373296Y-297093405D01*
X227397800Y-297092201D01*
X228297802Y-297092201D01*
X228322306Y-297093405D01*
X228322306Y-297093405D01*
G37*
D11*
X227847801Y-297667201D03*
D10*
G36*
X228322306Y-295043405D02*
G01*
X228346574Y-295047005D01*
X228370373Y-295052966D01*
X228393472Y-295061231D01*
X228415651Y-295071721D01*
X228436694Y-295084333D01*
X228456400Y-295098948D01*
X228474578Y-295115424D01*
X228491054Y-295133602D01*
X228505669Y-295153308D01*
X228518281Y-295174351D01*
X228528771Y-295196530D01*
X228537036Y-295219629D01*
X228542997Y-295243428D01*
X228546597Y-295267696D01*
X228547801Y-295292200D01*
X228547801Y-295942202D01*
X228546597Y-295966706D01*
X228542997Y-295990974D01*
X228537036Y-296014773D01*
X228528771Y-296037872D01*
X228518281Y-296060051D01*
X228505669Y-296081094D01*
X228491054Y-296100800D01*
X228474578Y-296118978D01*
X228456400Y-296135454D01*
X228436694Y-296150069D01*
X228415651Y-296162681D01*
X228393472Y-296173171D01*
X228370373Y-296181436D01*
X228346574Y-296187397D01*
X228322306Y-296190997D01*
X228297802Y-296192201D01*
X227397800Y-296192201D01*
X227373296Y-296190997D01*
X227349028Y-296187397D01*
X227325229Y-296181436D01*
X227302130Y-296173171D01*
X227279951Y-296162681D01*
X227258908Y-296150069D01*
X227239202Y-296135454D01*
X227221024Y-296118978D01*
X227204548Y-296100800D01*
X227189933Y-296081094D01*
X227177321Y-296060051D01*
X227166831Y-296037872D01*
X227158566Y-296014773D01*
X227152605Y-295990974D01*
X227149005Y-295966706D01*
X227147801Y-295942202D01*
X227147801Y-295292200D01*
X227149005Y-295267696D01*
X227152605Y-295243428D01*
X227158566Y-295219629D01*
X227166831Y-295196530D01*
X227177321Y-295174351D01*
X227189933Y-295153308D01*
X227204548Y-295133602D01*
X227221024Y-295115424D01*
X227239202Y-295098948D01*
X227258908Y-295084333D01*
X227279951Y-295071721D01*
X227302130Y-295061231D01*
X227325229Y-295052966D01*
X227349028Y-295047005D01*
X227373296Y-295043405D01*
X227397800Y-295042201D01*
X228297802Y-295042201D01*
X228322306Y-295043405D01*
X228322306Y-295043405D01*
G37*
D11*
X227847801Y-295617201D03*
M02*
